<svg width="135" height="32" viewBox="0 0 135 32" fill="none" xmlns="http://www.w3.org/2000/svg">
<path d="M54.9255 23L54.9055 13.72L50.3055 21.4H49.1455L44.5455 13.84V23H42.0655V9H44.2055L49.7655 18.28L55.2255 9H57.3655L57.3855 23H54.9255ZM65.7271 23.14C64.6471 23.14 63.6738 22.9067 62.8071 22.44C61.9404 21.9733 61.2604 21.3267 60.7671 20.5C60.2871 19.66 60.0471 18.7133 60.0471 17.66C60.0471 16.6067 60.2871 15.6667 60.7671 14.84C61.2604 14.0133 61.9404 13.3667 62.8071 12.9C63.6738 12.4333 64.6471 12.2 65.7271 12.2C66.8204 12.2 67.8004 12.4333 68.6671 12.9C69.5338 13.3667 70.2071 14.0133 70.6871 14.84C71.1804 15.6667 71.4271 16.6067 71.4271 17.66C71.4271 18.7133 71.1804 19.66 70.6871 20.5C70.2071 21.3267 69.5338 21.9733 68.6671 22.44C67.8004 22.9067 66.8204 23.14 65.7271 23.14ZM65.7271 21C66.6471 21 67.4071 20.6933 68.0071 20.08C68.6071 19.4667 68.9071 18.66 68.9071 17.66C68.9071 16.66 68.6071 15.8533 68.0071 15.24C67.4071 14.6267 66.6471 14.32 65.7271 14.32C64.8071 14.32 64.0471 14.6267 63.4471 15.24C62.8604 15.8533 62.5671 16.66 62.5671 17.66C62.5671 18.66 62.8604 19.4667 63.4471 20.08C64.0471 20.6933 64.8071 21 65.7271 21ZM83.5248 12.32L78.9448 23H76.3648L71.7848 12.32H74.3848L77.7048 20.24L81.1248 12.32H83.5248ZM94.8343 17.72C94.8343 17.8933 94.821 18.14 94.7943 18.46H86.4143C86.561 19.2467 86.941 19.8733 87.5543 20.34C88.181 20.7933 88.9543 21.02 89.8743 21.02C91.0476 21.02 92.0143 20.6333 92.7743 19.86L94.1143 21.4C93.6343 21.9733 93.0276 22.4067 92.2943 22.7C91.561 22.9933 90.7343 23.14 89.8143 23.14C88.641 23.14 87.6076 22.9067 86.7143 22.44C85.821 21.9733 85.1276 21.3267 84.6343 20.5C84.1543 19.66 83.9143 18.7133 83.9143 17.66C83.9143 16.62 84.1476 15.6867 84.6143 14.86C85.0943 14.02 85.7543 13.3667 86.5943 12.9C87.4343 12.4333 88.381 12.2 89.4343 12.2C90.4743 12.2 91.401 12.4333 92.2143 12.9C93.041 13.3533 93.681 14 94.1343 14.84C94.601 15.6667 94.8343 16.6267 94.8343 17.72ZM89.4343 14.2C88.6343 14.2 87.9543 14.44 87.3943 14.92C86.8476 15.3867 86.5143 16.0133 86.3943 16.8H92.4543C92.3476 16.0267 92.021 15.4 91.4743 14.92C90.9276 14.44 90.2476 14.2 89.4343 14.2ZM107.396 15.72C108.169 15.9733 108.782 16.4 109.236 17C109.689 17.5867 109.916 18.32 109.916 19.2C109.916 20.4133 109.449 21.3533 108.516 22.02C107.582 22.6733 106.222 23 104.436 23H97.4757V9H104.036C105.689 9 106.962 9.32667 107.856 9.98C108.749 10.62 109.196 11.5067 109.196 12.64C109.196 13.3333 109.036 13.9467 108.716 14.48C108.396 15.0133 107.956 15.4267 107.396 15.72ZM100.076 11.04V14.9H103.756C104.662 14.9 105.356 14.74 105.836 14.42C106.329 14.0867 106.576 13.6067 106.576 12.98C106.576 12.34 106.329 11.86 105.836 11.54C105.356 11.2067 104.662 11.04 103.756 11.04H100.076ZM104.276 20.96C106.289 20.96 107.296 20.2867 107.296 18.94C107.296 17.5933 106.289 16.92 104.276 16.92H100.076V20.96H104.276ZM117.251 23.14C116.171 23.14 115.197 22.9067 114.331 22.44C113.464 21.9733 112.784 21.3267 112.291 20.5C111.811 19.66 111.571 18.7133 111.571 17.66C111.571 16.6067 111.811 15.6667 112.291 14.84C112.784 14.0133 113.464 13.3667 114.331 12.9C115.197 12.4333 116.171 12.2 117.251 12.2C118.344 12.2 119.324 12.4333 120.191 12.9C121.057 13.3667 121.731 14.0133 122.211 14.84C122.704 15.6667 122.951 16.6067 122.951 17.66C122.951 18.7133 122.704 19.66 122.211 20.5C121.731 21.3267 121.057 21.9733 120.191 22.44C119.324 22.9067 118.344 23.14 117.251 23.14ZM117.251 21C118.171 21 118.931 20.6933 119.531 20.08C120.131 19.4667 120.431 18.66 120.431 17.66C120.431 16.66 120.131 15.8533 119.531 15.24C118.931 14.6267 118.171 14.32 117.251 14.32C116.331 14.32 115.571 14.6267 114.971 15.24C114.384 15.8533 114.091 16.66 114.091 17.66C114.091 18.66 114.384 19.4667 114.971 20.08C115.571 20.6933 116.331 21 117.251 21ZM131.79 23L129.05 19.3L126.29 23H123.53L127.69 17.58L123.71 12.32H126.49L129.11 15.82L131.73 12.32H134.43L130.43 17.54L134.61 23H131.79Z" fill="white"/>
<rect width="32" height="32" rx="2" fill="#198F86"/>
<rect x="4" y="8" width="24" height="2" rx="1" fill="white"/>
</svg>
