<svg xmlns="http://www.w3.org/2000/svg" width="38" height="61" viewBox="0 0 38 61"><g><g><path fill="#6f6f6f" d="M4 .188h30a4 4 0 0 1 4 4.001v52.022a4 4 0 0 1-4 4H4a4 4 0 0 1-4-4V4.189A4 4 0 0 1 4 .188zM2 4.189v44.018h29a1 1 0 1 1 0 2.001H2v6.003a2 2 0 0 0 2 2h30a2 2 0 0 0 2-2V12.192H7a1 1 0 0 1 0-2h29V4.189a2 2 0 0 0-2-2H4a2 2 0 0 0-2 2z"/></g><g><path fill="#e8be7b" d="M19 52.208a2 2 0 1 1-.001 4.001 2 2 0 0 1 .001-4zm-3-47.02h6a1.001 1.001 0 0 1 0 2.002h-6a1 1 0 0 1 0-2.001zM6.285 20.554l4.073-4.075a.96.96 0 0 1 1.357 1.359l-4.073 4.074a.96.96 0 1 1-1.357-1.358zm0 6.003l10.073-10.078a.96.96 0 0 1 1.357 1.359L7.642 27.914a.96.96 0 0 1-1.357-1.358z"/></g></g></svg>