<svg xmlns="http://www.w3.org/2000/svg" width="60" height="47" viewBox="0 0 60 47"><g><g><path fill="#6f6f6f" d="M56 46.209H4a4 4 0 0 1-4-4.002V7.193a1 1 0 0 1 2 0v35.014c0 1.105.895 2.001 2 2.001h52a2 2 0 0 0 2-2V4.191a2 2 0 0 0-2-2H1A1 1 0 1 1 1 .19h55c2.21 0 4 1.792 4 4.002v38.015a4 4 0 0 1-4 4.002z"/></g><g><path fill="#e8be7b" d="M53.692 6.47a1.003 1.003 0 0 1 0 1.417L30.853 30.735a1.006 1.006 0 0 1-.853.453.998.998 0 0 1-.854-.454L6.308 7.887A1.003 1.003 0 0 1 7.724 6.47L30 28.755 52.275 6.47a1 1 0 0 1 1.417 0z"/></g></g></svg>