<svg xmlns="http://www.w3.org/2000/svg" width="60" height="61" viewBox="0 0 60 61"><g><g><path fill="#e8be7b" d="M30 6.19a4 4 0 1 1-.001 8.001 4 4 0 0 1 0-8zm-2 4.002a2 2 0 1 0 4 0 2 2 0 0 0-4 0zm-.134 43.541a1.017 1.017 0 0 1-1.366.355.955.955 0 0 1-.366-1.326l6-10.081a1.01 1.01 0 0 1 1.002-.476H44a1 1 0 1 1 0 2H33.536z"/></g><g><path fill="#6f6f6f" d="M52 38.202c0 12.156-9.85 22.01-22 22.01-10.067 0-18.554-6.764-21.17-15.997l-7.583 1.963a1 1 0 1 1-.518-1.932l7.645-1.98A22.14 22.14 0 0 1 8 38.203c0-8.339 4.638-15.593 11.474-19.327l.92 1.779C14.202 24.054 10 30.636 10 38.202c0 1.216.108 2.406.316 3.562l38.626-9.997a20.071 20.071 0 0 0-9.337-11.113l.921-1.78a22.077 22.077 0 0 1 10.358 12.39l7.869-2.036a1 1 0 1 1 .518 1.932l-7.844 2.03c.375 1.61.573 3.288.573 5.012zM30 58.21c11.046 0 20-8.958 20-20.008 0-1.55-.177-3.06-.51-4.51L10.767 43.713C13.16 52.083 20.865 58.21 30 58.21zm8.638-42.995L30 32.201l-8.638-16.986A9.947 9.947 0 0 1 20 10.192C20 4.666 24.477.188 30 .188s10 4.479 10 10.004a9.947 9.947 0 0 1-1.362 5.023zM38 10.192a8.002 8.002 0 0 0-8-8.004c-4.418 0-8 3.584-8 8.004 0 1.318.325 2.56.89 3.658h-.015L30 28.198l7.125-14.348h-.015c.565-1.098.89-2.34.89-3.658z"/></g></g></svg>