<svg xmlns="http://www.w3.org/2000/svg" width="701" height="534">
  <defs>
    <linearGradient id="c" x1="508.35" x2="484.01" y1="264.79" y2="302.45" gradientUnits="userSpaceOnUse">
      <stop offset="0" stop-color="#9feab2"/>
      <stop offset="1" stop-color="#6ad4ab"/>
    </linearGradient>
    <linearGradient id="d" x1="488.03" x2="536.18" y1="298.41" y2="258.32" gradientUnits="userSpaceOnUse">
      <stop offset="0" stop-color="#67d690"/>
      <stop offset="1" stop-color="#00a99d"/>
    </linearGradient>
    <linearGradient id="e" x1="480.61" x2="460.34" y1="343.24" y2="222.52" gradientUnits="userSpaceOnUse">
      <stop offset="0" stop-color="#67d690"/>
      <stop offset="1" stop-color="#00a99d"/>
    </linearGradient>
    <linearGradient id="f" x1="482.8" x2="458.46" y1="248.26" y2="285.94" gradientUnits="userSpaceOnUse">
      <stop offset="0" stop-color="#67d690"/>
      <stop offset="1" stop-color="#00a99d"/>
    </linearGradient>
    <linearGradient id="g" x1="471.59" x2="447.25" y1="241.02" y2="278.71" gradientUnits="userSpaceOnUse">
      <stop offset="0" stop-color="#9feab2"/>
      <stop offset="1" stop-color="#6ad4ab"/>
    </linearGradient>
    <linearGradient id="h" x1="474.02" x2="515.29" y1="334.04" y2="235.56" gradientUnits="userSpaceOnUse">
      <stop offset="0" stop-color="#9feab2"/>
      <stop offset="1" stop-color="#6ad4ab"/>
    </linearGradient>
    <linearGradient id="i" x1="485.15" x2="526.43" y1="338.76" y2="240.18" gradientUnits="userSpaceOnUse">
      <stop offset="0" stop-color="#9feab2"/>
      <stop offset="1" stop-color="#6ad4ab"/>
    </linearGradient>
    <linearGradient id="j" x1="488.96" x2="464.61" y1="252.23" y2="289.92" gradientUnits="userSpaceOnUse">
      <stop offset="0" stop-color="#67d690"/>
      <stop offset="1" stop-color="#00a99d"/>
    </linearGradient>
    <linearGradient id="k" x1="-2640.59" x2="-2613.7" y1="465.23" y2="436.41" gradientUnits="userSpaceOnUse">
      <stop offset="0" stop-color="#67d690"/>
      <stop offset="1" stop-color="#00a99d"/>
    </linearGradient>
    <linearGradient id="l" x1="-2615.3" x2="-2588.39" y1="-37.6" y2="-66.43" gradientUnits="userSpaceOnUse">
      <stop offset="0" stop-color="#67d690"/>
      <stop offset="1" stop-color="#00a99d"/>
    </linearGradient>
    <linearGradient id="m" x1="-2326.38" x2="-2302.03" y1="-588.93" y2="-615.03" gradientUnits="userSpaceOnUse">
      <stop offset="0" stop-color="#67d690"/>
      <stop offset="1" stop-color="#00a99d"/>
    </linearGradient>
    <linearGradient id="n" x1="-1831.26" x2="-1809.39" y1="-946.93" y2="-970.37" gradientUnits="userSpaceOnUse">
      <stop offset="0" stop-color="#67d690"/>
      <stop offset="1" stop-color="#00a99d"/>
    </linearGradient>
    <linearGradient id="o" x1="159.16" x2="93.92" y1="477.93" y2="378.02" gradientUnits="userSpaceOnUse">
      <stop offset="0" stop-color="#67d690"/>
      <stop offset="1" stop-color="#00a99d"/>
    </linearGradient>
    <linearGradient id="p" x1="-2762.14" x2="-2762.14" y1="351.32" y2="322.96" gradientUnits="userSpaceOnUse">
      <stop offset="0" stop-color="#fe4500"/>
      <stop offset="1" stop-color="#efdb29"/>
    </linearGradient>
    <linearGradient id="q" x1="331.52" x2="441.23" y1="379.49" y2="207.99" gradientUnits="userSpaceOnUse">
      <stop offset="0" stop-color="#36078b"/>
      <stop offset="1" stop-color="#16b1ff"/>
    </linearGradient>
    <linearGradient id="r" x1="334.94" x2="347.79" y1="273.17" y2="273.17" gradientUnits="userSpaceOnUse">
      <stop offset="0" stop-color="#fea600"/>
      <stop offset="1" stop-color="#efdb29"/>
    </linearGradient>
    <linearGradient id="s" x1="392.63" x2="392.63" y1="424.53" y2="227.49" gradientUnits="userSpaceOnUse">
      <stop offset="0" stop-color="#00fef6"/>
      <stop offset="1" stop-color="#29a0ef" stop-opacity="0"/>
    </linearGradient>
    <linearGradient id="t" x1="354.03" x2="354.03" y1="346.85" y2="339.74" gradientUnits="userSpaceOnUse">
      <stop offset="0" stop-color="#36078b"/>
      <stop offset="1" stop-color="#16b1ff"/>
    </linearGradient>
    <linearGradient id="u" x1="189.06" x2="206.62" y1="587.77" y2="504.92" gradientUnits="userSpaceOnUse">
      <stop offset="0" stop-color="#36078b"/>
      <stop offset="1" stop-color="#16b1ff"/>
    </linearGradient>
    <clipPath id="a">
      <path d="M-99 533.256V0h799.87v533.256z"/>
    </clipPath>
    <clipPath id="b">
      <path d="M951.217 614.82c106.032-15.828 110.486-100.339 76.817-147.341-47.709-66.577-91.258-55.737-24.72-165.343 22.587-37.228 31.28-84.778 14.16-125.886-12.307-29.575-37.749-53.883-68.497-62.91-17.094-5-35.189-5.334-52.696-8.668-17.508-3.333-35.509-10.4-45.71-25.014-9.827-14.068-10.667-32.575-8.293-49.576 5.667-40.883 28.001-78.311 30.015-119.834 1.68-34.988-9.894-75.164-34.602-100.618-32.349-33.335-82.671-40.496-126.807-43.07-51.843-3-104.099 4.761-153.342 20.855-63.15 20.601-121.473 54.603-173.342 96.005-46.203 36.896-88.005 80.285-117.513 131.5-46.816 81.085-73.885 213.092 21.374 271.056 114.673 69.777 188.677-51.19 194.904 67.83 3.72 71.23 54.736 182.676 193.877 127.127 139.14-55.55 121.673 156.688 274.375 133.887z"/>
    </clipPath>
  </defs>
  <g clip-path="url(#a)">
    <path fill="#3f71e2" d="M951.217 614.82c106.032-15.828 110.486-100.339 76.817-147.341-47.709-66.577-91.258-55.737-24.72-165.343 22.587-37.228 31.28-84.778 14.16-125.886-12.307-29.575-37.749-53.883-68.497-62.91-17.094-5-35.189-5.334-52.696-8.668-17.508-3.333-35.509-10.4-45.71-25.014-9.827-14.068-10.667-32.575-8.293-49.576 5.667-40.883 28.001-78.311 30.015-119.834 1.68-34.988-9.894-75.164-34.602-100.618-32.349-33.335-82.671-40.496-126.807-43.07-51.843-3-104.099 4.761-153.342 20.855-63.15 20.601-121.473 54.603-173.342 96.005-46.203 36.896-88.005 80.285-117.513 131.5-46.816 81.085-73.885 213.092 21.374 271.056 114.673 69.777 188.677-51.19 194.904 67.83 3.72 71.23 54.736 182.676 193.877 127.127 139.14-55.55 121.673 156.688 274.375 133.887z"/>
  </g>
  <g clip-path="url(#a)">
    <g clip-path="url(#b)">
      <path fill="#0050c8" d="M241.325 155.622c2.147-71.75 57.977-81.338 91.885-62.67 48.003 26.454 44.27 56.27 111.913 3.347 22.974-18.015 53.896-27.549 82.578-19.415 20.64 5.84 38.762 20.841 47.189 40.562 4.68 10.974 6.347 22.975 9.934 34.349 3.587 11.374 9.72 22.788 20.24 28.415 10.121 5.427 22.495 4.507 33.616 1.6 26.668-7.014 49.843-24.828 77.338-29.442 23.134-3.893 50.762.627 69.643 15.041 24.708 18.868 33.455 51.723 38.669 80.898a280.014 280.014 0 0 1-1.733 103.619c-8.694 43.615-26.669 85.071-50.15 122.86-20.868 33.628-46.416 64.817-78.124 88.525-50.15 37.495-135.794 65.923-181.85 7.173-55.47-70.67 19.108-129.473-60.523-124.206-47.643 3.16-125.727-21.948-99.846-118.834 25.882-96.885-113.846-68.497-110.779-171.822z"/>
    </g>
    <g clip-path="url(#b)">
      <path fill="#3f71e2" d="M249.299 166.116c24.748-63.057 77.417-53.843 101.605-26.468 34.269 38.802 21.428 64.083 98.379 38.668 26.121-8.64 56.63-7.267 79.538 9.08 16.467 11.761 27.801 30.87 29.001 51.07.667 11.24-1.667 22.428-2.107 33.682-.44 11.254 1.334 23.335 8.934 31.695 7.267 8 18.561 11.16 29.335 12.12 25.975 2.28 52.19-6.186 78.044-1.546 21.788 3.907 44.896 16.721 57.084 35.535 16 24.642 13.254 56.603 8.587 84.192a264.257 264.257 0 0 1-34.536 91.511c-21.614 36.002-50.802 67.084-83.67 93.192-29.336 23.228-61.884 42.802-97.606 53.776-56.496 17.334-141.648 15.334-163.862-51.536-26.762-80.498 58.203-108.952-14.214-129.62-43.35-12.36-104.726-59.537-50.883-137.341 53.843-77.804-79.258-97.179-43.63-188.01z"/>
    </g>
  </g>
  <path fill="#ccd9f8" d="M108.697 528.375c0-2.754 96.55-4.987 215.651-4.987 119.101 0 215.652 2.233 215.652 4.987 0 2.755-96.55 4.987-215.652 4.987-119.1 0-215.651-2.232-215.651-4.987zM71.495 505.614c0 1.44 14.52 2.6 32.428 2.6 17.908 0 32.415-1.16 32.415-2.6 0-1.44-14.507-2.6-32.415-2.6s-32.428 1.16-32.428 2.6z"/>
  <path fill="url(#c)" d="M473.383 303.016c-8.52 12.454-11.28 20.935-.493 22.002 10.787 1.066 24.668-26.668 16.667-32.002-5.64-3.747-12.107 4.067-16.174 10z"/>
  <path fill="url(#d)" d="M497.904 259.187c6.534-2.04 9.147 2.667 8.52 6.334-.893 5.16-3.693 5.747 3.188 10.2 5.08 3.28 6.28 10.095.546 13.508-8 4.774.534 8.467 2.387 12.56 3.854 8.441-2.453 10.508-12.64 14.668-10.468 4.36-18.255 2.227-25.602-4.44-5.4-4.92-8.614-10.467-5.334-15.48 4.654-7.215 12.281-2.321 9.334-9.335-1.773-4.2-1.947-12 7.6-12.707 9.548-.707 2.587-12.36 12.001-15.308z"/>
  <path fill="url(#e)" d="M459.062 245.72c-8.227-1.72-10.854 4.387-9.654 8.76 1.694 6.187 5.187 6.574-2.666 12.828-5.814 4.627-6.467 13.094.933 16.574 10.347 4.88.36 10.414-1.427 15.628-3.693 10.773 4.254 12.547 17.201 16.467 13.334 4 22.668.52 30.748-8.48 6-6.667 9.334-13.801 4.72-19.548-6.546-8.254-15.267-1.333-12.493-10.294 1.666-5.334.933-14.92-10.8-14.667-11.735.253-4.641-14.788-16.562-17.268z"/>
  <path fill="#0050c8" d="M468.316 354.78h24.442a6.227 6.227 0 0 0 6.133-5.214l5.334-32.895a1.227 1.227 0 0 0-1.214-1.44H457.97a1.24 1.24 0 0 0-1.227 1.44l5.334 32.895a6.2 6.2 0 0 0 6.24 5.213z"/>
  <path fill="url(#f)" d="M459.73 280.829c7.613 2.306 13.946 5.48 9.026 7.72-4.92 2.24-22.041-4.88-19.654-8 1.693-2.08 7-.827 10.627.28z"/>
  <path fill="url(#g)" d="M459.236 256.52c1.746 4.788 3.546 7.228 5.96 4.468 2.413-2.76-2.48-12.001-5.52-10.894-2.147.813-1.267 4.133-.44 6.427z"/>
  <path fill="url(#h)" d="M499.344 265.961c-1.866 4.747-2.133 7.76 1.507 7.294 3.64-.467 6.12-10.667 3.08-11.814-2.147-.814-3.693 2.253-4.587 4.52z"/>
  <path fill="url(#i)" d="M508.198 288.576c3.307-2.947 4.694-5.174 1.694-6.24-3-1.067-8.92 5.853-7.014 7.933 1.333 1.48 3.733-.293 5.32-1.693z"/>
  <path fill="url(#j)" d="M471.25 279.415c-3-1.013-4.867-1.08-4.467 1.147.4 2.227 6.787 3.467 7.413 1.547.44-1.36-1.52-2.214-2.946-2.694z"/>
  <path fill="#99c1f9" d="M347.336 353.1H34.693V169.902h312.643zm-317.71 5.053H352.39V164.809H29.626z"/>
  <path fill="#d8e7fc" d="M354.577 167.382v188.25H36.867v-188.25z"/>
  <g opacity=".7">
    <path fill="#fff" d="M242.97 210.678a3.107 3.107 0 0 1-.826-2.48c.307-1.333 2.107-2.2 4.813-2.44a3.267 3.267 0 0 1-.466-2.307c.8-3.667 9.92-4.32 20.36-1.48a50.893 50.893 0 0 1 9.908 3.8 2.373 2.373 0 0 1 0-1.333c.947-2.667 8-2.214 15.8 1.16a42.934 42.934 0 0 1 5.255 2.667c.6-1.08 3.666-1.014 7.08.186 1.583.527 3.073 1.3 4.413 2.294l27.175 1.68H215.876zM146.965 287.442a2.134 2.134 0 0 1-.573-1.693c.213-.934 1.453-1.507 3.307-1.667a2.293 2.293 0 0 1-.32-1.587c.547-2.506 6.787-2.96 13.934-1a34.671 34.671 0 0 1 6.787 2.587 1.613 1.613 0 0 1 0-.907c.64-1.866 5.494-1.506 10.814.787a31.255 31.255 0 0 1 3.6 1.854c.413-.734 2.507-.694 4.84.133 1.086.36 2.108.892 3.027 1.573l18.601 1.147h-82.524zM89.629 258.387a3.64 3.64 0 0 1-.36-2.213c.467-2.387 4-3.534 8.88-3.347a7.027 7.027 0 0 1-.186-3.347c1.68-8.547 20.787-10.094 42.669-3.453a106.148 106.148 0 0 1 11.734 4.32 6.28 6.28 0 0 1-.2-3.04c1.173-5.974 12.187-8 26.374-5.534 0-.187.08-.36.134-.547 2.08-6.667 17.2-5.667 34.202 2.107 4.24-1.72 12.88-.533 22.227 3.454a58.419 58.419 0 0 1 13.495 7.893 2.667 2.667 0 0 1-.227-1.733c.68-2.44 6.307-2.253 12.574.413a25.761 25.761 0 0 1 8.52 5.587l35.256 2.667H50.173z" opacity=".7"/>
  </g>
  <path fill="#f8fff8" d="M167.673 355.633h54.63l-97.486-188.264h-54.63zM144.512 355.633h13.44L60.468 167.369h-13.44zM331.189 355.633h13.44l-97.485-188.264H233.69z" opacity=".3"/>
  <path fill="#d8e7fc" d="M352.056 353.1H39.4V169.902h312.656zm-317.71 5.053H357.11V164.809H34.346z"/>
  <g opacity=".8">
    <path fill="#56a8ed" d="M121.724 353.1v-44.417h33.429V353.1z" opacity=".8"/>
    <path fill="#62afef" d="M55.614 353.1v-24.562h27.041v24.561z" opacity=".8"/>
    <path fill="#7abaf9" d="M116.084 353.1v-44.417h15.027V353.1z" opacity=".8"/>
    <path fill="#56a8ed" d="M82.669 353.1v-73.618h33.428v73.617z" opacity=".8"/>
    <path fill="#62afef" d="M116.084 353.1v-44.417h3.547V353.1z" opacity=".8"/>
    <path fill="#7abaf9" d="M77.042 353.1v-73.618h15.014v73.617zM116.084 292.39v5.093H92.056v-5.094zM116.084 301.656v5.094H92.056v-5.094zM116.084 310.937v5.093H92.056v-5.093zM116.084 320.19v5.094H92.056v-5.093zM116.084 329.471v5.094H92.056v-5.094zM116.084 338.738v5.094H92.056v-5.094zM92.056 353.1v-5.095h24.028v5.094zM116.084 283.109v5.093H92.056v-5.093z" opacity=".8"/>
    <path fill="#56a8ed" d="M158.5 330.805v22.294h33.415v-32.895h-24.028z" opacity=".8"/>
    <path fill="#7abaf9" d="M152.872 337.165v15.934h15.015v-32.895l-9.388 10.6-3.36 3.8zM191.928 320.19v5.094H167.9v-5.093zM191.928 329.471v5.094H167.9v-5.094zM191.928 338.738v5.094H167.9v-5.094zM167.9 353.1v-5.095h24.028v5.094z" opacity=".8"/>
    <path fill="#56a8ed" d="M151.806 302.79v5.893h-30.082v-5.893z" opacity=".8"/>
    <path fill="#56a8ed" d="M146.085 297.47v5.893h-18.627v-5.894zM204.355 353.112v-11.44h22.815v11.44z" opacity=".8"/>
    <path fill="#7abaf9" d="M200.515 353.112v-11.44h10.254v11.44z" opacity=".8"/>
    <path fill="#56a8ed" d="M224.903 335.632v6.027h-21.975v-6.027z" opacity=".8"/>
    <path fill="#56a8ed" d="M218.17 328.551v7.48h-7.094v-7.48z" opacity=".8"/>
    <path fill="#62afef" d="M219.943 353.1v-7.175h1.773v7.174z" opacity=".8"/>
  </g>
  <path fill="url(#k)" d="M98.096 463.478c7.56-4.826-2.12-19.56-19.734-20.987a35.35 35.35 0 0 0-.16 14.667c1.48 5.867 9.294 13.054 19.894 6.32z"/>
  <path fill="url(#l)" d="M108.297 464.652c8.813-1.707 5.187-18.975-10.668-26.748a35.255 35.255 0 0 0-5.507 13.574c-.853 6.013 3.787 15.574 16.175 13.174z"/>
  <path fill="url(#m)" d="M114.404 465.825c7.813 2.2 11.894-13.24 2.213-25.975a32.002 32.002 0 0 0-9.974 8.748c-3.067 4.547-3.2 14.174 7.76 17.227z"/>
  <path fill="url(#n)" d="M117.804 463.865c5.453 4.84 14.814-6.014 12-20.108a28.734 28.734 0 0 0-11.494 3.134c-4.253 2.467-8.147 10.187-.506 16.974z"/>
  <path fill="url(#o)" d="M133.631 427.516c29.962-11.747 6-70.31-55.03-87.47 0 0-12 26.027-10.667 51.482 1.107 21.734 23.682 52.496 65.697 35.988z"/>
  <path fill="#e2e2e2" d="M84.629 347.445a54.23 54.23 0 0 1 13.947 14.668 38.867 38.867 0 0 1 2.667 4.24 48.233 48.233 0 0 1 2.493 4.347c.707 1.534 1.454 3.027 2.2 4.52l1.107 2.24.88 2.36a129.566 129.566 0 0 1 5.907 19.175c.627 3.307 1.334 6.587 2.027 9.88l1.187 10.054c.186 1.68.52 3.334.613 5.027l.253 5.08c.187 3.387.32 6.774.547 10.175-.093 6.813 0 13.64-.2 20.494-.187 3.427-.44 6.84-.56 10.28l-.213 5.174-.107 2.587-.24 2.573-.827 10.36-.413 5.201-.253 5.24.493.094 3.6-20.508.454-2.573.28-2.587.573-5.174 1.133-10.36.28-2.587.107-2.6.2-5.214.4-10.414-.387-10.414-.2-5.213c-.08-1.734-.386-3.454-.56-5.187l-1.333-10.348-2.253-10.187a115.634 115.634 0 0 0-6.908-19.681l-1.04-2.387-1.266-2.28-2.56-4.56c-.827-1.534-1.96-2.88-2.92-4.334a39.628 39.628 0 0 0-3.134-4.173 50.99 50.99 0 0 0-15.8-13.508z"/>
  <path fill="#39c296" d="M114.644 398.795c-22.802-8.947-4.56-53.536 41.895-66.59 0 0 9.107 19.8 8.094 39.188-.867 16.548-18.041 39.923-49.99 27.402z"/>
  <path fill="#e2e2e2" d="M151.686 337.538a135.688 135.688 0 0 0-12.334 17.721c-1.76 3.134-3.52 6.28-5.107 9.52l-2.44 4.828-2.254 4.92a241.749 241.749 0 0 0-13.974 40.936c-.813 3.506-1.493 7.053-2.24 10.587l-1.08 5.333-.827 5.334-1.507 10.667c-.346 3.574-.613 7.174-.866 10.774l-.387 5.334c-.08 1.8-.08 3.6-.133 5.4l-.2 10.774c0 3.587.36 7.187.52 10.774.16 3.587.44 7.147.76 10.667h.386c.134-7.134 0-14.267.347-21.401l.68-10.667c.12-1.774.2-3.56.36-5.334l.614-5.333 1.226-10.668 1.734-10.347.88-5.267 1.12-5.24c.773-3.48 1.48-6.974 2.307-10.44a300.01 300.01 0 0 1 13.027-40.763 203.425 203.425 0 0 1 19.681-37.882z"/>
  <path fill="#5ed291" d="M102.11 372.767c43.069-13.2 15.88-97.512-67.47-128.007 0 0-19.468 35.029-20.322 70.67-.693 30.535 27.482 75.818 87.792 57.337z"/>
  <path fill="#e2e2e2" d="M42.293 255.654A114.153 114.153 0 0 1 46.8 262.4c1.52 2.24 2.92 4.547 4.307 6.854 1.387 2.306 2.747 4.64 4 7.013 1.253 2.374 2.667 4.654 3.814 7.107 2.44 4.787 5.013 9.48 7.147 14.414 1.106 2.44 2.28 4.84 3.426 7.254l3.094 7.414 3.08 7.4 2.787 7.507 2.8 7.507c.933 2.507 1.627 5.094 2.44 7.628.814 2.533 1.64 5.08 2.454 7.627l1.24 3.8c.386 1.333.693 2.573 1.04 3.867l4.08 15.48c1.227 5.187 2.253 10.441 3.4 15.655.534 2.666 1.174 5.213 1.627 7.84.453 2.627.76 5.334 1.213 7.92.827 5.334 1.814 10.561 2.52 15.855.494 5.333 1.094 10.667 1.707 16l.907 8.001.427 8 1 16.121c.653 10.788.24 21.575.866 32.482h.587l.947-16.24.48-8.121c.173-2.667.36-5.414.267-8.12l-.134-16.282v-8.133l-.6-8.107-1.2-16.241c-.587-5.334-1.453-10.748-2.16-16.134l-1.12-8c-.427-2.668-1.053-5.335-1.573-8.001-1.107-5.334-2.107-10.668-3.307-16.001a345.682 345.682 0 0 0-21.441-61.337c-9.174-19.64-20.002-38.669-34.149-55.23z"/>
  <path fill="#3cc395" d="M77.628 412.022c26.335-19.054-11.894-70.283-75.91-71.644 0 0-5.12 28.455 2.666 53.03 6.574 20.908 36.376 45.282 73.244 18.614z"/>
  <path fill="#e2e2e2" d="M9.491 345.952a134.325 134.325 0 0 1 18.095 14.668l4.24 4 4 4.16c2.747 2.667 5.2 5.694 7.707 8.614a260.701 260.701 0 0 1 26.362 37.815l5.547 10.134a56.373 56.373 0 0 1 2.573 5.16l2.453 5.24 2.507 5.228c.414.866.854 1.733 1.24 2.666l1.08 2.667c1.4 3.6 2.894 7.16 4.427 10.734 1.534 3.574 2.774 7.227 4 10.894l3.827 11.027c2.467 7.387 4.427 14.934 7 22.388l.414-.08c-1.747-7.627-3.347-15.294-5.227-22.894l-3.32-11.268c-1.133-3.747-2.133-7.547-3.6-11.187l-4.08-11.014-1.027-2.76c-.373-.907-.8-1.787-1.187-2.667a58.511 58.511 0 0 0-2.573-5.334l-5.494-10.467a218.677 218.677 0 0 0-27.628-37.948c-2.667-2.854-5.334-5.76-8.227-8.388l-4.28-4-4.494-3.8a116.63 116.63 0 0 0-19.361-13.334zM69.868 332.845a39.734 39.734 0 0 0-10.094-5.4c-1.733-.747-3.547-1.214-5.334-1.787-1.786-.574-3.653-.854-5.493-1.267-3.728-.65-7.51-.94-11.294-.867a33.108 33.108 0 0 0-11.334 2.107v.4c7.382.035 14.742.798 21.974 2.28a209.59 209.59 0 0 1 21.535 4.92zM62.96 308.697a29.642 29.642 0 0 0-7.56-6.027 43.072 43.072 0 0 0-4.2-2.16c-1.44-.627-2.92-1.147-4.387-1.707a43.842 43.842 0 0 0-9.334-1.894 25.148 25.148 0 0 0-9.707.88v.4a95.527 95.527 0 0 1 17.855 4.387 176.014 176.014 0 0 1 17.214 6.48zM93.202 327.644a31.602 31.602 0 0 0 2.934-5.667c.733-1.826 1.413-3.573 1.987-5.253.213-.894.573-1.68.853-2.507l.413-1.24a8.49 8.49 0 0 0 .467-1.2 26.534 26.534 0 0 1 2.667-5.16l-.133-.347a11.508 11.508 0 0 0-4.88 3.773 19.522 19.522 0 0 0-2.854 5.48 37.11 37.11 0 0 0-1.84 12.121zM79.028 301.35a21.883 21.883 0 0 0 1.187-4.774c.267-1.493.36-2.947.52-4.334.16-1.386.214-2.746.347-4a17.32 17.32 0 0 1 1.027-4.333l-.16-.227a8.414 8.414 0 0 0-2.867 3.76 15.414 15.414 0 0 0-1.094 4.627 34.296 34.296 0 0 0 .774 9.414z"/>
  <path fill="#3f71e2" d="M84.575 506.694h37.056a3.627 3.627 0 0 0 3.6-3.213l5.107-42.91a3.64 3.64 0 0 0-3.614-4.066H79.468a3.627 3.627 0 0 0-3.6 4.067l5.094 42.909a3.654 3.654 0 0 0 3.613 3.213z"/>
  <path fill="#0050c8" d="M74.681 465.025h56.803a2.4 2.4 0 0 0 2.374-2.027l1.107-7.293a2.387 2.387 0 0 0-2.36-2.76H73.628a2.4 2.4 0 0 0-2.36 2.76l1.12 7.293a2.373 2.373 0 0 0 2.293 2.027z"/>
  <path fill="#d8e7fc" d="M118.804 368.513h413.249a6.88 6.88 0 0 0 6.867-6.867 6.88 6.88 0 0 0-6.867-6.867h-413.25a6.867 6.867 0 1 0 0 13.734z"/>
  <path fill="#99c1f9" d="M424.154 368.513h107.899a6.88 6.88 0 0 0 6.867-6.867 6.88 6.88 0 0 0-6.867-6.867h-107.9a6.867 6.867 0 0 0 0 13.734z"/>
  <path fill="#99c1f9" d="M515.372 528.349v-159.85h13.747v159.85zM427.14 528.349V368.527h13.748v159.822z"/>
  <path fill="#d8e7fc" d="M427.14 528.349V368.527h6.881v159.822z"/>
  <path fill="#99c1f9" d="M121.737 528.349V368.527h13.748v159.822z"/>
  <path fill="#d8e7fc" d="M209.982 528.349v-159.85h13.72v159.85zM121.737 528.349V368.527h6.88v159.822zM529.12 368.513v4.4l-13.735 9.814v-14.214zM427.14 368.513h13.735v4.4l-13.734 9.814z"/>
  <path fill="url(#p)" d="M209.982 368.513h13.734v4.4l-13.734 9.814z"/>
  <path fill="#d8e7fc" d="M135.471 368.513v4.4l-13.734 9.814v-14.214z"/>
  <path fill="#55a4ff" d="M448.462 313.884H321.535l9.334-82.618h126.913z" opacity=".3"/>
  <path fill="#99c1f9" d="M334.029 237.213l-1.347 11.92-9.334 82.605h126.927l9.334-82.605 1.333-11.92z" opacity=".4"/>
  <path fill="url(#q)" d="M448.462 329.925H321.535l9.334-82.618h126.913z" opacity=".6"/>
  <path fill="#fff" d="M445.435 325.231H325.628l4.507-40.002h119.82z"/>
  <path fill="#57afff" d="M363.177 320.55h-34.202l3.667-32.481h34.202z"/>
  <path fill="#164dd6" d="M373.698 308.017h-27.522l2.96-26.135h27.508z" opacity=".7"/>
  <path fill="#f9f4ea" d="M357.123 279.815H330.75l.986-8.72h26.375z"/>
  <path fill="url(#r)" d="M347.643 273.788h-12.707l.146-1.213h12.708z"/>
  <path fill="#57afff" d="M445.728 301.136H411.54l2.066-18.374h34.202z"/>
  <path fill="#33333d" d="M445.262 305.297H411.06l.16-1.32h34.188zM444.955 308.017h-34.202l.16-1.32h34.188z"/>
  <path fill="#f9f4ea" d="M388.272 276.748h-26.375l.987-8.72h26.374z"/>
  <path fill="#51cc93" d="M457.929 279.815h-57.51l.987-8.72h57.51z"/>
  <path fill="#f9f4ea" d="M425.18 273.788h-21.947l.146-1.213h21.935zM424.927 276.068H402.98l.134-1.213h21.947z"/>
  <path fill="#fff" d="M444.128 265.748H324.322l1.36-12.028h119.806z"/>
  <path fill="#84deae" d="M442.461 264.094h-8.72l.987-8.72h8.72z"/>
  <path fill="#57afff" d="M429.98 264.094h-8.72l.987-8.72h8.72zM417.487 264.094h-8.72l.986-8.72h8.72zM357.417 257.48h-28.655l.187-1.68h28.654zM357.083 260.467h-28.668l.2-1.68h28.655zM340.79 263.454h-12.708l.187-1.68h12.707zM405.5 313.097h-34.19l2.068-18.361h34.188z"/>
  <path fill="#33333d" d="M405.033 317.257H370.83l.147-1.32h34.201zM404.726 319.977h-34.202l.147-1.306h34.202z"/>
  <path fill="#164dd6" d="M404.46 303.39h-13.108l1.293-11.44h13.108z" opacity=".7"/>
  <path fill="#d3d3d3" d="M457.782 247.307H330.87l1.346-11.908H459.13z"/>
  <path fill="#f2f2f2" d="M455.715 244.813h-122.22l.44-3.933H456.17z"/>
  <path fill="#f9f4ea" d="M336.122 239.56h-2.04l.24-2.04h2.04zM339.762 239.56h-2.04l.227-2.04h2.04zM343.39 239.56h-2.04l.226-2.04h2.053z"/>
  <path fill="url(#s)" d="M343.883 342.432l-19.561-105.633h136.62l-95.911 105.633z"/>
  <path fill="#3f71e2" d="M360.377 344.592H347.67a20.617 20.617 0 0 0-17.057 9.031l-.784 1.156h48.402l-.786-1.16a20.615 20.615 0 0 0-17.068-9.027z"/>
  <path fill="url(#t)" d="M361.884 346.179c0 .413-3.52.746-7.854.746s-7.854-.333-7.854-.746c0-.414 3.52-.747 7.854-.747 4.333 0 7.854.333 7.854.747z" opacity=".4"/>
  <path fill="#231a66" d="M278.64 512.748c.826 1.333.92 3.56 6.04 5.467 5.12 1.907 15.787 2.413 9.973 4.6a28.067 28.067 0 0 1-13.88 1.453c-3.507-.36-5.574.187-9.694.36-5.414.24-5.48-.08-5.04-6.013.613-8.16 9.933-10.334 12.6-5.867z"/>
  <path fill="#3f71e2" d="M266.652 512.574c8.84-30.348 12.947-87.124 28.175-109.339 9.68-14.094 28.481-8.534 21.521 10.374-7.454 20.201-26.321 57.937-36.895 98.192-1.04 3.987-13.815 4.334-12.801.773z"/>
  <path fill="#3f71e2" d="M310.974 420.65c8.094-2.987 15.094-30.669-14.667-26.922-13.214 1.653-59.897 5.187-66.937 6.04-7.04.854-17.334 2.574-18.401 6.174-5.614 17.988 16.227 34.162 42.509 28.282 17.494-3.934 40.669-7.388 57.496-13.575z"/>
  <path fill="url(#u)" d="M231.41 351.832c-4.32 3.294-8.947 3.227-21.628 4.747-18.254 2.187-22.734 1.534-34.348-1.12-7.574-1.733-1.614-18.267 8.88-18.667 8.867-.387 39.749 8.96 45.15 8.707 3.573-.227 5.506 3.667 1.946 6.333z"/>
  <path fill="#ccd9f8" d="M172.86 346.952c.787-4.173 4-13.187 17.108-32.348a149.342 149.342 0 0 1 15.214-19.348c5.24-5.76 13.04-3.8 14.867-.133 2.92 5.907 2.894 15.894.32 19.08-14.467 18.002-26.668 30.95-29.428 35.923-3.973 7.227-19.014 1.773-18.08-3.174z"/>
  <path fill="#231a66" d="M301.454 515.348c.826 1.333 4.6 4.48 9.72 6.387 5.12 1.907 15.788 2.413 9.988 4.6-5.8 2.187-12.748 1.334-16.268 1a72.999 72.999 0 0 0-11-.106c-5.428.24-5.48-.08-5.04-6.014.612-8.16 9.933-10.334 12.6-5.867z"/>
  <path fill="#f0bc99" d="M216.556 262.12c1.093 10.975 1.413 13.335 6.213 17.895 4.8 4.56 12.281 5.147 17.481 5.147 5.614 0 9.334-6.774 10.588-11.414a67.577 67.577 0 0 0 1.093-25.855c-.8-6.093-8.307-13.48-16.067-13.48s-21.988.906-19.308 27.708z"/>
  <path fill="#f0bc99" d="M222.143 281.455c-.294 3.8-.574 8.174-.707 12.174a10.48 10.48 0 0 0 9.147 10.667c.2.013.4.013.6 0 4.734 0 10.308-4.293 9.894-9.04-.28-3.08-.373-6.187-.386-8.92a12.36 12.36 0 0 0-8.228-11.574 7.76 7.76 0 0 0-10.32 6.693z"/>
  <path fill="#ccd9f8" d="M200.182 328.351c8.813 28.948 11.707 46.256 9.973 66.484h66.324s-.387-49.216-4.827-83.231a25.481 25.481 0 0 0-14.014-19.508c-4.987-2.667-14.014-3.907-17.68-3.907h-12.255a46.669 46.669 0 0 0-12.934 1.6c-18.08 5.547-19.681 21.788-14.587 38.562z"/>
  <path fill="#0050c8" d="M210.435 435.41s-5.733-13.92-.28-40.575h66.324a378.342 378.342 0 0 1 2.413 40.575z"/>
  <path fill="#3f71e2" d="M289.36 515.708c11.28-29.522 20-85.778 37.015-106.673 10.8-13.254 29.082-6.173 20.588 12.108-9.067 19.534-30.962 55.59-44.79 94.845-1.36 3.894-14.093 3.187-12.813-.28z"/>
  <path fill="#3f71e2" d="M340.976 427.716c8.307-2.32 17.548-29.334-12.427-28.001-13.334.573-60.124.267-67.19.56-7.068.293-17.442 1.133-18.855 4.627-7.067 17.48 13.334 35.389 40.002 31.668 17.881-2.506 41.256-4.067 58.47-8.854z"/>
  <path fill="#f0bc99" d="M249.038 259.814c-1.547 3.8-1.187 7.534.8 8.347 1.986.814 4.853-1.613 6.4-5.4 1.547-3.787 1.2-7.534-.787-8.347-1.987-.814-4.853 1.6-6.413 5.4zM220.463 259.814c1.56 3.8 1.2 7.534-.787 8.347-1.987.814-4.854-1.613-6.4-5.4-1.547-3.787-1.2-7.534.786-8.347 1.987-.814 4.907 1.6 6.4 5.4z"/>
  <path fill="#21283a" d="M219.93 240.506c4.266 6.374 24.92 6.974 31.668 4.614 6.747-2.36 6.267-15.374-3.374-16.268-5.427 0-1.493 1.334-5.893 3.08-2.227.894-26.962 1.76-22.402 8.574z"/>
  <path fill="#f0bc99" d="M339.442 306.59c2.76-1.734 26.389-16.721 26.109-10.854-.307 6.507-8.414 13.507-11.348 15.508-5.333 3.653-11.147 4.84-13.334 1.96-1.573-2.04-4.053-4.974-1.427-6.614z"/>
  <path fill="#ccd9f8" d="M344.11 305.35c-5 1.093-35.123 10.16-44.55 14.907-5.44-2.987-17.214-15.134-36.362-26.668-7.107-4.267-13.587-2.827-19.36.374-3.574 1.973-5.174 9.853.813 14.84a149.339 149.339 0 0 0 20 14.308c19.735 12.24 28.896 15.027 33.096 15.627.173.02.347.02.52 0h.16c.145-.017.288-.048.427-.093.275-.029.547-.082.813-.16a169.026 169.026 0 0 0 32.642-15.388c12.12-7.133 13.414-6.493 15.867-11.253a4.24 4.24 0 0 0-4.067-6.494z"/>
  <path fill="#21283a" d="M243.17 239.4c6.348 3.84 7.828 7.2 7.654 15.067-.173 7.867-3.547 21.335-18.014 24.268-14.468 2.934-17.894-11.36-18.774-21.334-.88-9.974-.307-17.335 7.013-19.095 10.868-2.587 18.268-1.24 22.122 1.094z"/>
  <path fill="#f1d27f" d="M295.853 520.095a4.813 4.813 0 0 1-4.706-3.84h-82.018a4.8 4.8 0 0 1-9.507-.96 8.654 8.654 0 0 1 8.68-8.6h83.751a8.64 8.64 0 0 1 8.64 8.64 4.8 4.8 0 0 1-4.84 4.76zM320.201 435.344h-25.334c-13.334 0-21.868-7.054-23.908-19.882-2.494-15.707-7.134-67.083-7.187-67.59a5.987 5.987 0 0 0-7.347-5.333h-76.231a7.627 7.627 0 0 0-6.147 7.907c.187 2.133 4.72 52.322 7.294 68.457 2.973 18.667 16.387 29.908 35.868 29.908h101.566a7.694 7.694 0 0 0 7.453-6.747 5.947 5.947 0 0 0-6.027-6.72z"/>
  <path fill="#d8e7fc" d="M242.517 505.614v-45.19h15.254v45.19z"/>
  <path fill="#d8b058" d="M270.625 520.095a4.814 4.814 0 0 1-4.707-3.84h-31.561a4.8 4.8 0 0 1-9.494-.96 8.64 8.64 0 0 1 8.64-8.6h33.336a8.654 8.654 0 0 1 8.64 8.64 4.8 4.8 0 0 1-4.854 4.76z"/>
  <path fill="#d8b058" d="M237.797 521.828a6.547 6.547 0 1 1-13.094.027 6.547 6.547 0 0 1 13.094-.027z"/>
  <path fill="#f1d27f" d="M234.597 521.828a6.534 6.534 0 1 1-13.068 0 6.534 6.534 0 0 1 13.068 0z"/>
  <path fill="#d8b058" d="M278.76 521.828a6.547 6.547 0 1 1-6.535-6.533 6.534 6.534 0 0 1 6.534 6.533z"/>
  <path fill="#f1d27f" d="M275.572 521.828a6.547 6.547 0 1 1-13.094.027 6.547 6.547 0 0 1 13.094-.027z"/>
  <path fill="#d8b058" d="M212.569 521.828a6.547 6.547 0 1 1-13.094.027 6.547 6.547 0 0 1 13.094-.027z"/>
  <path fill="#f1d27f" d="M209.369 521.828a6.547 6.547 0 1 1-6.534-6.533 6.534 6.534 0 0 1 6.534 6.533z"/>
  <path fill="#d8b058" d="M303.987 521.828a6.534 6.534 0 1 1-13.067 0 6.534 6.534 0 0 1 13.067 0z"/>
  <path fill="#f1d27f" d="M300.8 521.828a6.547 6.547 0 1 1-13.094.027 6.547 6.547 0 0 1 13.094-.027z"/>
  <path fill="#cecece" d="M257.771 465.825l-15.254-4.267v-1.133h15.254z"/>
  <path fill="#d8b058" d="M261.505 454.211l-22.735-4.253v-1.134h22.735z"/>
  <g>
    <path fill="#d8b058" d="M318.775 448.824H293.44c-19.481 0-32.895-11.187-35.869-29.908-2.573-16.134-7.107-66.324-7.293-68.457a7.627 7.627 0 0 1 6.147-7.907 5.987 5.987 0 0 1 7.347 5.334c0 .506 4.693 51.882 7.187 67.59 2.04 12.827 10.534 19.881 23.908 19.881H320.2a5.947 5.947 0 0 1 6.027 6.734 7.694 7.694 0 0 1-7.453 6.733z"/>
  </g>
  <g>
    <path fill="#99c1f9" d="M354.762 169.89H30.666l2.362-5H357.11z"/>
    <path fill="#99c1f9" d="M78.069 210.118a1.16 1.16 0 0 1-1.147-1.16v-41.575a1.16 1.16 0 0 1 2.307 0v41.575c0 .641-.52 1.16-1.16 1.16zM308.574 210.118a1.147 1.147 0 0 1-1.147-1.16v-41.575a1.16 1.16 0 0 1 2.307 0v41.575c0 .641-.52 1.16-1.16 1.16z"/>
    <path fill="#99c1f9" d="M354.762 176.823H30.666l2.362-5.013H357.11zM354.762 183.744H30.666l2.362-5H357.11zM354.762 190.677H30.666l2.362-5H357.11zM354.762 197.611H30.666l2.362-5.013H357.11zM354.762 204.531H30.666l2.362-5H357.11zM354.762 211.465H30.666l2.362-5H357.11z"/>
  </g>
  <g>
    <path fill="#f1d27f" d="M155.846 170.276c0 8.04-6.52 14.555-14.56 14.547-8.04-.007-14.55-6.534-14.535-14.574.015-8.04 6.548-14.543 14.588-14.52 8.019.021 14.507 6.528 14.507 14.547z"/>
    <path fill="#3f71e2" d="M155.873 144.915v-12.001a6.454 6.454 0 0 0-6.427-6.427h-5.974V0h-4.333v126.447h-5.987a6.454 6.454 0 0 0-6.48 6.427v12a29.255 29.255 0 0 0-14.668 25.335h58.51a29.228 29.228 0 0 0-14.641-25.294z"/>
  </g>
</svg>
