<svg xmlns="http://www.w3.org/2000/svg" width="15" height="15">
  <path fill="#fff" d="M13.619 7.405a589.205 589.205 0 0 1-6.084 3.58.626.626 0 0 1-.628 0 594.48 594.48 0 0 1-6.084-3.58c-.05-.03-.167-.117-.167-.273a.32.32 0 0 1 .166-.273l1.114-.656c1.506.893 3.492 2.065 4.645 2.726a1.282 1.282 0 0 0 1.28 0 455.19 455.19 0 0 0 4.644-2.726l1.114.656c.05.03.166.115.166.273 0 .156-.116.243-.166.273zm0 2.08c.05.03.166.115.166.272 0 .157-.116.244-.166.274a589.205 589.205 0 0 1-6.084 3.58.626.626 0 0 1-.628 0 593.93 593.93 0 0 1-6.084-3.58c-.05-.03-.167-.117-.167-.274a.32.32 0 0 1 .166-.272l1.114-.656c1.506.893 3.492 2.065 4.645 2.726.196.112.417.172.64.172.222 0 .444-.06.64-.172a440.132 440.132 0 0 0 4.644-2.726zM.823 4.779c-.05-.03-.167-.116-.167-.273 0-.157.116-.243.166-.273 1.52-.9 6.082-3.58 6.082-3.579a.623.623 0 0 1 .63-.002c1.676.96 5.081 2.984 6.085 3.58.05.03.166.117.166.274 0 .157-.116.243-.166.273a589.205 589.205 0 0 1-6.084 3.58.626.626 0 0 1-.628 0A593.953 593.953 0 0 1 .823 4.78zm13.619 2.352a.97.97 0 0 0-.488-.837l-.804-.473.805-.479a.973.973 0 0 0 .487-.837.974.974 0 0 0-.487-.837A602.81 602.81 0 0 0 7.86.082a1.284 1.284 0 0 0-1.283.001S2.008 2.767.488 3.668A.97.97 0 0 0 0 4.505c0 .342.182.655.487.838l.805.478-.804.473A.97.97 0 0 0 0 7.13c0 .342.182.655.487.838l.805.478-.804.473A.97.97 0 0 0 0 9.757c0 .342.182.655.487.837 1.3.774 4.498 2.672 6.094 3.587.196.112.417.172.64.172.222 0 .444-.06.64-.172a593.805 593.805 0 0 0 6.094-3.587.973.973 0 0 0 .487-.837.97.97 0 0 0-.488-.837l-.804-.473.805-.479a.973.973 0 0 0 .487-.837z"/>
</svg>
