<svg xmlns="http://www.w3.org/2000/svg" width="492" height="396">
  <defs>
    <clipPath id="a">
      <path d="M78.692 340.47S-1.838 306.69.032 238.53c1.87-68.16 77.41-89.57 129.22-47.49 51.81 42.08 101.76 29.63 128.6-5.93 26.84-35.56 44.74-113.5 119.87-83.48 56 22.37 93.62 82.45 105.76 136.59 8.35 37.21-3.75 76.52-32.93 101.07-.95.8-1.92 1.59-2.92 2.36z"/>
    </clipPath>
  </defs>
  <path fill="#0050c8" d="M78.692 340.47S-1.838 306.69.032 238.53c1.87-68.16 77.41-78.82 129.22-36.7 51.81 42.12 101.76 29.59 128.62-6s44.72-124.22 119.85-94.2c56 22.37 93.62 82.45 105.76 136.59 8.35 37.21-3.75 76.52-32.93 101.07-.95.8-1.92 1.59-2.92 2.36z"/>
  <g clip-path="url(#a)">
    <path fill="#3f71e2" d="M160.642 194.14s-17.65 146.74 92.57 66.5c90.46-65.81 218.66-58.39 221.34 100.19 0 0 46.37 2 42.26-78.21-4.11-80.21-41.18-263.47-148.24-242.89-107.06 20.58-207.93 154.41-207.93 154.41z"/>
  </g>
  <path fill="#f1f2ff" d="M179.062 71.69l97.67.41a22.52 22.52 0 0 1 22.37 24.1l-15.85 225c-.814 11.618-10.474 20.628-22.12 20.63h-99.26a22.17 22.17 0 0 1-22.11-23.82l16.75-225.47c.872-11.794 10.723-20.903 22.55-20.85z"/>
  <path fill="#99c1f9" d="M179.062 71.69l97.67.41a22.52 22.52 0 0 1 22.37 24.1l-15.85 225c-.814 11.618-10.474 20.628-22.12 20.63h-99.26a22.17 22.17 0 0 1-22.11-23.82l16.75-225.47c.872-11.794 10.723-20.903 22.55-20.85z"/>
  <path fill="#d8e7fc" d="M168.082 71.69l97.68.41a22.52 22.52 0 0 1 22.37 24.1l-15.86 225c-.814 11.618-10.474 20.628-22.12 20.63h-99.28a22.17 22.17 0 0 1-22.11-23.82l16.77-225.47c.882-11.79 10.727-20.893 22.55-20.85z"/>
  <path fill="#fff" d="M160.702 92.29h111.69l-13.43 214.58-112.12.84z"/>
  <path fill="#99c1f9" d="M197.942 314.02a9.53 9.53 0 1 1 0 19.06 9.53 9.53 0 0 1 0-19.06zm11.09 9.53c0-6.124-4.965-11.09-11.09-11.09s-11.09 4.966-11.09 11.09c0 6.125 4.965 11.09 11.09 11.09 6.123-.005 11.085-4.967 11.09-11.09zm17.76-239.2h-18.73a1.9 1.9 0 0 1 0-3.8h18.73a1.9 1.9 0 1 1 0 3.8z"/>
  <path fill="#d8e7fc" d="M258.702 147.6h-90.66a4.13 4.13 0 0 1-4.13-4.33l1.22-24.59a4.12 4.12 0 0 1 4.12-3.92h90.67a4.12 4.12 0 0 1 4.12 4.33l-1.17 24.59a4.11 4.11 0 0 1-4.17 3.92z"/>
  <path fill="#eef4fd" d="M225.242 123.11h-51.57a.62.62 0 1 1 0-1.23h51.57a.62.62 0 1 1 0 1.23zm-.37 8.23h-51.61a.62.62 0 0 1-.62-.62.61.61 0 0 1 .62-.61h51.61a.61.61 0 0 1 .62.61.62.62 0 0 1-.62.62zm-26.54 8.23h-25.46a.61.61 0 0 1-.61-.62.61.61 0 0 1 .61-.61h25.48a.61.61 0 0 1 .62.61.62.62 0 0 1-.64.62z"/>
  <path fill="#d8e7fc" d="M255.492 194.09h-90.62a4.13 4.13 0 0 1-4.13-4.33l1.22-24.59a4.12 4.12 0 0 1 4.12-3.92h90.67a4.12 4.12 0 0 1 4.12 4.33l-1.22 24.59a4.11 4.11 0 0 1-4.16 3.92z"/>
  <path fill="#99c1f9" d="M230.482 194.17h25a4.11 4.11 0 0 0 4.1-3.9l1.29-24.71a4.1 4.1 0 0 0-4.1-4.31h-25a4.1 4.1 0 0 0-4.1 3.9l-1.29 24.68a4.1 4.1 0 0 0 4.1 4.34z"/>
  <path fill="#eef4fd" d="M222.032 169.6h-51.57a.62.62 0 1 1 0-1.23h51.57a.62.62 0 1 1 0 1.23zm-.41 8.23h-51.57a.62.62 0 0 1-.62-.62.61.61 0 0 1 .62-.61h51.57a.61.61 0 0 1 .62.61.62.62 0 0 1-.62.62zm-26.5 8.23h-25.48a.62.62 0 1 1 0-1.24h25.48a.62.62 0 0 1 0 1.24z"/>
  <path fill="#fff" d="M255.692 132.05c-.416 5.65-5.328 9.897-10.979 9.49-5.65-.406-9.905-5.312-9.508-10.963.397-5.651 5.295-9.914 10.947-9.526a10.27 10.27 0 0 1 9.54 11z"/>
  <path fill="#eef4fd" d="M243.612 135.29a.89.89 0 0 1-.58-.26l-3.45-3.39a.92.92 0 0 1 1.29-1.31l2.86 2.81 6.58-5.3a.921.921 0 1 1 1.15 1.44l-7.21 5.81a.91.91 0 0 1-.64.2z"/>
  <path fill="#fff" d="M253.282 178.54c-.416 5.65-5.328 9.897-10.979 9.49-5.65-.406-9.905-5.312-9.508-10.963.397-5.651 5.295-9.914 10.947-9.526a10.28 10.28 0 0 1 9.54 11z"/>
  <path fill="#eef4fd" d="M241.202 181.83a.91.91 0 0 1-.59-.26l-3.44-3.39a.92.92 0 0 1 0-1.3.93.93 0 0 1 1.31 0l2.86 2.82 6.58-5.3a.921.921 0 1 1 1.15 1.44l-7.2 5.74a.91.91 0 0 1-.67.25z"/>
  <path fill="#83b9fd" d="M41.702 261.76s-1.31-2.05-4.71-15.74c-3.4-13.69-12.29-26.76-26.12-21.9-13.83 4.86-9.88 21-3 47.06 4.87 18.61-15 33 11.19 47.51 15.89 8.76 43.48-3 38.06-29.5a35.89 35.89 0 0 0-6.72-14.81 98.557 98.557 0 0 1-8.7-12.62z"/>
  <path fill="#4b8dd9" d="M30.742 343.45a.59.59 0 0 1-.46-.68c6.3-40.31-10.91-94.47-11.09-95a.6.6 0 0 1 1.14-.37c.18.55 17.47 55 11.12 95.57a.6.6 0 0 1-.68.5z"/>
  <path fill="#4b8dd9" d="M25.192 269.04h-.1a.6.6 0 0 1-.33-.78 79.58 79.58 0 0 0 4.11-13.37.58.58 0 0 1 .69-.48.59.59 0 0 1 .48.69 81.23 81.23 0 0 1-4.17 13.58.6.6 0 0 1-.68.36zm2.42 12.06a.7.7 0 0 1-.23-.11c-3.08-2.38-10.77-6.81-10.85-6.85a.61.61 0 0 1-.22-.82.6.6 0 0 1 .82-.22c.32.18 7.84 4.51 11 6.94a.6.6 0 0 1 .1.84.59.59 0 0 1-.62.22zm2.07 11.73h-.12a.6.6 0 0 1-.29-.8l3.94-8.43a.6.6 0 1 1 1.08.5l-3.94 8.44a.59.59 0 0 1-.67.29z"/>
  <path fill="#d7e7fc" d="M25.552 128.1l76.71.35a59.795 59.795 0 0 0-4.39-4.62c-3-2.6-6.49-7.2-17.58-3.81-.86.29-1.705.623-2.53 1-1 .42-4 .43-7.11-2-4.92-3.91-6.85-6.86-13.61-7-7.85-.11-9.09 9.68-15.19 12.19-3.89 1.6-14.14 3.18-16.27 3.89m226.52-113.72a53.765 53.765 0 0 1 3.87-4c2.65-2.28 5.69-6.31 15.41-3.34a22.06 22.06 0 0 1 2.22.85c.85.36 3.51.37 6.23-1.79 4.32-3.43 6-6 11.93-6.1 6.88-.09 8 8.49 13.32 10.69 3.41 1.4 12.39 2.79 14.25 3.41zm119.66 46.08a94.866 94.866 0 0 1 6.8-7.08c4.66-4 10-11.08 27.07-5.86a40.2 40.2 0 0 1 3.89 1.48c1.5.64 6.16.66 10.94-3.13 7.58-6 10.55-10.57 21-10.72 12.09-.16 14 14.92 23.39 18.78 6 2.45 21.77 4.89 25 6z"/>
  <path fill="#3f71e2" d="M124.672 70.06a15.17 15.17 0 0 0-11.68-24.89h-32.93c-8.395 0-15.2 6.806-15.2 15.2 0 8.395 6.805 15.2 15.2 15.2h32.93a15 15 0 0 0 6.78-1.63l7.61 4.18z"/>
  <path fill="#fff" d="M104.582 60.37a3.31 3.31 0 1 0 6.62 0 3.31 3.31 0 0 0-6.62 0zm-11.36 0a3.31 3.31 0 1 0 6.62 0 3.31 3.31 0 0 0-6.62 0zm-11.35 0a3.31 3.31 0 1 0 6.62 0 3.31 3.31 0 0 0-6.62 0z"/>
  <path fill="#5ed291" d="M401.982 304.71c-1.05.06-27.44-3.11-28.64-27.66-1.2-24.55 15.62-30.62 11.19-58s-16-35.18 10-55.13c0 0 11.6-8 12.15-19.29.64-13.49 23.92-29.14 39.54-20.14 15.62 9 11.94 22.89-1.43 45.38-13.37 22.49-.48 26.42 2.08 33.69 2.56 7.27 8.53 14.9-5.11 32.28-13.64 17.38 2.61 38.59-9 55.23-.02.05-10.21 12.37-30.78 13.64z"/>
  <path fill="#e2e2e2" d="M406.102 342.33a1.1 1.1 0 0 0 .82-1.28c-14.18-74.93 14.73-177.11 15-178.14a1.113 1.113 0 1 0-2.14-.61c-.3 1-29.35 103.72-15.07 179.16.116.603.696 1 1.3.89z"/>
  <path fill="#e2e2e2" d="M412.022 203.02a.641.641 0 0 0 .18-.06 1.12 1.12 0 0 0 .57-1.47c-.06-.14-6-13.38-8.37-24.68a1.114 1.114 0 1 0-2.18.46c2.46 11.54 8.45 25 8.51 25.13a1.11 1.11 0 0 0 1.29.62zm-3.81 22.67a1.1 1.1 0 0 0 .43-.22c5.61-4.64 19.7-13.36 19.84-13.45a1.111 1.111 0 1 0-1.17-1.89c-.58.36-14.36 8.89-20.09 13.62a1.12 1.12 0 0 0-.15 1.57c.28.33.72.473 1.14.37zm-3.17 22.07a.92.92 0 0 0 .23-.09 1.11 1.11 0 0 0 .5-1.49l-7.9-15.52a1.12 1.12 0 1 0-2 1l7.86 15.51a1.1 1.1 0 0 0 1.31.59z"/>
  <path fill="#83b9fd" d="M465.342 314.41c-1 .76-9.82-15.24-11.88-35.59 0 0-1-10 8.5-4.91 0 0-9.82-43.76 16.35-40.49 4.51.56 7.08 1.57 9.68 4.42 3.51 3.85 5.45 10.08 1.3 19-8.3 17.9-15.59 24.85-12 34.33 3.59 9.48 2.34 12.22-11.95 23.24z"/>
  <path fill="#4b8dd9" d="M467.872 342.89a1 1 0 0 0 .75-1.13c-6-29.41 2.65-79 3.75-81.13a.94.94 0 0 0-.23-1.32 1 1 0 0 0-1.36.25c-1.79 2.49-9.89 54-4 82.58a.94.94 0 0 0 1.09.75z"/>
  <path fill="#3f71e2" d="M310.262 248.97l-3.45 13.71 41.42 2.22-1.4-17.19z"/>
  <path fill="#3f71e2" d="M327.282 257.9l-12.05 40.7.24 61.5-14.71.3-2.85-62.73 9.85-38.69z"/>
  <path fill="#3f71e2" d="M325.562 263.69l-9.55-.91 7.01 9.48z" opacity=".44"/>
  <path fill="#3f71e2" d="M348.142 262.11l2.78 38.19 11.64 63.04-14.55 2.99-14.06-64.31-4.85-44.05z"/>
  <path fill="#ccd9f8" d="M304.952 360.22l8-.06.21 11.48-22.77.15a4.05 4.05 0 0 1 3.13-3.65l11.28-2.76z"/>
  <path fill="#99c1f9" d="M290.426 373.543l-.012-1.77 22.77-.151.011 1.77z"/>
  <path fill="#fff" d="M310.552 364.96a1.75 1.75 0 1 1-3.5.04 1.75 1.75 0 0 1 3.5-.04z"/>
  <path fill="#ccd9f8" d="M352.222 364.74l7.94-1.06 1.64 11.36-22.57 3a4 4 0 0 1 2.65-4l10.84-4.14z"/>
  <path fill="#99c1f9" d="M339.465 379.773l-.233-1.755 22.573-2.991.232 1.754z"/>
  <path fill="#fff" d="M358.372 368.75a1.75 1.75 0 1 1-2-1.51 1.76 1.76 0 0 1 2 1.51z"/>
  <path fill="#ccd9f8" d="M293.522 227.83c-.163.01-.327.01-.49 0l-37.4-5.56 1.82-12.22 33.51 5a260.264 260.264 0 0 1 16.85-22c-.08.15.37.54 0 0l11.78 1.22c.53 3-2.06 3-20.49 30.84a6.17 6.17 0 0 1-5.58 2.72z"/>
  <path fill="#ccd9f8" d="M328.722 189.83l1.21.2a13.49 13.49 0 0 1 10.94 10.13l8.56 48.76c-18.2 9.92-41.23.1-41.23.1l-4.42-45.47a11.86 11.86 0 0 1 6.52-12.1z"/>
  <path fill="#ebb28b" d="M324.612 194.17l-10.25-.85 1.67-23.27 10.25.86z"/>
  <path fill="#ebb28b" d="M311.872 191.3l15.66-1.37s-.12 9.15-9.56 9c-8.65-.1-6.1-7.63-6.1-7.63z"/>
  <path fill="#fff" d="M256.232 216.09a6.64 6.64 0 1 1-5.44-7.66 6.65 6.65 0 0 1 5.44 7.66z"/>
  <path fill="#fff" d="M259.872 220.08l-6.81-1.16a3.29 3.29 0 0 1-2.69-3.78 3.29 3.29 0 0 1 3.78-2.69l6.82 1.16a3.27 3.27 0 0 1 2.68 3.78 3.29 3.29 0 0 1-3.78 2.69z"/>
  <path fill="#f4be46" d="M247.872 237.678c-9.48-4.624-13.418-16.058-8.794-25.54 4.625-9.48 16.06-13.418 25.54-8.793 9.481 4.624 13.418 16.058 8.794 25.54-4.624 9.48-16.059 13.418-25.54 8.793z"/>
  <path fill="#fae2a3" d="M252.872 227.83a1.69 1.69 0 0 1-1.08-.49l-6.42-6.31a1.715 1.715 0 1 1 2.41-2.44l5.32 5.23 12.24-9.85a1.714 1.714 0 0 1 2.15 2.67l-13.43 10.81a1.69 1.69 0 0 1-1.19.38z"/>
  <path fill="#f0bc99" d="M312.512 185.72c-6.963-.475-12.22-6.507-11.74-13.47l1.1-15.67 25.22 1.74-1.09 15.67a12.62 12.62 0 0 1-13.49 11.73z"/>
  <path fill="#21283a" d="M326.152 169.83l-3.6-.18a1.56 1.56 0 0 1-1.44-1.93c.63-2.57 1.45-7-.21-7.63-2.36-.91-15.41 1.68-19.59-1.92-5.9-5.06-1-12.31 4.58-12.3 5.58.01 4.38 6.41 10.88 6.67 6.5.26 16.49-1.65 11.22 15.29z"/>
  <path fill="#f0bc99" d="M330.542 170.83a4 4 0 1 1-7.985-.484 4 4 0 0 1 7.985.485z"/>
  <path fill="#f0af74" d="M281.282 232.43a6.65 6.65 0 1 1-13.27-.892 6.65 6.65 0 0 1 13.27.893z"/>
  <path fill="#f0af74" d="M285.302 236.04l-6.89-.48a3.29 3.29 0 0 1-3.05-3.5 3.3 3.3 0 0 1 3.5-3l6.9.48a3.29 3.29 0 0 1 3 3.5 3.29 3.29 0 0 1-3.46 3z"/>
  <path fill="#ccd9f8" d="M281.542 238.53v-12.36h34.06l11.71-27.78a6.17 6.17 0 0 1 8.18-3.05 6.17 6.17 0 0 1 3.06 8.18l-13.36 31.4a6.19 6.19 0 0 1-5.63 3.62z"/>
  <path fill="#0050c8" d="M298.862 360.41v-6.43h18.44v6.43zm47.578 6.674l-1.237-6.31 18.096-3.547 1.236 6.31z"/>
  <path fill="#ccd9f8" d="M307.172 238.57h11a8.44 8.44 0 0 0 7.12-4.88l12.23-27.67c-4.74 16.14-11 32.58-11 32.58a5.14 5.14 0 0 1-5 3.38l-14.08-.56z"/>
  <path fill="#99c1f9" d="M150.435 242.882c-.127-.956.703-2.04 1.66-2.166l85.482-11.33c.957-.127 2.04.703 2.167 1.66l3.423 25.824c.127.956-.703 2.04-1.66 2.167l-85.482 11.33c-.957.126-2.04-.704-2.167-1.66z"/>
  <path fill="#d8e7fc" d="M144.628 233.09c-.127-.956.703-2.04 1.66-2.166l85.482-11.33c.957-.127 2.04.703 2.167 1.66l3.423 25.824c.126.957-.704 2.04-1.66 2.167l-85.483 11.33c-.956.126-2.04-.703-2.166-1.66z"/>
  <path fill="#eef4fd" d="M153.182 237.68a.57.57 0 0 1-.56-.49.56.56 0 0 1 .48-.63l46.56-6.18a.54.54 0 0 1 .63.49.56.56 0 0 1-.48.63l-46.56 6.17zm.98 7.42a.56.56 0 0 1-.07-1.11l46.55-6.16a.54.54 0 0 1 .63.48.55.55 0 0 1-.48.63l-46.55 6.18zm.99 7.43a.57.57 0 0 1-.56-.49.56.56 0 0 1 .48-.63l23-3.08a.54.54 0 0 1 .63.48.56.56 0 0 1-.48.63l-23 3.08z"/>
  <path fill="#ccd9f8" d="M121.632 352.83l-7.3-.55-1.07 12 20.78 1.64.12-1.61a3.73 3.73 0 0 0-2.63-3.53l-10.1-3.22zm-94.48-4.37l-.72-7.28-12 1 2 20.74 1.61-.16a3.7 3.7 0 0 0 3-3.2l1.42-10.5z"/>
  <path fill="#3f71e2" d="M57.242 294.2l13.22 42.63-46.12 2.75 1.37 11 56.24-1.89c5-.16 8.78-4 7.76-9.79l-3.15-31.67 29.73-.46-5.14 47 12.81.45 12.56-52.83a10.47 10.47 0 0 0-9.93-12.89l-30.25-.75z"/>
  <path fill="#ebb28b" d="M76.222 244.47l11.37 2.41 4.82-24.12-11.26-2.36z"/>
  <path fill="#f0bc99" d="M85.152 235.35a11.76 11.76 0 0 0 13.93-9.11l3-14.32-23-4.82-3 14.32c-1.338 6.351 2.72 12.586 9.07 13.93z"/>
  <path fill="#21283a" d="M93.652 218.11l-2.2 10.53a7.58 7.58 0 0 1-8.79 6.11l-2.08-.44c-6.94-1.45-11.32-8.59-9.78-15.94l2-9.52 21.65 4.54z"/>
  <path fill="#21283a" d="M92.872 216.56a47.748 47.748 0 0 0 8.81 1.48c4.45.06 7.2-5 4.43-8.51a5.474 5.474 0 0 0-.4-.46c-3.38-3.69-9.3-1.85-9.27-1.48.03.37-3.57 8.97-3.57 8.97z"/>
  <path fill="#21283a" d="M99.872 210.46s-6.62-9.72-18.07-6.86c0 0-4.39-.23-9 5.25l19.26 9.17z"/>
  <path fill="#f0bc99" d="M88.932 222.77a3.44 3.44 0 1 0 6.738 1.392 3.44 3.44 0 0 0-6.738-1.391z"/>
  <path fill="#21283a" d="M83.872 202.18c-1.256 6.018-7.153 9.877-13.17 8.62-6.017-1.256-9.876-7.152-8.62-13.17 1.256-6.017 7.153-9.876 13.17-8.62a11.12 11.12 0 0 1 8.62 13.17z"/>
  <path fill="#ccd9f8" d="M96.652 287.36c-4.24-6.9-2.22-22.84-.48-32.4a11.65 11.65 0 0 0-5.33-12l-13.17-3.9c-3.26-1.13-7.53 2.66-9.86 5.22-20.77 22.82-12.77 51.89-12.77 51.89a64.16 64.16 0 0 0 20.55 1.06h.44a36 36 0 0 0 20.62-9.87z"/>
  <path fill="#f0bc99" d="M146.132 250.03a7.12 7.12 0 1 0 11.543-8.339 7.12 7.12 0 0 0-11.543 8.34z"/>
  <path fill="#f0bc99" d="M144.522 255.59l6-4.34a3.52 3.52 0 0 0 .78-4.91 3.53 3.53 0 0 0-4.91-.79l-6 4.34a3.53 3.53 0 0 0-.79 4.91 3.53 3.53 0 0 0 4.92.79z"/>
  <path fill="#ccd9f8" d="M149.352 255.72l-7-11.23-30.95 19.34-19.41-19.77a6.62 6.62 0 0 0-9.17 1.86 6.63 6.63 0 0 0 1.85 9.18l23 22.12a6.65 6.65 0 0 0 7.17.1z"/>
  <path fill="#3f71e2" d="M86.562 307.2l12.47-7-.67 3.24 17.93 3.3z" opacity=".44"/>
  <path fill="#fff" d="M361.362 130.4l-1-3-1 3a10.29 10.29 0 0 1-5.73 5.83 10.31 10.31 0 0 1 5.73 5.84l1 2.95 1-2.95a10.31 10.31 0 0 1 5.73-5.84 10.29 10.29 0 0 1-5.73-5.83zm-309.38 85.76l-.68-2-.68 2a6.85 6.85 0 0 1-3.78 3.85 6.85 6.85 0 0 1 3.78 3.85l.68 1.95.68-1.95a6.82 6.82 0 0 1 3.78-3.85 6.82 6.82 0 0 1-3.78-3.85z"/>
  <path fill="#b2bad9" d="M153.432 388.11l2.52 4.86 28.91.74 5.89-16.12-2.44-4.69z"/>
  <path fill="#99c1f9" d="M159.872 394.9l25.25 1c2.21.08 4.06-.89 4.21-2.22l1.67-15c.16-1.42-1.69-2.69-4.06-2.78l-25.25-1c-2.21-.09-4.06.89-4.21 2.22l-1.67 15c-.18 1.42 1.67 2.71 4.06 2.78z"/>
  <path fill="#d8e7fc" d="M157.412 390.19l25.25 1c2.21.09 4.06-.89 4.21-2.22l1.67-15c.16-1.43-1.69-2.7-4.06-2.79l-25.26-1c-2.2-.08-4 .9-4.2 2.22l-1.68 15c-.15 1.43 1.7 2.7 4.07 2.79z"/>
</svg>
