<svg xmlns="http://www.w3.org/2000/svg" width="344" height="506">
  <g clip-path="url(#clip-92f7db92-546b-46c0-9c40-443c99bf9525)">
    <path fill="#2753e2" d="M727.217 630.82c106.032-15.828 110.486-100.339 76.817-147.341-47.709-66.577-91.258-55.737-24.72-165.343 22.587-37.228 31.28-84.778 14.16-125.886-12.307-29.575-37.749-53.883-68.497-62.91-17.094-5-35.189-5.334-52.696-8.668-17.508-3.333-35.509-10.4-45.71-25.014-9.827-14.068-10.667-32.575-8.293-49.576 5.667-40.883 28.001-78.311 30.015-119.834 1.68-34.988-9.894-75.164-34.602-100.618-32.349-33.335-82.671-40.496-126.807-43.07-51.843-3-104.099 4.761-153.342 20.855-63.15 20.601-121.473 54.603-173.342 96.005-46.203 36.896-88.005 80.285-117.513 131.5C-4.13 112.006-31.198 244.013 64.06 301.977c114.673 69.777 188.677-51.19 194.904 67.83 3.72 71.23 54.736 182.676 193.877 127.127 139.14-55.55 121.673 156.688 274.375 133.887z"/>
  </g>
</svg>
