<?xml version="1.0" encoding="utf-8"?>
<!-- Generator: Adobe Illustrator 23.0.2, SVG Export Plug-In . SVG Version: 6.00 Build 0)  -->
<!DOCTYPE svg PUBLIC "-//W3C//DTD SVG 1.1//EN" "http://www.w3.org/Graphics/SVG/1.1/DTD/svg11.dtd" [
	<!ENTITY ns_extend "http://ns.adobe.com/Extensibility/1.0/">
	<!ENTITY ns_ai "http://ns.adobe.com/AdobeIllustrator/10.0/">
	<!ENTITY ns_graphs "http://ns.adobe.com/Graphs/1.0/">
	<!ENTITY ns_vars "http://ns.adobe.com/Variables/1.0/">
	<!ENTITY ns_imrep "http://ns.adobe.com/ImageReplacement/1.0/">
	<!ENTITY ns_sfw "http://ns.adobe.com/SaveForWeb/1.0/">
	<!ENTITY ns_custom "http://ns.adobe.com/GenericCustomNamespace/1.0/">
	<!ENTITY ns_adobe_xpath "http://ns.adobe.com/XPath/1.0/">
]>
<svg version="1.1" id="Слой_1" xmlns:x="&ns_extend;" xmlns:i="&ns_ai;" xmlns:graph="&ns_graphs;"
	 xmlns="http://www.w3.org/2000/svg" xmlns:xlink="http://www.w3.org/1999/xlink" x="0px" y="0px" viewBox="0 0 512 512"
	 style="enable-background:new 0 0 512 512;" xml:space="preserve">
<style type="text/css">
	.st0{fill:#4CEECF;}
	.st1{fill:#212F3D;}
</style>
<metadata>
	<sfw  xmlns="&ns_sfw;">
		<slices></slices>
		<sliceSourceBounds  bottomLeftOrigin="true" height="512" width="512" x="0" y="0"></sliceSourceBounds>
	</sfw>
</metadata>
<path class="st0" d="M377,491.5c-64.7,0-117.4-51.4-117.4-114.5c0-63.2,52.7-114.5,117.4-114.5S494.4,313.8,494.4,377
	C494.4,440.2,441.7,491.5,377,491.5z"/>
<path class="st1" d="M482,292.3V46c0-8.3-6.7-15-15-15h-76V15c0-8.3-6.7-15-15-15s-15,6.7-15,15v16h-60V15c0-8.3-6.7-15-15-15
	s-15,6.7-15,15v16h-60V15c0-8.3-6.7-15-15-15s-15,6.7-15,15v16h-60V15c0-8.3-6.7-15-15-15S91,6.7,91,15v16H15C6.7,31,0,37.7,0,46
	v391c0,8.3,6.7,15,15,15h249.8c24.2,36.2,65.5,60,112.2,60c74.4,0,135-60.6,135-135C512,344.9,500.8,315.4,482,292.3z M91,61v15
	c0,8.3,6.7,15,15,15s15-6.7,15-15V61h60v15c0,8.3,6.7,15,15,15s15-6.7,15-15V61h60v15c0,8.3,6.7,15,15,15s15-6.7,15-15V61h60v15
	c0,8.3,6.7,15,15,15s15-6.7,15-15V61h61v60H30V61H91z M30,422V151h422v113.8c-21.5-14.4-47.3-22.8-75-22.8
	c-47.4,0-89.2,24.6-113.3,61.6c-2-1-4.3-1.6-6.7-1.6h-30c-8.3,0-15,6.7-15,15s6.7,15,15,15h22.7c-3.4,9.6-5.7,19.6-6.9,30H227
	c-8.3,0-15,6.7-15,15s6.7,15,15,15h15.8c1.2,10.4,3.5,20.4,6.9,30H30z M377,482c-57.9,0-105-47.1-105-105s47.1-105,105-105
	s105,47.1,105,105S434.9,482,377,482z"/>
<path class="st1" d="M437,362h-45v-45c0-8.3-6.7-15-15-15s-15,6.7-15,15v60c0,8.3,6.7,15,15,15h60c8.3,0,15-6.7,15-15
	S445.3,362,437,362z"/>
<path class="st1" d="M136,182h-30c-8.3,0-15,6.7-15,15s6.7,15,15,15h30c8.3,0,15-6.7,15-15S144.3,182,136,182z"/>
<path class="st1" d="M136,242h-30c-8.3,0-15,6.7-15,15c0,8.3,6.7,15,15,15h30c8.3,0,15-6.7,15-15C151,248.7,144.3,242,136,242z"/>
<path class="st1" d="M136,302h-30c-8.3,0-15,6.7-15,15s6.7,15,15,15h30c8.3,0,15-6.7,15-15S144.3,302,136,302z"/>
<path class="st1" d="M227,212h30c8.3,0,15-6.7,15-15s-6.7-15-15-15h-30c-8.3,0-15,6.7-15,15S218.7,212,227,212z"/>
<path class="st1" d="M227,272h30c8.3,0,15-6.7,15-15c0-8.3-6.7-15-15-15h-30c-8.3,0-15,6.7-15,15C212,265.3,218.7,272,227,272z"/>
<path class="st1" d="M136,362h-30c-8.3,0-15,6.7-15,15s6.7,15,15,15h30c8.3,0,15-6.7,15-15S144.3,362,136,362z"/>
<path class="st1" d="M347,212h30c8.3,0,15-6.7,15-15s-6.7-15-15-15h-30c-8.3,0-15,6.7-15,15S338.7,212,347,212z"/>
</svg>
