<?xml version="1.0" encoding="utf-8"?>
<!-- Generator: Adobe Illustrator 23.0.2, SVG Export Plug-In . SVG Version: 6.00 Build 0)  -->
<!DOCTYPE svg PUBLIC "-//W3C//DTD SVG 1.1//EN" "http://www.w3.org/Graphics/SVG/1.1/DTD/svg11.dtd" [
	<!ENTITY ns_extend "http://ns.adobe.com/Extensibility/1.0/">
	<!ENTITY ns_ai "http://ns.adobe.com/AdobeIllustrator/10.0/">
	<!ENTITY ns_graphs "http://ns.adobe.com/Graphs/1.0/">
	<!ENTITY ns_vars "http://ns.adobe.com/Variables/1.0/">
	<!ENTITY ns_imrep "http://ns.adobe.com/ImageReplacement/1.0/">
	<!ENTITY ns_sfw "http://ns.adobe.com/SaveForWeb/1.0/">
	<!ENTITY ns_custom "http://ns.adobe.com/GenericCustomNamespace/1.0/">
	<!ENTITY ns_adobe_xpath "http://ns.adobe.com/XPath/1.0/">
]>
<svg version="1.1" id="Слой_1" xmlns:x="&ns_extend;" xmlns:i="&ns_ai;" xmlns:graph="&ns_graphs;"
	 xmlns="http://www.w3.org/2000/svg" xmlns:xlink="http://www.w3.org/1999/xlink" x="0px" y="0px" viewBox="0 0 512 512"
	 style="enable-background:new 0 0 512 512;" xml:space="preserve">
<style type="text/css">
	.st0{fill:#4CEECF;}
	.st1{fill:#212F3D;}
</style>
<metadata>
	<sfw  xmlns="&ns_sfw;">
		<slices></slices>
		<sliceSourceBounds  bottomLeftOrigin="true" height="512" width="494.9" x="9" y="0"></sliceSourceBounds>
	</sfw>
</metadata>
<path class="st0" d="M208.4,239.6c5.2,0,9.5-4.2,9.5-9.5v-34.7c0-1.4-0.1-2.8-0.2-4.2l2.9,2.9c1.9,1.9,4.3,2.8,6.7,2.8
	s4.9-0.9,6.7-2.8l3.1-3.1c-0.1,1.4-0.2,2.9-0.2,4.4v34.7c0,5.2,4.3,9.5,9.5,9.5h34.7c33.2,0,60.2-27,60.2-60.2v-34.8
	c0-5.3-4.3-9.5-9.5-9.5h-34.7c-7.9,0-15.4,1.6-22.3,4.3c4.1-19.3-1.3-40.2-16.3-55.1L234,59.8c-3.7-3.7-9.7-3.7-13.4,0L196,84.3
	c-14.9,14.9-20.3,35.8-16.3,55c-6.9-2.7-14.3-4.3-22.1-4.3h-34.7c-5.2,0-9.5,4.2-9.5,9.5v34.8c0,33.2,27,60.2,60.2,60.2L208.4,239.6
	L208.4,239.6z"/>
<path class="st1" d="M208.5,239.6c5.2,0,9.5-4.2,9.5-9.5v-34.7c0-1.4-0.1-2.8-0.2-4.2l2.9,2.9c1.9,1.9,4.3,2.8,6.7,2.8
	s4.9-0.9,6.7-2.8l3.1-3.1c-0.1,1.4-0.2,2.9-0.2,4.4v34.7c0,5.2,4.3,9.5,9.5,9.5h34.7c33.2,0,60.2-27,60.2-60.2v-34.8
	c0-5.3-4.3-9.5-9.5-9.5h-34.7c-7.9,0-15.4,1.6-22.3,4.3c4.1-19.3-1.3-40.2-16.3-55.1L234,59.7c-3.7-3.7-9.7-3.7-13.4,0L196,84.3
	c-14.9,14.9-20.3,35.8-16.3,55c-6.9-2.7-14.3-4.3-22.1-4.3H123c-5.2,0-9.5,4.2-9.5,9.5v34.8c0,33.2,27,60.2,60.2,60.2L208.5,239.6
	L208.5,239.6z M322.4,154.1v25.3c0,22.7-18.5,41.2-41.2,41.2H256v-25.2c0-22.7,18.5-41.2,41.2-41.2h25.2V154.1z M209.5,97.8
	l17.9-17.9l17.9,17.9c16.1,16.1,16.1,42.2,0,58.3L227.4,174l-17.9-17.9C193.5,140,193.5,113.8,209.5,97.8z M132.5,179.4v-25.3h25.2
	c22.7,0,41.2,18.5,41.2,41.2v25.2h-25.2C151,220.6,132.5,202.1,132.5,179.4z"/>
<path class="st1" d="M256,313.4c-15.7,0-28.5,12.8-28.5,28.5h19c0-5.2,4.3-9.5,9.5-9.5c5.2,0,9.5,4.3,9.5,9.5h19
	C284.4,326.2,271.7,313.4,256,313.4z"/>
<path class="st1" d="M331.9,322.9c-15.7,0-28.5,12.8-28.5,28.5h19c0-5.2,4.3-9.5,9.5-9.5s9.5,4.3,9.5,9.5h19
	C360.4,335.7,347.6,322.9,331.9,322.9z"/>
<path class="st1" d="M403.3,286.8l32.8-122.9c0.2-0.8,0.3-1.6,0.3-2.4c0-10.5-8.5-19-19-19h-19c-3.5,0-6.7,1-9.5,2.6V9.5
	c0-5.3-4.3-9.5-9.5-9.5H85h-0.1h-0.1H18.5C13.3,0,9,4.2,9,9.5v436.9c0,3.8,2.3,7.2,5.7,8.7L81,483.6c1.2,0.5,2.5,0.8,3.8,0.8
	c0.1,0,0.1,0,0.2,0h0.1h145.5c27.5,17.4,60,27.6,94.9,27.6c98.4,0,178.4-80,178.4-178.4v-1C503.8,304.2,445.2,292,403.3,286.8z
	 M398.4,161.5h18.7l-35,131.1l0,0l0,0l-5.7,21.7c-1.3,5.1,1.7,10.3,6.8,11.6c0.8,0.2,1.6,0.3,2.4,0.3c4.2,0,8.1-2.8,9.2-7.1
	l3.6-13.8c64.8,7.6,86.4,22.7,86.4,27.2c0,9.3-54.2,31.3-159.4,31.3S166,341.9,166,332.5s54.2-31.3,159.4-31.3
	c5.6,0,11,0.2,16.5,0.4l-1.8,7.1c-1.3,5.1,1.8,10.2,6.9,11.5c0.8,0.2,1.6,0.3,2.3,0.3c4.2,0,8.1-2.9,9.2-7.2l4.7-18.5l34.9-131
	C398.3,163.1,398.4,162.3,398.4,161.5z M75.3,460.5L28,440.1V19h47.3V460.5z M205.3,465.4H94.5V19h275.4v176.8l-23.2,86.8
	c-7-0.2-14.1-0.4-21.4-0.4c-61.7,0-178.4,10.5-178.4,50.3v1c0,6.3,0.3,12.5,1,18.6c0.2,1.8,0.6,3.6,0.8,5.4c0.6,4.3,1.1,8.5,2,12.7
	c0.5,2.4,1.2,4.6,1.8,7c0.9,3.5,1.7,7,2.8,10.4c0.9,2.7,1.9,5.3,2.9,8c1.1,2.9,2.1,5.8,3.3,8.6c1.2,2.9,2.7,5.7,4.1,8.5
	c1.2,2.5,2.4,5,3.7,7.4c1.6,2.9,3.3,5.6,5.1,8.4c1.4,2.2,2.8,4.5,4.3,6.6c1.8,2.7,3.8,5.2,5.8,7.8c1.7,2.2,3.4,4.3,5.2,6.4
	c2,2.3,4,4.5,6.1,6.7s4.2,4.4,6.5,6.5C203.4,463.4,204.3,464.5,205.3,465.4z M325.4,493c-32.5,0-62.7-9.8-87.9-26.5
	c-1.2-0.8-2.4-1.7-3.5-2.5c-2.7-1.9-5.4-3.9-8-6c-0.9-0.8-1.9-1.5-2.8-2.3c-3.4-2.8-6.6-5.8-9.8-8.9c-0.6-0.6-1.1-1.2-1.7-1.8
	c-3.1-3.1-6.1-6.4-8.9-9.8c-0.2-0.2-0.4-0.4-0.5-0.6c-3-3.7-5.9-7.5-8.6-11.5c-0.3-0.5-0.6-1-1-1.4c-5.3-7.9-9.8-16.3-13.7-25.1
	c-0.3-0.7-0.6-1.5-0.9-2.2c-1.8-4.3-3.4-8.7-4.8-13.1c-0.2-0.6-0.3-1.1-0.5-1.7c-1.2-4.1-2.3-8.2-3.2-12.4c-0.2-0.8-0.4-1.7-0.6-2.5
	c-0.4-2.2-0.7-4.4-1-6.6c36.5,18.9,111.8,24.7,157.3,24.7s120.9-5.7,157.3-24.7C470.8,434.4,404.9,493,325.4,493z"/>
</svg>
