<?xml version="1.0" encoding="utf-8"?>
<!-- Generator: Adobe Illustrator 23.0.2, SVG Export Plug-In . SVG Version: 6.00 Build 0)  -->
<!DOCTYPE svg PUBLIC "-//W3C//DTD SVG 1.1//EN" "http://www.w3.org/Graphics/SVG/1.1/DTD/svg11.dtd" [
	<!ENTITY ns_extend "http://ns.adobe.com/Extensibility/1.0/">
	<!ENTITY ns_ai "http://ns.adobe.com/AdobeIllustrator/10.0/">
	<!ENTITY ns_graphs "http://ns.adobe.com/Graphs/1.0/">
	<!ENTITY ns_vars "http://ns.adobe.com/Variables/1.0/">
	<!ENTITY ns_imrep "http://ns.adobe.com/ImageReplacement/1.0/">
	<!ENTITY ns_sfw "http://ns.adobe.com/SaveForWeb/1.0/">
	<!ENTITY ns_custom "http://ns.adobe.com/GenericCustomNamespace/1.0/">
	<!ENTITY ns_adobe_xpath "http://ns.adobe.com/XPath/1.0/">
]>
<svg version="1.1" id="Capa_1" xmlns:x="&ns_extend;" xmlns:i="&ns_ai;" xmlns:graph="&ns_graphs;"
	 xmlns="http://www.w3.org/2000/svg" xmlns:xlink="http://www.w3.org/1999/xlink" x="0px" y="0px" viewBox="0 0 512 512"
	 style="enable-background:new 0 0 512 512;" xml:space="preserve">
<style type="text/css">
	.st0{fill:#4CEECF;}
	.st1{fill:#212F3D;}
</style>
<metadata>
	<sfw  xmlns="&ns_sfw;">
		<slices></slices>
		<sliceSourceBounds  bottomLeftOrigin="true" height="432" width="512" x="0" y="40"></sliceSourceBounds>
	</sfw>
</metadata>
<path class="st0" d="M148.1,451.9C77.5,451.9,20,394.5,20,323.9s57.4-128.1,128.1-128.1c36.6,0,70.8,15.3,95.1,42.3
	c-2.7,3.8-5.2,7.6-7.5,11.7c-19.8,34.3-25,74.2-14.8,112.4c4.7,17.5,12.4,33.5,22.3,47.5C218.9,436.6,184.6,451.9,148.1,451.9z"/>
<g>
	<g>
		<path class="st1" d="M108,291.3c-1.9-1.9-4.4-2.9-7.1-2.9c-2.6,0-5.2,1.1-7.1,2.9c-1.9,1.9-2.9,4.4-2.9,7.1c0,2.6,1.1,5.2,2.9,7.1
			c1.9,1.9,4.4,2.9,7.1,2.9s5.2-1.1,7.1-2.9c1.9-1.9,2.9-4.4,2.9-7.1C110.9,295.7,109.8,293.1,108,291.3z"/>
	</g>
</g>
<g>
	<g>
		<path class="st1" d="M202.3,291.3c-1.9-1.9-4.4-2.9-7.1-2.9c-2.6,0-5.2,1.1-7.1,2.9c-1.9,1.9-2.9,4.4-2.9,7.1
			c0,2.6,1.1,5.2,2.9,7.1c1.9,1.9,4.4,2.9,7.1,2.9s5.2-1.1,7.1-2.9c1.9-1.9,2.9-4.5,2.9-7.1C205.2,295.7,204.2,293.1,202.3,291.3z"
			/>
	</g>
</g>
<g>
	<g>
		<path class="st1" d="M184,346.2c-5.3-1.4-10.8,1.7-12.2,7.1c-2.9,10.7-12.6,18.2-23.6,18.2c-11.1,0-20.8-7.5-23.6-18.2
			c-1.4-5.3-6.9-8.5-12.2-7.1c-5.3,1.4-8.5,6.9-7.1,12.2c5.2,19.4,22.9,33,43,33c20.1,0,37.8-13.6,43-33
			C192.5,353.1,189.3,347.6,184,346.2z"/>
	</g>
</g>
<g>
	<g>
		<path class="st1" d="M256.1,40c-5.5,0-10,4.5-10,10v63.5c0,5.5,4.5,10,10,10s10-4.5,10-10V50C266.1,44.5,261.6,40,256.1,40z"/>
	</g>
</g>
<g>
	<g>
		<path class="st1" d="M263.2,141.8c-1.9-1.9-4.4-2.9-7.1-2.9c-2.6,0-5.2,1.1-7.1,2.9c-1.9,1.9-2.9,4.4-2.9,7.1s1.1,5.2,2.9,7.1
			c1.9,1.9,4.4,2.9,7.1,2.9c2.6,0,5.2-1.1,7.1-2.9s2.9-4.4,2.9-7.1S265.1,143.7,263.2,141.8z"/>
	</g>
</g>
<g>
	<g>
		<path class="st1" d="M195.2,131l-25.5-25.5c-3.9-3.9-10.2-3.9-14.1,0s-3.9,10.2,0,14.1l25.5,25.5c2,2,4.5,2.9,7.1,2.9
			c2.6,0,5.1-1,7.1-2.9C199.1,141.2,199.1,134.9,195.2,131z"/>
	</g>
</g>
<g>
	<g>
		<path class="st1" d="M356.8,105.5c-3.9-3.9-10.2-3.9-14.1,0l-27.2,27.2c-3.9,3.9-3.9,10.2,0,14.1c2,2,4.5,2.9,7.1,2.9
			c2.6,0,5.1-1,7.1-2.9l27.2-27.2C360.7,115.7,360.7,109.4,356.8,105.5z"/>
	</g>
</g>
<g>
	<g>
		<path class="st1" d="M506.9,285.5c-21.1-78.9-102.5-125.8-181.4-104.7c-27.1,7.3-51,21.7-69.7,41.6
			c-27.9-29.8-66.6-46.6-107.9-46.6C66.4,175.9,0,242.3,0,323.9S66.4,472,148.1,472c41.3,0,80-16.9,108-46.7
			c27.7,29.4,66.7,46.7,107.9,46.7c12.6,0,25.5-1.6,38.3-5.1C481.1,445.8,528.1,364.4,506.9,285.5z M148.1,452
			C77.5,452,20,394.5,20,323.9s57.4-128.1,128.1-128.1c36.6,0,70.8,15.3,95.1,42.3c-2.7,3.8-5.2,7.6-7.5,11.7
			c-19.8,34.3-25,74.2-14.8,112.4c4.7,17.5,12.4,33.5,22.3,47.5C218.9,436.7,184.6,452,148.1,452z M397.1,447.6
			c-68.2,18.3-138.6-22.3-156.8-90.6c-8.9-33-4.3-67.6,12.8-97.2c3.2-5.5,6.7-10.6,10.5-15.5c0.2-0.2,0.3-0.4,0.5-0.6
			c16.9-21.2,40.1-36.4,66.8-43.6c11.1-3,22.2-4.4,33.1-4.4c56.5,0,108.4,37.8,123.7,94.9C505.9,358.9,465.3,429.3,397.1,447.6z"/>
	</g>
</g>
<g>
	<g>
		<path class="st1" d="M334.6,304.2c-3.1-11.6-15-18.4-26.6-15.3c-11.6,3.1-18.4,15-15.3,26.6c1.2,4.5,5.2,7.4,9.7,7.4
			c0.9,0,1.7-0.1,2.6-0.3c5.3-1.4,8.5-6.9,7.1-12.3c-0.2-0.9,0.3-1.8,1.2-2.1c0.6-0.1,1,0,1.3,0.2c0.3,0.2,0.6,0.5,0.8,1
			c1.4,5.3,6.9,8.5,12.3,7.1C332.9,315.1,336,309.6,334.6,304.2z"/>
	</g>
</g>
<g>
	<g>
		<path class="st1" d="M425.2,280c-1.5-5.6-5.1-10.3-10.1-13.2c-5-2.9-10.9-3.7-16.5-2.2c-5.6,1.5-10.3,5.1-13.2,10.1
			c-2.9,5-3.7,10.9-2.2,16.5c1.2,4.5,5.2,7.4,9.7,7.4c0.9,0,1.7-0.1,2.6-0.3c5.3-1.4,8.5-6.9,7.1-12.3c-0.1-0.6,0-1,0.2-1.3
			s0.5-0.6,1-0.8c0.6-0.1,1,0,1.3,0.2s0.6,0.5,0.8,1c1.4,5.3,6.9,8.5,12.3,7.1C423.4,290.8,426.6,285.3,425.2,280z"/>
	</g>
</g>
<g>
	<g>
		<path class="st1" d="M416.4,342.8c-1.4-5.3-6.9-8.5-12.3-7.1c-5.3,1.4-8.5,6.9-7.1,12.3c3.4,12.7-4.2,25.8-16.9,29.2
			c-6.2,1.6-12.6,0.8-18.1-2.4c-5.5-3.2-9.5-8.3-11.1-14.5c-1.4-5.3-6.9-8.5-12.3-7.1c-5.3,1.4-8.5,6.9-7.1,12.3
			c3,11.3,10.3,20.8,20.4,26.6c6.8,3.9,14.3,5.9,21.9,5.9c3.8,0,7.6-0.5,11.4-1.5C408.8,390.2,422.7,366.1,416.4,342.8z"/>
	</g>
</g>
</svg>
