<?xml version="1.0" encoding="utf-8"?>
<!-- Generator: Adobe Illustrator 23.0.2, SVG Export Plug-In . SVG Version: 6.00 Build 0)  -->
<!DOCTYPE svg PUBLIC "-//W3C//DTD SVG 1.1//EN" "http://www.w3.org/Graphics/SVG/1.1/DTD/svg11.dtd" [
	<!ENTITY ns_extend "http://ns.adobe.com/Extensibility/1.0/">
	<!ENTITY ns_ai "http://ns.adobe.com/AdobeIllustrator/10.0/">
	<!ENTITY ns_graphs "http://ns.adobe.com/Graphs/1.0/">
	<!ENTITY ns_vars "http://ns.adobe.com/Variables/1.0/">
	<!ENTITY ns_imrep "http://ns.adobe.com/ImageReplacement/1.0/">
	<!ENTITY ns_sfw "http://ns.adobe.com/SaveForWeb/1.0/">
	<!ENTITY ns_custom "http://ns.adobe.com/GenericCustomNamespace/1.0/">
	<!ENTITY ns_adobe_xpath "http://ns.adobe.com/XPath/1.0/">
]>
<svg version="1.1" id="Capa_1" xmlns:x="&ns_extend;" xmlns:i="&ns_ai;" xmlns:graph="&ns_graphs;"
	 xmlns="http://www.w3.org/2000/svg" xmlns:xlink="http://www.w3.org/1999/xlink" x="0px" y="0px" viewBox="0 0 512 512"
	 style="enable-background:new 0 0 512 512;" xml:space="preserve">
<style type="text/css">
	.st0{fill:#212F3D;}
	.st1{fill:#4CEECF;}
</style>
<metadata>
	<sfw  xmlns="&ns_sfw;">
		<slices></slices>
		<sliceSourceBounds  bottomLeftOrigin="true" height="486.1" width="518" x="-3" y="12.9"></sliceSourceBounds>
	</sfw>
</metadata>
<g>
	<path class="st0" d="M335.7,409.9l43.6-42.5c6.8-6.7,9.2-16.4,6.3-25.5c-2.9-9.1-10.6-15.6-20.1-16.9l-18.8-2.7v-25.6l19.1-3.8
		v11.2c0,2.8,1.1,5.4,3.1,7.4s4.6,3.1,7.4,3.1c5.8,0,10.5-4.7,10.5-10.5v-67.5c0-16.6-9.8-31.9-25-38.7l-60-27.3
		c-2-0.9-3.2-2.9-3.2-5v-18.7c15.3-12.7,24-31.3,24-51.2V63.6c0-26.2-8.8-44-9.1-44.8c-1.8-3.6-5.4-5.8-9.4-5.8h-60.5
		c-7.5,0-14.9,2.5-20.9,7.1c-11.7,1.1-33.3,10.6-33.3,39v36.6c0,19.9,8.7,38.4,24,51.2v18.7c0,2.2-1.3,4.1-3.2,5l-60,27.3
		c-15.2,6.9-25,22.1-25,38.7v67.5c0,5.8,4.7,10.5,10.5,10.5s10.5-4.7,10.5-10.5v-16.6l19.1,7.6v27.1l-18.8,2.7
		c-9.4,1.4-17.1,7.9-20.1,16.9c-2.9,9.1-0.5,18.8,6.3,25.5l43.6,42.5l-10.3,60c-1.6,9.4,2.2,18.7,9.9,24.3c4.4,3.2,9.5,4.8,14.6,4.8
		c4,0,7.9-1,11.6-2.9l53.8-28.3l53.8,28.3c3.6,1.9,7.6,2.9,11.6,2.9c5.3,0,10.3-1.7,14.6-4.8c7.7-5.6,11.5-14.9,9.9-24.3
		L335.7,409.9z M234.4,165.5v-6.8c6.9,2.4,14.2,3.6,21.6,3.6c7.4,0,14.6-1.2,21.6-3.6v6.8c0,9.7,5.3,18.6,13.8,23.3
		c-5.4,14.9-19.3,24.7-35.3,24.7s-30-9.8-35.3-24.7C229.1,184.1,234.4,175.2,234.4,165.5z M230.8,43.1c1.9-5.4,7-9,12.8-9h53.3
		c1.6,4.7,3.7,12.6,4.4,22.4c-10.9,3.4-34.9,8.1-62-3.2c-4.8-2-10.2-0.2-13,4.2c-0.1,0.1-5.7,8.8-16,14.9V59.1c0-5,1.1-9,3.3-11.9
		c1.1,1,2.3,1.8,3.7,2.3C222.9,51.4,228.9,48.5,230.8,43.1z M210.4,95.5c13.8-5,23.3-14.1,28.5-20c26.1,8.8,49.3,5.9,62.7,2.6v17.6
		c0,25.2-20.5,45.6-45.6,45.6s-45.6-20.5-45.6-45.6V95.5z M186.8,473.4L198,408c0.6-3.4-0.5-6.9-3-9.3l-47.5-46.3
		c-1.1-1.1-1.5-2.5-1-4s1.6-2.4,3.1-2.6l65.7-9.5c3.4-0.5,6.4-2.6,7.9-5.7l29.4-59.5c0.7-1.4,1.9-2.2,3.5-2.2c1.6,0,2.8,0.8,3.5,2.2
		l29.4,59.5c1.5,3.1,4.5,5.2,7.9,5.7l65.7,9.5c1.5,0.2,2.7,1.2,3.1,2.6c0.5,1.5,0.1,2.9-1,4L317,398.7c-2.5,2.4-3.6,5.9-3,9.3
		l11.2,65.4c0.3,1.5-0.3,2.9-1.5,3.8s-2.7,1-4.1,0.3l-58.7-30.9c-1.5-0.8-3.2-1.2-4.9-1.2c-1.7,0-3.4,0.4-4.9,1.2l-58.7,30.9
		c-1.4,0.7-2.8,0.6-4.1-0.3C187.1,476.3,186.5,474.9,186.8,473.4z M336.2,245.5c-5.8,0-10.5,4.7-10.5,10.5v63.2l-20.4-3l-26.9-54.5
		c-4.2-8.6-12.8-13.9-22.3-13.9s-18.1,5.3-22.3,13.9l-26.9,54.5l-20.4,3V256c0-5.8-4.7-10.5-10.5-10.5s-10.5,4.7-10.5,10.5v16.6
		l-19.1-7.6v-28.4c0-8.4,5-16.1,12.6-19.6l42.7-19.4c8.8,22.2,30.3,36.9,54.4,36.9s45.7-14.7,54.5-36.9l42.6,19.4
		c7.7,3.5,12.6,11.2,12.6,19.6v34.9l-19.1,3.8V256C346.7,250.2,341.9,245.5,336.2,245.5z"/>
	<path class="st0" d="M156.3,411.2c-2-2-4.6-3.1-7.4-3.2h-0.1c-2.8,0-5.4,1.1-7.3,3l-15.6,15.2c-2.5,2.4-3.6,5.9-3,9.3l7.2,41.8
		l-37.5-19.7c-3.1-1.6-6.7-1.6-9.8,0l-37.5,19.7l7.2-41.8c0.6-3.4-0.5-6.9-3-9.3l-30.3-29.6l41.9-6.1c3.4-0.5,6.4-2.6,7.9-5.7
		l18.8-38l16.3,33.1c2.6,5.2,8.9,7.3,14.1,4.8c2.5-1.2,4.4-3.4,5.3-6c0.9-2.7,0.7-5.5-0.5-8L105.9,336c-3.4-6.9-10.3-11.2-18-11.2
		s-14.6,4.3-18,11.2l-17.1,34.7L14.2,376c-7.6,1.1-13.8,6.3-16.2,13.7c-2.4,7.3-0.4,15.2,5.1,20.6l27.7,27l-6.5,38.2
		c-1.3,7.6,1.8,15.1,8,19.6c3.5,2.5,7.5,3.9,11.8,3.9c3.2,0,6.5-0.8,9.4-2.3l34.3-18l34.3,18c3,1.6,6.2,2.3,9.4,2.3
		c4.1,0,8.3-1.3,11.8-3.9c6.2-4.5,9.3-12.1,8-19.6l-6.5-38.2l11.6-11.3c2-2,3.1-4.6,3.2-7.4C159.3,415.8,158.3,413.2,156.3,411.2
		L156.3,411.2z"/>
	<path class="st0" d="M514,389.7c-2.4-7.3-8.6-12.6-16.2-13.7l-38.3-5.6l-17.1-34.7c-3.4-6.9-10.3-11.2-18-11.2s-14.6,4.3-18,11.2
		l-17.1,34.7c-2.6,5.2-0.4,11.5,4.8,14.1c2.5,1.2,5.4,1.4,8,0.5c2.7-0.9,4.8-2.8,6-5.3l16.3-33.1l18.8,38c1.5,3.1,4.5,5.2,7.9,5.7
		l41.9,6.1L462.7,426c-2.5,2.4-3.6,5.9-3,9.3l7.2,41.8l-37.5-19.7c-3.1-1.6-6.7-1.6-9.8,0l-37.5,19.7l7.2-41.8
		c0.6-3.4-0.5-6.9-3-9.3l-15.8-15c-2-2-4.7-3-7.5-3s-5.4,1.2-7.4,3.2s-3,4.7-3,7.5s1.2,5.4,3.2,7.4l11.6,11.3l-6.5,38.2
		c-1.3,7.6,1.8,15.1,8,19.6c3.5,2.6,7.6,3.9,11.8,3.9c3.2,0,6.4-0.8,9.4-2.3l34.3-18l34.3,18c2.9,1.5,6.1,2.3,9.4,2.3
		c4.2,0,8.3-1.3,11.8-3.9c6.2-4.5,9.3-12.1,8-19.6l-6.5-38.2l27.7-27C514.4,404.9,516.4,397,514,389.7z"/>
</g>
<path class="st1" d="M186.6,473.4l11.2-65.4c0.6-3.4-0.5-6.9-3-9.3l-47.5-46.3c-1.1-1.1-1.5-2.5-1-4s1.6-2.4,3.1-2.6l65.7-9.5
	c3.4-0.5,6.4-2.6,7.9-5.7l29.4-59.5c0.7-1.4,1.9-2.2,3.5-2.2s2.8,0.8,3.5,2.2l29.4,59.5c1.5,3.1,4.5,5.2,7.9,5.7l65.7,9.5
	c1.5,0.2,2.7,1.2,3.1,2.6c0.5,1.5,0.1,2.9-1,4L317,398.7c-2.5,2.4-3.6,5.9-3,9.3l11.2,65.4c0.3,1.5-0.3,2.9-1.5,3.8s-2.7,1-4.1,0.3
	l-58.7-30.9c-1.5-0.8-3.2-1.2-4.9-1.2c-1.7,0-3.4,0.4-4.9,1.2l-58.7,30.9c-1.4,0.7-2.8,0.6-4.1-0.3
	C186.9,476.3,186.4,474.9,186.6,473.4z"/>
</svg>
