<?xml version="1.0" encoding="utf-8"?>
<!-- Generator: Adobe Illustrator 23.0.2, SVG Export Plug-In . SVG Version: 6.00 Build 0)  -->
<!DOCTYPE svg PUBLIC "-//W3C//DTD SVG 1.1//EN" "http://www.w3.org/Graphics/SVG/1.1/DTD/svg11.dtd" [
	<!ENTITY ns_extend "http://ns.adobe.com/Extensibility/1.0/">
	<!ENTITY ns_ai "http://ns.adobe.com/AdobeIllustrator/10.0/">
	<!ENTITY ns_graphs "http://ns.adobe.com/Graphs/1.0/">
	<!ENTITY ns_vars "http://ns.adobe.com/Variables/1.0/">
	<!ENTITY ns_imrep "http://ns.adobe.com/ImageReplacement/1.0/">
	<!ENTITY ns_sfw "http://ns.adobe.com/SaveForWeb/1.0/">
	<!ENTITY ns_custom "http://ns.adobe.com/GenericCustomNamespace/1.0/">
	<!ENTITY ns_adobe_xpath "http://ns.adobe.com/XPath/1.0/">
]>
<svg version="1.1" id="Слой_1" xmlns:x="&ns_extend;" xmlns:i="&ns_ai;" xmlns:graph="&ns_graphs;"
	 xmlns="http://www.w3.org/2000/svg" xmlns:xlink="http://www.w3.org/1999/xlink" x="0px" y="0px" viewBox="0 0 496 496"
	 style="enable-background:new 0 0 496 496;" xml:space="preserve">
<style type="text/css">
	.st0{fill:#4CEECF;}
	.st1{fill:#212F3D;}
</style>
<metadata>
	<sfw  xmlns="&ns_sfw;">
		<slices></slices>
		<sliceSourceBounds  bottomLeftOrigin="true" height="496" width="368" x="64" y="0"></sliceSourceBounds>
	</sfw>
</metadata>
<path class="st0" d="M318.5,171.6l3.8-2.8l-0.7-4.7c-0.7-5.1,0.9-10.1,4.4-13.6c3.6-3.6,8.5-5.2,13.6-4.4l4.7,0.7l2.8-3.8
	c6.2-8.2,19.4-8.2,25.5,0l2.8,3.8l4.7-0.7c5.1-0.7,10.1,0.9,13.6,4.4c3.6,3.6,5.2,8.5,4.4,13.6l-0.7,4.7l3.8,2.8
	c4.1,3.1,6.5,7.7,6.5,12.8s-2.4,9.7-6.5,12.8l-3.8,2.8l0.7,4.7c0.7,5.1-0.9,10.1-4.4,13.6c-3.6,3.6-8.5,5.2-13.6,4.4l-4.7-0.7
	l-2.8,3.8c-6.2,8.2-19.4,8.2-25.5,0l-2.8-3.8l-4.7,0.7c-5.1,0.7-10.1-0.9-13.6-4.4c-3.6-3.6-5.2-8.5-4.4-13.6l0.7-4.7l-3.8-2.8
	c-4.1-3.1-6.5-7.7-6.5-12.8S314.4,174.6,318.5,171.6z"/>
<path class="st1" d="M405.9,228.5c5.6-6,8.7-13.7,8.7-21.9c6.1-6,9.4-14,9.4-22.6s-3.4-16.6-9.4-22.6c0.1-8.5-3.2-16.6-9.3-22.7
	c-6.1-6.1-14.5-9.2-22.7-9.3c-6-6.1-14-9.4-22.6-9.4s-16.6,3.4-22.6,9.4c-8.5,0.1-16.6,3.2-22.7,9.3c-6.1,6.1-9.4,14.2-9.3,22.7
	c-0.2,0.2-0.3,0.3-0.4,0.5c-10.7-0.9-22.3-1.5-34.3-1.7l20.7-124.1c1.9-11.6,11.9-20.1,23.7-20.1H392V0h-76.9
	c-19.6,0-36.2,14.1-39.5,33.4L254.6,160c-13.2,0-24.8,0.3-35.1,0.8L161,86.5c4.4-6.4,7-14.2,7-22.5c22.1,0,40-17.9,40-40V0H64v136
	h24c19.3,0,35.5-13.8,39.2-32h0.8c7.9,0,15.2-2.4,21.4-6.3l50.7,64.6c-38.5,3.7-51.5,11.2-55,17.5L80,261.2v19.9
	c0,78.7,29.2,154.1,82.1,212.3l2.4,2.6h183.1l2.4-2.6c52.9-58.2,82.1-133.6,82.1-212.3v-19.9L405.9,228.5z M192,24
	c0,13.2-10.8,24-24,24h-6l-58.7-32H192V24z M88,120h-8V39.4l31.8,58.3C110.9,110.1,100.6,120,88,120z M128,88h-3.2L92,28l60,32.7V64
	C152,77.2,141.2,88,128,88z M153.2,195.3c12.6,6.7,41,12.7,102.8,12.7c17.1,0,33.9-0.7,49-1.9c0.2,0.2,0.3,0.3,0.4,0.5
	c-0.1,8.5,3.2,16.6,9.3,22.7c6.1,6.1,14.2,9.3,22.7,9.3c6,6.1,14,9.4,22.6,9.4s16.6-3.4,22.6-9.4c3.3,0,6.4-0.7,9.5-1.6l23.6,29.5
	c-1.3,16.5-15,29.5-31.8,29.5c-10.1,0-19.4-4.7-25.6-13l-6.4-8.6l-6.4,8.6c-6.2,8.3-15.5,13-25.6,13s-19.4-4.7-25.6-13l-6.4-8.6
	l-6.4,8.6c-6.2,8.3-15.5,13-25.6,13s-19.4-4.7-25.6-13l-6.4-8.6l-6.4,8.6c-6.2,8.3-15.5,13-25.6,13s-19.4-4.7-25.6-13l-6.4-8.6
	l-6.4,8.6c-6.2,8.3-15.5,13-25.6,13c-16.8,0-30.5-13-31.8-29.5L153.2,195.3z M318.5,171.2l3.8-2.8l-0.7-4.7
	c-0.7-5.1,0.9-10.1,4.4-13.6c3.6-3.6,8.5-5.2,13.6-4.4l4.7,0.7l2.8-3.8c6.2-8.2,19.4-8.2,25.5,0l2.8,3.8l4.7-0.7
	c5.1-0.7,10.1,0.9,13.6,4.4c3.6,3.6,5.2,8.5,4.4,13.6l-0.7,4.7l3.8,2.8c4.1,3.1,6.5,7.7,6.5,12.8s-2.4,9.7-6.5,12.8l-3.8,2.8
	l0.7,4.7c0.7,5.1-0.9,10.1-4.4,13.6c-3.6,3.6-8.5,5.2-13.6,4.4l-4.7-0.7l-2.8,3.8c-6.2,8.2-19.4,8.2-25.5,0l-2.8-3.8l-4.7,0.7
	c-5.1,0.7-10.1-0.9-13.6-4.4c-3.6-3.6-5.2-8.5-4.4-13.6l0.7-4.7l-3.8-2.8c-4.1-3.1-6.5-7.7-6.5-12.8S314.4,174.3,318.5,171.2z
	 M296.7,177.3c-0.5,2.2-0.7,4.4-0.7,6.7s0.3,4.5,0.7,6.7c-9.9,0.7-20.5,1.1-31.3,1.2l2.6-15.8C278,176.3,287.6,176.7,296.7,177.3z
	 M251.9,176l-2.6,15.9c-1.8,0-3.7,0-5.5-0.1l-12.1-15.4C238,176.2,244.7,176.1,251.9,176z M212.1,177.5l10.7,13.7
	c-27.2-1.4-46-4.4-56-7.2C175.5,181.6,190.7,179.1,212.1,177.5z M340.4,480H171.6c-44.5-50.1-70.6-113.2-74.9-179.7
	c8.4,7.3,19.3,11.7,31.3,11.7c12,0,23.3-4.4,32-12.4c8.7,7.9,20,12.4,32,12.4s23.3-4.4,32-12.4c8.7,7.9,20,12.4,32,12.4
	s23.3-4.4,32-12.4c8.7,7.9,20,12.4,32,12.4s23.3-4.4,32-12.4c8.7,7.9,20,12.4,32,12.4c12,0,22.9-4.4,31.3-11.7
	C411.1,366.8,384.9,429.9,340.4,480z"/>
<path class="st1" d="M123.8,362.3c10.8,36.3,28.5,69.5,52.6,98.8l12.4-10.2c-22.7-27.6-39.4-59-49.6-93.2L123.8,362.3z"/>
<path class="st1" d="M131.9,326.6l-15.8,2.7c0.9,5.5,2.1,11,3.3,16.5l15.6-3.6C133.8,337,132.8,331.9,131.9,326.6z"/>
<path class="st1" d="M360,208c13.2,0,24-10.8,24-24s-10.8-24-24-24s-24,10.8-24,24S346.8,208,360,208z M360,176c4.4,0,8,3.6,8,8
	s-3.6,8-8,8s-8-3.6-8-8S355.6,176,360,176z"/>
</svg>
