<?xml version="1.0" encoding="utf-8"?>
<!-- Generator: Adobe Illustrator 23.0.2, SVG Export Plug-In . SVG Version: 6.00 Build 0)  -->
<!DOCTYPE svg PUBLIC "-//W3C//DTD SVG 1.1//EN" "http://www.w3.org/Graphics/SVG/1.1/DTD/svg11.dtd" [
	<!ENTITY ns_extend "http://ns.adobe.com/Extensibility/1.0/">
	<!ENTITY ns_ai "http://ns.adobe.com/AdobeIllustrator/10.0/">
	<!ENTITY ns_graphs "http://ns.adobe.com/Graphs/1.0/">
	<!ENTITY ns_vars "http://ns.adobe.com/Variables/1.0/">
	<!ENTITY ns_imrep "http://ns.adobe.com/ImageReplacement/1.0/">
	<!ENTITY ns_sfw "http://ns.adobe.com/SaveForWeb/1.0/">
	<!ENTITY ns_custom "http://ns.adobe.com/GenericCustomNamespace/1.0/">
	<!ENTITY ns_adobe_xpath "http://ns.adobe.com/XPath/1.0/">
]>
<svg version="1.1" id="Слой_1" xmlns:x="&ns_extend;" xmlns:i="&ns_ai;" xmlns:graph="&ns_graphs;"
	 xmlns="http://www.w3.org/2000/svg" xmlns:xlink="http://www.w3.org/1999/xlink" x="0px" y="0px" viewBox="0 0 511 511"
	 style="enable-background:new 0 0 511 511;" xml:space="preserve">
<style type="text/css">
	.st0{fill:#4CEECF;}
	.st1{fill:#212F3D;}
</style>
<metadata>
	<sfw  xmlns="&ns_sfw;">
		<slices></slices>
		<sliceSourceBounds  bottomLeftOrigin="true" height="505.5" width="506" x="2.5" y="2"></sliceSourceBounds>
	</sfw>
</metadata>
<path class="st0" d="M257.1,356.1c-55,0-99.8-44.8-99.8-99.8c0-55,44.8-99.8,99.8-99.8s99.8,44.8,99.8,99.8
	C356.8,311.3,312.1,356.1,257.1,356.1z"/>
<g>
	<path class="st1" d="M508.3,227c-0.8-7.2-4.6-13.9-10.3-18.3l-30.5-23.7l11.4-37.7c2.1-7,1.2-14.7-2.4-21.1
		c-3.7-6.4-9.9-11-17.1-12.7l-38.3-8.9l-4.9-39c-0.9-7.3-4.9-14-10.8-18.3c-6-4.3-13.5-6-20.7-4.6L346.2,50l-20.3-33.6
		c-7.1-11.7-21.9-16.1-34.6-10.3c-0.8,0.4-1.6,0.8-2.3,1.3l-33.5,23.3L223.2,8.3c-6-4.2-13.6-5.7-20.8-4.2
		c-7.2,1.5-13.5,6-17.3,12.3L164.8,50l-38.6-7.4c-7.2-1.4-14.8,0.3-20.7,4.6c-6,4.3-9.9,11-10.8,18.3l-4.9,39l-40.3,9.4l-1.6,0.5
		l-0.6,0.2C34.4,120.3,28,134,32,147.2l11.4,37.7l-31.6,24.6l-1.6,1.4l-0.4,0.4c-9.3,10.2-9.7,25.6-0.9,35.9L33.7,277l-20,36.3
		l-0.9,2.1c-4.4,13.1,1.6,27.4,13.9,33.2l35.6,16.7L59,404.5c-0.6,7.3,1.8,14.7,6.8,20.1c4.9,5.5,12,8.7,19.3,8.8l39.3,0.8
		l12.9,37.1c2.4,7,7.6,12.7,14.4,15.6c6.7,3,14.5,3.1,21.2,0.2l36.2-15.3l28.3,30.2l1.3,1.1l0.5,0.3c4.8,3.5,10.5,5.4,16.4,5.4
		c7.4,0,14.5-3.1,19.5-8.4l26.9-28.7l36.2,15.3c6.8,2.9,14.5,2.8,21.2-0.2c6.7-3,12-8.7,14.4-15.6l12.9-37.1l41.4-0.8l1.7-0.2
		l0.6-0.1c13.6-2.8,22.9-15.1,21.8-28.6l-3.3-39.2l35.6-16.7c6.7-3.1,11.8-8.9,14.1-15.9c2.3-7,1.5-14.7-2-21.1l-19-34.5l24.8-29.7
		c4.8-5.6,7-12.9,6.3-20.2L508.3,227z M453.8,266c-4,4.8-4.7,11.6-1.7,17.1l23.2,42l-43.5,20.4c-5.7,2.7-9.2,8.7-8.7,15l4.1,47.8
		l-48,1c-6.3,0.1-11.9,4.2-14,10.2l-15.7,45.4l-44.2-18.6c-5.8-2.4-12.6-1-16.9,3.6l-32.8,35l-32.8-35c-2.8-3-6.9-4.8-11.1-4.8
		c-2,0-4,0.4-5.8,1.2l-44.2,18.6l-15.7-45.3c-2.1-6-7.7-10.1-14-10.2l-48-1l4.1-47.8c0.5-6.3-2.9-12.3-8.7-15l-43.5-20.4l23.2-42
		c3-5.5,2.3-12.3-1.7-17.1l-30.5-36.4l37.3-29c5-3.8,7.1-10.4,5.3-16.4l-13.9-45.9l46.8-10.9c6.1-1.4,10.8-6.6,11.6-12.9l6-47.6
		l47.2,9c6.2,1.2,12.5-1.6,15.8-7l24.8-41.1l39.4,27.4c5.2,3.6,12.1,3.6,17.3,0l39.4-27.4l24.8,41.1c3.3,5.4,9.6,8.2,15.8,7.1
		l47.1-9l6,47.6c0.8,6.3,5.4,11.4,11.6,12.9l46.8,10.9l-13.9,45.9c-1.8,6,0.3,12.6,5.3,16.4l37.3,29.1L453.8,266z"/>
	<path class="st1" d="M257.1,131.5c-68.8,0-124.7,56-124.7,124.7c0,68.8,56,124.7,124.7,124.7c68.8,0,124.8-56,124.8-124.7
		C381.8,187.5,325.8,131.5,257.1,131.5z M257.1,356.1c-55,0-99.8-44.8-99.8-99.8c0-55,44.8-99.8,99.8-99.8s99.8,44.8,99.8,99.8
		C356.8,311.3,312.1,356.1,257.1,356.1z"/>
	<path class="st1" d="M304.2,214.9c-3.3,0-6.5,1.3-8.8,3.7l-60.9,60.9l-17.8-17.8c-2.4-2.4-5.6-3.6-8.8-3.6s-6.4,1.2-8.8,3.6
		c-2.4,2.4-3.7,5.5-3.7,8.8s1.3,6.5,3.7,8.8l26.6,26.6c2.4,2.4,5.5,3.7,8.8,3.7s6.5-1.3,8.8-3.7l69.7-69.7c4.9-4.9,4.9-12.8,0-17.6
		C310.7,216.2,307.6,214.9,304.2,214.9z"/>
	<g>
		<path class="st1" d="M314.8,216.8c-2.8-2.8-6.6-4.4-10.6-4.4c-4,0-7.8,1.6-10.6,4.4l-59.1,59.1l-16-16c-2.9-2.9-6.8-4.4-10.6-4.4
			c-3.8,0-7.7,1.5-10.6,4.4c-2.8,2.8-4.4,6.6-4.4,10.6s1.6,7.8,4.4,10.6l26.6,26.6c2.8,2.8,6.6,4.4,10.6,4.4c4,0,7.8-1.6,10.6-4.4
			l69.7-69.7C320.7,232.1,320.7,222.6,314.8,216.8z"/>
	</g>
</g>
</svg>
