<?xml version="1.0" encoding="utf-8"?>
<!-- Generator: Adobe Illustrator 23.0.3, SVG Export Plug-In . SVG Version: 6.00 Build 0)  -->
<svg version="1.1" id="Layer_1" xmlns="http://www.w3.org/2000/svg" xmlns:xlink="http://www.w3.org/1999/xlink" x="0px" y="0px"
	 viewBox="0 0 154.2 64.9" style="enable-background:new 0 0 154.2 64.9;" xml:space="preserve">
<style type="text/css">
	.st0{fill:#FB4137;}
</style>
<path class="st0" d="M153.7,9.4c-0.2-0.2-0.9,0.1-1.3,0.3c-0.9,0.5-1.7,1.1-2.6,1.6c-0.5,0.3-1,0.7-1.5,0.1c0.1-0.2,0.1-0.4,0.2-0.6
	c1.3-2.5,1.7-5.3,1.7-8.1c0-1,0-2-1.2-2.8c-0.6,0.5-1.2,0.9-1.7,1.4c-0.9,0.8-1.6,1.7-2.5,2.4c-2.1,1.5-4.3,2.9-6.4,4.4
	c-3.6,2.5-7.7,3.5-11.8,4.8c-1.6,0.5-3.3,0.6-4.9,0.9c-1.5,0.3-3.1,0.7-4.6,1.1c-1.4,0.4-2.6,1-4,1.6c-4.1,1.6-7,4.6-9.3,8.2
	c-0.5,0.8-0.8,1.7-1.1,2.5c-0.3,1-0.5,2.1-0.1,3.4c0.3-0.3,0.4-0.4,0.4-0.5c0.1-0.2,0.1-0.5,0.1-0.7c0.4-2.5,1.3-4.7,2.9-6.6
	c3.2-3.8,7.4-6,12.1-7.2c3.9-1,7.8-1.8,11.7-2.6c3.6-0.8,6.7-2.6,9.8-4.4c1-0.6,1.9-1.4,2.9-2c1.8-1,3.5-2.1,4.8-3.7
	c0.2-0.2,0.4-0.4,0.6-0.5c0.3-0.1,0.7-0.3,0.8-0.2c0.2,0.2,0.4,0.6,0.4,0.9c0,0.9-0.2,1.7-0.3,2.6c-0.2,2-0.9,3.7-2.2,5.3
	c-1.1,1.3-2.2,2.5-3.7,3.4c-0.9,0.5-1.1,1.2-0.7,1.6c0.6,0.6,1,0,1.5-0.2c2.2-1.2,4.4-2.4,6.7-3.6c0.4-0.2,0.8-0.4,1.3-0.5
	c0.3-0.1,0.6,0,1.2,0c-0.3,0.7-0.4,1.2-0.7,1.7c-1.5,3-3.9,5.1-6.6,6.8c-1.1,0.7-2.2,1.3-3.3,1.9c-0.3,0.2-0.5,0.6-0.7,0.9
	c0.3,0.2,0.7,0.6,1,0.7c0.3,0.1,0.7,0.1,1.1,0c1.4-0.3,2.8-0.7,4.3-1.1c0.3-0.1,0.7,0,1.1,0.1c-0.1,0.4-0.1,0.8-0.3,1.1
	c-1.3,1.6-2.8,2.8-4.7,3.5c-0.9,0.3-1.9,0.5-2.8,0.9c-0.4,0.2-0.8,0.4-1.3,0.7c0.8,1.2,1,1.3,2.3,1.3c1.3,0,2.6-0.1,3.9,0.2
	c0.4,1.1-0.4,1.6-0.9,2.1c-1.2,0.9-2.5,1.6-4,1.9c-1.5,0.3-2.9,0.8-4.4,1.3c-0.3,0.1-0.7,0.6-0.6,0.8c0,0.3,0.5,0.6,0.8,0.8
	c0.3,0.2,0.7,0.1,1,0.2c0.7,0.2,1,0.6,0.5,1.2c-0.5,0.5-1.1,1.2-1.8,1.3c-4.1,1-8.1,1-11.9-1.2c-0.5-0.3-1-0.4-1.7-0.7
	c-0.4,2.5,1.8,3.7,2.2,5.6c-1,0.7-1.8,0.2-2.6-0.2c-2.3-1.2-4.6-2.4-6.4-4.3c-0.4-0.4-0.8-0.7-1.2-1c-1.3,0.8-0.2,2-0.7,2.9
	c-0.7,0.3-1.3,0-1.9-0.3c-0.7-0.4-1.3-0.8-2-1.1c-1.8-0.9-3.7-1.3-5.7-0.5c-0.9,0.4-1.5,1-2,1.8c-0.1,0.2,0,0.5,0.1,0.8
	c0.2,0,0.5,0,0.7-0.1c0.1,0,0.2-0.2,0.3-0.3c1.1-1.5,2.6-1.7,4.3-1.2c1.6,0.4,3.1,1.2,4.5,2.1c1.6,1,2.5,0.8,3.6-0.7
	c0.1-0.1,0.2-0.1,0.3-0.1c1.6,0.9,3.2,1.8,4.8,2.6c1,0.5,2,1,3.1,1.3c0.6,0.2,1.6,0.1,2-0.2c0.7-0.6,0-1.4-0.3-2.1
	c-0.1-0.3-0.3-0.6-0.5-1c-0.1-0.3-0.1-0.6-0.2-1.2c0.8,0.1,1.4,0.2,1.9,0.3c2.6,0.9,5.2,1.2,7.9,0.4c0.5-0.1,1-0.2,1.4-0.5
	c0.8-0.4,1.6-0.7,2.2-1.2c1.3-1.1,1.3-1.4,0.4-2.9c-0.1-0.1-0.1-0.3-0.1-0.5c0.3-0.2,0.6-0.4,0.9-0.5c0.9-0.3,1.8-0.5,2.6-0.8
	c2.1-0.7,3.8-1.9,4.9-3.8c0.7-1.3,0.5-1.8-1-2c-0.5-0.1-1-0.2-1.6-0.3c0-0.1-0.1-0.2-0.1-0.3c0.4-0.3,0.8-0.7,1.2-1
	c1.5-1.1,3-2.3,4-3.9c0.4-0.6,0.8-1.3,0.4-2c-0.4-0.8-1.2-0.6-1.9-0.5c-0.5,0-0.9,0.2-1.4,0.2c-0.3,0-0.5-0.1-0.8-0.1
	c0-0.2,0-0.4,0-0.4c0.1-0.2,0.2-0.4,0.4-0.4c1.6-0.8,2.6-2.1,3.8-3.3c1.8-1.8,2.8-4,3.2-6.4C154.2,10.4,154,9.7,153.7,9.4z
	 M40.5,29.1c-1.6-3.3-3.8-6.1-7-7.8c-1-0.6-2.1-1.2-3.1-1.7c-1.2-0.5-2.4-0.9-3.7-1.3c-1.3-0.4-2.7-0.6-4-1.2
	c-3.2-1.4-6.6-2.6-9.3-5c-1.6-1.5-3.3-2.8-4.9-4.2C7.7,7.1,7.2,6.3,6.5,5.5C6.1,5,5.6,4.6,5.2,4.2C4.2,4.7,4.1,5.6,4,6.4
	c-0.2,2.4-0.1,4.8,0.8,7.1c0.1,0.2,0.1,0.3,0.1,0.5c-0.5,0.4-0.9,0-1.3-0.2c-0.7-0.5-1.3-1.1-2-1.6c-0.3-0.2-0.9-0.5-1.1-0.4
	C0.2,12.1,0,12.6,0,13c0.1,2.1,0.8,4.1,2.1,5.8C3,19.9,3.7,21.1,5,21.9c0.1,0.1,0.2,0.3,0.3,0.4c0,0.1,0,0.2,0,0.4
	c-0.2,0-0.4,0-0.6,0c-0.4-0.1-0.7-0.2-1.1-0.3c-0.6-0.1-1.2-0.4-1.6,0.3c-0.4,0.6-0.1,1.2,0.2,1.7c0.7,1.4,1.8,2.6,3,3.6
	C5.4,28.3,5.7,28.6,6,29C6,29,6,29.1,5.9,29.2c-0.4,0-0.9,0.1-1.3,0.1c-1.2,0-1.5,0.5-1,1.6c0.8,1.8,2.1,2.9,3.8,3.7
	C8,35,8.8,35.2,9.4,35.5c0.3,0.1,0.5,0.3,0.7,0.5c-0.1,0.2-0.1,0.3-0.1,0.4C9.1,37.7,9,38,10.1,39c0.5,0.5,1.1,0.8,1.7,1.2
	c0.4,0.2,0.8,0.4,1.2,0.5c2.1,0.9,4.3,0.8,6.6,0.3c0.5-0.1,0.9-0.1,1.6-0.1c-0.1,0.5-0.1,0.8-0.2,1c-0.1,0.3-0.3,0.5-0.5,0.8
	c-0.3,0.6-0.9,1.2-0.4,1.8c0.3,0.4,1.1,0.5,1.6,0.4c0.9-0.2,1.8-0.5,2.6-0.9c1.4-0.6,2.8-1.2,4.2-1.8c0.1,0,0.2,0.1,0.2,0.1
	c0.8,1.3,1.5,1.6,2.9,0.9c1.3-0.6,2.5-1.2,3.9-1.4c1.5-0.3,2.7,0,3.5,1.4c0.1,0.1,0.1,0.3,0.2,0.3c0.2,0.1,0.4,0.1,0.6,0.2
	c0-0.2,0.2-0.5,0.1-0.7c-0.3-0.7-0.8-1.3-1.5-1.7c-1.6-0.9-3.2-0.7-4.8-0.1c-0.6,0.2-1.1,0.5-1.7,0.8c-0.5,0.2-1,0.5-1.6,0.1
	c-0.4-0.7,0.7-1.7-0.4-2.5c-0.3,0.2-0.7,0.4-1.1,0.7c-1.7,1.5-3.6,2.4-5.6,3.2c-0.7,0.3-1.4,0.7-2.2,0c0.5-1.6,2.4-2.5,2.2-4.6
	c-0.6,0.2-1,0.3-1.4,0.4c-3.3,1.5-6.6,1.2-9.9,0c-0.5-0.2-1-0.8-1.4-1.3c-0.4-0.5-0.2-0.9,0.5-1c0.3-0.1,0.6,0,0.9-0.1
	c0.3-0.1,0.7-0.3,0.7-0.6c0.1-0.2-0.2-0.7-0.5-0.8c-1.1-0.6-2.3-1.1-3.5-1.5c-1.2-0.4-2.2-1-3.1-1.9c-0.5-0.5-1-1-0.6-1.9
	c1.1-0.2,2.1,0,3.2,0.1c1.1,0.1,1.3,0.1,2-0.9c-0.3-0.2-0.6-0.5-1-0.7c-0.7-0.3-1.5-0.6-2.2-1c-1.5-0.8-2.7-1.9-3.6-3.4
	c-0.2-0.2-0.1-0.6-0.1-0.9c0.3,0,0.6-0.1,0.9,0c1.2,0.4,2.3,0.8,3.4,1.2c0.3,0.1,0.6,0.1,0.9,0.1c0.3-0.1,0.6-0.3,0.9-0.5
	c-0.2-0.3-0.3-0.6-0.5-0.8c-0.8-0.7-1.7-1.3-2.5-1.9c-2.2-1.7-3.9-3.7-4.9-6.3c-0.2-0.4-0.2-0.9-0.4-1.5c0.4,0,0.7,0,1,0.1
	c0.3,0.1,0.7,0.3,1,0.6c1.7,1.2,3.5,2.5,5.2,3.7c0.4,0.2,0.7,0.8,1.2,0.3c0.3-0.3,0.2-0.9-0.5-1.4c-1.1-0.9-2-2-2.8-3.2
	c-0.9-1.4-1.4-3-1.3-4.7c0-0.7-0.1-1.5,0-2.2c0-0.3,0.2-0.6,0.4-0.7c0.1-0.1,0.5,0.1,0.7,0.2c0.2,0.1,0.3,0.3,0.4,0.5
	c1,1.5,2.3,2.5,3.7,3.6c0.8,0.6,1.4,1.4,2.2,1.9c2.4,1.8,4.8,3.6,7.7,4.6c3.2,1,6.3,2.1,9.4,3.2c3.8,1.4,7.1,3.7,9.4,7.2
	c1.2,1.8,1.8,3.7,1.9,5.9c0,0.2,0,0.4,0.1,0.6c0,0.1,0.1,0.1,0.3,0.4c0.4-1.1,0.3-2,0.2-2.9C41,30.5,40.8,29.8,40.5,29.1z
	 M82.7,53.7c-0.1,0-0.1-0.1-0.1-0.1c-1.8-1.1-3.6-2.3-5.5-3.4c-1.3-0.8-1.9-0.7-2.9,0.4c-0.7,0.7-1.3,1.5-2,2.2
	c-0.5,0.5-1,0.9-1.8,0.5c-1.6-0.9-3.3-1.9-4.9-2.9c-0.6-0.4-1.2-0.9-1.8-1.3c-1.4-0.9-1.8-0.8-3,0.3c-1.3,1.2-2.6,2.6-4,3.8
	c-3.6,3.2-7.2,6.4-10.5,9.9c-0.3,0.4-0.4,0.9-0.6,1.4c0.5,0.1,1,0.4,1.5,0.4c2.3,0,4.5-0.1,6.8-0.1c1.5,0,3-0.1,4.6-0.1
	c1.6,0,3.2-0.1,4.8-0.1c1,0,2.1,0.2,3.1,0c1.9-0.4,3.9-0.4,5.8-0.3c0.8,0.1,1.7,0,2.6,0c4.6-0.1,9.2-0.2,13.7-0.2
	c1.7,0,3.3,0.1,5,0.1c0.4,0,0.9-0.2,1.4-0.2c0.1-0.2,0.1-0.3,0.2-0.5c-0.5-0.5-1-1-1.5-1.5C90.1,58.8,87,55.5,82.7,53.7z M49.9,36.2
	c3.1,2.6,6.2,5.3,9.5,7.8c3.4,2.6,6.8,5.2,10.6,7.2c1.5,0.8,1.7,0.7,3-0.5c1.5-1.5,3.2-2.9,4.8-4.3c0.5-0.5,1.1-1,1.6-1.5
	c2.5-2.2,4.9-4.4,7.4-6.5c1.9-1.6,3.7-3.4,6-4.5c0.5-0.2,0.8-0.7,1.6-1.4c-1.1-0.2-1.6-0.3-2.2-0.3c-2.1,0-4.3,0.1-6.4,0.1
	c-2.4,0.1-4.8,0.1-7.1,0.3c-2.7,0.2-5.4,0-8-0.2c-2.9-0.2-5.8-0.4-8.6-0.1c-3.3,0.3-6.6,1.1-10,1c-1.2,0-2.6-0.4-3.9,0.7
	C48.5,35,49.2,35.6,49.9,36.2z M98,43.8c-0.1-2.6,0-5.3-0.1-7.9c0-0.7-0.1-1.5-0.3-2.2c-0.2-0.7-0.7-0.9-1.3-0.6
	c-2.1,1.1-4.3,2-6.1,3.4c-4,3.3-7.9,6.8-11.8,10.2c-1.3,1.1-1.2,1.7,0.3,2.6c1.7,1,3.3,2.1,5.1,3c3.5,1.7,6.5,4.1,9.2,6.8
	c1,1,2.1,1.8,3.3,2.7c0.5,0.4,1.2,0.5,2.1,1c0.3-2.6,0.3-4.8,0.2-7C98.4,51.9,98.2,47.9,98,43.8z M51.5,56.2c2.5-2.3,5-4.6,7.6-6.9
	c0.4-0.3,0.7-0.7,1-1.1c0.6-0.8,0.6-1.2-0.1-1.9c-0.2-0.2-0.5-0.4-0.7-0.6c-4.4-3.1-8.2-6.8-12.2-10.3c-0.3-0.3-0.7-0.4-1.2-0.7
	c-0.2,0.7-0.5,1.1-0.6,1.7c-0.8,8.2-0.3,16.5-0.4,24.8c0,0.2,0.2,0.4,0.5,0.8c0.6-0.4,1.2-0.7,1.6-1.2C48.5,59.3,50,57.7,51.5,56.2z
	"/>
</svg>
