<svg xmlns="http://www.w3.org/2000/svg" viewBox="0 0 300 55" width="150" height="20" class="c-logo"><title>AnyDesk</title><path d="M46.3 0l-5.5 5.4 19.1 19.1-19.1 19.1 5.5 5.4 24.5-24.5"></path><path d="M.024 24.52L24.56-.014 49.097 24.52 24.56 49.06zM105.5 42.8l-2.6-8.7H89.6L87 42.8h-8.3L91.5 6.3h9.4l12.9 36.5h-8.3zM101 27.7c-2.4-7.8-3.8-12.3-4.1-13.3-.3-1-.5-1.8-.7-2.4-.5 2.1-2.1 7.4-4.7 15.7h9.5zM143.4 42.8h-7.6V26.5c.1-1.6-.3-3.1-1.1-4.5-.8-1-2.1-1.6-3.4-1.5-1.8-.2-3.5.7-4.6 2.1-.9 1.4-1.4 3.8-1.4 7v13.1h-7.6V15h5.8l1 3.6h.4c.8-1.3 2.1-2.4 3.5-3 1.6-.7 3.3-1 5.1-1 3.2 0 5.7.9 7.4 2.6 1.7 1.7 2.5 4.3 2.6 7.5v18.1zM146.5 15h8.3l5.2 15.6c.5 1.6.8 3.2.9 4.8h.1c.2-1.6.5-3.3 1.1-4.8l5.1-15.6h8.1l-11.7 31.3c-.9 2.6-2.5 4.9-4.6 6.5-2 1.5-4.5 2.2-7 2.2-1.3 0-2.6-.1-3.8-.4v-6c1 .2 2 .3 3 .3 1.3 0 2.5-.4 3.5-1.2 1.1-1 1.9-2.3 2.4-3.7l.4-1.4-11-27.6zM210.2 24.2c0 6-1.7 10.5-5.1 13.7-3.4 3.2-8.3 4.8-14.7 4.8H180V6.4h11.4c6 0 10.6 1.6 13.8 4.7 3.3 3.2 4.9 7.5 5 13.1zm-8.1.2c0-7.8-3.4-11.7-10.3-11.7h-4.1v23.7h3.3c7.4 0 11.2-4 11.1-12zM228.4 43.3c-4.5 0-8-1.2-10.5-3.7s-3.8-6-3.8-10.5c0-4.6 1.2-8.2 3.5-10.8 2.3-2.6 5.5-3.8 9.7-3.8 3.9 0 7 1.1 9.2 3.4 2.2 2.2 3.3 5.3 3.3 9.3v3.7h-17.9c0 1.9.7 3.7 1.9 5.1 1.4 1.3 3.2 1.9 5 1.8 1.6 0 3.2-.2 4.7-.5 1.6-.4 3.2-.9 4.7-1.7v5.9c-1.3.7-2.8 1.2-4.2 1.5-1.9.1-3.7.3-5.6.3zm-1.1-23.4c-1.4-.1-2.8.5-3.8 1.5-1 1.2-1.5 2.8-1.6 4.3h10.6c.1-1.6-.5-3.1-1.5-4.3-.9-1.1-2.2-1.6-3.7-1.5zM265.3 34.5c.1 2.5-1 5-3 6.5s-5 2.2-8.9 2.2c-1.7 0-3.5-.1-5.2-.4-1.4-.3-2.7-.7-4-1.2v-6.3c1.5.7 3.1 1.3 4.8 1.7 1.5.4 3.1.6 4.7.7 2.8 0 4.1-.8 4.1-2.4 0-.5-.2-1.1-.5-1.5-.6-.5-1.2-.9-1.9-1.3-.9-.5-2.1-1-3.6-1.7-1.7-.6-3.2-1.5-4.7-2.5-.9-.7-1.7-1.6-2.2-2.6-.5-1.2-.7-2.4-.7-3.6-.1-2.3 1-4.4 2.9-5.7 1.9-1.3 4.6-2 8.1-2 3.4 0 6.7.7 9.8 2.2l-2.3 5.5c-1.4-.6-2.7-1.1-3.9-1.5-1.2-.4-2.4-.6-3.7-.6-2.2 0-3.4.6-3.4 1.8 0 .7.4 1.4 1.1 1.8 1.5.9 3.1 1.6 4.7 2.2 1.7.6 3.3 1.4 4.8 2.5.9.7 1.7 1.6 2.2 2.6.6 1.2.8 2.4.8 3.6zM277.4 27.7l3.3-4.2 7.8-8.5h8.6L286 27l11.7 15.7h-8.8l-8-11.3-3.3 2.6v8.7H270V4.1h7.6v17.3l-.4 6.3h.2z"></path></svg>