<svg width="109" height="22" viewBox="0 0 109 22" fill="none" xmlns="http://www.w3.org/2000/svg">
<path d="M7.596 21.336C6.15867 21.336 4.88933 21.0933 3.788 20.608C2.68667 20.104 1.81867 19.3947 1.184 18.48C0.549333 17.5467 0.222667 16.4173 0.204 15.092H3.984C4.02133 16.0067 4.348 16.7813 4.964 17.416C5.59867 18.032 6.46667 18.34 7.568 18.34C8.52 18.34 9.276 18.116 9.836 17.668C10.396 17.2013 10.676 16.5853 10.676 15.82C10.676 15.0173 10.424 14.392 9.92 13.944C9.43467 13.496 8.78133 13.132 7.96 12.852C7.13867 12.572 6.26133 12.2733 5.328 11.956C3.816 11.4333 2.65867 10.7613 1.856 9.94C1.072 9.11867 0.68 8.02667 0.68 6.664C0.661333 5.50667 0.932 4.51733 1.492 3.696C2.07067 2.856 2.85467 2.212 3.844 1.764C4.83333 1.29733 5.972 1.064 7.26 1.064C8.56667 1.064 9.71467 1.29733 10.704 1.764C11.712 2.23067 12.496 2.884 13.056 3.724C13.6347 4.564 13.9427 5.56267 13.98 6.72H10.144C10.1253 6.02933 9.85467 5.42267 9.332 4.9C8.828 4.35867 8.11867 4.088 7.204 4.088C6.42 4.06933 5.75733 4.26533 5.216 4.676C4.69333 5.068 4.432 5.64667 4.432 6.412C4.432 7.06533 4.63733 7.588 5.048 7.98C5.45867 8.35333 6.01867 8.67067 6.728 8.932C7.43733 9.19333 8.24933 9.47333 9.164 9.772C10.1347 10.108 11.0213 10.5 11.824 10.948C12.6267 11.396 13.2707 11.9933 13.756 12.74C14.2413 13.468 14.484 14.4107 14.484 15.568C14.484 16.5947 14.2227 17.5467 13.7 18.424C13.1773 19.3013 12.4027 20.0107 11.376 20.552C10.3493 21.0747 9.08933 21.336 7.596 21.336ZM24.331 21.336C22.9124 21.336 21.6617 21.028 20.579 20.412C19.4964 19.796 18.6377 18.9373 18.003 17.836C17.387 16.7347 17.079 15.4747 17.079 14.056C17.079 12.6373 17.387 11.3773 18.003 10.276C18.6377 9.17467 19.4964 8.316 20.579 7.7C21.6617 7.084 22.9124 6.776 24.331 6.776C26.1044 6.776 27.5977 7.24267 28.811 8.176C30.0244 9.09067 30.799 10.36 31.135 11.984H27.355C27.1684 11.312 26.795 10.7893 26.235 10.416C25.6937 10.024 25.0497 9.828 24.303 9.828C23.3137 9.828 22.4737 10.2013 21.783 10.948C21.0924 11.6947 20.747 12.7307 20.747 14.056C20.747 15.3813 21.0924 16.4173 21.783 17.164C22.4737 17.9107 23.3137 18.284 24.303 18.284C25.0497 18.284 25.6937 18.0973 26.235 17.724C26.795 17.3507 27.1684 16.8187 27.355 16.128H31.135C30.799 17.696 30.0244 18.956 28.811 19.908C27.5977 20.86 26.1044 21.336 24.331 21.336ZM34.3161 21V0.839999H37.9001V9.24C38.3668 8.47467 38.9921 7.87733 39.7761 7.448C40.5788 7 41.4934 6.776 42.5201 6.776C44.2374 6.776 45.5628 7.31733 46.4961 8.4C47.4481 9.48267 47.9241 11.0693 47.9241 13.16V21H44.3681V13.496C44.3681 12.3013 44.1254 11.3867 43.6401 10.752C43.1734 10.1173 42.4268 9.8 41.4001 9.8C40.3921 9.8 39.5521 10.1547 38.8801 10.864C38.2268 11.5733 37.9001 12.5627 37.9001 13.832V21H34.3161Z" fill="#140A05"/>
<path d="M58.0993 21.336C56.6993 21.336 55.4579 21.0373 54.3753 20.44C53.2926 19.8427 52.4433 19.0027 51.8273 17.92C51.2113 16.8373 50.9033 15.5867 50.9033 14.168C50.9033 12.7307 51.2019 11.452 51.7993 10.332C52.4153 9.212 53.2553 8.344 54.3193 7.728C55.4019 7.09333 56.6713 6.776 58.1273 6.776C59.4899 6.776 60.6939 7.07467 61.7393 7.672C62.7846 8.26933 63.5966 9.09067 64.1753 10.136C64.7726 11.1627 65.0713 12.3107 65.0713 13.58C65.0713 13.7853 65.0619 14 65.0433 14.224C65.0433 14.448 65.0339 14.6813 65.0153 14.924H54.4593C54.5339 16.0067 54.9073 16.856 55.5793 17.472C56.2699 18.088 57.1006 18.396 58.0713 18.396C58.7993 18.396 59.4059 18.2373 59.8913 17.92C60.3953 17.584 60.7686 17.1547 61.0113 16.632H64.6513C64.3899 17.5093 63.9513 18.312 63.3353 19.04C62.7379 19.7493 61.9913 20.3093 61.0953 20.72C60.2179 21.1307 59.2193 21.336 58.0993 21.336ZM58.1273 9.688C57.2499 9.688 56.4753 9.94 55.8033 10.444C55.1313 10.9293 54.7019 11.676 54.5153 12.684H61.4313C61.3753 11.7693 61.0393 11.0413 60.4233 10.5C59.8073 9.95867 59.0419 9.688 58.1273 9.688ZM68.0856 21V7.112H71.2496L71.5576 8.988C72.0056 8.316 72.5936 7.784 73.3216 7.392C74.0683 6.98133 74.927 6.776 75.8976 6.776C78.0443 6.776 79.5656 7.60667 80.4616 9.268C80.9656 8.50267 81.6376 7.896 82.4776 7.448C83.3363 7 84.2696 6.776 85.2776 6.776C87.0883 6.776 88.479 7.31733 89.4496 8.4C90.4203 9.48267 90.9056 11.0693 90.9056 13.16V21H87.3216V13.496C87.3216 12.3013 87.0883 11.3867 86.6216 10.752C86.1736 10.1173 85.4736 9.8 84.5216 9.8C83.551 9.8 82.767 10.1547 82.1696 10.864C81.591 11.5733 81.3016 12.5627 81.3016 13.832V21H77.7176V13.496C77.7176 12.3013 77.4843 11.3867 77.0176 10.752C76.551 10.1173 75.8323 9.8 74.8616 9.8C73.9096 9.8 73.135 10.1547 72.5376 10.864C71.959 11.5733 71.6696 12.5627 71.6696 13.832V21H68.0856ZM101.056 21.336C99.6563 21.336 98.4149 21.0373 97.3323 20.44C96.2496 19.8427 95.4003 19.0027 94.7843 17.92C94.1683 16.8373 93.8603 15.5867 93.8603 14.168C93.8603 12.7307 94.1589 11.452 94.7563 10.332C95.3723 9.212 96.2123 8.344 97.2763 7.728C98.3589 7.09333 99.6283 6.776 101.084 6.776C102.447 6.776 103.651 7.07467 104.696 7.672C105.742 8.26933 106.554 9.09067 107.132 10.136C107.73 11.1627 108.028 12.3107 108.028 13.58C108.028 13.7853 108.019 14 108 14.224C108 14.448 107.991 14.6813 107.972 14.924H97.4163C97.4909 16.0067 97.8643 16.856 98.5363 17.472C99.2269 18.088 100.058 18.396 101.028 18.396C101.756 18.396 102.363 18.2373 102.848 17.92C103.352 17.584 103.726 17.1547 103.968 16.632H107.608C107.347 17.5093 106.908 18.312 106.292 19.04C105.695 19.7493 104.948 20.3093 104.052 20.72C103.175 21.1307 102.176 21.336 101.056 21.336ZM101.084 9.688C100.207 9.688 99.4323 9.94 98.7603 10.444C98.0883 10.9293 97.6589 11.676 97.4723 12.684H104.388C104.332 11.7693 103.996 11.0413 103.38 10.5C102.764 9.95867 101.999 9.688 101.084 9.688Z" fill="#FE7E41"/>
</svg>
