<?xml version="1.0" encoding="utf-8"?>
<!-- Generator: Adobe Illustrator 23.0.3, SVG Export Plug-In . SVG Version: 6.00 Build 0)  -->
<svg version="1.1" id="Layer_1" xmlns="http://www.w3.org/2000/svg" xmlns:xlink="http://www.w3.org/1999/xlink" x="0px" y="0px"
	 viewBox="0 0 37 30.7" style="enable-background:new 0 0 37 30.7;" xml:space="preserve">
<style type="text/css">
	.st0{fill:#FB4137;}
</style>
<g>
	<path class="st0" d="M31.1,30.7c-0.5,0.2-4.3-5.9-5.6-6.5s-3,0.8-4.8,1.1c-1.3,0.2-5,0.7-6.3,0.9c-0.5,0.1-7.7,0-10.9-4.3
		c-1.2-1.4-2.1-2.9-2.8-4.6c-1.5-3.7-0.6-8.3,2.4-11C5.5,4.2,7.8,2.1,11,1.1c2.6-0.8,7.5-1.5,10.3-0.9c3.2,0.7,6.3,1.6,9.1,3.1
		c3.8,2,5.8,5.4,6.5,9.5c0.4,2.3-0.7,4.6-2.6,6.1c-1.7,1.2-2.5,2.6-2.9,4.7C31.1,25.5,31.5,30.6,31.1,30.7z M30.1,27.3
		C30,25.8,30,25,29.8,22.5c-0.3-2.5,0-4.3,2.2-6c1.8-1.4,2.7-3.7,2.3-6s-1.8-4.3-4-5.3c-2.2-1.1-4.5-2.1-6.9-2.6
		C19.7,1.8,16.2,2.2,13,4c-1.7,1-8.5,3.4-7.9,10.1c0.2,2.3,3.4,8.7,10.9,9.3c3.1,0.2,6-0.9,8.8-2c1-0.4,1.7-0.1,2.2,0.7
		c0.2,0.4,0.4,0.7,0.7,1.1C28.3,24.5,30,27.3,30.1,27.3z"/>
	<path class="st0" d="M21.6,13c-0.3,1.1-0.7,1.5-1.4,1.3c-1.3-0.3-2.7-1.6-2.6-2.3s1.7-1.8,2.4-1.6C21.1,10.6,21.9,11.8,21.6,13z"/>
	<path class="st0" d="M28.7,12.8c-0.2,0.8-1,1.3-1.7,1.1c-0.9-0.2-1.9-1.6-1.7-2.3c0.2-0.8,1.3-1.3,2.1-1.1
		C28.4,10.8,29,11.9,28.7,12.8z"/>
	<path class="st0" d="M11.3,13.3c-0.2-0.3-0.5-1-0.3-1.3c0.2-0.4,0.8-0.8,1.3-0.8c0.4,0,0.9,0.5,1.1,0.8
		C14.5,13.5,12.7,15.4,11.3,13.3z"/>
</g>
</svg>
