<?xml version="1.0" encoding="utf-8"?>
<!-- Generator: Adobe Illustrator 19.2.0, SVG Export Plug-In . SVG Version: 6.00 Build 0)  -->
<svg version="1.1" id="Layer_1" xmlns="http://www.w3.org/2000/svg" xmlns:xlink="http://www.w3.org/1999/xlink" x="0px" y="0px"
	 viewBox="0 0 120 100" style="enable-background:new 0 0 120 100;" xml:space="preserve">
<style type="text/css">
	.st0{fill:#C2EAFC;}
	.st1{fill:#E7F7FE;}
	.st2{fill:#354052;}
	.st3{fill:#00AAFF;}
	.st4{fill:#BFC7D2;}
	.st5{fill:#FFFFFF;}
	.st6{fill:#FDFEFF;}
</style>
<g>
	<path class="st0" d="M34.3,85h53.9c11.8-8.5,19.5-22.4,19.5-38.2C107.7,21,86.9,0,61.2,0S14.7,21,14.7,46.8
		C14.7,62.6,22.4,76.5,34.3,85z"/>
	<ellipse class="st1" cx="61.2" cy="46.8" rx="30" ry="30.2"/>
</g>
<g>
	<path class="st2" d="M95.9,88h-78c-0.6,0-1-0.4-1-1v-1c0-0.6,0.4-1,1-1h78c0.6,0,1,0.4,1,1v1C96.9,87.5,96.5,88,95.9,88z"/>
	<path class="st2" d="M102.9,88h-3c-0.6,0-1-0.4-1-1v-1c0-0.6,0.4-1,1-1h3c0.6,0,1,0.4,1,1v1C103.9,87.5,103.5,88,102.9,88z"/>
</g>
<g>
	<path class="st3" d="M77.9,94h-46c-0.5,0-1-0.4-1-1v-1c0-0.5,0.4-1,1-1h46c0.6,0,1,0.5,1,1v1C78.9,93.5,78.5,94,77.9,94z"/>
	<path class="st3" d="M88.9,94h-7c-0.6,0-1-0.4-1-1v-1c0-0.6,0.4-1,1-1h7c0.6,0,1,0.4,1,1v1C89.9,93.6,89.5,94,88.9,94z"/>
</g>
<g>
	<path class="st3" d="M70.9,100h-28c-0.5,0-1-0.4-1-1v-1c0-0.6,0.5-1,1-1h28c0.5,0,1,0.4,1,1v1C71.9,99.6,71.5,100,70.9,100z"/>
	<path class="st3" d="M77.9,100h-3c-0.5,0-1-0.4-1-1v-1c0-0.6,0.5-1,1-1h3c0.5,0,1,0.4,1,1v1C78.9,99.6,78.5,100,77.9,100z"/>
</g>
<g>
	<path class="st4" d="M2.5,62L2.5,62C2.2,62,2,61.8,2,61.5v-4C2,57.2,2.2,57,2.5,57h0C2.8,57,3,57.2,3,57.5v4C3,61.8,2.8,62,2.5,62z
		"/>
	<path class="st4" d="M5,59.5L5,59.5C5,59.8,4.8,60,4.5,60h-4C0.2,60,0,59.8,0,59.5v0C0,59.2,0.2,59,0.5,59h4C4.8,59,5,59.2,5,59.5z
		"/>
</g>
<g>
	<path class="st4" d="M110.5,17L110.5,17c-0.3,0-0.5-0.2-0.5-0.5v-4c0-0.3,0.2-0.5,0.5-0.5l0,0c0.3,0,0.5,0.2,0.5,0.5v4
		C111,16.8,110.8,17,110.5,17z"/>
	<path class="st4" d="M113,14.5L113,14.5c0,0.3-0.2,0.5-0.5,0.5h-4c-0.3,0-0.5-0.2-0.5-0.5v0c0-0.3,0.2-0.5,0.5-0.5h4
		C112.8,14,113,14.2,113,14.5z"/>
</g>
<g>
	<path class="st4" d="M117.5,68L117.5,68c-0.3,0-0.5-0.2-0.5-0.5v-4c0-0.3,0.2-0.5,0.5-0.5l0,0c0.3,0,0.5,0.2,0.5,0.5v4
		C118,67.8,117.8,68,117.5,68z"/>
	<path class="st4" d="M120,65.5L120,65.5c0,0.3-0.2,0.5-0.5,0.5h-4c-0.3,0-0.5-0.2-0.5-0.5l0,0c0-0.3,0.2-0.5,0.5-0.5h4
		C119.8,65,120,65.2,120,65.5z"/>
</g>
<g>
	<path class="st5" d="M68.3,16.7H69c1.1,0,2,0.9,2,2c0,1.1-0.9,2-2,2h-1.1H54.4h-1.1c-1.1,0-2-0.9-2-2c0-1.1,0.9-2,2-2H54H68.3z"/>
	<rect x="57.8" y="27.1" class="st5" width="6.8" height="6.6"/>
	<path class="st5" d="M57.8,29.9c0.5,0.2,1.1,0.3,1.6,0.3h3.5c0.6,0,1.2-0.1,1.7-0.4v-2.8h-6.8V29.9z"/>
	<g>
		<path class="st5" d="M27.6,40.7l-3.7-4.6c-0.3-0.4-0.4-0.9-0.3-1.4l1.2-4.9c0.3-1,1.5-1.2,2.2-0.4l5.2,6.9L27.6,40.7z"/>
		<path class="st5" d="M94.9,40.7l3.6-4.5c0.4-0.4,0.5-1,0.3-1.6l-1.2-4.8c-0.3-1-1.5-1.2-2.2-0.4l-5.2,6.9L94.9,40.7z"/>
	</g>
	<path class="st3" d="M92.3,33.7L87,40.3l-12.9-6.7c-0.5-0.3-1.1-0.4-1.7-0.4h-7.8h-6.8H50c-0.6,0-1.1,0.1-1.7,0.4l-12.9,6.7
		l-5.3-6.6l-5.3,3.6l6.6,8.2c1.5,1.9,4.3,2.4,6.4,1l10.8-6.1c0.4-0.3,1,0,1,0.5l1.6,23l10,3.2l10-3.2l1.5-23c0-0.5,0.6-0.8,1-0.5
		l10.8,6.1c2.1,1.4,4.9,0.9,6.4-1l6.6-8.2L92.3,33.7z"/>
	<path class="st5" d="M62.5,7.7c3.6,0,6.5,3.1,6.1,6.6l-0.8,9.5c-0.3,2.4-2.4,4.3-4.8,4.3h-3.5c-2.5,0-4.6-1.8-4.8-4.3l-0.8-9.5
		c-0.3-3.6,2.5-6.6,6.1-6.6L62.5,7.7z"/>
	<polygon class="st5" points="80.8,73.2 76.8,85.7 73.4,84.6 77.5,72.2 	"/>
	<path class="st3" d="M45,72.2l2.9,9.1l13.3-4.2l15.9-5l7.2-2.3c1.7-0.5,2.6-2.3,2.1-4l-1.1-3.4c-0.5-1.5-2.1-2.3-3.5-1.8L61.2,67
		L45,72.2z"/>
	<polygon class="st5" points="45,72.2 49,84.6 45.7,85.7 41.7,73.2 	"/>
	<path class="st5" d="M61.2,38.4c2.9,0,5.3-2.4,5.3-5.3h-1.9h-6.8h-1.9C55.8,36,58.2,38.4,61.2,38.4z"/>
	<path class="st5" d="M59.5,13c0,0,2.5,3.5,9,3.6l0.2-2.3c0.3-3.6-2.5-6.6-6.1-6.6h-2.6c-3.6,0-6.5,3.1-6.1,6.6l0.1,1.4
		C57.6,15.6,59.5,13,59.5,13z"/>
	<path class="st6" d="M74.5,81.3l2.9-9.1L40.6,60.5c-1.4-0.5-3,0.3-3.5,1.8L36,65.8c-0.5,1.6,0.4,3.4,2,3.9L74.5,81.3z"/>
	<path class="st2" d="M100.2,35.2l-2.1-8.1c-0.1-0.4-0.5-0.8-0.9-0.9c-0.5-0.1-0.9,0.1-1.2,0.4l-6.8,8.9l-2.5,3.2l-12.8-6.7
		c0,0,0,0,0,0c0,0-0.1,0-0.1,0c0,0,0,0,0,0c0,0-0.1,0-0.1,0c0,0,0,0,0,0c0,0-0.1,0-0.1,0c0,0,0,0,0,0c0,0-0.1,0-0.1,0h-7.5v-3.7
		c1.6-0.9,2.7-2.5,2.9-4.4c0,0,0,0,0,0l0.2-2.5h0c1.8,0,3.2-1.4,3.2-3.1c0-1.6-1.1-2.8-2.6-3.1l0-0.5c0.2-2-0.5-4-1.9-5.4
		c-1.4-1.5-3.3-2.3-5.3-2.3h-2.5c-2,0-3.9,0.8-5.3,2.3c-1.4,1.5-2,3.4-1.9,5.4l0,0.5c-1.5,0.3-2.6,1.5-2.6,3.1
		c0,1.7,1.4,3.1,3.2,3.1h0l0.2,2.5c0,0,0,0,0,0c0.2,1.9,1.4,3.6,3,4.5V32h-7.5c0,0-0.1,0-0.1,0c0,0,0,0,0,0c0,0-0.1,0-0.1,0
		c0,0,0,0,0,0c0,0-0.1,0-0.1,0c0,0,0,0,0,0c0,0-0.1,0-0.1,0c0,0,0,0,0,0l-12.8,6.7l-2.5-3.2l-6.8-8.9c-0.3-0.4-0.7-0.5-1.2-0.4
		c-0.5,0.1-0.8,0.4-0.9,0.9l-2.1,8.1c-0.1,0.4,0,0.7,0.2,1l4.2,5.2c0,0,0,0,0,0l3.8,4.8c1.2,1.5,2.9,2.3,4.7,2.3
		c1.1,0,2.3-0.3,3.3-1l10.1-5.7l1.4,20.5L41,59.4c-2.1-0.7-4.3,0.5-5,2.5l-1.1,3.6c-0.4,1.1-0.3,2.3,0.3,3.3c0.5,1,1.4,1.8,2.5,2.1
		l3.7,1.2l-0.1,0c-0.6,0.2-1,0.9-0.8,1.5l4,12.4c0.2,0.5,0.6,0.8,1.1,0.8c0.1,0,0.2,0,0.4-0.1l3.3-1c0.3-0.1,0.6-0.3,0.7-0.6
		c0.1-0.3,0.2-0.6,0.1-0.9l-0.7-2.2l11.8-3.7L73,82.1l-0.7,2.2c-0.1,0.3-0.1,0.6,0.1,0.9c0.1,0.3,0.4,0.5,0.7,0.6l3.3,1
		c0.1,0,0.2,0.1,0.4,0.1c0.5,0,1-0.3,1.1-0.8l4-12.4c0.2-0.6-0.1-1.3-0.8-1.5l-0.1,0l3.6-1.1c1.1-0.4,2-1.1,2.6-2.2
		c0.5-1,0.6-2.2,0.3-3.3L86.5,62c-0.3-1-1-1.8-2-2.3c-1-0.5-2-0.6-3.1-0.3l-8.8,2.8l1.4-20.4L84,47.5c1,0.6,2.1,1,3.3,1
		c1.8,0,3.5-0.8,4.7-2.3l3.8-4.8c0,0,0,0,0,0l4.2-5.2C100.2,36,100.3,35.6,100.2,35.2z M96.4,30.1l1.3,5.1l-0.3,0.4L94,33.3
		L96.4,30.1z M69.8,18.2c0,0.4-0.2,0.7-0.6,0.7l0.1-1.5C69.6,17.6,69.8,17.9,69.8,18.2z M56.4,10.8c0.9-1,2.2-1.5,3.5-1.5h2.5
		c1.4,0,2.6,0.5,3.5,1.5s1.4,2.3,1.2,3.6l-0.1,0.9c-5-0.3-6.5-2.6-6.7-2.8c-0.2-0.4-0.6-0.6-1.1-0.6c-0.5,0-0.8,0.3-1,0.7
		c-0.1,0.1-0.9,1.6-3.2,1.9l0-0.1C55,13,55.5,11.7,56.4,10.8z M52.5,18.2c0-0.3,0.2-0.6,0.5-0.7l0.1,1.5
		C52.8,18.8,52.5,18.5,52.5,18.2z M55.6,20L55.6,20l-0.3-3.2c2-0.3,3.3-1.2,4.1-1.9c1.2,1.1,3.5,2.4,7.4,2.7l-0.2,2.3
		c0,0.1,0,0.2,0,0.3c0,0,0,0,0,0l-0.3,3.4c-0.2,1.8-1.7,3.1-3.5,3.1h-3.4c-1.8,0-3.3-1.3-3.5-3.1L55.6,20z M59.5,29.1h3.4
		c0.2,0,0.4,0,0.6,0v3.7c0,0.1,0,0.3,0,0.4c0,0.7,0.5,1.2,1.2,1.2H65c-0.5,1.7-2,2.8-3.8,2.8c-1.9,0-3.3-1.1-3.8-2.8h0.4
		c0.7,0,1.2-0.5,1.2-1.2c0-0.1,0-0.3,0-0.4V29C59.2,29.1,59.3,29.1,59.5,29.1z M26,30.1l2.5,3.2l-3.4,2.3l-0.3-0.4L26,30.1z
		 M37.2,45.4C37.2,45.5,37.2,45.5,37.2,45.4c-1.6,1.1-3.7,0.7-4.9-0.7L28.5,40l0,0l0,0l-1.9-2.4l3.3-2.2l4.6,5.7
		c0.4,0.4,1,0.6,1.5,0.3L48.1,35l0.3,4.1L37.2,45.4z M50.8,39.9c0-0.1,0-0.2,0-0.3l-0.4-5.4h4.1c0.5,2.6,2.7,5.2,5.3,5.7
		c0,2.2,0.1,7,0,12.2c0,4,0,7.2,0,9.6c0,1.8,0,2.9,0,3.6L52.4,63L50.8,39.9z M46.5,84.2L43.2,74l1-0.3l0.4,1.2l2.2,6.8c0,0,0,0,0,0
		l0.7,2.2L46.5,84.2z M48.7,79.8l-0.8-2.5l-1.1-3.5l10.5,3.3L48.7,79.8z M45.9,71c-0.1-0.1-0.3-0.1-0.4-0.1l-7.1-2.2
		c-0.5-0.2-0.9-0.5-1.1-1c-0.2-0.5-0.3-1-0.1-1.5l1.1-3.6c0.2-0.7,0.8-1.1,1.5-1.1c0.2,0,0.3,0,0.5,0.1l35.7,11.3l-2.1,6.4l-0.2,0.5
		L45.9,71z M76,84.2l-1-0.3l1.4-4.3l1.9-5.9l1,0.3L76,84.2z M82.1,61.7c0.4-0.1,0.8-0.1,1.2,0.1c0.4,0.2,0.7,0.5,0.8,0.9l1.1,3.4
		c0.2,0.5,0.1,1.1-0.1,1.5c-0.2,0.5-0.7,0.8-1.2,1l-6.8,2.2l-12-3.8l6.3-2c0.1,0,0.2,0,0.3-0.1L82.1,61.7z M63,65.4
		c0.1-3.1-0.1-16.2,0-25.5c2.6-0.5,4.5-3,4.9-5.7H72l-0.4,5.4c0,0.1,0,0.2,0,0.3l-1.5,23L63,65.4z M90.1,44.7
		c-1.2,1.5-3.2,1.8-4.8,0.8c0,0,0,0-0.1,0l-11.1-6.3l0.3-4.1l12.1,6.3c0.5,0.3,1.1,0.1,1.5-0.3l4.6-5.7l3.3,2.2l-2,2.4l0,0l0,0
		L90.1,44.7z"/>
</g>
</svg>
