<?xml version="1.0" encoding="utf-8"?>
<!-- Generator: Adobe Illustrator 19.2.0, SVG Export Plug-In . SVG Version: 6.00 Build 0)  -->
<svg version="1.1" id="Layer_1" xmlns="http://www.w3.org/2000/svg" xmlns:xlink="http://www.w3.org/1999/xlink" x="0px" y="0px"
	 viewBox="0 0 120 100" style="enable-background:new 0 0 120 100;" xml:space="preserve">
<style type="text/css">
	.st0{fill:#C2EAFC;}
	.st1{fill:#354052;}
	.st2{fill:#00AAFF;}
	.st3{fill:#BFC7D2;}
	.st4{fill:none;stroke:#000000;stroke-width:2;stroke-linecap:round;}
	.st5{fill-rule:evenodd;clip-rule:evenodd;fill:#EDF9FE;}
	.st6{fill-rule:evenodd;clip-rule:evenodd;fill:#FFFFFF;}
	.st7{fill-rule:evenodd;clip-rule:evenodd;fill:#354052;}
	.st8{fill-rule:evenodd;clip-rule:evenodd;fill:#00AAFF;}
	.st9{fill-rule:evenodd;clip-rule:evenodd;fill:#BFC7D2;}
</style>
<g>
	<path class="st0" d="M34.4,85h53.9c11.8-8.5,19.5-22.4,19.5-38.2C107.9,21,87.1,0,61.4,0S14.9,21,14.9,46.8
		C14.9,62.6,22.6,76.5,34.4,85z"/>
</g>
<g>
	<path class="st1" d="M95.9,88h-78c-0.6,0-1-0.4-1-1v-1c0-0.6,0.4-1,1-1h78c0.6,0,1,0.4,1,1v1C96.9,87.5,96.5,88,95.9,88z"/>
	<path class="st1" d="M102.9,88h-3c-0.6,0-1-0.4-1-1v-1c0-0.6,0.4-1,1-1h3c0.6,0,1,0.4,1,1v1C103.9,87.5,103.5,88,102.9,88z"/>
</g>
<g>
	<path class="st2" d="M77.9,94h-46c-0.5,0-1-0.4-1-1v-1c0-0.5,0.4-1,1-1h46c0.6,0,1,0.5,1,1v1C78.9,93.5,78.5,94,77.9,94z"/>
	<path class="st2" d="M88.9,94h-7c-0.6,0-1-0.4-1-1v-1c0-0.6,0.4-1,1-1h7c0.6,0,1,0.4,1,1v1C89.9,93.6,89.5,94,88.9,94z"/>
</g>
<g>
	<path class="st2" d="M70.9,100h-28c-0.5,0-1-0.4-1-1v-1c0-0.6,0.5-1,1-1h28c0.5,0,1,0.4,1,1v1C71.9,99.6,71.5,100,70.9,100z"/>
	<path class="st2" d="M77.9,100h-3c-0.5,0-1-0.4-1-1v-1c0-0.6,0.5-1,1-1h3c0.5,0,1,0.4,1,1v1C78.9,99.6,78.5,100,77.9,100z"/>
</g>
<g>
	<path class="st3" d="M2.5,62L2.5,62C2.2,62,2,61.8,2,61.5v-4C2,57.2,2.2,57,2.5,57h0C2.8,57,3,57.2,3,57.5v4C3,61.8,2.8,62,2.5,62z
		"/>
	<path class="st3" d="M5,59.5L5,59.5C5,59.8,4.8,60,4.5,60h-4C0.2,60,0,59.8,0,59.5v0C0,59.2,0.2,59,0.5,59h4C4.8,59,5,59.2,5,59.5z
		"/>
</g>
<g>
	<path class="st3" d="M110.5,17L110.5,17c-0.3,0-0.5-0.2-0.5-0.5v-4c0-0.3,0.2-0.5,0.5-0.5l0,0c0.3,0,0.5,0.2,0.5,0.5v4
		C111,16.8,110.8,17,110.5,17z"/>
	<path class="st3" d="M113,14.5L113,14.5c0,0.3-0.2,0.5-0.5,0.5h-4c-0.3,0-0.5-0.2-0.5-0.5v0c0-0.3,0.2-0.5,0.5-0.5h4
		C112.8,14,113,14.2,113,14.5z"/>
</g>
<g>
	<path class="st3" d="M117.5,68L117.5,68c-0.3,0-0.5-0.2-0.5-0.5v-4c0-0.3,0.2-0.5,0.5-0.5l0,0c0.3,0,0.5,0.2,0.5,0.5v4
		C118,67.8,117.8,68,117.5,68z"/>
	<path class="st3" d="M120,65.5L120,65.5c0,0.3-0.2,0.5-0.5,0.5h-4c-0.3,0-0.5-0.2-0.5-0.5l0,0c0-0.3,0.2-0.5,0.5-0.5h4
		C119.8,65,120,65.2,120,65.5z"/>
</g>
<g>
	<path id="SVGCleanerId_0" class="st4" d="M24.2,22"/>
</g>
<g>
	<path id="SVGCleanerId_0_1_" class="st4" d="M24.2,22"/>
</g>
<g>
	<path id="SVGCleanerId_0_2_" class="st4" d="M24.2,22"/>
</g>
<g>
	<path id="SVGCleanerId_0_3_" class="st4" d="M24.2,22"/>
</g>
<g>
	<path id="SVGCleanerId_0_4_" class="st4" d="M24.2,22"/>
</g>
<g>
	<path id="SVGCleanerId_0_5_" class="st4" d="M24.2,22"/>
</g>
<g id="Icon_Part_7_">
	<g>
		<path class="st5" d="M84.8,18.8H38c-3.7,0-6.7,3-6.7,6.7v60.9l60.1,0.2v-61C91.4,21.8,88.4,18.8,84.8,18.8z"/>
	</g>
</g>
<g id="Icon_Part_8_">
	<g>
		<path class="st6" d="M86.7,18.8H36.8c-1.8,0-3.3,1.5-3.3,3.3v59.5c0,1.8,1.5,3.3,3.3,3.3h49.9c1.8,0,3.3-1.5,3.3-3.3V22.2
			C90,20.3,88.6,18.8,86.7,18.8z"/>
	</g>
</g>
<g id="Icon_Part_15_">
	<g>
		<path class="st1" d="M85.1,19c2.3,0,3.9,1.7,3.9,4.1V85H34V23c0-2.4,1.4-4.1,3.7-4.1H85.1 M85.1,16H37.7c-3.9,0-6.7,3-6.7,7.1V85
			v3h3h55h3v-3V23C92,19,89,16,85.1,16L85.1,16z"/>
	</g>
</g>
<g id="Icon_Part_16_">
	<g>
		<polygon class="st7" points="72,25 72.1,86.8 89.3,86.5 89.3,25 		"/>
	</g>
</g>
<g id="Icon_Part_17_">
	<g>
		<path class="st8" d="M84,80h-4.6c-0.6,0-1,0.4-1,1v0c0,0.6,0.4,1,1,1H84c0.6,0,1-0.4,1-1v0C84.9,80.4,84.5,80,84,80z"/>
	</g>
</g>
<g id="Icon_Part_18_">
	<g>
		<path class="st6" d="M76,80c-0.5,0-1,0.4-1,1v0c0,0.5,0.4,1,1,1c0.5,0,1-0.4,1-1v0C77,80.4,76.5,80,76,80z"/>
	</g>
</g>
<g id="Icon_Part_19_">
	<g>
		<path class="st6" d="M81.2,29H76c-0.5,0-1,0.4-1,1v0c0,0.5,0.4,1,1,1h5.2c0.5,0,1-0.4,1-1v0C82.2,29.5,81.7,29,81.2,29z"/>
	</g>
</g>
<g id="Icon_Part_20_">
	<g>
		<path class="st6" d="M78,33h-2c-0.6,0-1,0.4-1,1v0c0,0.6,0.4,1,1,1h2c0.6,0,1-0.4,1-1v0C79,33.5,78.6,33,78,33z"/>
	</g>
</g>
<g id="Icon_Part_21_">
	<g>
		<path class="st6" d="M85.1,33h-4c-0.6,0-1,0.4-1,1v0c0,0.6,0.4,1,1,1h4c0.6,0,1-0.4,1-1v0C86.1,33.5,85.6,33,85.1,33z"/>
	</g>
</g>
<g id="Icon_Part_22_">
	<g>
		<path class="st6" d="M84.1,38H76c-0.6,0-1,0.4-1,1v0c0,0.6,0.4,1,1,1h8.1c0.6,0,1-0.4,1-1v0C85.1,38.4,84.6,38,84.1,38z"/>
	</g>
</g>
<g id="Icon_Part_23_">
	<g>
		<path class="st6" d="M78,42h-2c-0.5,0-1,0.4-1,1v0c0,0.5,0.4,1,1,1h2c0.5,0,1-0.4,1-1v0C79,42.4,78.5,42,78,42z"/>
	</g>
</g>
<g id="Icon_Part_24_">
	<g>
		<path class="st6" d="M82.6,42H82c-0.5,0-1,0.4-1,1v0c0,0.5,0.4,1,1,1h0.6c0.5,0,1-0.4,1-1v0C83.6,42.4,83.2,42,82.6,42z"/>
	</g>
</g>
<g id="Icon_Part_25_">
	<g>
		<path class="st6" d="M81.4,46H76c-0.6,0-1,0.4-1,1v0c0,0.6,0.4,1,1,1h5.4c0.6,0,1-0.4,1-1v0C82.4,46.4,81.9,46,81.4,46z"/>
	</g>
</g>
<g id="Icon_Part_26_">
	<g>
		<path class="st6" d="M77.9,50H76c-0.5,0-1,0.4-1,1v0c0,0.5,0.4,1,1,1h1.9c0.5,0,1-0.4,1-1v0C78.9,50.4,78.5,50,77.9,50z"/>
	</g>
</g>
<g id="Icon_Part_27_">
	<g>
		<path class="st6" d="M85,50h-3.9c-0.5,0-1,0.4-1,1v0c0,0.5,0.4,1,1,1H85c0.5,0,1-0.4,1-1v0C86,50.4,85.6,50,85,50z"/>
	</g>
</g>
<g id="Icon_Part_28_">
	<g>
		<path class="st6" d="M84,54H76c-0.6,0-1,0.4-1,1v0c0,0.6,0.4,1,1,1H84c0.6,0,1-0.4,1-1v0C84.9,54.5,84.5,54,84,54z"/>
	</g>
</g>
<g id="Icon_Part_29_">
	<g>
		<path class="st6" d="M78,59h-2c-0.6,0-1,0.4-1,1v0c0,0.6,0.4,1,1,1h2c0.6,0,1-0.4,1-1v0C79,59.5,78.5,59,78,59z"/>
	</g>
</g>
<g id="Icon_Part_30_">
	<g>
		<path class="st6" d="M82.7,59h-0.6c-0.6,0-1,0.4-1,1v0c0,0.6,0.4,1,1,1h0.6c0.6,0,1-0.4,1-1v0C83.7,59.5,83.2,59,82.7,59z"/>
	</g>
</g>
<g id="Icon_Part_31_">
	<g>
		<path class="st9" d="M50.7,28.8H38c-0.6,0-1.1,0.5-1.1,1.1v0c0,0.6,0.5,1.1,1.1,1.1h12.7c0.6,0,1.1-0.5,1.1-1.1v0
			C51.8,29.3,51.3,28.8,50.7,28.8z"/>
	</g>
</g>
<g id="Icon_Part_32_">
	<g>
		<path class="st9" d="M40.1,32.9H38c-0.6,0-1.1,0.5-1.1,1.1v0c0,0.6,0.5,1.1,1.1,1.1h2.1c0.6,0,1.1-0.5,1.1-1.1v0
			C41.2,33.4,40.7,32.9,40.1,32.9z"/>
	</g>
</g>
<g id="Icon_Part_33_">
	<g>
		<path class="st3" d="M55.3,32.9H43.9c-0.6,0-1.1,0.5-1.1,1.1v0c0,0.6,0.5,1.1,1.1,1.1h11.3c0.6,0,1.1-0.5,1.1-1.1v0
			C56.3,33.4,55.8,32.9,55.3,32.9z M66.4,32.9H60c-0.6,0-1.1,0.5-1.1,1.1v0c0,0.6,0.5,1.1,1.1,1.1h6.4c0.6,0,1.1-0.5,1.1-1.1v0
			C67.5,33.4,67,32.9,66.4,32.9z"/>
	</g>
</g>
<g id="Icon_Part_34_">
	<g>
		<path class="st2" d="M45.3,38H38c-0.6,0-1,0.4-1,1v0c0,0.6,0.4,1,1,1h7.3c0.6,0,1-0.4,1-1v0C46.3,38.4,45.9,38,45.3,38z M51.7,38
			H49c-0.6,0-1,0.4-1,1v0c0,0.6,0.4,1,1,1h2.7c0.6,0,1-0.4,1-1v0C52.7,38.4,52.2,38,51.7,38z M56,38h-1.4c-0.6,0-1,0.4-1,1v0
			c0,0.6,0.4,1,1,1H56c0.6,0,1-0.4,1-1v0C57,38.4,56.6,38,56,38z"/>
	</g>
</g>
<g id="Icon_Part_35_">
	<g>
		<path class="st9" d="M39.9,42h-2c-0.5,0-1,0.4-1,1v0c0,0.5,0.4,1,1,1h2c0.5,0,1-0.4,1-1v0C40.9,42.4,40.5,42,39.9,42z"/>
	</g>
</g>
<g id="Icon_Part_36_">
	<g>
		<path class="st9" d="M51.1,42h-7.3c-0.5,0-1,0.4-1,1v0c0,0.5,0.4,1,1,1h7.3c0.5,0,1-0.4,1-1v0C52.1,42.4,51.7,42,51.1,42z"/>
	</g>
</g>
<g id="Icon_Part_37_">
	<g>
		<path class="st2" d="M46,46h-8c-0.6,0-1,0.4-1,1v0c0,0.6,0.4,1,1,1h8c0.6,0,1-0.4,1-1v0C47,46.4,46.5,46,46,46z M53.7,46H49
			c-0.6,0-1,0.4-1,1v0c0,0.6,0.4,1,1,1h4.7c0.6,0,1-0.4,1-1v0C54.7,46.4,54.2,46,53.7,46z M65,46h-8c-0.6,0-1,0.4-1,1v0
			c0,0.6,0.4,1,1,1h8c0.6,0,1-0.4,1-1v0C66,46.4,65.6,46,65,46z"/>
	</g>
</g>
<g id="Icon_Part_38_">
	<g>
		<path class="st9" d="M39.9,50h-1.9c-0.5,0-1,0.4-1,1v0c0,0.5,0.4,1,1,1h1.9c0.5,0,1-0.4,1-1v0C40.9,50.4,40.4,50,39.9,50z"/>
	</g>
</g>
<g id="Icon_Part_39_">
	<g>
		<path class="st9" d="M47.8,50h-3.9c-0.5,0-1,0.4-1,1v0c0,0.5,0.4,1,1,1h3.9c0.5,0,1-0.4,1-1v0C48.8,50.4,48.3,50,47.8,50z"/>
	</g>
</g>
<g id="Icon_Part_40_">
	<g>
		<path class="st9" d="M45.9,54H38c-0.6,0-1,0.4-1,1v0c0,0.6,0.4,1,1,1h7.9c0.6,0,1-0.4,1-1v0C46.9,54.5,46.4,54,45.9,54z"/>
	</g>
</g>
<g id="Icon_Part_41_">
	<g>
		<path class="st9" d="M39.9,59h-2c-0.6,0-1,0.4-1,1v0c0,0.6,0.4,1,1,1h2c0.6,0,1-0.4,1-1v0C40.9,59.5,40.5,59,39.9,59z"/>
	</g>
</g>
<g id="Icon_Part_42_">
	<g>
		<path class="st8" d="M57.7,59H43.9c-0.6,0-1,0.4-1,1v0c0,0.6,0.4,1,1,1h13.9c0.6,0,1-0.4,1-1v0C58.7,59.5,58.3,59,57.7,59z"/>
	</g>
</g>
<g id="Icon_Part_43_">
	<g>
		<path class="st3" d="M45.8,63h-7.8c-0.5,0-1,0.4-1,1v0c0,0.5,0.4,1,1,1h7.8c0.5,0,1-0.4,1-1v0C46.7,63.5,46.3,63,45.8,63z
			 M53.6,63H49c-0.5,0-1,0.4-1,1v0c0,0.5,0.4,1,1,1h4.5c0.5,0,1-0.4,1-1v0C54.6,63.5,54.1,63,53.6,63z M64.8,63H57c-0.5,0-1,0.4-1,1
			v0c0,0.5,0.4,1,1,1h7.8c0.5,0,1-0.4,1-1v0C65.8,63.5,65.3,63,64.8,63z"/>
	</g>
</g>
<g id="Icon_Part_44_">
	<g>
		<path class="st9" d="M40,68h-2c-0.6,0-1,0.4-1,1v0c0,0.6,0.4,1,1,1h2c0.6,0,1-0.4,1-1v0C41,68.4,40.5,68,40,68z"/>
	</g>
</g>
<g id="Icon_Part_45_">
	<g>
		<path class="st9" d="M47.9,68h-4c-0.6,0-1,0.4-1,1v0c0,0.6,0.4,1,1,1h4c0.6,0,1-0.4,1-1v0C48.9,68.4,48.5,68,47.9,68z"/>
	</g>
</g>
<g id="Icon_Part_46_">
	<g>
		<path class="st9" d="M45.9,72h-7.9c-0.5,0-1,0.4-1,1v0c0,0.5,0.4,1,1,1h7.9c0.5,0,1-0.4,1-1v0C46.9,72.4,46.4,72,45.9,72z"/>
	</g>
</g>
<g id="Icon_Part_47_">
	<g>
		<path class="st9" d="M40,76h-2c-0.6,0-1,0.4-1,1v0c0,0.6,0.4,1,1,1h2c0.6,0,1-0.4,1-1v0C41,76.4,40.5,76,40,76z"/>
	</g>
</g>
<g id="Icon_Part_10_">
	<g>
		<path class="st9" d="M37.9,21L37.9,21c-0.5,0-1,0.4-1,1V22c0,0.5,0.4,1,1,1h0c0.5,0,1-0.4,1-1v-0.1C38.9,21.4,38.5,21,37.9,21z"/>
	</g>
</g>
<g id="Icon_Part_11_">
	<g>
		<path class="st9" d="M40.9,21L40.9,21c-0.6,0-1,0.4-1,1v0c0,0.5,0.4,1,1,1h0c0.5,0,1-0.4,1-1v0C41.9,21.4,41.4,21,40.9,21z"/>
	</g>
</g>
<g id="Icon_Part_12_">
	<g>
		<path class="st9" d="M43.8,21c-0.5,0-1,0.4-1,1v0c0,0.5,0.4,1,1,1c0.5,0,1-0.4,1-1v0C44.8,21.4,44.4,21,43.8,21z"/>
	</g>
</g>
<g id="Icon_Part_76_">
	<g>
		<path class="st9" d="M85.1,21h-4c-0.5,0-1,0.4-1,1v0c0,0.5,0.4,1,1,1h4c0.5,0,1-0.4,1-1v0C86,21.4,85.6,21,85.1,21z"/>
	</g>
</g>
</svg>
