<?xml version="1.0" encoding="utf-8"?>
<!-- Generator: Adobe Illustrator 19.2.0, SVG Export Plug-In . SVG Version: 6.00 Build 0)  -->
<svg version="1.1" id="Layer_1" xmlns="http://www.w3.org/2000/svg" xmlns:xlink="http://www.w3.org/1999/xlink" x="0px" y="0px"
	 viewBox="0 0 120 100" style="enable-background:new 0 0 120 100;" xml:space="preserve">
<style type="text/css">
	.st0{fill:#C2EAFC;}
	.st1{fill:#E7F7FE;}
	.st2{fill:#354052;}
	.st3{fill:#00AAFF;}
	.st4{fill:#BFC7D2;}
	.st5{fill:none;stroke:#000000;stroke-width:2;stroke-linecap:round;}
	.st6{clip-path:url(#SVGID_2_);fill:#FFFFFF;}
	.st7{clip-path:url(#SVGID_2_);fill:#354052;}
</style>
<g>
	<path class="st0" d="M34.3,85h53.9c11.8-8.5,19.5-22.4,19.5-38.2C107.7,21,86.9,0,61.2,0S14.7,21,14.7,46.8
		C14.7,62.6,22.4,76.5,34.3,85z"/>
	<ellipse class="st1" cx="61.2" cy="46.8" rx="30" ry="30.2"/>
</g>
<g>
	<path class="st2" d="M95.9,88h-78c-0.6,0-1-0.4-1-1v-1c0-0.6,0.4-1,1-1h78c0.6,0,1,0.4,1,1v1C96.9,87.5,96.5,88,95.9,88z"/>
	<path class="st2" d="M102.9,88h-3c-0.6,0-1-0.4-1-1v-1c0-0.6,0.4-1,1-1h3c0.6,0,1,0.4,1,1v1C103.9,87.5,103.5,88,102.9,88z"/>
</g>
<g>
	<path class="st3" d="M77.9,94h-46c-0.5,0-1-0.4-1-1v-1c0-0.5,0.4-1,1-1h46c0.6,0,1,0.5,1,1v1C78.9,93.5,78.5,94,77.9,94z"/>
	<path class="st3" d="M88.9,94h-7c-0.6,0-1-0.4-1-1v-1c0-0.6,0.4-1,1-1h7c0.6,0,1,0.4,1,1v1C89.9,93.6,89.5,94,88.9,94z"/>
</g>
<g>
	<path class="st3" d="M70.9,100h-28c-0.5,0-1-0.4-1-1v-1c0-0.6,0.5-1,1-1h28c0.5,0,1,0.4,1,1v1C71.9,99.6,71.5,100,70.9,100z"/>
	<path class="st3" d="M77.9,100h-3c-0.5,0-1-0.4-1-1v-1c0-0.6,0.5-1,1-1h3c0.5,0,1,0.4,1,1v1C78.9,99.6,78.5,100,77.9,100z"/>
</g>
<g>
	<path class="st4" d="M2.5,62L2.5,62C2.2,62,2,61.8,2,61.5v-4C2,57.2,2.2,57,2.5,57h0C2.8,57,3,57.2,3,57.5v4C3,61.8,2.8,62,2.5,62z
		"/>
	<path class="st4" d="M5,59.5L5,59.5C5,59.8,4.8,60,4.5,60h-4C0.2,60,0,59.8,0,59.5v0C0,59.2,0.2,59,0.5,59h4C4.8,59,5,59.2,5,59.5z
		"/>
</g>
<g>
	<path class="st4" d="M110.5,17L110.5,17c-0.3,0-0.5-0.2-0.5-0.5v-4c0-0.3,0.2-0.5,0.5-0.5l0,0c0.3,0,0.5,0.2,0.5,0.5v4
		C111,16.8,110.8,17,110.5,17z"/>
	<path class="st4" d="M113,14.5L113,14.5c0,0.3-0.2,0.5-0.5,0.5h-4c-0.3,0-0.5-0.2-0.5-0.5v0c0-0.3,0.2-0.5,0.5-0.5h4
		C112.8,14,113,14.2,113,14.5z"/>
</g>
<g>
	<path class="st4" d="M117.5,68L117.5,68c-0.3,0-0.5-0.2-0.5-0.5v-4c0-0.3,0.2-0.5,0.5-0.5l0,0c0.3,0,0.5,0.2,0.5,0.5v4
		C118,67.8,117.8,68,117.5,68z"/>
	<path class="st4" d="M120,65.5L120,65.5c0,0.3-0.2,0.5-0.5,0.5h-4c-0.3,0-0.5-0.2-0.5-0.5l0,0c0-0.3,0.2-0.5,0.5-0.5h4
		C119.8,65,120,65.2,120,65.5z"/>
</g>
<g>
	<path id="SVGCleanerId_0" class="st5" d="M24.2,22"/>
</g>
<g>
	<path id="SVGCleanerId_0_1_" class="st5" d="M24.2,22"/>
</g>
<g>
	<path id="SVGCleanerId_0_2_" class="st5" d="M24.2,22"/>
</g>
<g>
	<path id="SVGCleanerId_0_3_" class="st5" d="M24.2,22"/>
</g>
<g>
	<path id="SVGCleanerId_0_4_" class="st5" d="M24.2,22"/>
</g>
<g>
	<path id="SVGCleanerId_0_5_" class="st5" d="M24.2,22"/>
</g>
<g>
	<path class="st2" d="M85.1,66.7c-0.2,0-0.5-0.1-0.7-0.4c-0.4-0.5-0.3-1.4,0-1.9c3.5-4.7,5.3-10.9,5.3-17.6c0-6.7-1.9-13.1-5.3-17.5
		c-0.4-0.5-0.4-1.3,0-1.9c0.3-0.5,0.9-0.6,1.3-0.1c3.7,5,5.9,12.1,5.9,19.6c0,7.5-2.1,14.4-5.9,19.6C85.6,66.5,85.4,66.7,85.1,66.7
		L85.1,66.7z M85.1,66.7"/>
	<path class="st2" d="M82.3,59.2c-0.2,0-0.4-0.1-0.6-0.3c-0.4-0.5-0.5-1.3-0.1-1.9c1.6-2.8,2.6-6.5,2.6-10.2c0-3.7-0.9-7.4-2.6-10.2
		c-0.3-0.5-0.3-1.4,0.1-1.9c0.4-0.5,1-0.4,1.3,0.1c2,3.4,3,7.6,3,11.9c0,4.4-1.1,8.6-3,11.9C82.8,59,82.6,59.2,82.3,59.2L82.3,59.2z
		 M82.3,59.2"/>
	<path class="st2" d="M78.6,53.1c-0.1,0-0.3-0.1-0.5-0.2c-0.5-0.4-0.6-1.2-0.3-1.8c0.5-1.3,0.8-2.8,0.8-4.3c0-1.6-0.3-3-0.8-4.3
		c-0.3-0.7-0.1-1.5,0.3-1.8c0.5-0.4,1-0.1,1.3,0.5c0.7,1.8,1.1,3.6,1.1,5.7c0,2-0.4,4-1.1,5.7C79.2,52.8,78.9,53.1,78.6,53.1
		L78.6,53.1z M78.6,53.1"/>
	<path class="st3" d="M46.1,59.3l23.2,17.2c0.9,0.7,2.2,0.1,2.2-1.1V18.1c0-1.1-1.3-1.8-2.2-1.1L46.6,33.7"/>
	<g>
		<defs>
			<rect id="SVGID_1_" x="29.3" y="15.3" width="69" height="63"/>
		</defs>
		<clipPath id="SVGID_2_">
			<use xlink:href="#SVGID_1_"  style="overflow:visible;"/>
		</clipPath>
		<path class="st6" d="M46.9,54l0,5.2l24.3,17.6c0.9,0.7,1-14,1-14 M46.9,59.2"/>
		<path class="st7" d="M70.2,78.1c-0.6,0-1.2-0.2-1.7-0.5L45.4,60.4c-0.6-0.5-0.8-1.3-0.3-1.9c0.5-0.6,1.5-0.9,2.1-0.5l22.6,16.7
			V19.3L47.4,35.8c-0.6,0.5-1.2-0.7-1.7-1.3c-0.5-0.6-0.3-1.4,0.3-1.9l22.6-16.7c0.8-0.6,1.9-0.7,2.9-0.3c0.9,0.5,1.5,1.4,1.5,2.4
			v57.3c0,1-0.6,2-1.5,2.4C71.1,78.1,70.6,78.1,70.2,78.1L70.2,78.1z M70.2,78.1"/>
	</g>
	<path class="st3" d="M46.9,59.2c0,1.5-1.2,2.7-2.7,2.7h-8.1c-3,0-5.4-2.4-5.4-5.4V37.7c0-3,2.4-5.4,5.4-5.4h8.1
		c1.5,0,2.7,1.2,2.7,2.7v10.8"/>
	<path class="st2" d="M44.5,63h-8.3c-3.8,0-7.3-3-7.3-6.7V37.3c0-3.7,3.5-6.3,7.3-6.3h8.3c2.3,0,4.4,1.4,4.4,3.6v10.8
		c0,0.7-0.9,1.4-1.6,1.4c-0.8,0-1.4-0.5-1.4-1.3l0-10.9c-0.1-0.7-1.3-0.6-2.1-0.6l-6.6,0c-2.7-0.1-5.3,1.1-5.3,3.3v18.9
		c0,2.2,2,3.7,5.6,3.7l6.8,0c0.8,0,1.6-0.3,1.6-1.1c0-0.7,0.6-1.3,1.4-1.3c0.8,0,1.6,0.6,1.6,1.3C48.9,61.2,46.8,63,44.5,63L44.5,63
		z M44.5,63"/>
	<path class="st2" d="M47.4,54.7c-0.8,0-1.5-0.6-1.5-1.4v-2.1c0-0.8,0.7-1.4,1.5-1.4c0.8,0,1.5,0.6,1.5,1.4v2.1
		C48.9,54,48.2,54.7,47.4,54.7L47.4,54.7z M47.4,54.7"/>
</g>
</svg>
