<?xml version="1.0" encoding="utf-8"?>
<!-- Generator: Adobe Illustrator 19.2.0, SVG Export Plug-In . SVG Version: 6.00 Build 0)  -->
<svg version="1.1" id="Layer_1" xmlns="http://www.w3.org/2000/svg" xmlns:xlink="http://www.w3.org/1999/xlink" x="0px" y="0px"
	 viewBox="0 0 120 100" style="enable-background:new 0 0 120 100;" xml:space="preserve">
<style type="text/css">
	.st0{fill:#C2EAFC;}
	.st1{fill:#E7F7FE;}
	.st2{fill:#354052;}
	.st3{fill:#00AAFF;}
	.st4{fill:#BFC7D2;}
	.st5{fill:none;stroke:#000000;stroke-width:2;stroke-linecap:round;}
	.st6{fill-rule:evenodd;clip-rule:evenodd;fill:#EDF9FE;}
	.st7{fill-rule:evenodd;clip-rule:evenodd;fill:#FFFFFF;}
	.st8{fill-rule:evenodd;clip-rule:evenodd;fill:#00AAFF;}
	.st9{fill-rule:evenodd;clip-rule:evenodd;fill:#354052;}
</style>
<g>
	<path class="st0" d="M34.4,85h53.9c11.8-8.5,19.5-22.4,19.5-38.2C107.9,21,87.1,0,61.4,0S14.9,21,14.9,46.8
		C14.9,62.6,22.6,76.5,34.4,85z"/>
</g>
<ellipse class="st1" cx="61.2" cy="48.8" rx="30" ry="30.2"/>
<g>
	<path class="st2" d="M95.9,88h-78c-0.6,0-1-0.4-1-1v-1c0-0.6,0.4-1,1-1h78c0.6,0,1,0.4,1,1v1C96.9,87.5,96.5,88,95.9,88z"/>
	<path class="st2" d="M102.9,88h-3c-0.6,0-1-0.4-1-1v-1c0-0.6,0.4-1,1-1h3c0.6,0,1,0.4,1,1v1C103.9,87.5,103.5,88,102.9,88z"/>
</g>
<g>
	<path class="st3" d="M77.9,94h-46c-0.5,0-1-0.4-1-1v-1c0-0.5,0.4-1,1-1h46c0.6,0,1,0.5,1,1v1C78.9,93.5,78.5,94,77.9,94z"/>
	<path class="st3" d="M88.9,94h-7c-0.6,0-1-0.4-1-1v-1c0-0.6,0.4-1,1-1h7c0.6,0,1,0.4,1,1v1C89.9,93.6,89.5,94,88.9,94z"/>
</g>
<g>
	<path class="st3" d="M70.9,100h-28c-0.5,0-1-0.4-1-1v-1c0-0.6,0.5-1,1-1h28c0.5,0,1,0.4,1,1v1C71.9,99.6,71.5,100,70.9,100z"/>
	<path class="st3" d="M77.9,100h-3c-0.5,0-1-0.4-1-1v-1c0-0.6,0.5-1,1-1h3c0.5,0,1,0.4,1,1v1C78.9,99.6,78.5,100,77.9,100z"/>
</g>
<g>
	<path class="st4" d="M2.5,62L2.5,62C2.2,62,2,61.8,2,61.5v-4C2,57.2,2.2,57,2.5,57h0C2.8,57,3,57.2,3,57.5v4C3,61.8,2.8,62,2.5,62z
		"/>
	<path class="st4" d="M5,59.5L5,59.5C5,59.8,4.8,60,4.5,60h-4C0.2,60,0,59.8,0,59.5v0C0,59.2,0.2,59,0.5,59h4C4.8,59,5,59.2,5,59.5z
		"/>
</g>
<g>
	<path class="st4" d="M110.5,17L110.5,17c-0.3,0-0.5-0.2-0.5-0.5v-4c0-0.3,0.2-0.5,0.5-0.5l0,0c0.3,0,0.5,0.2,0.5,0.5v4
		C111,16.8,110.8,17,110.5,17z"/>
	<path class="st4" d="M113,14.5L113,14.5c0,0.3-0.2,0.5-0.5,0.5h-4c-0.3,0-0.5-0.2-0.5-0.5v0c0-0.3,0.2-0.5,0.5-0.5h4
		C112.8,14,113,14.2,113,14.5z"/>
</g>
<g>
	<path class="st4" d="M117.5,68L117.5,68c-0.3,0-0.5-0.2-0.5-0.5v-4c0-0.3,0.2-0.5,0.5-0.5l0,0c0.3,0,0.5,0.2,0.5,0.5v4
		C118,67.8,117.8,68,117.5,68z"/>
	<path class="st4" d="M120,65.5L120,65.5c0,0.3-0.2,0.5-0.5,0.5h-4c-0.3,0-0.5-0.2-0.5-0.5l0,0c0-0.3,0.2-0.5,0.5-0.5h4
		C119.8,65,120,65.2,120,65.5z"/>
</g>
<g>
	<path id="SVGCleanerId_0" class="st5" d="M24.2,22"/>
</g>
<g>
	<path id="SVGCleanerId_0_1_" class="st5" d="M24.2,22"/>
</g>
<g>
	<path id="SVGCleanerId_0_2_" class="st5" d="M24.2,22"/>
</g>
<g>
	<path id="SVGCleanerId_0_3_" class="st5" d="M24.2,22"/>
</g>
<g>
	<path id="SVGCleanerId_0_4_" class="st5" d="M24.2,22"/>
</g>
<g>
	<path id="SVGCleanerId_0_5_" class="st5" d="M24.2,22"/>
</g>
<g id="Icon_Part_103_">
	<g>
		<path class="st6" d="M73.7,27.8c-15.7,0-28.4,12.7-28.4,28.4v0.4c0,15.7,12.7,28.4,28.4,28.4s28.4-12.7,28.4-28.4v-0.4
			C102.1,40.5,89.4,27.8,73.7,27.8z"/>
	</g>
</g>
<g id="Icon_Part_101_">
	<g>
		<path class="st7" d="M74.1,57.7L53.7,78.3c22.7,19,39.9-0.9,39.9-0.9L74.1,57.7z"/>
	</g>
</g>
<g id="Icon_Part_99_">
	<g>
		<path class="st8" d="M74.1,26.9c-15.4-0.4-44.8,19.4-20.4,51.4l19.5-20.5C73.3,57.7,72.9,27.3,74.1,26.9z"/>
	</g>
</g>
<g id="Icon_Part_98_">
	<g>
		<path class="st2" d="M74.1,28.6c15.5,0,28,12.6,28,28.2c0,15.6-12.5,28.2-28,28.2c-15.5,0-28-12.6-28-28.2c0-4.4,1-8.5,2.7-12.2
			c0.9-2,2.1-3.9,3.5-5.6l3.3-3.5c2.3-2,4.9-3.7,7.9-4.9C66.8,29.4,70.4,28.6,74.1,28.6 M74.1,25.6c-4,0-8,0.8-11.7,2.3
			c-3.2,1.3-6.1,3.1-8.7,5.4l-0.1,0.1l-0.1,0.1L50.2,37l-0.1,0.1L50,37.2c-1.6,1.9-2.9,4-3.9,6.2c-2,4.2-3,8.8-3,13.5
			c0,17.2,13.9,31.2,31,31.2c17.1,0,31-14,31-31.2C105.1,39.6,91.2,25.6,74.1,25.6L74.1,25.6z"/>
	</g>
</g>
<g id="Icon_Part_96_">
	<g>
		<path class="st9" d="M73.5,26.9L73.5,26.9c-0.9,0-1.5,0.6-1.5,1.3v29.1c0,0.7,0.7,1.3,1.5,1.3h0c0.8,0,1.5-0.6,1.5-1.3V28.2
			C75,27.5,74.3,26.9,73.5,26.9z"/>
	</g>
</g>
<g id="Icon_Part_90_">
	<g>
		<path class="st6" d="M37.3,28.6h-2.8c-1.1,0-2,0.9-2,2v54.5h6.8V30.6C39.3,29.5,38.4,28.6,37.3,28.6z"/>
	</g>
</g>
<g id="Icon_Part_88_">
	<g>
		<path class="st6" d="M46.6,54.3h-2.8c-1.1,0-2,0.9-2,2v28.8h6.8V56.3C48.6,55.2,47.8,54.3,46.6,54.3z"/>
	</g>
</g>
<g id="Icon_Part_84_">
	<g>
		<path class="st6" d="M27.9,23.5h-2.8c-1.1,0-2,0.9-2,2v59.6h6.8V25.5C29.9,24.4,29,23.5,27.9,23.5z"/>
	</g>
</g>
<g id="Icon_Part_83_">
	<g>
		<path class="st8" d="M30.5,86.5V13.1c0-1.8,1.5-3.2,3.3-3.2h3.5c1.8,0,3.3,1.4,3.3,3.2v73.4H30.5z"/>
	</g>
	<g>
		<path class="st2" d="M37.2,11.4c1,0,1.8,0.8,1.8,1.7c0,0,0,21.8,0,26.4v8.7C39,62.1,39,85,39,85h-7V13.1c0-0.9,0.8-1.7,1.8-1.7
			H37.2 M37.2,8.4h-3.5c-2.6,0-4.8,2.1-4.8,4.7V85v3h3h7h3v-3V48.2v-8.7V13.1C42,10.5,39.9,8.4,37.2,8.4L37.2,8.4z"/>
	</g>
</g>
<g id="Icon_Part_81_">
	<g>
		<path class="st9" d="M40.6,42.3L40.6,42.3c-0.7,0-1.3,0.6-1.3,1.3v0.9c0,0.7,0.6,1.3,1.3,1.3h0c0.7,0,1.3-0.6,1.3-1.3v-0.9
			C41.8,42.9,41.3,42.3,40.6,42.3z"/>
	</g>
</g>
<g id="Icon_Part_80_">
	<g>
		<path class="st2" d="M46.2,54.2c1,0,1.8,0.9,1.8,2V85h-6V56.2c0-1.1,0.8-2,1.8-2H46.2 M46.2,51.2h-2.5c-2.6,0-4.8,2.2-4.8,5V85v3
			h3h6h3v-3V56.2C50.9,53.5,48.8,51.2,46.2,51.2L46.2,51.2z"/>
	</g>
</g>
<g id="Icon_Part_76_">
	<g>
		<path class="st2" d="M27.5,23.4c0.6,0,1.3,0.2,1.5,0.7c0.1,0.2,0,1.9,0,1.9L29,85h-6V25.4c0-1.1,0.8-2,1.9-2H27.5 M27.5,20.4h-2.6
			c-2.7,0-4.9,2.2-4.9,5V85v3h3h6h3l0-3L32,26c0-2,0-2.4-0.2-2.8C31.3,21.5,29.6,20.4,27.5,20.4L27.5,20.4z"/>
	</g>
</g>
<rect x="72.9" y="57.5" class="st9" width="1.5" height="1.9"/>
<rect x="71.9" y="56" class="st9" width="3" height="3.7"/>
<g>
	<g id="Icon_Part_94_">
		<g>
			<path class="st9" d="M73.4,58.5c-0.5-0.5-1.4-0.5-2,0L50.1,79c-0.5,0.5-0.6,1.4,0,1.9c0.5,0.5,1.4,0.5,2,0l21.3-20.5
				C73.9,59.9,73.9,59,73.4,58.5z"/>
		</g>
	</g>
	<polygon class="st9" points="72.5,61.2 70.6,59.3 73.3,56.7 75.2,58.6 	"/>
</g>
<g>
	<g id="Icon_Part_92_">
		<g>
			<path class="st9" d="M95.5,77.7L75.6,58.5c-0.5-0.5-1.3-0.5-1.8,0c-0.5,0.5-0.5,1.3,0,1.8l19.9,19.1c0.5,0.5,1.3,0.5,1.8,0
				C96,79,96,78.2,95.5,77.7z"/>
		</g>
	</g>
	<polygon class="st9" points="76.9,59.8 74.9,61.4 72.1,59 73.9,57 	"/>
</g>
<g id="Icon_Part_86_">
	<g>
		<path class="st6" d="M55.9,66.1h-3c-1.2,0-2.1,0.9-2.1,2v17H58v-17C58,67,57.1,66.1,55.9,66.1z"/>
	</g>
</g>
<g id="Icon_Part_79_">
	<g>
		<path class="st2" d="M55.9,66.2c1.1,0,2.1,0.9,2.1,2V85h-7V68.2c0-1.1,0.9-2,2.1-2H55.9 M55.9,63.2H53c-2.8,0-5.1,2.2-5.1,5V85v3
			h3h7h3v-3V68.2C61,65.4,58.7,63.2,55.9,63.2L55.9,63.2z"/>
	</g>
</g>
</svg>
