<?xml version="1.0" encoding="utf-8"?>
<!-- Generator: Adobe Illustrator 19.2.0, SVG Export Plug-In . SVG Version: 6.00 Build 0)  -->
<svg version="1.1" id="Layer_1" xmlns="http://www.w3.org/2000/svg" xmlns:xlink="http://www.w3.org/1999/xlink" x="0px" y="0px"
	 viewBox="0 0 120 100" style="enable-background:new 0 0 120 100;" xml:space="preserve">
<style type="text/css">
	.st0{fill:#C2EAFC;}
	.st1{fill:#E7F7FE;}
	.st2{fill:#00AAFF;}
	.st3{fill:#FFFFFF;}
	.st4{fill:#BFC7D2;}
	.st5{fill:#354052;}
</style>
<g>
	<path class="st0" d="M34.3,85h53.9c11.8-8.5,19.5-22.4,19.5-38.2C107.7,21,86.9,0,61.2,0S14.7,21,14.7,46.8
		C14.7,62.6,22.4,76.5,34.3,85z"/>
	<ellipse class="st1" cx="61.2" cy="46.8" rx="30" ry="30.2"/>
</g>
<g>
	<g>
		<g>
			<path class="st2" d="M47.5,56.2c0,0-5.9,4.1-5.9,9c0,4.1,0,20,0,20l13.7-14.4L47.5,56.2z"/>
			<path class="st2" d="M73,56.2c0,0,5.9,4.1,5.9,9c0,4.1,0,20,0,20L65.2,70.8L73,56.2z"/>
		</g>
	</g>
	<path class="st3" d="M74.1,28.8c-1.2-6.1-3.5-11.7-6.5-16.4c-2.1-3.3-4.6-6.2-7.3-8.5c-2.8,2.4-5.2,5.2-7.3,8.5
		c-3,4.7-5.3,10.3-6.5,16.4c-0.7,3.6-1.1,7.3-1.1,11.2c0,15.1,5.9,28.4,14.9,36.1c9-7.7,14.9-21,14.9-36.1
		C75.2,36.1,74.9,32.3,74.1,28.8z"/>
	<path class="st3" d="M60.2,3.8c-2.8,2.4-5.2,5.2-7.3,8.5h14.6C65.4,9.1,63,6.2,60.2,3.8z"/>
	<path class="st2" d="M74,28.3c-1.2-5.8-3.5-11.2-6.5-15.7H52.9c-3,4.5-5.3,9.8-6.5,15.7H74z"/>
	<path class="st4" d="M50.1,39.6c0-3.9,0.4-7.7,1.1-11.3h-4.8c-0.7,3.6-1.1,7.4-1.1,11.3c0,15.2,5.9,28.7,14.9,36.4
		c0.8-0.7,1.6-1.5,2.4-2.3C55,65.8,50.1,53.4,50.1,39.6z"/>
	<path class="st4" d="M62.6,6.2c-0.8-0.8-1.6-1.6-2.4-2.4c-2.8,2.4-5.2,5.4-7.3,8.9h4.8C59.2,10.3,60.8,8.1,62.6,6.2z"/>
	<path class="st2" d="M57.7,12.7h-4.8c-3,4.5-5.3,9.8-6.5,15.7h4.8C52.5,22.5,54.7,17.2,57.7,12.7z"/>
	<ellipse class="st3" cx="60.2" cy="28.8" rx="6.1" ry="6.4"/>
	<path class="st5" d="M60.2,36.6c-4.1,0-7.5-3.5-7.5-7.9s3.3-7.9,7.5-7.9c0.9,0,1.7,0.2,2.6,0.5c0.6,0.2,1,1,0.7,1.7
		c-0.2,0.7-1,1-1.6,0.8c-0.5-0.2-1.1-0.3-1.7-0.3c-2.7,0-5,2.4-5,5.2s2.2,5.2,5,5.2s5-2.4,5-5.2c0-0.6-0.1-1.1-0.2-1.6
		c-0.2-0.7,0.1-1.4,0.8-1.7c0.7-0.2,1.4,0.1,1.6,0.8c0.2,0.8,0.4,1.6,0.4,2.5C67.7,33.1,64.3,36.6,60.2,36.6z M80.9,65.2l0,20
		c0,0.5-1.1,1-1.5,1.2c-0.2,0.1-0.3,0.1-0.5,0.1c-0.3,0-0.6-0.1-0.9-0.4L65.4,72.7c-1.2,1.4-2,2.7-3.4,3.9v8.5c0,0.7-1,1.3-1.7,1.3
		c-0.7,0-1.3-0.6-1.4-1.3v-8.4c-1.3-1.2-2.5-2.5-3.7-3.9L42.6,86.1c-0.2,0.3-0.6,0.4-0.9,0.4c-0.2,0-0.3,0-0.5-0.1
		c-0.5-0.2-1.3-0.7-1.3-1.2v-20c0-4.6,4.7-8.8,6.3-10.1c-1.4-4.9-2-9.8-2-15.2c0-15,5.7-28.9,15.3-37.1c0.5-0.4,1.1-0.4,1.6,0
		c9.6,8.2,15.3,22.1,15.3,37.1c0,5.4-0.7,10.2-2.2,15.1C75.9,56.2,80.9,60.5,80.9,65.2z M53.6,71c-2.7-3.7-4.9-7.9-6.5-12.5
		c-1.6,1.4-4.1,3.8-4.1,6.7L43,82L53.6,71z M64.5,69.8c5.9-7.9,9.4-18.5,9.4-29.9c0-13.8-5.1-26.6-13.7-34.4
		c-8.6,7.8-13.7,20.6-13.7,34.4C46.5,51.3,50,62,56,69.7c0,0,0.1,0.1,0.1,0.1c0.1,0.1,0.2,0.2,0.2,0.3c0.8,1,1.7,2,2.6,3l0-16.8
		c0-0.7,0.8-1.3,1.5-1.3c0.7,0,1.5,0.6,1.5,1.3v16.8C62.9,72.2,64.5,69.8,64.5,69.8z M78,65.2c0-2.8-2.8-5.2-4.5-6.7
		c-1.6,4.6-3.8,8.8-6.5,12.5L78,82V65.2z"/>
</g>
<g>
	<path class="st5" d="M95.9,88h-78c-0.6,0-1-0.4-1-1v-1c0-0.6,0.4-1,1-1h78c0.6,0,1,0.4,1,1v1C96.9,87.5,96.5,88,95.9,88z"/>
	<path class="st5" d="M102.9,88h-3c-0.6,0-1-0.4-1-1v-1c0-0.6,0.4-1,1-1h3c0.6,0,1,0.4,1,1v1C103.9,87.5,103.5,88,102.9,88z"/>
</g>
<g>
	<path class="st2" d="M77.9,94h-46c-0.5,0-1-0.4-1-1v-1c0-0.5,0.4-1,1-1h46c0.6,0,1,0.5,1,1v1C78.9,93.5,78.5,94,77.9,94z"/>
	<path class="st2" d="M88.9,94h-7c-0.6,0-1-0.4-1-1v-1c0-0.6,0.4-1,1-1h7c0.6,0,1,0.4,1,1v1C89.9,93.6,89.5,94,88.9,94z"/>
</g>
<g>
	<path class="st2" d="M70.9,100h-28c-0.5,0-1-0.4-1-1v-1c0-0.6,0.5-1,1-1h28c0.5,0,1,0.4,1,1v1C71.9,99.6,71.5,100,70.9,100z"/>
	<path class="st2" d="M77.9,100h-3c-0.5,0-1-0.4-1-1v-1c0-0.6,0.5-1,1-1h3c0.5,0,1,0.4,1,1v1C78.9,99.6,78.5,100,77.9,100z"/>
</g>
<g>
	<path class="st4" d="M2.5,62L2.5,62C2.2,62,2,61.8,2,61.5v-4C2,57.2,2.2,57,2.5,57h0C2.8,57,3,57.2,3,57.5v4C3,61.8,2.8,62,2.5,62z
		"/>
	<path class="st4" d="M5,59.5L5,59.5C5,59.8,4.8,60,4.5,60h-4C0.2,60,0,59.8,0,59.5v0C0,59.2,0.2,59,0.5,59h4C4.8,59,5,59.2,5,59.5z
		"/>
</g>
<g>
	<path class="st4" d="M110.5,17L110.5,17c-0.3,0-0.5-0.2-0.5-0.5v-4c0-0.3,0.2-0.5,0.5-0.5l0,0c0.3,0,0.5,0.2,0.5,0.5v4
		C111,16.8,110.8,17,110.5,17z"/>
	<path class="st4" d="M113,14.5L113,14.5c0,0.3-0.2,0.5-0.5,0.5h-4c-0.3,0-0.5-0.2-0.5-0.5v0c0-0.3,0.2-0.5,0.5-0.5h4
		C112.8,14,113,14.2,113,14.5z"/>
</g>
<g>
	<path class="st4" d="M117.5,68L117.5,68c-0.3,0-0.5-0.2-0.5-0.5v-4c0-0.3,0.2-0.5,0.5-0.5l0,0c0.3,0,0.5,0.2,0.5,0.5v4
		C118,67.8,117.8,68,117.5,68z"/>
	<path class="st4" d="M120,65.5L120,65.5c0,0.3-0.2,0.5-0.5,0.5h-4c-0.3,0-0.5-0.2-0.5-0.5l0,0c0-0.3,0.2-0.5,0.5-0.5h4
		C119.8,65,120,65.2,120,65.5z"/>
</g>
</svg>
