<?xml version="1.0" encoding="utf-8"?>
<!-- Generator: Adobe Illustrator 19.2.0, SVG Export Plug-In . SVG Version: 6.00 Build 0)  -->
<svg version="1.1" id="Layer_1" xmlns="http://www.w3.org/2000/svg" xmlns:xlink="http://www.w3.org/1999/xlink" x="0px" y="0px"
	 viewBox="0 0 120 100" style="enable-background:new 0 0 120 100;" xml:space="preserve">
<style type="text/css">
	.st0{fill:#C2EAFC;}
	.st1{fill:#E7F7FE;}
	.st2{fill:#354052;}
	.st3{fill:#00AAFF;}
	.st4{fill:#BFC7D2;}
	.st5{fill:#EDF9FE;}
	.st6{fill:#FFFFFF;}
	.st7{fill:none;stroke:#000000;stroke-width:2;stroke-linecap:round;}
</style>
<g>
	<path class="st0" d="M34.3,85h53.9c11.8-8.5,19.5-22.4,19.5-38.2C107.7,21,86.9,0,61.2,0S14.7,21,14.7,46.8
		C14.7,62.6,22.4,76.5,34.3,85z"/>
	<ellipse class="st1" cx="61.2" cy="46.8" rx="30" ry="30.2"/>
</g>
<g>
	<path class="st2" d="M95.9,88h-78c-0.6,0-1-0.4-1-1v-1c0-0.6,0.4-1,1-1h78c0.6,0,1,0.4,1,1v1C96.9,87.5,96.5,88,95.9,88z"/>
	<path class="st2" d="M102.9,88h-3c-0.6,0-1-0.4-1-1v-1c0-0.6,0.4-1,1-1h3c0.6,0,1,0.4,1,1v1C103.9,87.5,103.5,88,102.9,88z"/>
</g>
<g>
	<path class="st3" d="M77.9,94h-46c-0.5,0-1-0.4-1-1v-1c0-0.5,0.4-1,1-1h46c0.6,0,1,0.5,1,1v1C78.9,93.5,78.5,94,77.9,94z"/>
	<path class="st3" d="M88.9,94h-7c-0.6,0-1-0.4-1-1v-1c0-0.6,0.4-1,1-1h7c0.6,0,1,0.4,1,1v1C89.9,93.6,89.5,94,88.9,94z"/>
</g>
<g>
	<path class="st3" d="M70.9,100h-28c-0.5,0-1-0.4-1-1v-1c0-0.6,0.5-1,1-1h28c0.5,0,1,0.4,1,1v1C71.9,99.6,71.5,100,70.9,100z"/>
	<path class="st3" d="M77.9,100h-3c-0.5,0-1-0.4-1-1v-1c0-0.6,0.5-1,1-1h3c0.5,0,1,0.4,1,1v1C78.9,99.6,78.5,100,77.9,100z"/>
</g>
<g>
	<path class="st4" d="M2.5,62L2.5,62C2.2,62,2,61.8,2,61.5v-4C2,57.2,2.2,57,2.5,57h0C2.8,57,3,57.2,3,57.5v4C3,61.8,2.8,62,2.5,62z
		"/>
	<path class="st4" d="M5,59.5L5,59.5C5,59.8,4.8,60,4.5,60h-4C0.2,60,0,59.8,0,59.5v0C0,59.2,0.2,59,0.5,59h4C4.8,59,5,59.2,5,59.5z
		"/>
</g>
<g>
	<path class="st4" d="M110.5,17L110.5,17c-0.3,0-0.5-0.2-0.5-0.5v-4c0-0.3,0.2-0.5,0.5-0.5l0,0c0.3,0,0.5,0.2,0.5,0.5v4
		C111,16.8,110.8,17,110.5,17z"/>
	<path class="st4" d="M113,14.5L113,14.5c0,0.3-0.2,0.5-0.5,0.5h-4c-0.3,0-0.5-0.2-0.5-0.5v0c0-0.3,0.2-0.5,0.5-0.5h4
		C112.8,14,113,14.2,113,14.5z"/>
</g>
<g>
	<path class="st4" d="M117.5,68L117.5,68c-0.3,0-0.5-0.2-0.5-0.5v-4c0-0.3,0.2-0.5,0.5-0.5l0,0c0.3,0,0.5,0.2,0.5,0.5v4
		C118,67.8,117.8,68,117.5,68z"/>
	<path class="st4" d="M120,65.5L120,65.5c0,0.3-0.2,0.5-0.5,0.5h-4c-0.3,0-0.5-0.2-0.5-0.5l0,0c0-0.3,0.2-0.5,0.5-0.5h4
		C119.8,65,120,65.2,120,65.5z"/>
</g>
<path class="st5" d="M72.3,85.6H50.1c0-2.6,2.2-4.7,4.9-4.7h12.3C70.1,80.9,72.3,83,72.3,85.6"/>
<path class="st6" d="M71.1,80.9h-3.7c2.7,0,4.9,2.1,4.9,4.7H76C76,83,73.8,80.9,71.1,80.9"/>
<path class="st6" d="M55.1,80.9h-3.7c-2.7,0-4.9,2.1-4.9,4.7h3.7C50.1,83,52.3,80.9,55.1,80.9"/>
<polygon class="st5" points="66.2,80.9 56.3,80.9 57.6,71.5 64.8,71.5 "/>
<polygon class="st6" points="55.1,71.5 52.6,80.9 56.3,80.9 57.6,71.5 "/>
<polygon class="st6" points="67.4,71.5 64.8,71.5 66.2,80.9 69.9,80.9 "/>
<path class="st3" d="M93,62.1H29V26.1c0-2.2,2-4.1,4.3-4.1h55.5c2.3,0,4.2,1.9,4.2,4.1L93,62.1z"/>
<path class="st6" d="M33.4,22h-3.7c-2.3,0-5.7,1.9-5.7,4.1v35.9h5l0-35.9C29,23.9,31.1,22,33.4,22"/>
<path class="st6" d="M92.4,22h-3.7c2.3,0,4.3,1.9,4.3,4.1v35.9h3.7V26.1C96.7,23.9,94.7,22,92.4,22"/>
<path class="st6" d="M89,71.5H33.5c-2.3,0-4.3-1.9-4.3-4.1v-5.3h64.1v5.3C93.3,69.6,91.3,71.5,89,71.5"/>
<path class="st6" d="M29.2,67.4v-5.3h-3.7v5.3c0,2.2,2,4.1,4.3,4.1h3.7C31.1,71.5,29.2,69.6,29.2,67.4"/>
<path class="st6" d="M93.3,62.1v5.3c0,2.2-2,4.1-4.3,4.1h3.7c2.3,0,4.3-1.9,4.3-4.1v-5.3H93.3z"/>
<path class="st2" d="M97,63H25.5c-0.7,0-1.5-0.2-1.5-0.9v-4.7c0-0.7,0.7-1.2,1.5-1.2c0.7,0,1.5,0.5,1.5,1.2v3.5h68V26.7
	c0-1.6-1.6-2.7-3.3-2.7H29.8c-1.6,0.3-2.2,0.6-2.8,2.1l0,21.8c0,0.7-0.8,1.2-1.5,1.2c-0.7,0-1.5-0.5-1.5-1.2v-22
	c0-2.9,2.7-4.9,5.8-4.9h62.8c3.1,0,5.4,2.2,5.4,5.1v35.9C97.9,62.8,97.7,63,97,63z"/>
<path class="st2" d="M27,52.6c0-0.9-0.6-1.5-1.5-1.5c-0.9,0-1.5,0.6-1.5,1.5s0.6,1.5,1.5,1.5C26.4,54.1,27,53.5,27,52.6"/>
<polygon class="st3" points="36.6,43.2 53.8,43.2 53.8,26.7 36.6,26.7 "/>
<polygon class="st5" points="35.4,43.2 49,43.2 49,26.7 35.4,26.7 "/>
<path class="st2" d="M76,86.8H46.4c-0.7,0-1.2-0.5-1.2-1.2c0-3.3,2.7-5.9,6.2-5.9h19.7c3.5,0,6.2,2.6,6.2,5.9
	C77.3,86.3,76.8,86.8,76,86.8z M47.9,85h26.8c-0.5-1.4-1.8-2.9-3.5-2.9H51.4C49.8,82.1,48.4,83.6,47.9,85z"/>
<path class="st2" d="M69.9,82.1H52.6c-0.4,0-0.7-0.1-1-0.5c-0.2-0.2-0.2-0.6-0.2-0.9l2.5-9.4c0.1-0.5,0.6-0.9,1.2-0.9h12.3
	c0.6,0,1.1,0.4,1.2,0.9l2.5,9.4c0.1,0.4,0,0.7-0.2,1.1C70.6,82,70.2,82.1,69.9,82.1z M54.2,79.7h14.1l-1.8-7.1H56L54.2,79.7z"/>
<path class="st2" d="M92.7,73H29.8c-3.1,0-5.8-2.7-5.8-5.6v-5.3c0-0.7,0.7-2.1,1.5-2.1H97c0.7,0,0.9,1.4,0.9,2.1v5.3
	C97.9,70.3,95.8,73,92.7,73z M27,63v4.4c0,1.7,2.2,2.6,2.8,2.6h62.1c1.7,0,3.2-1,3.2-2.6V63H27z"/>
<path class="st6" d="M85.8,58H68.2c-0.7,0-1.2-0.6-1.2-1.5s0.5-1.5,1.2-1.5h17.6c0.7,0,1.2,0.6,1.2,1.5S86.5,58,85.8,58z"/>
<path class="st6" d="M48,50H36.4c-0.7,0-1.2-0.6-1.2-1.5s0.5-1.5,1.2-1.5H48c0.7,0,1.2,0.6,1.2,1.5S48.7,50,48,50z"/>
<path class="st6" d="M79.3,50H61.6c-0.7,0-1.2-0.6-1.2-1.5s0.5-1.5,1.2-1.5h17.6c0.7,0,1.2,0.6,1.2,1.5S80,50,79.3,50z"/>
<g>
	<path id="SVGCleanerId_0" class="st7" d="M24.2,22"/>
</g>
<path class="st6" d="M60.8,58H43.1c-0.7,0-1.2-0.6-1.2-1.5s0.5-1.5,1.2-1.5h17.6c0.7,0,1.2,0.6,1.2,1.5S61.5,58,60.8,58z"/>
<g>
	<path id="SVGCleanerId_0_1_" class="st7" d="M24.2,22"/>
</g>
<g>
	<path id="SVGCleanerId_0_2_" class="st7" d="M24.2,22"/>
</g>
<path class="st6" d="M85.8,37H68.2c-0.7,0-1.2-0.6-1.2-1.5s0.5-1.5,1.2-1.5h17.6c0.7,0,1.2,0.6,1.2,1.5S86.5,37,85.8,37z"/>
<path class="st6" d="M85.8,44H74.2c-0.7,0-1.2-0.6-1.2-1.5s0.5-1.5,1.2-1.5h11.7c0.7,0,1.2,0.6,1.2,1.5S86.5,44,85.8,44z"/>
<path class="st6" d="M63,44h-2.5c-0.8,0-1.3-0.6-1.3-1.5s0.5-1.5,1.3-1.5H63c0.7,0,1.2,0.6,1.2,1.5S63.7,44,63,44z"/>
<path class="st6" d="M79.3,29H61.6c-0.7,0-1.2-0.6-1.2-1.5s0.5-1.5,1.2-1.5h17.6c0.7,0,1.2,0.6,1.2,1.5S80,29,79.3,29z"/>
<g>
	<path id="SVGCleanerId_0_3_" class="st7" d="M24.2,22"/>
</g>
<g>
	<path id="SVGCleanerId_0_4_" class="st7" d="M24.2,22"/>
</g>
<g>
	<path id="SVGCleanerId_0_5_" class="st7" d="M24.2,22"/>
</g>
<path class="st2" d="M55,44H35V26l20,0V44z M38,41h14V29H38V41z"/>
</svg>
