<svg xmlns="http://www.w3.org/2000/svg" xmlns:xlink="http://www.w3.org/1999/xlink" id="Layer_1" viewBox="0 0 200 200">
  <style>
    .st4{fill:#bfdcff}.st5{fill:#004a90}.st6{fill:#fff}.st9{fill:none;stroke:#bfdcff;stroke-width:.25;stroke-linecap:round;stroke-linejoin:round;stroke-miterlimit:10}.st11{enable-background:new}.st14{fill:#d0d0d0}.st15{fill:#ccc}.st16{fill:#c8c8c8}.st17{fill:#c4c4c4}.st18{fill:#bfbfbf}.st19{fill:#bababa}.st20{fill:#b6b6b6}.st21{fill:#b1b1b1}.st22{fill:#adadad}.st23{fill:#a8a8a8}.st24{fill:#a4a4a4}.st25{fill:#9f9f9f}.st26{fill:#9b9b9b}.st28{fill:#e1e1e1}.st29{fill:#a3a3a3}
  </style>
  <g id="_x31_8_8_">
    <g id="_x36__8_">
      <g id="XMLID_25_">
        <path id="XMLID_28_" fill="#272724" d="M84.4 176.2l-72.6-42.1c-9.9-5.8-8.7-15.8 2.8-22.4L76 76.4c11.5-6.6 28.9-7.3 38.8-1.5l72.6 42c9.9 5.8 8.7 15.8-2.8 22.4l-61.4 35.3c-11.5 6.6-28.9 7.3-38.8 1.6z" opacity=".1"/>
        <linearGradient id="XMLID_2_" x1="5.95" x2="194.952" y1="-79.95" y2="-79.95" gradientTransform="matrix(1 0 0 -1 0 41.6)" gradientUnits="userSpaceOnUse">
          <stop offset=".002" stop-color="#23dbea"/>
          <stop offset="1" stop-color="#0c5fcd"/>
        </linearGradient>
        <path id="XMLID_27_" fill="url(#XMLID_2_)" d="M194.9 122.5l-.1-11.3-12.7-1.7-66.5-38.6c-9.9-5.8-27.3-5.1-38.8 1.5l-61.4 35.3c-.5.3-1 .6-1.4.9l-8 1.6v10.4c.1 3.6 2.3 7 6.7 9.5l72.6 42.1c9.9 5.8 27.3 5.1 38.8-1.5l61.4-35.3c6.4-3.7 9.6-8.4 9.4-12.9z"/>
        <linearGradient id="XMLID_3_" x1="100.45" x2="100.45" y1="-24.829" y2="-75.43" gradientTransform="matrix(1 0 0 -1 0 41.6)" gradientUnits="userSpaceOnUse">
          <stop offset="0" stop-color="#dfe0e1"/>
          <stop offset="1" stop-color="#fff"/>
        </linearGradient>
        <path id="XMLID_26_" fill="url(#XMLID_3_)" d="M85.3 162.9l-72.6-42.1C2.8 115 4 105 15.5 98.4l61.4-35.3c11.5-6.6 28.9-7.3 38.8-1.5l72.6 42.1c9.9 5.8 8.7 15.8-2.8 22.4l-61.4 35.3c-11.5 6.6-28.8 7.3-38.8 1.5z"/>
      </g>
    </g>
  </g>
  <path fill="#23359c" d="M94.6 154.6c1 .6 2.7.6 3.7 0l71.1-41.3c1-.6 1-1.5 0-2.1L121 83.3c-1-.6-2.7-.6-3.7 0l-71.1 41.3c-1 .6-1 1.5 0 2.1" opacity=".17"/>
  <path d="M171.4 108.5c1 .6 1 1.5 0 2.1l-71.1 41.3c-1 .6-2.7.6-3.7 0L48.3 124c-1-.6-1-1.5 0-2.1l71.1-41.3c1-.6 2.7-.6 3.7 0l48.3 27.9zM119 20.2c.1-.1.2-.1.3-.1H120.4l.9.5-.4 1.3-70.5 41.3c-.1.1-.2.2-.3.2l-.1.1c-.1.1-.2.1-.2.2l-.1.1-.3.3c-.1.1-.2.3-.3.4-.1.1-.2.3-.2.4-.1.1-.1.3-.2.4 0 .1-.1.3-.1.4v.5l-1.4 55.7-.9-.5c-.3-.2-.5-.6-.5-1.2l-.2-55.6v-.4-.1-.2c0-.1 0-.1.1-.2v-.2c0-.1 0-.1.1-.2 0-.1 0-.1.1-.2 0 0 0-.1.1-.1 0-.1.1-.1.1-.2 0 0 0-.1.1-.1 0-.1.1-.1.1-.2s.1-.1.1-.2v-.1-.1c0-.1.1-.1.1-.2l.1-.1.1-.1s0-.1.1-.1c.1-.1.1-.1.2-.1l.1-.1c.1-.1.2-.2.3-.2l71.6-41z" class="st4"/>
  <path d="M119.9 20.7c1-.6 1.8-.1 1.9 1.1l.2 55.6c0 1.2-.8 2.6-1.8 3.2l-71.6 41.3c-1 .6-1.8.1-1.9-1.1l-.2-55.6c0-1.2.8-2.6 1.8-3.2l71.6-41.3zm-.2 50.9l-.1-43.9c0-1.4-1-1.9-2.2-1.2L50.9 64.9c-1.2.7-2.1 2.3-2.1 3.7l.1 43.9c0 1.4 1 1.9 2.2 1.2l66.5-38.4c1.1-.6 2.1-2.3 2.1-3.7" class="st5"/>
  <path d="M119.7 71.6c0 1.4-1 3-2.1 3.7L77.2 98.6 51 113.7c-1.2.7-2.2.1-2.2-1.2l-.1-43.9c0-1.4 1-3 2.1-3.7l32.9-19 33.7-19.5c1.2-.7 2.2-.1 2.2 1.2l.1 44z" class="st6"/>
  <path d="M125.7 86.6l-3.1 1.8c-.1.1-.2.1-.4.1-.1 0-.3 0-.4-.1l-2.4-1.4c-.1 0-.1-.1-.1-.1s0-.1.1-.1l3.1-1.8c.1-.1.2-.1.4-.1.1 0 .3 0 .4.1l2.4 1.4c.1 0 .1.1 0 .2.1-.1.1 0 0 0zM121.5 89s0 .1 0 0l-3.2 1.9c-.1.1-.2.1-.4.1-.1 0-.3 0-.4-.1l-2.4-1.4c-.1 0-.1-.1-.1-.1s0-.1.1-.1l3.1-1.8c.1-.1.2-.1.4-.1.1 0 .3 0 .4.1l2.5 1.5c-.1 0 0 0 0 0zM117 91.6s0 .1 0 0l-3.2 1.9c-.1.1-.2.1-.4.1-.1 0-.3 0-.4-.1l-2.4-1.4c-.1 0-.1-.1-.1-.1s0-.1.1-.1l3.1-1.8c.1-.1.2-.1.4-.1.1 0 .3 0 .4.1l2.5 1.5c0-.1 0 0 0 0zM112.5 94.2s0 .1 0 0l-3.2 1.9c-.1.1-.2.1-.4.1-.1 0-.3 0-.4-.1l-2.4-1.4c-.1 0-.1-.1-.1-.1s0-.1.1-.1l3.1-1.8c.1-.1.2-.1.4-.1.1 0 .3 0 .4.1l2.5 1.5zM108.1 96.8s0 .1 0 0l-3.2 1.9c-.1.1-.2.1-.4.1-.1 0-.3 0-.4-.1l-2.4-1.4c-.1 0-.1-.1-.1-.1s0-.1.1-.1l3.1-1.8c.1-.1.2-.1.4-.1.1 0 .3 0 .4.1l2.5 1.5zM103.6 99.4s0 .1 0 0l-3.2 1.9c-.1.1-.2.1-.4.1-.1 0-.3 0-.4-.1l-2.3-1.4c-.1 0-.1-.1-.1-.1s0-.1.1-.1l3.1-1.8c.1-.1.2-.1.4-.1.1 0 .3 0 .4.1l2.4 1.5zM99.2 102s0 .1 0 0l-3.2 1.9c-.1.1-.2.1-.4.1-.1 0-.3 0-.4-.1l-2.4-1.4c-.1 0-.1-.1-.1-.1s0-.1.1-.1l3.1-1.8c.1-.1.2-.1.4-.1.1 0 .3 0 .4.1l2.5 1.5c0-.1 0-.1 0 0zM94.8 104.6s0 .1 0 0l-3.2 1.9c-.1.1-.2.1-.4.1-.1 0-.3 0-.4-.1l-2.4-1.4c-.1 0-.1-.1-.1-.1s0-.1.1-.1l3.1-1.8c.1-.1.2-.1.4-.1.1 0 .3 0 .4.1l2.5 1.5c-.1-.1 0-.1 0 0zM90.3 107.1s0 .1 0 0l-3.2 2c-.1.1-.2.1-.4.1-.1 0-.3 0-.4-.1l-2.4-1.4c-.1 0-.1-.1-.1-.1s0-.1.1-.1l3.1-1.8c.1-.1.2-.1.4-.1.1 0 .3 0 .4.1l2.5 1.4zM85.9 109.7s0 .1 0 0l-3.2 1.9c-.1.1-.2.1-.4.1-.1 0-.3 0-.4-.1l-2.4-1.4c-.1 0-.1-.1-.1-.1s0-.1.1-.1l3.1-1.8c.1-.1.2-.1.4-.1.1 0 .3 0 .4.1l2.5 1.5c-.1-.1 0 0 0 0zM129.4 88.7l-10.5 6.1c-.1.1-.2.1-.4.1-.1 0-.3 0-.4-.1l-2.4-1.4c-.1 0-.1-.1-.1-.1s0-.1.1-.1l10.5-6.1c.1-.1.2-.1.4-.1.1 0 .3 0 .4.1l2.4 1.4c.1 0 .1.1.1.1 0 .1-.1.1-.1.1zM111.3 95.8l3.1-1.8c.1-.1.2-.1.4-.1.1 0 .3 0 .4.1l2.4 1.4c.1 0 .1.1.1.1s0 .1-.1.1l-3.1 1.8c-.1.1-.2.1-.4.1-.1 0-.3 0-.4-.1l-2.4-1.4c-.1 0-.1-.1 0-.2-.1.1-.1 0 0 0zM106.9 98.4l3.1-1.8c.1-.1.2-.1.4-.1.1 0 .3 0 .4.1l2.4 1.4c.1 0 .1.1.1.1s0 .1-.1.1l-3.1 1.8c-.1.1-.2.1-.4.1-.1 0-.3 0-.4-.1l-2.4-1.4c-.1 0-.1-.1 0-.2-.1.1-.1 0 0 0zM102.4 101l3.1-1.8c.1-.1.2-.1.4-.1.1 0 .3 0 .4.1l2.4 1.4c.1 0 .1.1.1.1s0 .1-.1.1l-3.1 1.8c-.1.1-.2.1-.4.1-.1 0-.3 0-.4-.1l-2.4-1.4c-.1 0-.1-.1 0-.2-.1.1-.1 0 0 0zM98 103.5l3.1-1.8c.1-.1.2-.1.4-.1.1 0 .3 0 .4.1l2.4 1.4c.1 0 .1.1.1.1s0 .1-.1.1l-3.2 1.9c-.1.1-.2.1-.4.1-.1 0-.3 0-.4-.1l-2.4-1.4c-.1 0-.1-.1-.1-.1l.2-.2zM93.5 106.1l3.1-1.8c.1-.1.2-.1.4-.1.1 0 .3 0 .4.1l2.4 1.4c.1 0 .1.1.1.1s0 .1-.1.1l-3.1 1.8c-.1.1-.2.1-.4.1-.1 0-.3 0-.4-.1l-2.4-1.4c-.1 0-.1-.1 0-.2-.1.1 0 .1 0 0zM88.8 109l3.1-1.8c.1-.1.2-.1.4-.1.1 0 .3 0 .4.1l2.4 1.4c.1 0 .1.1.1.1s0 .1-.1.1l-3.1 1.8c-.1.1-.2.1-.4.1-.1 0-.3 0-.4-.1l-2.4-1.4c-.1 0-.1-.1 0-.2-.1.1-.1 0 0 0zM84.3 111.6l3.1-1.8c.1-.1.2-.1.4-.1.1 0 .3 0 .4.1l2.4 1.4c.1 0 .1.1.1.1s0 .1-.1.1l-3.1 1.8c-.1.1-.2.1-.4.1-.1 0-.3 0-.4-.1l-2.4-1.4c-.1 0-.1-.1 0-.2-.1 0 0 0 0 0zM79.7 114.1l3.1-1.8c.1-.1.2-.1.4-.1.1 0 .3 0 .4.1l2.4 1.4c.1 0 .1.1.1.1s0 .1-.1.1l-3.1 1.8c-.1.1-.2.1-.4.1-.1 0-.3 0-.4-.1l-2.4-1.4c-.1 0-.1-.1 0-.2-.1.1-.1.1 0 0zM133.1 90.9l-3.4 1.9c-.1.1-.2.1-.4.1-.1 0-.3 0-.4-.1l-2.4-1.4c-.1 0-.1-.1-.1-.1s0-.1.1-.1l3.4-1.9c.1-.1.2-.1.4-.1s.3 0 .4.1l2.4 1.4c.1 0 .1.1.1.1s-.1 0-.1.1zM122 93.9l3.4-1.9c.1-.1.2-.1.4-.1.1 0 .3 0 .4.1l2.4 1.4c.1 0 .1.1.1.1s0 .1-.1.1l-3.4 1.9c-.1.1-.2.1-.4.1-.1 0-.3 0-.4-.1l-2.4-1.4c-.1 0-.1-.1 0-.2-.2.1-.1 0 0 0zM140.4 95.1l-2.3 1.4c-.1.1-.2.1-.4.1-.1 0-.3 0-.4-.1l-6-3.5c-.1 0-.1-.1-.1-.1s0-.1.1-.1l2.3-1.4c.1-.1.2-.1.4-.1.1 0 .3 0 .4.1l6 3.5c.1 0 .1.1.1.1-.1 0-.1.1-.1.1zM130.1 93.4c.1 0 .3 0 .4.1l2.4 1.4c.1 0 .1.1.1.1s0 .1-.1.1l-4 2.4c-.1.1-.2.1-.4.1-.1 0-.3 0-.4-.1l-2.4-1.4c-.1 0-.1-.1-.1-.1s0-.1.1-.1l4-2.4c.2 0 .3-.1.4-.1zM112.8 99.2l3.1-1.8c.1-.1.2-.1.4-.1.1 0 .3 0 .4.1l2.4 1.4c.1 0 .1.1.1.1s0 .1-.1.1l-3.1 1.8c-.1.1-.2.1-.4.1-.1 0-.3 0-.4-.1l-2.4-1.4c-.1 0-.1-.1 0-.2z" class="st5"/>
  <path d="M120.8 94.7c.1 0 .3 0 .4.1l6.1 3.5c.1 0 .1.1.1.1s0 .1-.1.1l-6.1 3.6c-.1.1-.2.1-.4.1-.1 0-.3 0-.4-.1l-2.4-1.4c-.1 0-.1-.1-.1-.1s0-.1.1-.1l2.8-1.6-3.5-2c-.1 0-.1-.1-.1-.1s0-.1.1-.1l3.1-1.8c.1-.2.2-.2.4-.2zM108.4 101.8l3.1-1.8c.1-.1.2-.1.4-.1.1 0 .3 0 .4.1l2.4 1.4c.1 0 .1.1.1.1s0 .1-.1.1l-3.1 1.8c-.1.1-.2.1-.4.1-.1 0-.3 0-.4-.1l-2.4-1.4c-.1 0-.1-.1 0-.2-.1 0-.1 0 0 0zM103.9 104.3l3.1-1.8c.1-.1.2-.1.4-.1.1 0 .3 0 .4.1l2.4 1.4c.1 0 .1.1.1.1s0 .1-.1.1l-3.1 1.8c-.1.1-.2.1-.4.1-.1 0-.3 0-.4-.1l-2.4-1.4c-.1 0-.1-.1 0-.2-.1.1 0 .1 0 0zM99.5 106.9l3.1-1.8c.1-.1.2-.1.4-.1.1 0 .3 0 .4.1l2.4 1.4c.1 0 .1.1.1.1s0 .1-.1.1l-3.1 1.8c-.1.1-.2.1-.4.1-.1 0-.3 0-.4-.1l-2.4-1.4c-.1 0-.1-.1 0-.2-.1.1-.1.1 0 0zM95.1 109.5l3.1-1.8c.1-.1.2-.1.4-.1.1 0 .3 0 .4.1l2.4 1.4c.1 0 .1.1.1.1s0 .1-.1.1l-3.1 1.8c-.1.1-.2.1-.4.1-.1 0-.3 0-.4-.1l-2.4-1.4c-.1 0-.1-.1-.1-.1s0-.1.1-.1zM90.6 112.1l3.1-1.8c.1-.1.2-.1.4-.1.1 0 .3 0 .4.1l2.4 1.4c.1 0 .1.1.1.1s0 .1-.1.1l-3.1 1.8c-.1.1-.2.1-.4.1-.1 0-.3 0-.4-.1l-2.4-1.4c-.1 0-.1-.1 0-.2-.1.1 0 0 0 0zM86.2 114.7l3.1-1.8c.1-.1.2-.1.4-.1.1 0 .3 0 .4.1l2.4 1.4c.1 0 .1.1.1.1s0 .1-.1.1l-3.1 1.8c-.1.1-.2.1-.4.1-.1 0-.3 0-.4-.1l-2.4-1.4c-.1 0-.1-.1 0-.2-.1 0-.1 0 0 0zM119.8 102.7s0 .1 0 0l-3.2 1.9c-.1.1-.2.1-.4.1-.1 0-.3 0-.4-.1l-2.4-1.4c-.1 0-.1-.1-.1-.1s0-.1.1-.1l3.1-1.8c.1-.1.2-.1.4-.1.1 0 .3 0 .4.1l2.5 1.5c0-.1 0 0 0 0zM109 105.7s0-.1 0 0l3.2-1.9c.1-.1.2-.1.4-.1.1 0 .3 0 .4.1l2.4 1.4c.1 0 .1.1.1.1s0 .1-.1.1l-3.1 1.8c-.1.1-.2.1-.4.1-.1 0-.3 0-.4-.1l-2.5-1.5c0 .1 0 .1 0 0zM110.9 108l-3.1 1.8c-.1.1-.2.1-.4.1-.1 0-.3 0-.4-.1l-2.4-1.4c-.1 0-.1-.1-.1-.1s0-.1.1-.1l3.1-1.8c.1-.1.2-.1.4-.1.1 0 .3 0 .4.1l2.4 1.4c.1 0 .1.1 0 .2zM106.4 110.6l-3.1 1.8c-.1.1-.2.1-.4.1s-.3 0-.4-.1l-2.4-1.4v-.1s0-.1.1-.1l3.1-1.8c.1-.1.2-.1.4-.1.1 0 .3 0 .4.1l2.4 1.4c.1 0 .1.1.1.1-.1 0-.1 0-.2.1zM102 113.2l-3.1 1.8c-.1.1-.2.1-.4.1-.1 0-.3 0-.4-.1l-2.4-1.4c-.1 0-.1-.1-.1-.1s0-.1.1-.1l3.1-1.8c.1-.1.2-.1.4-.1.1 0 .3 0 .4.1l2.4 1.4c.1 0 .1.1 0 .2.1-.1 0-.1 0 0zM97.5 115.8l-3.1 1.8c-.1.1-.2.1-.4.1-.1 0-.3 0-.4-.1l-2.4-1.4c-.1 0-.1-.1-.1-.1s0-.1.1-.1l3.1-1.8c.1-.1.2-.1.4-.1.1 0 .3 0 .4.1l2.4 1.4c.1 0 .1.1 0 .2.1-.1.1-.1 0 0zM93.1 118.3l-3.1 1.8c-.1.1-.2.1-.4.1-.1 0-.3 0-.4-.1l-2.4-1.4c-.1 0-.1-.1-.1-.1s0-.1.1-.1l3.1-1.8c.1-.1.2-.1.4-.1.1 0 .3 0 .4.1l2.4 1.4c.1 0 .1.1 0 .2.1 0 0 0 0 0zM133.9 95.5c.1 0 .3 0 .4.1l2.4 1.4c.1 0 .1.1.1.1s0 .1-.1.1l-3.4 1.9c-.1.1-.2.1-.4.1-.1 0-.3 0-.4-.1l-2.4-1.4c-.1 0-.1-.1-.1-.1s0-.1.1-.1l3.4-1.9c.2 0 .3-.1.4-.1zM124.5 100.9s0-.1 0 0l4.2-2.5c.1-.1.2-.1.4-.1.1 0 .3 0 .4.1l2.4 1.4c.1 0 .1.1.1.1s0 .1-.1.1l-4.1 2.4c-.1.1-.2.1-.4.1-.1 0-.3 0-.4-.1l-2.5-1.5zM121.9 105.8l-3.1 1.8c-.1.1-.2.1-.4.1-.1 0-.3 0-.4-.1l-2.4-1.4c-.1 0-.1-.1-.1-.1s0-.1.1-.1l3.1-1.8c.1-.1.2-.1.4-.1.1 0 .3 0 .4.1l2.4 1.4c.1 0 .1.1 0 .2.2-.1.1 0 0 0zM117.5 108.4l-3.1 1.8c-.1.1-.2.1-.4.1-.1 0-.3 0-.4-.1l-2.4-1.4c-.1 0-.1-.1-.1-.1s0-.1.1-.1l3.1-1.8c.1-.1.2-.1.4-.1.1 0 .3 0 .4.1l2.4 1.4c.1 0 .1.1 0 .2.1-.1.1-.1 0 0zM113.1 111l-3.1 1.8c-.1.1-.2.1-.4.1-.1 0-.3 0-.4-.1l-2.4-1.4c-.1 0-.1-.1-.1-.1s0-.1.1-.1l3.1-1.8c.1-.1.2-.1.4-.1.1 0 .3 0 .4.1l2.4 1.4c.1 0 .1.1 0 .2.1-.1 0-.1 0 0zM108.6 113.5l-3.1 1.8c-.1.1-.2.1-.4.1-.1 0-.3 0-.4-.1l-2.4-1.4c-.1 0-.1-.1-.1-.1s0-.1.1-.1l3.1-1.8c.1-.1.2-.1.4-.1.1 0 .3 0 .4.1l2.4 1.4c.1 0 .1.1 0 .2.1 0 .1 0 0 0zM104.2 116.1l-3.1 1.8c-.1.1-.2.1-.4.1-.1 0-.3 0-.4-.1l-2.4-1.4c-.1 0-.1-.1-.1-.1s0-.1.1-.1l3.1-1.8c.1-.1.2-.1.4-.1.1 0 .3 0 .4.1l2.4 1.4c.1 0 .1.1 0 .2zM99.7 118.7l-3.1 1.8c-.1.1-.2.1-.4.1-.1 0-.3 0-.4-.1l-2.4-1.4c-.1 0-.1-.1-.1-.1s0-.1.1-.1l3.1-1.8c.1-.1.2-.1.4-.1.1 0 .3 0 .4.1l2.4 1.4c.1 0 .1.1 0 .2.1-.1.1 0 0 0zM95.3 121.3l-3.1 1.8c-.1.1-.2.1-.4.1-.1 0-.3 0-.4-.1l-2.4-1.4c-.1 0-.1-.1-.1-.1s0-.1.1-.1l3.1-1.8c.1-.1.2-.1.4-.1.1 0 .3 0 .4.1l2.4 1.4v.2c.1-.1.1 0 0 0zM138.4 97.1s0-.1.1-.1l2.3-1.4c.1-.1.2-.1.4-.1.1 0 .3 0 .4.1l6.1 3.5c.1 0 .1.1.1.1s0 .1-.1.1l-2.3 1.4c-.1.1-.2.1-.4.1-.1 0-.3 0-.4-.1l-6.1-3.5c-.1 0-.1-.1-.1-.1zM137.7 97.6c.1 0 .3 0 .4.1l2.4 1.4c.1 0 .1.1.1.1s0 .1-.1.1l-3.5 2.1c-.1.1-.2.1-.4.1-.1 0-.3 0-.4-.1l-2.4-1.4c-.1 0-.1-.1-.1-.1s0-.1.1-.1l3.5-2.1c.1 0 .3-.1.4-.1zM135.6 102.2l-1.8 1c-.1.1-.2.1-.4.1-.1 0-.3 0-.4-.1l-2.4-1.4c-.1 0-.1-.1-.1-.1s0-.1.1-.1l1.8-1c.1-.1.2-.1.4-.1.1 0 .3 0 .4.1l2.4 1.4c.1 0 .1.1.1.1s-.1 0-.1.1zM132.3 104.1l-1.8 1.1c-.1.1-.2.1-.4.1-.1 0-.3 0-.4-.1l-2.4-1.4c-.1 0-.1-.1-.1-.1s0-.1.1-.1l1.8-1.1c.1-.1.2-.1.4-.1.1 0 .3 0 .4.1l2.4 1.4c.1 0 .1.1.1.1l-.1.1zM129.1 105.9l-5.1 3c-.1.1-.2.1-.4.1-.1 0-.3 0-.4-.1l-2.4-1.4c-.1 0-.1-.1-.1-.1s0-.1.1-.1l5.1-3c.1-.1.2-.1.4-.1.1 0 .3 0 .4.1l2.4 1.4v.2zM122.7 109.7l-3.1 1.8c-.1.1-.2.1-.4.1-.1 0-.3 0-.4-.1l-2.4-1.4c-.1 0-.1-.1-.1-.1s0-.1.1-.1l3.1-1.8c.1-.1.2-.1.4-.1.1 0 .3 0 .4.1l2.4 1.4c.1 0 .1.1 0 .2.1-.1 0-.1 0 0zM118.2 112.3l-3.1 1.8c-.1.1-.2.1-.4.1-.1 0-.3 0-.4-.1l-2.4-1.4c-.1 0-.1-.1-.1-.1s0-.1.1-.1l3.1-1.8c.1-.1.2-.1.4-.1.1 0 .3 0 .4.1l2.4 1.4c.1 0 .1.1 0 .2.1-.1.1-.1 0 0zM113.8 114.8l-3.1 1.8c-.1.1-.2.1-.4.1-.1 0-.3 0-.4-.1l-2.4-1.4c-.1 0-.1-.1-.1-.1s0-.1.1-.1l3.1-1.8c.1-.1.2-.1.4-.1.1 0 .3 0 .4.1l2.4 1.4v.2c.1 0 0 0 0 0zM109.3 117.4l-3.1 1.8c-.1.1-.2.1-.4.1-.1 0-.3 0-.4-.1l-2.3-1.4c-.1 0-.1-.1-.1-.1s0-.1.1-.1l3.1-1.8c.1-.1.2-.1.4-.1.1 0 .3 0 .4.1l2.4 1.4c.1 0 .1.1.1.1-.1 0-.1.1-.2.1zM104.9 120l-3.1 1.8c-.1.1-.2.1-.4.1-.1 0-.3 0-.4-.1l-2.4-1.4c-.1 0-.1-.1-.1-.1s0-.1.1-.1l3.1-1.8c.1-.1.2-.1.4-.1.1 0 .3 0 .4.1l2.4 1.4c.1 0 .1.1 0 .2zM100.4 122.6l-3.1 1.8c-.1.1-.2.1-.4.1-.1 0-.3 0-.4-.1l-2.4-1.4c-.1 0-.1-.1-.1-.1s0-.1.1-.1l3.1-1.8c.1-.1.2-.1.4-.1.1 0 .3 0 .4.1l2.4 1.4c.1 0 .1.1 0 .2.1-.1.1-.1 0 0zM96 125.2l-3.1 1.8c-.1.1-.2.1-.4.1-.1 0-.3 0-.4-.1l-2.4-1.4c-.1 0-.1-.1-.1-.1s0-.1.1-.1l3.1-1.8c.1-.1.2-.1.4-.1.1 0 .3 0 .4.1L96 125c.1 0 .1.1 0 .2.1-.1.1-.1 0 0zM76.4 133.1l3.1-1.8c.1-.1.2-.1.4-.1.1 0 .3 0 .4.1l2.4 1.4c.1 0 .1.1.1.1s0 .1-.1.1l-3.1 1.8c-.1.1-.2.1-.4.1-.1 0-.3 0-.4-.1l-2.4-1.4c-.1 0-.1-.1 0-.2-.1.1 0 0 0 0zM136.4 102.6s0-.1.1-.1l3.1-1.8c.1-.1.2-.1.4-.1.1 0 .3 0 .4.1l2.4 1.4c.1 0 .1.1.1.1s0 .1-.1.1l-3.1 1.8c-.1.1-.2.1-.4.1-.1 0-.3 0-.4-.1l-2.4-1.4c-.1 0-.1-.1-.1-.1zM131.9 105.2s0-.1.1-.1l3.1-1.8c.1-.1.2-.1.4-.1.1 0 .3 0 .4.1l2.4 1.4c.1 0 .1.1.1.1s0 .1-.1.1l-3.1 1.8c-.1.1-.2.1-.4.1-.1 0-.3 0-.4-.1l-2.5-1.5c.1 0 0 0 0 0zM127.4 107.8s0-.1 0 0l3.2-1.9c.1-.1.2-.1.4-.1.1 0 .3 0 .4.1l2.4 1.4c.1 0 .1.1.1.1s0 .1-.1.1l-3.1 1.8c-.1.1-.2.1-.4.1-.1 0-.3 0-.4-.1l-2.5-1.5c.1.1 0 0 0 0zM123 110.4s0-.1 0 0l3.2-1.9c.1-.1.2-.1.4-.1.1 0 .3 0 .4.1l2.4 1.4c.1 0 .1.1.1.1s0 .1-.1.1l-3.1 1.8c-.1.1-.2.1-.4.1-.1 0-.3 0-.4-.1l-2.5-1.5zM100.8 123.3s0-.1 0 0l21-12.2c.1-.1.2-.1.4-.1.1 0 .3 0 .4.1l2.4 1.4c.1 0 .1.1.1.1s0 .1-.1.1l-20.9 12.1c-.1.1-.2.1-.4.1-.1 0-.3 0-.4-.1l-2.5-1.5zM96.3 125.9s0-.1 0 0l3.2-1.9c.1-.1.2-.1.4-.1.1 0 .3 0 .4.1l2.4 1.4c.1 0 .1.1.1.1s0 .1-.1.1l-3.1 1.8c-.1.1-.2.1-.4.1-.1 0-.3 0-.4-.1l-2.5-1.5c.1 0 0 0 0 0zM91.9 128.4s0-.1 0 0l3.2-1.9c.1-.1.2-.1.4-.1.1 0 .3 0 .4.1l2.4 1.4c.1 0 .1.1.1.1s0 .1-.1.1l-3.2 1.8c-.1.1-.2.1-.4.1-.1 0-.3 0-.4-.1l-2.4-1.4v-.1zM87.4 131s0-.1.1-.1l3.1-1.8c.1-.1.2-.1.4-.1.1 0 .3 0 .4.1l2.4 1.4c.1 0 .1.1.1.1s0 .1-.1.1l-3.1 1.8c-.1.1-.2.1-.4.1-.1 0-.3 0-.4-.1l-2.4-1.4-.1-.1zM83 133.6s0-.1.1-.1l3.1-1.8c.1-.1.2-.1.4-.1.1 0 .3 0 .4.1l2.4 1.4c.1 0 .1.1.1.1s0 .1-.1.1l-3.1 1.8c-.1.1-.2.1-.4.1-.1 0-.3 0-.4-.1l-2.5-1.5c0 .1 0 0 0 0zM79.4 135.7l2.4-1.4c.1-.1.2-.1.4-.1.1 0 .3 0 .4.1l2.4 1.4c.1 0 .1.1.1.1s0 .1-.1.1l-2.4 1.4c-.1.1-.2.1-.4.1-.1 0-.3 0-.4-.1l-2.4-1.4c-.1 0-.1-.1 0-.2-.1 0-.1 0 0 0zM81.4 112.3s0 .1 0 0l-3.2 1.9c-.1.1-.2.1-.4.1-.1 0-.3 0-.4-.1l-2.3-1.4c-.1 0-.1-.1-.1-.1s0-.1.1-.1l3.1-1.8c.1-.1.2-.1.4-.1.1 0 .3 0 .4.1l2.4 1.5zM77 114.9s0 .1 0 0l-3.2 1.9c-.1.1-.2.1-.4.1-.1 0-.3 0-.4-.1l-2.4-1.4c-.1 0-.1-.1-.1-.1s0-.1.1-.1l3.1-1.8c.1-.1.2-.1.4-.1.1 0 .3 0 .4.1l2.5 1.5c0-.1 0 0 0 0zM72.5 117.5s0 .1 0 0l-3.2 1.9c-.1.1-.2.1-.4.1-.1 0-.3 0-.4-.1l-2.4-1.4v-.1s0-.1.1-.1l3.1-1.8c.1-.1.2-.1.4-.1.1 0 .3 0 .4.1l2.4 1.5c0-.1 0-.1 0 0zM68.1 120s0 .1 0 0l-3.2 1.9c-.1.1-.2.1-.4.1-.1 0-.3 0-.4-.1l-2.4-1.4c-.1 0-.1-.1-.1-.1s0-.1.1-.1l3.1-1.8c.1-.1.2-.1.4-.1.1 0 .3 0 .4.1l2.5 1.5zM57.3 122.9l3.1-1.8c.1-.1.2-.1.4-.1.1 0 .3 0 .4.1l2.4 1.4c.1 0 .1.1.1.1s0 .1-.1.1l-3.1 1.8c-.1.1-.2.1-.4.1-.1 0-.3 0-.4-.1l-2.4-1.4c-.1 0-.1-.1 0-.2-.1.1 0 .1 0 0zM75.1 116.7l3.1-1.8c.1-.1.2-.1.4-.1.1 0 .3 0 .4.1l2.4 1.4c.1 0 .1.1.1.1s0 .1-.1.1l-3.1 1.8c-.1.1-.2.1-.4.1s-.3 0-.4-.1l-2.4-1.3c-.1 0-.1-.1-.1-.1 0-.1 0-.1.1-.2zM73.4 121.1c-.1 0-.3 0-.4-.1l-2.4-1.4c-.1 0-.1-.1-.1-.1s0-.1.1-.1l3.1-1.8c.1-.1.2-.1.4-.1.1 0 .3 0 .4.1l2.4 1.4c.1 0 .1.1.1.1s0 .1-.1.1l-3.1 1.8c-.1.1-.3.1-.4.1zM68.8 123.8c-.1 0-.3 0-.4-.1l-2.4-1.4c-.1 0-.1-.1-.1-.1s0-.1.1-.1l3.1-1.8c.1-.1.2-.1.4-.1s.3 0 .4.1l2.4 1.4c.1 0 .1.1.1.1s0 .1-.1.1l-3.1 1.8c-.2.1-.3.1-.4.1zM61.1 124.9l3.1-1.8c.1-.1.2-.1.4-.1.1 0 .3 0 .4.1l2.4 1.4c.1 0 .1.1.1.1s0 .1-.1.1l-3.1 1.8c-.1.1-.2.1-.4.1-.1 0-.3 0-.4-.1l-2.4-1.4c-.1 0-.1-.1 0-.2-.1.1-.1.1 0 0zM84.5 118.9c-.1 0-.3 0-.4-.1l-2.4-1.4c-.1 0-.1-.1-.1-.1s0-.1.1-.1l3.1-1.8c.1-.1.2-.1.4-.1.1 0 .3 0 .4.1l2.4 1.4c0 .1.1.1.1.1s0 .1-.1.1l-3.1 1.9h-.4zM80.1 121.5c-.1 0-.3 0-.4-.1l-2.4-1.4c-.1 0-.1-.1-.1-.1s0-.1.1-.1l3.1-1.8c.1-.1.2-.1.4-.1.1 0 .3 0 .4.1l2.4 1.4c.1 0 .1.1.1.1s0 .1-.1.1l-3.1 1.8c-.2.1-.3.1-.4.1zM72.7 122.5s0-.1 0 0l3.2-1.9c.1-.1.2-.1.4-.1.1 0 .3 0 .4.1l2.4 1.4c.1 0 .1.1.1.1s0 .1-.1.1L76 124c-.1.1-.2.1-.4.1-.1 0-.3 0-.4-.1l-2.5-1.5c.1.1 0 .1 0 0zM64.7 127.2l6.8-3.9c.1-.1.2-.1.4-.1.1 0 .3 0 .4.1l2.4 1.4c.1 0 .1.1.1.1s0 .1-.1.1l-6.8 3.9c-.1.1-.2.1-.4.1-.1 0-.3 0-.4-.1l-2.4-1.4c-.1 0-.1-.1 0-.2-.1 0-.1 0 0 0zM82.3 121.2s0-.1 0 0l3.2-1.9c.1-.1.2-.1.4-.1.1 0 .3 0 .4.1l2.4 1.4c.1 0 .1.1.1.1s0 .1-.1.1l-3.1 1.8c-.1.1-.2.1-.4.1-.1 0-.3 0-.4-.1l-2.5-1.5c0 .1 0 0 0 0zM77.9 123.8s0-.1 0 0l3.2-1.9c.1-.1.2-.1.4-.1.1 0 .3 0 .4.1l2.4 1.4c.1 0 .1.1.1.1s0 .1-.1.1l-3.1 1.8c-.1.1-.2.1-.4.1-.1 0-.3 0-.4-.1l-2.5-1.5c0 .1 0 0 0 0zM79.8 126.1l-3.1 1.8c-.1.1-.2.1-.4.1-.1 0-.3 0-.4-.1l-2.4-1.4c-.1 0-.1-.1-.1-.1s0-.1.1-.1l3.1-1.8c.1-.1.2-.1.4-.1.1 0 .3 0 .4.1l2.4 1.4v.2c.1-.1 0-.1 0 0zM68.3 129.3l3.9-2.2c.1-.1.2-.1.4-.1.1 0 .3 0 .4.1l2.4 1.4c.1 0 .1.1.1.1s0 .1-.1.1l-3.9 2.2c-.1.1-.2.1-.4.1-.1 0-.3 0-.4-.1l-2.4-1.4c-.1 0-.1-.1 0-.2zM90.8 123.9l-3.1 1.8c-.1.1-.2.1-.4.1-.1 0-.3 0-.4-.1l-2.4-1.4c-.1 0-.1-.1-.1-.1s0-.1.1-.1l3.1-1.8c.1-.1.2-.1.4-.1.1 0 .3 0 .4.1l2.4 1.4v.2c.1-.1.1-.1 0 0zM80.1 126.8s0-.1 0 0l3.2-1.9c.1-.1.2-.1.4-.1.1 0 .3 0 .4.1l2.4 1.4c.1 0 .1.1.1.1s0 .1-.1.1l-3.1 1.8c-.1.1-.2.1-.4.1-.1 0-.3 0-.4-.1l-2.5-1.5zM72 131.4l6.8-3.9c.1-.1.2-.1.4-.1.1 0 .3 0 .4.1l2.4 1.4c.1 0 .1.1.1.1s0 .1-.1.1l-6.8 3.9c-.1.1-.2.1-.4.1-.1 0-.3 0-.4-.1l-2.4-1.4c-.1 0-.1-.1-.1-.1s0-.1.1-.1zM91.6 127.7l-3.1 1.8c-.1.1-.2.1-.4.1-.1 0-.3 0-.4-.1l-2.4-1.4c-.1 0-.1-.1-.1-.1s0-.1.1-.1l3.1-1.8c.1-.1.2-.1.4-.1.1 0 .3 0 .4.1l2.4 1.4c.1 0 .1.1 0 .2.1 0 0 0 0 0zM87.1 130.3l-3.1 1.8c-.1.1-.2.1-.4.1-.1 0-.3 0-.4-.1l-2.4-1.4c-.1 0-.1-.1-.1-.1s0-.1.1-.1l3.1-1.8c.1-.1.2-.1.4-.1.1 0 .3 0 .4.1l2.4 1.4c.1 0 .1.1 0 .2.1-.1.1 0 0 0zM126.4 103.2l-3.1 1.8c-.1.1-.2.1-.4.1-.1 0-.3 0-.4-.1l-2.4-1.4c-.1 0-.1-.1-.1-.1s0-.1.1-.1l3.1-1.8c.1-.1.2-.1.4-.1.1 0 .3 0 .4.1l2.4 1.4c.1 0 .1.1 0 .2.1-.1.1 0 0 0z" class="st5"/>
  <path d="M138.3 122.6c.9.5.9 1.4 0 1.9l-12.2 7.1c-.9.5-2.4.5-3.3 0l-9.4-5.5c-.9-.5-.9-1.4 0-1.9l12.2-7.1c.9-.5 2.4-.5 3.3 0l9.4 5.5z" class="st6" opacity=".57"/>
  <linearGradient id="SVGID_1_" x1="50.015" x2="92.18" y1="-24.361" y2="-85.568" gradientTransform="matrix(1 0 0 -1 0 41.6)" gradientUnits="userSpaceOnUse">
    <stop offset="0" stop-color="#0045db"/>
    <stop offset="1" stop-color="#ffa3ff"/>
  </linearGradient>
  <path fill="url(#SVGID_1_)" d="M71.5 62.4l.1 33.6c0 .5-.3.9-.7 1.2l-15.8 9c-.9.5-2-.1-2-1.2L53 71.4c0-.5.3-.9.7-1.2l15.8-9c.9-.5 2 .2 2 1.2z"/>
  <path d="M116.4 71.5l-42 23.9-.1-36.7" class="st9"/>
  <radialGradient id="SVGID_2_" cx="95.826" cy="-29.086" r="21.757" gradientTransform="matrix(1 0 0 -1 0 41.6)" gradientUnits="userSpaceOnUse">
    <stop offset="0" stop-color="#00fcff"/>
    <stop offset=".11" stop-color="#03f6ff"/>
    <stop offset=".258" stop-color="#0ce5ff"/>
    <stop offset=".427" stop-color="#1ac9ff"/>
    <stop offset=".613" stop-color="#2da1ff"/>
    <stop offset=".809" stop-color="#4670ff"/>
    <stop offset="1" stop-color="#6238ff"/>
  </radialGradient>
  <path fill="url(#SVGID_2_)" d="M76 94.1c.6-2.8-1.2-25.8 10-18.9 4.7 2.9 2.6-16.7 8.2-18.3 3.6-1 6.1 9.2 8.2 8.7s4.3-14.8 8.5-17.9c5.7-4.2 4.8 23.9 4.8 23.9L76 94.1z"/>
  <path d="M84.4 89.6L84.3 53M93.4 84.2l-.1-36.6M102.5 78.9l-.1-36.7M111.5 73.5l-.1-36.7" class="st9"/>
  <g>
    <g class="st11">
      <g class="st11">
        <defs>
          <path id="SVGID_3_" d="M65 71.1l.7.4c.3.2.4.6.4 1.3s-.3 2.1-.4 2.5c-.3 1.2-.9 2.8-3.3 4.1l-.7-.4c2.4-1.4 3-2.9 3.3-4.1.1-.5.4-1.8.4-2.5s-.1-1.1-.4-1.3z"/>
        </defs>
        <clipPath id="SVGID_4_">
          <use overflow="visible" xlink:href="#SVGID_3_"/>
        </clipPath>
        <g clip-path="url(#SVGID_4_)">
          <linearGradient id="SVGID_5_" x1="61.653" x2="64.039" y1="-36.95" y2="-36.95" gradientTransform="matrix(1 0 0 -1 0 41.6)" gradientUnits="userSpaceOnUse">
            <stop offset=".001" stop-color="#b7fdff"/>
            <stop offset=".995" stop-color="#06ecc5"/>
          </linearGradient>
          <path fill="url(#SVGID_5_)" d="M62.4 79.4l-.7-.4c.7-.4 1.3-.8 1.7-1.3l.7.4c-.5.5-1 .9-1.7 1.3"/>
          <path d="M64.1 78.1l-.7-.4.3-.3.7.4-.3.3" class="st14"/>
          <path d="M64.4 77.8l-.7-.4c.1-.1.1-.2.2-.3l.7.4c0 .1-.1.2-.2.3" class="st15"/>
          <path d="M64.6 77.5l-.7-.4.2-.2.7.4c-.1.1-.1.2-.2.2" class="st16"/>
          <path d="M64.8 77.3l-.7-.4c0-.1.1-.1.1-.2l.7.4c0 .1-.1.2-.1.2" class="st17"/>
          <path d="M64.9 77.1l-.7-.4c0-.1.1-.1.1-.2l.7.4c0 .1 0 .2-.1.2" class="st18"/>
          <path d="M65 76.9l-.7-.4c0-.1.1-.1.1-.2l.7.4c0 .1 0 .2-.1.2" class="st19"/>
          <path d="M65.2 76.7l-.7-.4c0-.1.1-.1.1-.2l.7.4c-.1.1-.1.2-.1.2" class="st20"/>
          <path d="M65.2 76.5l-.7-.4c0-.1.1-.1.1-.2l.7.4c0 .1 0 .2-.1.2" class="st21"/>
          <path d="M65.3 76.3l-.6-.4c0-.1.1-.2.1-.2l.7.4c-.1.1-.1.2-.2.2" class="st22"/>
          <path d="M65.4 76.1l-.7-.4c0-.1.1-.2.1-.3l.7.4c0 .1 0 .2-.1.3" class="st23"/>
          <path d="M65.5 75.8l-.7-.4c0-.1.1-.2.1-.4l.7.4c0 .2 0 .3-.1.4" class="st24"/>
          <path d="M65.6 75.5l-.7-.4c0-.1 0-.1.1-.2 0-.1 0-.2.1-.3l.7.4c0 .1 0 .2-.1.3 0 0 0 .1-.1.2" class="st25"/>
          <path d="M65.8 75l-.7-.4c.1-.4.2-1 .3-1.5l.7.4c-.1.5-.3 1.1-.3 1.5" class="st26"/>
          <path fill="#969696" d="M66 73.5l-.7-.4c0-.3.1-.6.1-.8 0-.6-.1-1.1-.4-1.3l.7.4c.3.2.4.6.4 1.3 0 .3 0 .5-.1.8"/>
        </g>
      </g>
      <path d="M58.4 81.7l-.7-.4 4-2.3.7.4z" class="st28"/>
      <path d="M58 84.3l-.6-.3.3-2.7.7.4z" class="st29"/>
      <g class="st11">
        <defs>
          <path id="SVGID_6_" d="M67.1 68l.7.4c-.7-.4-1.8-.2-3.4.8l-.7-.4c1.6-1 2.7-1.2 3.4-.8z"/>
        </defs>
        <clipPath id="SVGID_7_">
          <use overflow="visible" xlink:href="#SVGID_6_"/>
        </clipPath>
        <g clip-path="url(#SVGID_7_)">
          <linearGradient id="SVGID_8_" x1="63.581" x2="65.441" y1="-27" y2="-27" gradientTransform="matrix(1 0 0 -1 0 41.6)" gradientUnits="userSpaceOnUse">
            <stop offset=".001" stop-color="#b7fdff"/>
            <stop offset=".995" stop-color="#06ecc5"/>
          </linearGradient>
          <path fill="url(#SVGID_8_)" d="M64.3 69.1l-.7-.4c.4-.3.8-.5 1.2-.6l.7.4-1.2.6"/>
          <path d="M65.5 68.5l-.7-.4c.2-.1.5-.2.7-.2l.7.4c-.2 0-.5.1-.7.2" class="st14"/>
          <path d="M66.2 68.3l-.7-.4c.1 0 .3-.1.4-.1l.7.4c-.2 0-.3.1-.4.1" class="st15"/>
          <path d="M66.6 68.2l-.7-.4h.3l.7.4h-.3" class="st16"/>
          <path d="M66.9 68.2l-.7-.4h.2l.7.4h-.2" class="st17"/>
          <path d="M67.1 68.2l-.7-.4h.2l.7.4h-.2" class="st18"/>
          <path d="M67.3 68.2l-.7-.4h.2l.7.4h-.2" class="st19"/>
          <path d="M67.4 68.2l-.7-.4c.1 0 .1 0 .1.1l.7.4s0-.1-.1-.1" class="st20"/>
          <path d="M67.6 68.3l-.7-.4s.1 0 .1.1l.6.3c.1 0 0 0 0 0" class="st21"/>
          <path d="M67.7 68.3l-.7-.4.7.4c0 .1 0 .1 0 0" class="st22"/>
        </g>
      </g>
      <path d="M57.8 77.4l-.6-.3 4.6-2.7.7.4z" class="st28"/>
      <path d="M62.3 75.9c-.1.6-.3 1.6-1.5 2.3l-4.6 2.7s0-.3.2-1.1c.1-.6.3-1.6 1.5-2.3l4.6-2.7s-.1.3-.2 1.1z" class="st6"/>
      <g class="st11">
        <defs>
          <path id="SVGID_9_" d="M56.2 80.8l-.7-.4s0-.3.2-1.1c.1-.6.3-1.6 1.5-2.3l.7.4c-1.2.7-1.4 1.7-1.5 2.3-.2.8-.2 1.1-.2 1.1z"/>
        </defs>
        <clipPath id="SVGID_10_">
          <use overflow="visible" xlink:href="#SVGID_9_"/>
        </clipPath>
        <g clip-path="url(#SVGID_10_)">
          <path d="M56.2 80.8l-.7-.4s0-.3.2-1.1c0-.1 0-.2.1-.3l.7.4c0 .1 0 .2-.1.3-.2.8-.2 1.1-.2 1.1" class="st26"/>
          <path d="M56.4 79.4l-.7-.4c0-.1 0-.2.1-.2l.7.4s0 .1-.1.2" class="st25"/>
          <path d="M56.5 79.2l-.7-.4c0-.1 0-.1.1-.2l.7.4c-.1 0-.1.1-.1.2" class="st24"/>
          <path d="M56.5 79l-.7-.4v-.1l.7.5c.1-.1.1-.1 0 0" class="st23"/>
          <path d="M56.6 78.9l-.7-.4v-.1l.7.5c0-.1 0-.1 0 0" class="st22"/>
          <path d="M56.6 78.7l-.7-.4v-.1l.7.5c.1 0 .1 0 0 0" class="st21"/>
          <path d="M56.7 78.6l-.7-.4v-.1l.7.5" class="st20"/>
          <path d="M56.7 78.5l-.6-.3s0-.1.1-.1l.5.4c.1 0 .1 0 0 0" class="st19"/>
          <path d="M56.8 78.5l-.7-.4s0-.1.1-.1l.6.5c0-.1 0-.1 0 0" class="st18"/>
          <path d="M56.8 78.4l-.7-.4s0-.1.1-.1l.6.5c.1-.1.1-.1 0 0" class="st17"/>
          <path d="M56.9 78.3l-.7-.4s0-.1.1-.1l.6.5c.1-.1 0-.1 0 0" class="st16"/>
          <path d="M57 78.2l-.7-.4.1-.1.6.5c0-.1 0-.1 0 0" class="st15"/>
          <path d="M57.1 78.1l-.7-.4c0-.1.1-.1.1-.1l.7.4s-.1 0-.1.1" class="st14"/>
          <linearGradient id="SVGID_11_" x1="56.497" x2="57.789" y1="-35.85" y2="-35.85" gradientTransform="matrix(1 0 0 -1 0 41.6)" gradientUnits="userSpaceOnUse">
            <stop offset=".001" stop-color="#b7fdff"/>
            <stop offset=".995" stop-color="#06ecc5"/>
          </linearGradient>
          <path fill="url(#SVGID_11_)" d="M57.2 77.9l-.7-.4c.2-.2.4-.3.6-.5l.7.4c-.2.2-.4.3-.6.5"/>
        </g>
      </g>
      <path d="M59.4 74.4l-.7-.4.4-2.7.7.4z" class="st29"/>
      <path d="M64.3 69.1c4-2.3 4.7-.2 4.1 3.6-.4 2.6-1.3 4.9-2.9 6.7-.7.8-1.4 1.4-3 2.3L58 84.3l.4-2.6 4-2.3c2.4-1.4 3-2.9 3.3-4.1.1-.5.4-1.8.4-2.5 0-1.4-.6-1.9-2.6-.7l-4.1 2.4.4-2.6 4.5-2.8z" class="st6"/>
      <path d="M59.8 71.7l-.7-.4 4.5-2.6.7.4z" class="st28"/>
    </g>
  </g>
</svg>
