<svg xmlns="http://www.w3.org/2000/svg" id="Layer_1" viewBox="0 0 200 200">
  <style>
    .st4{fill:#b3c8dc}.st7{fill:#16556e}.st8{fill:#c7401e}.st10{fill:#e6f2ff}.st13{fill:#738a90}.st14{fill:#f8edfd}.st16{fill:#a2c9e9}.st20{fill:#ececec}.st21{fill:#dcf5ff}.st22{fill:#071b27}.st23{fill:#56757e}.st24{fill:#e0fb99}.st25{fill:#8ca7af}.st30{fill:#cae4ff}.st31{fill:#cfe9ff}.st32{fill:#dcf6ff}.st33{fill:#d4f5ff}.st35{fill:#e4ffff}.st52{fill:#98afe9}.st65{fill:none;stroke:#b6deed;stroke-width:.1815;stroke-miterlimit:10}
  </style>
  <g id="_x31_8_2_">
    <g id="_x36__2_">
      <g id="XMLID_2_">
        <path id="XMLID_54_" fill="#272724" d="M84.6 172.6l-57.5-33.7c-7.9-4.6-6.9-12.6 2.2-17.9l48.6-28.2c9.1-5.3 22.9-5.8 30.7-1.2l57.5 33.6c7.9 4.6 6.9 12.6-2.2 17.9l-48.6 28.2c-9 5.3-22.8 6-30.7 1.3z" opacity=".1"/>
        <linearGradient id="XMLID_3_" x1="22.65" x2="172.353" y1="-77.95" y2="-77.95" gradientTransform="matrix(1 0 0 -1 0 51)" gradientUnits="userSpaceOnUse">
          <stop offset=".002" stop-color="#23dbea"/>
          <stop offset="1" stop-color="#0c5fcd"/>
        </linearGradient>
        <path id="XMLID_10_" fill="url(#XMLID_3_)" d="M172.4 129.8l-.1-9.1-10-1.3-52.7-30.9c-7.9-4.6-21.6-4.1-30.7 1.2L30.2 118c-.4.2-.8.5-1.1.7l-6.4 1.3v8.3c.1 2.9 1.8 5.6 5.3 7.6l57.5 33.6c7.9 4.6 21.6 4.1 30.7-1.2l48.6-28.2c5.1-3 7.7-6.8 7.6-10.3z"/>
        <linearGradient id="XMLID_4_" x1="97.4" x2="97.4" y1="-43.921" y2="-88.428" gradientTransform="matrix(1 0 0 -1 0 51)" gradientUnits="userSpaceOnUse">
          <stop offset="0" stop-color="#dfe0e1"/>
          <stop offset="1" stop-color="#fff"/>
        </linearGradient>
        <path id="XMLID_9_" fill="url(#XMLID_4_)" d="M85.4 161.9l-57.6-33.6c-7.9-4.6-6.9-12.6 2.2-17.9l48.7-28.2c9.1-5.3 22.9-5.8 30.7-1.2l57.5 33.6c7.9 4.6 6.9 12.6-2.2 17.9l-48.6 28.2c-9.1 5.4-22.8 5.9-30.7 1.2z"/>
      </g>
    </g>
  </g>
  <path fill="#7b98b3" d="M60 126.4l19.4 11.2c1.2.7 2.7.7 3.9 0l40.5-23.3 5.8-3.4c1.3-.8 1.3-2.7 0-3.4l-19.3-11.2c-1.2-.7-2.7-.7-3.9 0l-6.9 3.9L60 123.1c-1.2.7-1.2 2.7 0 3.3z"/>
  <path d="M60 125.3l19.4 11.2c1.2.7 2.7.7 3.9 0l40.5-23.4 5.8-3.4c1.3-.8 1.3-2.7 0-3.4l-19.3-11.1c-1.2-.7-2.7-.7-3.9 0l-6.8 3.9L60 121.9c-1.2.8-1.2 2.7 0 3.4z" class="st4"/>
  <path fill="#019dcd" d="M60 125.3l3 1.7 51.2-29.6-3.8-2.2c-1.2-.7-2.7-.7-3.9 0l-6.8 3.9L60 121.9c-1.2.8-1.2 2.7 0 3.4z"/>
  <path d="M85.4 112.8l-.9-.4-.8.5.5.6-.6.3-2.1-2.6.8-.5 3.7 1.7-.6.4zm-1.5-.6l-.8-.4c-.1 0-.2-.1-.4-.2s-.3-.2-.4-.2l.3.3c.1.1.3.4.7.8l.6-.3zM83.4 110.3c-.1-.1-.1-.1-.1-.2s.1-.1.2-.2.2-.1.3-.1.2 0 .3.1c.1.1.1.1.1.2s-.1.1-.2.2-.2.1-.3.1c-.1 0-.1-.1-.3-.1zm3.4 1.8l-.6.3-2.2-1.6.6-.3 2.2 1.6zM86.8 110.6l1.1.8-.6.3-2.9-2.1.8-.5c.3-.2.6-.3 1-.3.3 0 .6.1.9.3.4.3.5.5.4.8l1.9.6-.6.4-1.6-.5-.4.2zm-.4-.4l.2-.1c.1-.1.2-.2.2-.3 0-.1-.1-.2-.2-.3-.2-.1-.3-.2-.4-.2s-.3 0-.4.1l-.1.1.7.7zM91.8 109.2l-.6.3-2.4-1.8-.6.4-.5-.4 1.8-1.1.5.4-.6.4 2.4 1.8zM92.8 108.6l-2.9-2.1.6-.3 2.9 2.1-.6.3zM92.8 105.3c-.2.1-.2.2-.1.4s.3.4.6.6c.7.5 1.2.6 1.6.4.2-.1.3-.2.4-.4l.5.4c-.1.2-.2.3-.5.5-.4.2-.8.3-1.2.2-.5-.1-.9-.3-1.4-.6-.5-.3-.7-.7-.8-1-.1-.3.1-.6.4-.8.1-.1.2-.1.4-.2.1 0 .3-.1.5-.1l.2.4h-.3l-.3.2zM98.3 105.4l-.6.4-1.8-.6v.3l1 .8-.6.3-2.9-2.1.6-.3 1.4 1.1-.2-.4-.5-1.1.6-.4.5 1.4 2.5.6zM99.9 104.4l-1.5.8-2.9-2.1 1.5-.8.5.3-.9.5.7.5.8-.5.5.3-.8.6.8.6.9-.5.4.3zM101.4 103.7l-.6.3-2.4-1.8-.6.4-.5-.4 1.8-1.1.5.4-.6.4 2.4 1.8z" class="st4"/>
  <linearGradient id="SVGID_1_" x1="99.55" x2="130.68" y1="-52.938" y2="-52.938" gradientTransform="matrix(1 0 0 -1 0 51)" gradientUnits="userSpaceOnUse">
    <stop offset="0" stop-color="#0045db"/>
    <stop offset="1" stop-color="#ffa3ff"/>
  </linearGradient>
  <path fill="url(#SVGID_1_)" d="M99.5 99.2l24.3 14 5.8-3.4c1.3-.8 1.3-2.7 0-3.4l-19.3-11.1c-1.2-.7-2.7-.7-3.9 0l-6.9 3.9z"/>
  <g>
    <path d="M84.4 118.2l-.4.3c-.1.1-.3.1-.4.1-.1 0-.3 0-.4-.1l-.2-.2c0-.1 0-.1.1-.2h-.3c-.1 0-.2 0-.3-.1-.1-.1-.2-.1-.2-.2s.1-.2.3-.2l.4-.2 1.4.8zm-1.3-.5l-.1.1c-.1 0-.1.1-.1.1s0 .1.1.1.1.1.2.1h.2l.1-.1-.4-.3zm.3.4c-.1.1-.1.1 0 .2.1 0 .1.1.2.1h.2l.1-.1-.5-.2zM81.3 118.6c0-.1 0-.2.2-.3.2-.1.4-.1.6-.1.2 0 .4.1.7.2.2.1.4.3.4.4s0 .2-.2.3c-.2.1-.4.1-.6.1s-.4-.1-.7-.2c-.3-.2-.4-.3-.4-.4zm.8-.3h-.3c-.2.1-.1.2.3.4.3.2.6.2.7.1.1 0 .1-.1.1-.2s-.1-.2-.3-.3c-.3.1-.5 0-.5 0zM81.3 120.1l-1.1-1 .4-.2 1.8.6-.3.2-.4-.2-.4.2.3.3-.3.1zm0-.8c-.3-.1-.5-.2-.6-.2s-.2-.1-.2-.1l.1.1.1.1.3.2.3-.1zM80.1 120.1l.3.5-.3.2-.3-.6c-.2 0-.4 0-.6-.1l-.2-.2c0-.1.1-.2.2-.3l.4-.2 1.4.8-.2.1-.7-.2zm-.5-.5c-.1.1-.2.1-.2.1s0 .1.1.1.1.1.2.1H80l-.4-.3z" class="st7"/>
    <path d="M78.1 120.4c0-.1 0-.2.2-.3l.4-.2 1.4.8-.4.2c-.2.1-.4.2-.6.1-.2 0-.5-.1-.7-.2-.1 0-.3-.2-.3-.4zm1 .4c.1 0 .2 0 .3-.1l.1-.1-1-.6v.2c-.2.1-.1.2.2.4.1.2.4.2.4.2zM78.6 121.6l-1.4-.8.3-.1 1.4.8-.3.1zM75.8 121.6l.3-.1.8.4c.1.1.2.1.2.2l-.6-.8.3-.2 1.4.8-.3.1-.8-.4c-.1-.1-.2-.1-.2-.2l.6.9-.3.2-1.4-.9zM76.1 122.4l-.2.1.3.2c.1 0 .1 0 .2-.1.1 0 .1-.1.1-.2s-.1-.2-.3-.3c-.2-.1-.3-.1-.5-.2s-.3 0-.4.1c-.1 0-.1.1-.2.2h-.3c0-.1.1-.2.2-.2.2-.1.4-.2.6-.1.2 0 .5.1.7.2s.4.3.4.4 0 .2-.2.3c-.1.1-.3.1-.5.2l-.7-.4.4-.3.4.1zM73.6 122.8l.4-.2 1.4.8-.3.2-.5-.4h-.1c-.1.1-.3.1-.5.1s-.3 0-.5-.1c-.2 0-.2-.3.1-.4zm.3 0c-.1.1-.2.1-.2.1s0 .1.1.1.2.1.2.1c.1 0 .1 0 .2-.1h.1l-.4-.2zM73.4 124.6l-1.1-1 .4-.2 1.8.6-.3.2-.4-.3-.4.2.3.3-.3.2zm.2-.8c-.3-.1-.5-.2-.6-.2-.1 0-.2-.1-.2-.1l.1.1.1.1.3.2.3-.1zM72.1 124.6v-.2-.2s0-.1-.1-.1H71.7s-.1 0-.1.1c0 0 0 .1-.1.1l-.3-.1c0-.1.1-.2.2-.2.1-.1.2-.1.4-.1.1 0 .3 0 .4.1.1 0 .1.1.1.1s0 .1.1.1v.4s0 .1.1.1h.4c.1-.1.2-.1.2-.2l.3.2c0 .1-.1.2-.3.2-.1.1-.3.1-.4.1-.1 0-.3 0-.4-.1 0-.1-.2-.2-.2-.3zM71.3 125.1v-.2-.2s0-.1-.1-.1H70.9s-.1 0-.1.1c0 0 0 .1-.1.1l-.3-.1c0-.1.1-.2.2-.2.1-.1.2-.1.4-.1.1 0 .3 0 .4.1.1 0 .1.1.1.1s0 .1.1.1v.4s0 .1.1.1h.4c.1-.1.2-.1.2-.2l.3.1c0 .1-.1.2-.3.2-.1.1-.3.1-.4.1-.1 0-.3 0-.4-.1-.2-.1-.2-.1-.2-.2z" class="st7"/>
  </g>
  <g>
    <path d="M80.8 125.8l8.4 4.8 3.7-2 1.6-1 1.3-.8 1.6-1-8.2-4.7-2.9 1.7-1.2.5-1.5.9-1.3.7z" class="st7"/>
    <path d="M82.3 124.9l2.8 1.7.8-.5.5-.3-2.8-1.6zM91.8 127.9l1.1.7 1.6-1-1-.7zM87.8 123.7l3-1.8 2.9 1.8-2.9 1.6zM86.9 128.9l2.1-1.3 2.2 1.3-2.2 1.2zM87.7 125.9l1-.6 1.1.6-1.1.7zM85.1 123.3l1.7 1 .6-.5.4-.1-1.5-.9z" class="st4"/>
    <path d="M91.8 125.9l1-.6 1.7 1-1 .6zM85.4 127.3l1-.6 1 .6-1 .5zM88.5 127.3l.5-.4.5.4-.5.3zM88.2 125.1l.5-.3.6.3-.6.2zM87.4 127.3l.5-.4.6.4-.5.3z" class="st4"/>
    <path d="M85.9 127.3l.5-.4.6.4-.6.3z" class="st7"/>
    <path d="M94.2 125.8l1.6-.9 1.6.9-1.6 1z" class="st4"/>
    <path d="M95 125.9l.8-.5 1 .5-1 .4z" class="st7"/>
    <path d="M88.8 126.8h.5l-.3.1zM88.3 126.8h.5l-.1.1zM88.3 126.6l.4-.2.1.2-.1.2zM89.8 125.9l1-.6 1 .6-1 .7z" class="st4"/>
    <path d="M87.8 128.9l1.2-.8 1.3.8-1.3.7zM82.6 125.8l1.2-.7 1.3.7-1.3.8zM85.3 125.7l1.2-.8 1.3.8-1.3.7zM89.9 123.9l1.4-.7 1.2.7-1.2.8z" class="st7"/>
    <path d="M88.5 123.8l2.8-1.5 1.2.8-2.7 1.5zM83.6 124.7l2.7-1.5 1.4.7-2.8 1.5z" class="st7"/>
  </g>
  <g>
    <path d="M99.9 111.1l7.6-4.4 1.2.6-7.7 4.4zM104 113.3l7.7-4.4.5.4-7.8 4.4zM105.3 114.2l7.6-4.4.5.1-7.6 4.4zM106.7 114.8l7.6-4.4.4.4-7.7 4.4zM114.7 114.8l3.5-2 .5.3-3.5 2z" class="st7"/>
  </g>
  <g>
    <path d="M90 116.7l7.8-4.4 1 .6-7.6 4.4z" class="st7"/>
    <path d="M61.9 124.1l7.7-4.4 1 .6-7.6 4.4z" class="st4"/>
    <path d="M94.2 119.1l7.6-4.4.5.2-7.6 4.4zM95.4 119.8l7.8-4.4.3.3-7.6 4.4zM96.8 120.6l7.6-4.4.4.2-7.5 4.4zM104.8 120.4l3.5-2 .5.3-3.5 2.1z" class="st7"/>
  </g>
  <g>
    <path d="M74.3 130.4l5.5-3.1.3.3-5.5 3.2zM75.6 131.3l5.5-3.2.3.3-5.5 3.2zM76.8 131.9l5.5-3 .5.2-5.5 3.2zM78.1 132.8l5.5-3.2.5.3-5.5 3zM79.3 133.4l5.5-3.1.5.3-5.5 3.2zM82.8 133.1l3.5-2 .4.3-3.6 2z" class="st7"/>
  </g>
  <g>
    <path d="M127.3 108.1l-11-6.3-.6.4 10.8 6.2zM125.3 109.2l-10.8-6.4-.7.5 11 6.3z" class="st8"/>
  </g>
  <path d="M109.9 100.9l2.5-1.3-2.9-1.8-2.5 1.5z" class="st8"/>
  <path fill="#c1d3e4" d="M66.8 134.1l21.1 7.6c1.3.5 2.8.2 3.9-.7l35.6-30.2 5.1-4.3c1.2-1 .8-2.9-.6-3.4l-21.1-7.6c-1.3-.5-2.8-.2-3.9.7l-6 5.1-34.8 29.5c-1 .8-.7 2.8.7 3.3z"/>
  <g>
    <path d="M66.8 132.9l21.1 7.6c1.3.5 2.8.2 3.9-.7l35.6-30.2 5.1-4.3c1.2-1 .8-2.9-.6-3.4l-21-7.6c-1.3-.5-2.8-.2-3.9.7l-6 5.1-34.8 29.5c-1.1 1-.8 2.8.6 3.3z" class="st10"/>
    <path fill="#02baf4" d="M66.8 132.9L70 134l45.1-38.2-4.2-1.5c-1.3-.5-2.8-.2-3.9.7l-6 5.1-34.8 29.5c-1.1 1-.8 2.8.6 3.3z"/>
    <linearGradient id="SVGID_2_" x1="101.05" x2="133.313" y1="-50.78" y2="-50.78" gradientTransform="matrix(1 0 0 -1 0 51)" gradientUnits="userSpaceOnUse">
      <stop offset="0" stop-color="#0045db"/>
      <stop offset="1" stop-color="#ffa3ff"/>
    </linearGradient>
    <path fill="url(#SVGID_2_)" d="M101 100.1l26.4 9.5 5.1-4.3c1.2-1 .8-2.9-.6-3.4l-21-7.6c-1.3-.5-2.8-.2-3.9.7l-6 5.1z"/>
    <path d="M76.3 133.4l.3-.3c.1-.1.3-.2.4-.2.2 0 .3 0 .5.1.1.1.2.1.3.2s.1.1 0 .2c.1 0 .2-.1.3-.1.1 0 .3.1.4.1.2.1.3.2.4.3 0 .1 0 .2-.1.3l-.4.3-2.1-.9zm1 .2c.2-.1.2-.2.1-.2 0 0-.1-.1-.2-.1s-.2-.1-.2-.1c-.1 0-.1 0-.2.1l.5.3zm.3.2l.6.3.1-.1c.1 0 .1-.1 0-.1l-.2-.2c-.2-.1-.3-.1-.5.1zM79.3 132.3c.4.2.6.4.7.5.1.2.1.3-.1.5-.2.1-.4.2-.7.2s-.6-.1-1-.3c-.4-.2-.6-.4-.7-.5-.1-.2-.1-.3.1-.5.2-.1.4-.2.7-.2s.5.1 1 .3zm-.7.6c.3.1.5.2.6.2h.4c.2-.1 0-.3-.5-.6s-.8-.3-1-.2c-.1.1-.1.1 0 .2 0 .1.2.3.5.4zM81.1 132.1l-.6-.2-.4.3.5.3-.3.2-1.9-1.4.3-.3 2.6.8-.2.3zm-1-.3l-.6-.2s-.1 0-.3-.1c-.1 0-.2-.1-.3-.1.1 0 .2.1.3.2s.3.2.6.4l.3-.2zM80.9 131.1l.9.4-.3.2-2.2-1.1.3-.3c.1-.1.3-.2.5-.2s.4 0 .6.2c.3.1.4.3.4.4l1.2.3-.3.2-1.1-.1zm-.3-.2c.1-.1.1-.2.1-.2l-.2-.2c-.1-.1-.2-.1-.3-.1-.1 0-.1 0-.2.1l-.1.1.7.3zM82.3 129.6c.4.2.6.4.7.5.1.2.1.3-.1.5l-.3.3-2.2-1.1.4-.3c.2-.1.4-.2.7-.2.1.1.3.1.8.3zm-.4.3c-.5-.2-.8-.3-1-.2l-.1.1 1.5.7.1-.1c.1-.1.1-.2 0-.3 0 0-.1 0-.5-.2zM83.6 130.1l-2.2-1.1.2-.2 2.2 1.1-.2.2zM85.1 128.8l-.3.3-2-.4c.1 0 .3.1.4.2l1.2.6-.2.2-2.2-1.1.3-.3 2 .4c-.1 0-.2-.1-.4-.2l-1.2-.6.2-.2 2.2 1.1zM84.6 127.6l.4-.4 1.1.6c0 .1-.1.3-.3.4-.2.1-.4.2-.7.2s-.6-.1-1-.3c-.4-.2-.6-.4-.7-.5-.1-.2-.1-.3.1-.5.1-.1.3-.2.4-.2l.3.2c-.1 0-.3.1-.3.1-.1.1-.1.2 0 .3.1.1.2.2.5.4.2.1.5.2.6.2.2 0 .3 0 .4-.1l.1-.1-.5-.3-.2.1-.2-.1zM86 125.8c.2.1.4.2.4.4.1.1 0 .2-.1.4l-.1.1.8.4-.2.1-2.2-1.1.3-.3c.4-.1.7-.1 1.1 0zm-.1.6c.1-.1.1-.1.1-.2s-.1-.1-.2-.2-.2-.1-.3-.1-.2 0-.2.1l-.1.1.7.3zM88.3 125.9l-.6-.2-.4.3.5.3-.3.2-1.9-1.4.3-.3 2.6.8-.2.3zm-1-.2l-.6-.2s-.1 0-.3-.1c-.1 0-.2-.1-.3-.1.1 0 .2.1.3.2.1.1.3.2.6.4l.3-.2zM88.8 124.8c.2.1.3.2.4.3 0 .1 0 .2-.1.3-.1.1-.3.2-.4.2l-.4-.2c.2 0 .4-.1.4-.2 0 0 .1-.1 0-.1l-.1-.1c-.1 0-.2-.1-.2-.1H87.5c-.1 0-.2-.1-.3-.1-.2-.1-.3-.2-.4-.3 0-.1 0-.2.1-.3.1-.1.3-.1.4-.2l.2.2h-.2c-.1 0-.1 0-.1.1 0 0-.1.1 0 .1l.1.1c.1 0 .2.1.2.1h.8c.1.2.4.2.5.2zM89.5 124.2c.2.1.3.2.4.3 0 .1 0 .2-.1.3-.1.1-.3.2-.4.2l-.4-.2c.2 0 .4-.1.4-.2 0 0 .1-.1 0-.1l-.1-.1-.2-.1H88.2c-.1 0-.2-.1-.3-.1-.2-.1-.3-.2-.4-.3 0-.1 0-.2.1-.3.1-.1.3-.1.4-.2l.2.2H88c-.1 0-.1 0-.1.1v.1l.1.1c.1 0 .2.1.2.1h.8c.3.1.4.2.5.2z" class="st13"/>
    <g>
      <path d="M87.5 117.8l-.9-.2-.7.6.6.5-.5.4-2.2-2 .7-.6 3.6.9-.6.4zm-1.3-.4l-.8-.2c-.1 0-.2 0-.4-.1s-.3-.1-.4-.1c.1.1.2.2.3.2.1.1.3.3.7.6l.6-.4zM85.6 115.8c-.1 0-.1-.1-.1-.2s0-.1.1-.2.2-.1.3-.1h.3c.1 0 .1.1.1.2s0 .1-.1.2-.2.1-.3.1h-.3zm3.2 1l-.5.4-2.2-1.1.5-.4 2.2 1.1zM88.8 115.3l1.1.6-.5.4-2.9-1.4.7-.6c.3-.2.6-.4.8-.4.3 0 .6 0 .8.1.4.2.5.4.4.7l1.8.2-.6.5-1.6-.1zm-.5-.1c.2-.2.3-.3.3-.4 0-.1-.1-.2-.2-.2-.1-.1-.3-.1-.4-.1s-.2.1-.4.2l-.1.1.8.4zM93.2 113.2l-.5.4-2.4-1.2-.5.4-.5-.2 1.6-1.3.5.2-.5.4 2.3 1.3zM94 112.4l-2.9-1.4.5-.4 2.9 1.4-.5.4zM93.7 109.6c-.1.1-.2.3-.1.4.1.2.3.3.6.5.7.3 1.2.4 1.5.1.1-.1.3-.3.3-.5l.5.2c0 .2-.2.3-.4.5-.3.3-.7.4-1.1.4s-.9-.1-1.3-.3c-.5-.2-.7-.5-.8-.8-.1-.3 0-.5.3-.8.1-.1.2-.2.3-.2.1-.1.3-.1.5-.2l.3.4c-.1 0-.2.1-.3.1-.2-.1-.3 0-.3.2zM98.7 108.6l-.6.5-1.7-.2v.3l1 .5-.5.4-2.9-1.4.5-.4 1.4.7-.2-.4-.5-.9.6-.5.6 1.2 2.3.2zM100.3 107.3l-1.3 1.1-2.9-1.4 1.3-1.1.5.2-.7.6.7.3.7-.6.5.2-.8.7.8.4.7-.6.5.2zM101.4 106.2l-.5.4-2.4-1.2-.5.4-.5-.2 1.6-1.3.5.2-.5.4 2.3 1.3z" class="st10"/>
    </g>
    <g>
      <path d="M87.3 129.6l9.1 3.3 3.4-2.8 1.5-1.2 1-1 1.5-1.1-9.1-3.4-2.5 2.3-.9.7-1.5 1.2-1 1z" class="st13"/>
      <path d="M88.8 128.6l3 1 .6-.7.5-.3-3.1-1zM98.7 129.8l1.1.3 1.5-1.2-1.3-.5zM93.8 126.3l2.6-2.2 3.3 1.2-2.7 2.1zM93.8 131.6l2-1.7 2.4.9-1.9 1.6zM94.2 128.6l.8-.8 1.2.3-.9.8zM91.3 126.4l1.6.7.6-.5.3-.3-1.6-.6zM98.3 127.8l.9-.7 1.7.7-.9.6zM92.2 130.3l.8-.9 1.2.5-.9.7zM95.3 129.8l.4-.4.6.2-.5.3zM94.4 127.6l.5-.4.5.1-.4.5zM94.2 129.9l.5-.3.5.2-.4.3z" class="st10"/>
      <path d="M92.8 130.1l.4-.3.6.1-.5.5z" class="st13"/>
      <path d="M100.4 127.3l1.5-1.2 1.9.7-1.5 1.1z" class="st10"/>
      <path d="M101.3 127.3l.9-.7.8.3-.7.7z" class="st13"/>
      <path d="M95.4 129.3l.3-.2h.1l-.1.3zM94.9 129.4l.3-.3.2.2-.1.1zM94.9 129.1l.3-.2h.1l-.1.2zM96.2 128.1l.8-.7 1.2.4-.9.8z" class="st10"/>
      <path d="M94.8 131.4l1-1 1.5.5-1.1 1zM89 129.4l1.3-1 1.4.5-1.3 1zM91.7 128.8l1.1-1 1.5.5-1.1 1zM95.9 126.2l1.3-.9 1.3.5-1.1.9z" class="st13"/>
      <path d="M94.5 126.3l2.4-2 1.4.5-2.4 2zM89.9 128.1l2.4-2 1.5.5-2.5 2z" class="st13"/>
    </g>
    <g>
      <path d="M103.5 111.7l6.8-5.8 1.1.5-6.6 5.8zM107.9 113.3l6.9-5.7.5.2-6.9 5.6zM109.3 113.8l6.9-5.7.5.2-6.9 5.6zM110.8 114.3l6.7-5.7.5.2-6.7 5.6zM118.7 112.8l3.1-2.6.5.1-3.1 2.6z" class="st13"/>
    </g>
    <g>
      <path d="M94.8 119.1l6.7-5.8 1.3.5-6.8 5.6z" class="st13"/>
      <path d="M68.6 131.3l6.7-5.7 1.1.3-6.8 5.7z" class="st10"/>
      <path d="M99.3 120.7l6.7-5.8.5.3-6.7 5.6zM100.8 121.2l6.6-5.8.5.3-6.6 5.6zM102.2 121.7l6.6-5.8.5.3-6.6 5.6zM110 120.1l3.2-2.7.5.3-3.2 2.6z" class="st13"/>
    </g>
    <g>
      <path d="M81.8 135.4l4.7-4h.5l-4.7 4.2zM83.1 135.9l4.8-4 .5.2-4.8 4zM84.6 136.4l4.7-4 .5.2-4.7 4zM85.8 136.9l5-4 .5.2-5 4zM87.3 137.4l4.9-4h.5l-4.9 4.2zM90.5 136.4l3.2-2.5.5.2-3.2 2.5z" class="st13"/>
    </g>
    <g>
      <path d="M129.9 103.9L118 99.7l-.6.5 11.9 4.2zM128.3 105.3l-11.9-4.2-.6.5 11.9 4.2z" class="st14"/>
    </g>
    <path d="M111.5 100.1l2.3-1.9-3.1-1.1-2.3 1.7z" class="st14"/>
  </g>
  <g>
    <linearGradient id="XMLID_5_" x1="624.632" x2="627.841" y1="-42.514" y2="-36.845" gradientTransform="matrix(-.9251 -.2114 .1028 -.8609 740.217 156.48)" gradientUnits="userSpaceOnUse">
      <stop offset=".166" stop-color="#363636"/>
      <stop offset=".168" stop-color="#646464"/>
      <stop offset=".534" stop-color="#646464"/>
      <stop offset=".542" stop-color="#626262"/>
      <stop offset=".543" stop-color="#606060"/>
      <stop offset=".804" stop-color="#606060"/>
      <stop offset=".847" stop-color="#606060"/>
      <stop offset=".848" stop-color="#646464"/>
    </linearGradient>
    <path id="XMLID_33910_" fill="url(#XMLID_5_)" d="M155 61.7l-1.9-5.3 4.4-1.5c.3-.1.8.1 1.2.5.9.9 1.1 2.4 1 3.6-.1.9-.7 1.3-1.5 1.6l-3.2 1.1z"/>
    <g id="XMLID_33895_">
      <path id="XMLID_33909_" d="M65.1 66.9l3.4 9.3 2.1-.7h.1l1.2-.4 2.2-.7h.1c1.3-.4 3-1.5 3.1-2.5v-.3c.1-1.9-.7-4.4-2-5.9-.1-.1-.2-.3-.4-.4-.8-.8-1.5-1-2.1-.8l-.3.1-5.2 1.7-2.2.6z" class="st16"/>
      <path id="XMLID_33908_" fill="#728fd9" d="M67.3 66.2c.4.2.7.3 1.1.7.4.4.6.8.9 1.3.5 1 .8 2.1 1 3.1l.3 1.5c0 .5 0 1 .1 1.5 0 .1-.1 1.2-.1 1.3h.1c.2-.1 1-.3 1.2-.3.1 0 .1-.1.1-.1 0-.2-.2-.5-.1-.6.5-.2 1.1-.4 1.6-.5.5-.2 1.1-.3 1.6-.5.8-.3 1.6-.9 2.1-1.6.1-.1.1-.2.2-.3.2-.4.4-.8.4-1.3-.1-.7-.3-1.4-.6-2.1-.3-.6-.6-1.2-1-1.7-.2-.3-.5-.6-.8-.8-.8-.7-1.8-1.1-2.8-1.1l-5.3 1.5z"/>
      <linearGradient id="XMLID_6_" x1="65.05" x2="72.498" y1="-20.02" y2="-20.02" gradientTransform="matrix(1 0 0 -1 0 51)" gradientUnits="userSpaceOnUse">
        <stop offset="0" stop-color="#0045db"/>
        <stop offset="1" stop-color="#ffa3ff"/>
      </linearGradient>
      <path id="XMLID_33907_" fill="url(#XMLID_6_)" d="M65.1 66.9l3.5-1.1c.6-.2 1.4.1 2.1.9 1.6 1.5 2 4.2 1.8 6.4-.2 1.6-1.2 2.3-2.6 2.7l-1.4.4-3.4-9.3z"/>
      <linearGradient id="XMLID_7_" x1="63.884" x2="69.632" y1="-20.55" y2="-20.55" gradientTransform="matrix(1 0 0 -1 0 51)" gradientUnits="userSpaceOnUse">
        <stop offset="0" stop-color="#0045db"/>
        <stop offset="1" stop-color="#ffa3ff"/>
      </linearGradient>
      <path id="XMLID_33906_" fill="url(#XMLID_7_)" d="M63.9 68.8c-.3 2.1.8 5 2.4 6.6 1.6 1.5 3 1.1 3.3-1 .3-2.1-.8-5-2.4-6.6-1.6-1.5-3.1-1.1-3.3 1z"/>
      <path id="XMLID_33905_" d="M64.1 68.9c-.3 2 .8 4.9 2.3 6.3 1.5 1.5 2.9 1 3.2-1 .3-2-.8-4.9-2.3-6.3-1.5-1.5-3-1.1-3.2 1z" class="st20"/>
      <g id="XMLID_33896_">
        <path id="XMLID_33904_" d="M64.6 69.6c-.2 1.6.6 3.8 1.8 4.9 1.2 1.1 2.3.8 2.5-.8s-.6-3.8-1.8-4.9c-1.2-1.1-2.3-.9-2.5.8z" class="st21"/>
        <path id="XMLID_33903_" d="M64.8 69.7c-.2 1.5.6 3.5 1.6 4.6 1.1 1.1 2.1.7 2.3-.7.2-1.5-.6-3.5-1.6-4.6-1.2-1.1-2.2-.7-2.3.7z" class="st22"/>
        <path id="XMLID_33902_" d="M67.1 68.9c1.1 1.1 1.8 3.1 1.6 4.6 0 .2-.1.4-.1.6l-1.7.6c-.2-.1-.3-.2-.5-.4-1.1-1-1.8-3-1.6-4.5l2.3-.9z" class="st23"/>
        <path id="XMLID_33901_" d="M68.1 70.6c.3.7.6 1.5.6 2.3l-2.8.9c-.4-.6-.8-1.4-1-2.2l3.2-1z" class="st24"/>
        <path id="XMLID_33900_" d="M68.1 70.6c.3.7.6 1.5.6 2.3l-2.8.9c-.4-.6-.8-1.4-1-2.2l3.2-1z" class="st25"/>
        <path id="XMLID_33899_" d="M65.4 69.8c-.1 1.2.4 2.8 1.3 3.6.9.8 1.7.6 1.8-.6.1-1.2-.4-2.8-1.3-3.6-.8-.8-1.6-.5-1.8.6z" class="st23"/>
        <path id="XMLID_33898_" d="M65.8 70.1c-.1 1 .4 2.4 1.1 3.1.7.7 1.4.5 1.6-.5.1-1-.4-2.4-1.1-3.1-.8-.8-1.6-.5-1.6.5z" class="st20"/>
        <path id="XMLID_33897_" d="M66.4 71.3c0 .2.1.6.3.7.2.2.3.1.4-.1 0-.2-.1-.6-.3-.7-.2-.1-.2-.1-.4.1z" class="st23"/>
      </g>
    </g>
    <g id="XMLID_33880_">
      <path id="XMLID_33894_" d="M56.9 64.7l-3.2-8.8 7.4-2.4c.6-.2 1.3.1 2 .8 1.5 1.5 2.5 4.2 2.2 6.2-.1 1-1.7 2-2.9 2.4l-5.5 1.8z" class="st16"/>
      <path id="XMLID_33893_" fill="#aac1d7" d="M63.8 58.5c-.2-.6-.5-1.2-.8-1.7-.4-.6-.8-1.1-1.3-1.5-.4-.3-.9-.5-1.4-.7-.3-.1-.6-.6-1-.6-.2 0-1.3.2-1.2.5 0 .1.4.3.5.4.2.2.4.5.5.8.6 1.1.9 1.9 1.1 3.5.1.7.1 1.4.1 2.1 0 .6 0 1.9-.3 2.3.1-.1.8-.3.9-.3.3 0 1-.2 1.3-.2.6 0 .3-.4.8-.9.8-.7 1.1-2.4.8-3.7z"/>
      <linearGradient id="XMLID_8_" x1="53.55" x2="60.598" y1="-8.62" y2="-8.62" gradientTransform="matrix(1 0 0 -1 0 51)" gradientUnits="userSpaceOnUse">
        <stop offset="0" stop-color="#0045db"/>
        <stop offset="1" stop-color="#ffa3ff"/>
      </linearGradient>
      <path id="XMLID_33892_" fill="url(#XMLID_8_)" d="M53.5 55.8l3.3-1.1c.6-.2 1.3.1 2 .8 1.5 1.5 1.9 4 1.7 6-.1 1.5-1.2 2.2-2.4 2.6l-1.3.4-3.3-8.7z"/>
      <linearGradient id="XMLID_11_" x1="52.656" x2="58.096" y1="-9.172" y2="-9.172" gradientTransform="matrix(1 0 0 -1 0 51)" gradientUnits="userSpaceOnUse">
        <stop offset="0" stop-color="#0045db"/>
        <stop offset="1" stop-color="#ffa3ff"/>
      </linearGradient>
      <path id="XMLID_33891_" fill="url(#XMLID_11_)" d="M52.6 57.5c-.2 2 .8 4.8 2.2 6.2 1.5 1.5 2.9 1 3.1-1 .2-2-.8-4.8-2.2-6.2-1.4-1.3-2.8-1-3.1 1z"/>
      <path id="XMLID_33890_" d="M52.8 57.7c-.2 1.9.7 4.6 2.1 6s2.8 1 3-.9-.7-4.6-2.1-6c-1.5-1.5-2.8-1-3 .9z" class="st20"/>
      <g id="XMLID_33881_">
        <path id="XMLID_33889_" d="M53.3 58.3c-.2 1.5.6 3.6 1.7 4.6 1.1 1.1 2.2.8 2.3-.7.2-1.5-.6-3.6-1.7-4.6-1-1.1-2.1-.8-2.3.7z" class="st21"/>
        <path id="XMLID_33888_" d="M53.5 58.5c-.2 1.4.5 3.3 1.6 4.3 1 1 2 .7 2.2-.7s-.5-3.3-1.6-4.3-2.1-.8-2.2.7z" class="st22"/>
        <path id="XMLID_33887_" d="M55.8 57.8c1 1 1.7 2.9 1.5 4.3 0 .2-.1.4-.1.5l-1.6.4c-.2-.1-.3-.2-.5-.4-1-1-1.7-2.9-1.6-4.3l2.3-.5z" class="st23"/>
        <path id="XMLID_33886_" d="M56.6 59.2c.3.7.5 1.5.6 2.2l-2.6.9c-.4-.6-.8-1.3-.9-2l2.9-1.1z" class="st24"/>
        <path id="XMLID_33885_" d="M56.6 59.2c.3.7.5 1.5.6 2.2l-2.6.9c-.4-.6-.8-1.3-.9-2l2.9-1.1z" class="st25"/>
        <path id="XMLID_33884_" d="M54.1 58.5c-.1 1.1.4 2.6 1.2 3.4.8.8 1.6.6 1.7-.5.1-1.1-.4-2.6-1.2-3.4-.8-.7-1.5-.5-1.7.5z" class="st23"/>
        <path id="XMLID_33883_" d="M54.4 58.8c-.1.9.4 2.3 1.1 3 .7.7 1.4.5 1.5-.5.1-.9-.4-2.3-1.1-3s-1.4-.5-1.5.5z" class="st20"/>
        <path id="XMLID_33882_" d="M55.1 60c0 .2.1.5.3.7s.3.1.4-.1c0-.2-.1-.5-.3-.7s-.4-.1-.4.1z" class="st23"/>
      </g>
    </g>
    <g id="XMLID_33873_">
      <g id="XMLID_33874_">
        <linearGradient id="XMLID_12_" x1="43.65" x2="94.45" y1="-10.75" y2="-10.75" gradientTransform="matrix(1 0 0 -1 0 51)" gradientUnits="userSpaceOnUse">
          <stop offset=".004" stop-color="#007cc0"/>
          <stop offset=".995" stop-color="#07c9ea"/>
        </linearGradient>
        <path id="XMLID_33879_" fill="url(#XMLID_12_)" d="M94.4 63.5L79.4 78 43.6 46.8l.4-1.3s50.4 17.8 50.4 18z"/>
        <path id="XMLID_33878_" d="M88.8 81.1L44 45.5l10.3-3 26 14.1L101.5 67c-.1.1 12.9-5.2-12.7 14.1z" class="st30"/>
        <path id="XMLID_33876_" d="M51.4 43.3l48.3 33.5L88 79.2 47.8 44.5z" class="st31"/>
        <path id="XMLID_33875_" d="M87.8 78.1l-40-33.6-3.8 1 36.3 31.6z" class="st32"/>
      </g>
    </g>
    <path id="XMLID_33872_" d="M48.8 95.3v.8c.1.8.5 1.7 1.1 2.3.4.4.8.7 1.3.9.3.2.7.3 1 .4.1 0 .2.1.3.1.1 0 .1 0 .2.1.1 0 .2.1.3.1.2 0 .3.1.5.1 2.3.4 6.5 1.1 9.1.9 1.3-.1 1.2-1.3 2.3-1.4.6 0 1.1-.1 1.6-.1h.4l38.7-11 37-12.9 1.5-.5c.3-.1.7-.3 1-.5.8-.4 1.7-.9 2.4-1.4 1.1-.7 2.2-1.5 3.2-2.3.4-.3.8-.7 1.2-1.1.7-.6 1.4-1.3 2-2 1-1.1 1.8-2.4 2.5-3.8.2-.5.4-1 .6-1.6.1-.3.1-.6.2-.8l.3-.3c.2-.1.3-.2.4-.4.2-.2.3-.5.4-.7v-.3-.2-.2c0-.2 0-.3-.1-.4 0-.1 0-.2-.1-.3 0-.1-.1-.2-.1-.3 0 0 0-.1-.1-.1 0-.1 0-.1-.1-.2 0-.1-.1-.2-.2-.3 0-.1-.1-.1-.1-.1-.2-.2-.6-2.8-4.1-6.1-.2-.2-.4-.2-.6-.2-1-.3-7.2.5-8.2.5h-1c-.4 0-.8 0-1.2.1h-.3c-.3 0-.6.1-.9.2h-.1c-.5.1-.9.2-1.4.4l-8 2.8L63 79.2c-2.4.8-4.6 2.2-6.5 4l-.1.1-.3.3c-.1.1-.2.3-.4.4-.1.1-.2.2-.3.4l-.2.2c0 .1-.2.2-.2.4l-.1.1s-.1.1-.1.2l-.1.1c-.1.2-.3.4-.4.5-.5.7-.9 1.4-1.3 2.2l-1.8 3-.6 1-.4.6-.9 1.4c-.1.2-.2.4-.2.7-.3.3-.3.4-.3.5z" class="st33"/>
    <linearGradient id="XMLID_13_" x1="49.006" x2="158.45" y1="-29.283" y2="-29.283" gradientTransform="matrix(1 0 0 -1 0 51)" gradientUnits="userSpaceOnUse">
      <stop offset=".004" stop-color="#007cc0"/>
      <stop offset=".995" stop-color="#07c9ea"/>
    </linearGradient>
    <path id="XMLID_33871_" fill="url(#XMLID_13_)" d="M49.8 95.3c-1.2 0-.8 1.2-.7 1.3.1.2 2.2 2 2.3 2.1.2.2.5.4.8.5h.1c.1.1.4.2 1 .4.1 0 .2.1.3.1.2 0 .3.1.5.1.9.2 2.1.5 3.9.8 2.8.2 5.9-.1 8.3-.3.7-.1 1-1 1.6-1l38.7-11 37-12.9 1.5-.5s12-5.4 13.2-14.3c0-.2 0-.4.1-.6l-1.1.4-1.3 3-10 6.2S74.9 94.7 66.9 96.7c-4.7 1.2-9.8.4-13.1-.4-2.5-.4-4-1-4-1z"/>
    <path id="XMLID_33870_" d="M58.3 82.4c-.5.5.3.9.9.9l2.7-.6L136.1 57c.7-.2 12.5-3.4 18.3-5.3-.2-.1-.4-.1-.6-.2-1.3-.4-2.7-.5-4-.5-1.3 0-7.5 1.1-8.8 1.5L64 79.3c-2.1.6-4 1.8-5.7 3.1z" class="st35"/>
    <g id="XMLID_33864_">
      <g id="XMLID_33865_">
        <path id="XMLID_33869_" fill="#df2929" d="M139.9 54.3L139 41v-.7l4.1 12.6c-.7.1-2.6 1.3-3.2 1.4z"/>
        <linearGradient id="XMLID_14_" x1="138.982" x2="150.463" y1="4.35" y2="4.35" gradientTransform="matrix(1 0 0 -1 0 51)" gradientUnits="userSpaceOnUse">
          <stop offset=".004" stop-color="#007cc0"/>
          <stop offset=".995" stop-color="#07c9ea"/>
        </linearGradient>
        <path id="XMLID_33868_" fill="url(#XMLID_14_)" d="M139.9 54.3l-.9-14.1c1-1 3.8-1.2 4.2-1.3l7.3 13.5h-.5c-3.1-.1-7.2 1.4-10.1 1.9z"/>
        <linearGradient id="XMLID_15_" x1="140.463" x2="147.918" y1="4.95" y2="4.95" gradientTransform="matrix(1 0 0 -1 0 51)" gradientUnits="userSpaceOnUse">
          <stop offset=".004" stop-color="#007cc0"/>
          <stop offset=".995" stop-color="#07c9ea"/>
        </linearGradient>
        <path id="XMLID_33867_" fill="url(#XMLID_15_)" d="M142.1 53l-1.7-13.5 1.7-.3 5.8 13.3c-2 0-3.9.2-5.8.5z"/>
        <linearGradient id="XMLID_16_" x1="138.982" x2="143.304" y1="4.05" y2="4.05" gradientTransform="matrix(1 0 0 -1 0 51)" gradientUnits="userSpaceOnUse">
          <stop offset=".004" stop-color="#007cc0"/>
          <stop offset=".995" stop-color="#07c9ea"/>
        </linearGradient>
        <path id="XMLID_33866_" fill="url(#XMLID_16_)" d="M139.1 54.5l-.2-14.2c.3-.4 1.5-.8 1.5-.8l2.8 13.3c-.9.2-2.9 1.5-4.1 1.7z"/>
      </g>
    </g>
    <path id="XMLID_33863_" d="M53.4 87.2L52 89.5c1.2 1.1 3.1 2.6 4.4 3.1 1.7.6 3.5.7 5.2.4l6.1-1.2.9-.3c.8-.3 32.9-11.3 33.7-11.6 1.3-.4 2.6-.9 3.9-1.3 1.6-.6 3.3-1.1 4.9-1.7 1.9-.7 3.7-1.3 5.6-2l6-2.1c2-.7 9.6-3.4 11.7-4.1l6-2.1c1.8-.6 3.6-1.3 5.5-1.9 1.6-.5 3.1-1.1 4.7-1.6 1.2-.4 2.4-.8 3.6-1.3.7-.3 1.5-.5 2.2-.8.1 0 .1 0 .2-.1.2-.2 1.2-1.2 1-1.5-.1-.2-2.3-5.8-4.4-4.7-1.6.8-5.3 1.9-5.5 1.9l-42.9 15-3 1c-4.4 1.3-39.5 12.9-42.2 12.8-3-.1-3.1-2.3-3.1-2.3-.7.7-1.2 1.3-1.3 1.5-.4.7-1.4 1.7-1.8 2.6z" class="st35"/>
    <linearGradient id="XMLID_17_" x1="67.95" x2="158.35" y1="-29.1" y2="-29.1" gradientTransform="matrix(1 0 0 -1 0 51)" gradientUnits="userSpaceOnUse">
      <stop offset="0" stop-color="#0045db"/>
      <stop offset="1" stop-color="#ffa3ff"/>
    </linearGradient>
    <path id="XMLID_33862_" fill="url(#XMLID_17_)" d="M67.9 99.4l38.7-11 37-12.9 1.5-.5s12-5.4 13.2-14.3c-.7.6-1.4 1.4-1.9 2.5-1.6 3.2-8.7 8-9.6 8.9-.9 1-78.2 27.2-78.9 27.3z"/>
    <path id="XMLID_33860_" d="M48.8 95.3v.7c1.1 1.8 12.4 1.7 13 1.5 1.4-.5-8.9-2.6-9.3-3.2-.3-.6-.8-1.1-1.2-1.5-.3-.3-.7-.5-1-.7l-.4.6-.9 1.4c-.1.2-.2.4-.3.7.1.3.1.4.1.5z" class="st33"/>
    <linearGradient id="XMLID_18_" x1="726.093" x2="724.488" y1="-104.015" y2="-97.06" gradientTransform="matrix(-.9251 -.2114 .1028 -.8609 740.217 156.48)" gradientUnits="userSpaceOnUse">
      <stop offset=".084" stop-color="#0cf"/>
      <stop offset=".941" stop-color="#01ceff"/>
    </linearGradient>
    <path id="XMLID_33859_" fill="url(#XMLID_18_)" d="M52.5 88.8l.1.3.4 1.5.1.2 1.8.5 2.9.8 1 .3 5.2-1c1.6-.3 2-2.5.7-3.9l-.4-.5-4.6.4-.8-.2-1.9-.6-.9-.3-.3-.6-.7-1-1.2 1.5-1.4 2.6z"/>
    <linearGradient id="XMLID_19_" x1="729.317" x2="728.837" y1="-99.986" y2="-93.105" gradientTransform="matrix(-.9251 -.2114 .1028 -.8609 740.217 156.48)" gradientUnits="userSpaceOnUse">
      <stop offset=".084" stop-color="#9febff"/>
      <stop offset=".941" stop-color="#a0edff"/>
    </linearGradient>
    <path id="XMLID_33858_" fill="url(#XMLID_19_)" d="M53.4 87.4h-.1l.7-1.2 1.3-1.5.5 1 .3.5 1 .4.5.2z"/>
    <linearGradient id="XMLID_20_" x1="32.289" x2="46.054" y1="-100.888" y2="-100.888" gradientTransform="matrix(.9251 .2114 .1028 -.8609 33.021 -4.931)" gradientUnits="userSpaceOnUse">
      <stop offset=".084" stop-color="#50bed9"/>
      <stop offset=".598" stop-color="#8dddf1"/>
      <stop offset=".941" stop-color="#b1efff"/>
    </linearGradient>
    <path id="XMLID_33857_" fill="url(#XMLID_20_)" d="M53.3 87.3l.1.2.4 1.5.1.2 1.8.5 2.9.8 1 .3 5.2-1c.2 0 .4-.1.6-.3 0 .9-.5 1.8-1.4 2l-5.2 1-1-.3-2.9-.8-1.8-.5-.1-.3-.4-1.5-.1-.3.8-1.5z"/>
    <g id="XMLID_33852_">
      <linearGradient id="XMLID_21_" x1="147.65" x2="174.75" y1="-17.85" y2="-17.85" gradientTransform="matrix(1 0 0 -1 0 51)" gradientUnits="userSpaceOnUse">
        <stop offset="0" stop-color="#0045db"/>
        <stop offset="1" stop-color="#ffa3ff"/>
      </linearGradient>
      <path id="XMLID_33856_" fill="url(#XMLID_21_)" d="M147.6 65.4l21.6 7.4 5.3-1.6.2-.7-8.2-1.9-18.8-3.8c.1.4-.1.5-.1.6z"/>
      <linearGradient id="XMLID_22_" x1="147.75" x2="174.75" y1="-15.698" y2="-15.698" gradientTransform="matrix(1 0 0 -1 0 51)" gradientUnits="userSpaceOnUse">
        <stop offset=".004" stop-color="#007cc0"/>
        <stop offset=".995" stop-color="#07c9ea"/>
      </linearGradient>
      <path id="XMLID_33855_" fill="url(#XMLID_22_)" d="M147.8 64.8l21.5 7.4 5.5-1.6-16.8-9.4c0-.2-7.1 1.8-10.2 3.6z"/>
      <linearGradient id="XMLID_23_" x1="147.75" x2="171.95" y1="-16.85" y2="-16.85" gradientTransform="matrix(1 0 0 -1 0 51)" gradientUnits="userSpaceOnUse">
        <stop offset=".004" stop-color="#007cc0"/>
        <stop offset=".995" stop-color="#07c9ea"/>
      </linearGradient>
      <path id="XMLID_33854_" fill="url(#XMLID_23_)" d="M172 71.4l-21.4-7.9-2.8 1.3 21.5 7.5z"/>
      <linearGradient id="XMLID_24_" x1="150.617" x2="173.717" y1="-15.4" y2="-15.4" gradientTransform="matrix(1 0 0 -1 0 51)" gradientUnits="userSpaceOnUse">
        <stop offset=".004" stop-color="#007cc0"/>
        <stop offset=".995" stop-color="#07c9ea"/>
      </linearGradient>
      <path id="XMLID_33853_" fill="url(#XMLID_24_)" d="M173.8 70.8l-16.9-9.5-6.3 2.2 21.4 7.9z"/>
    </g>
    <linearGradient id="SVGID_3_" x1="48.845" x2="106.645" y1="-43.86" y2="-43.86" gradientTransform="matrix(1 0 0 -1 0 51)" gradientUnits="userSpaceOnUse">
      <stop offset="0" stop-color="#0045db"/>
      <stop offset="1" stop-color="#ffa3ff"/>
    </linearGradient>
    <path fill="url(#SVGID_3_)" d="M106.5 88.4c-.3 0-36.7 10.4-38 10.7-.3.1-.7.2-1.1.2-1.7.3-3.4.5-5.3.2-4.3-.6-6.5-.9-8.3-1.1-1.3-.2-4-.7-5.1-2.5.1.8.5 1.7 1.1 2.3.4.4.8.7 1.3.9.3.2.7.3 1 .4.1 0 .2.1.3.1s.1 0 .2.1c.1 0 .2.1.3.1h.2c.9.2 2.9.4 4.7.7 1.5.2 3.3.5 5.6.7 5.9.6 43.1-12.6 43.1-12.8z"/>
    <g id="XMLID_33846_">
      <path id="XMLID_33850_" fill="#bed7ff" d="M136.4 56.3c.1.1.4.7.7.9h.1v-.1l5-1.5.7-.2 6.8-2.1 2.4-.7 1.2-.3 6.4-27.7-.5-.4-8.2 2.4-14.6 29.7z"/>
      <path id="XMLID_33849_" d="M137.3 57.3l5-1.5.6-.3 6.9-2 2.3-.7 1.3-.3.9-.3h.1l5.2-27.4-1.5.5-3.3 1-3.4 1z" class="st31"/>
      <path id="XMLID_33848_" fill="#d8f1ff" d="M137.3 57.3l5-1.5.6-.3 11.9-29.2-3.4 1z"/>
      <linearGradient id="XMLID_25_" x1="152.135" x2="159.669" y1="12.25" y2="12.25" gradientTransform="matrix(1 0 0 -1 0 51)" gradientUnits="userSpaceOnUse">
        <stop offset=".004" stop-color="#007cc0"/>
        <stop offset=".995" stop-color="#07c9ea"/>
      </linearGradient>
      <path id="XMLID_33847_" fill="url(#XMLID_25_)" d="M152.1 52.8l1.3-.3.9-.3 5.3-27.4h-1.3l-.2.5z"/>
    </g>
    <g id="XMLID_33830_">
      <path id="XMLID_33845_" d="M139.3 115.8l-3.4-9.3 7.8-2.6c.6-.2 1.4.1 2.1.9 1.6 1.5 2.6 4.5 2.4 6.6-.1 1-1.8 2.1-3.1 2.5l-5.8 1.9z" class="st52"/>
      <path id="XMLID_33844_" d="M136.5 107.3h.1c.7-.2 1.5 0 2.2.5 1 .7 2.7 2 3.7 2.6 2.1 1.3 5.1 1.4 5.3 1.1 1.1-1.3-2.7-7-2.7-7 .2.1.3.3.5.4.8.8 1.5 2 1.9 3.2.4 1.2.6 2.4.4 3.4 0 .4-1 1.1-2.3 1.6l-5.9 1.9c-.3-.2-.5-.4-.8-.6-.3-.3-.6-.6-.8-1l-1.8-4.9c.2-.4.2-.8.2-1.2z" class="st16"/>
      <linearGradient id="XMLID_26_" x1="135.85" x2="143.298" y1="-59.62" y2="-59.62" gradientTransform="matrix(1 0 0 -1 0 51)" gradientUnits="userSpaceOnUse">
        <stop offset="0" stop-color="#0045db"/>
        <stop offset="1" stop-color="#ffa3ff"/>
      </linearGradient>
      <path id="XMLID_33843_" fill="url(#XMLID_26_)" d="M135.9 106.6l3.5-1.1c.6-.2 1.4.1 2.1.9 1.6 1.5 2 4.2 1.8 6.4-.2 1.6-1.2 2.3-2.6 2.7l-1.3.4-3.5-9.3z"/>
      <linearGradient id="XMLID_27_" x1="134.701" x2="140.451" y1="-60.214" y2="-60.214" gradientTransform="matrix(1 0 0 -1 0 51)" gradientUnits="userSpaceOnUse">
        <stop offset="0" stop-color="#0045db"/>
        <stop offset="1" stop-color="#ffa3ff"/>
      </linearGradient>
      <path id="XMLID_33842_" fill="url(#XMLID_27_)" d="M134.8 108.4c-.3 2.1.8 5 2.4 6.6 1.6 1.5 3 1.1 3.3-1 .3-2.1-.8-5-2.4-6.6-1.7-1.6-3.1-1.1-3.3 1z"/>
      <path id="XMLID_33841_" d="M134.9 108.6c-.3 2 .8 4.9 2.3 6.3 1.5 1.5 2.9 1 3.2-1 .3-2-.8-4.9-2.3-6.3-1.6-1.5-3-1.2-3.2 1z" class="st20"/>
      <g id="XMLID_33831_">
        <path id="XMLID_33840_" d="M135.4 109.2c-.2 1.6.6 3.8 1.8 4.9 1.2 1.1 2.3.8 2.5-.8.2-1.6-.6-3.8-1.8-4.9s-2.3-.8-2.5.8z" class="st21"/>
        <path id="XMLID_33839_" d="M135.6 109.3c-.2 1.5.6 3.5 1.6 4.6 1.1 1.1 2.1.7 2.3-.7.2-1.5-.6-3.5-1.6-4.6-1-1-2.1-.8-2.3.7z" class="st22"/>
        <path id="XMLID_33838_" d="M137.9 108.7c1.1 1.1 1.8 3.1 1.6 4.6 0 .2-.1.4-.1.6l-1.7.5c-.2-.1-.3-.2-.5-.4-1.1-1-1.8-3-1.6-4.5l2.3-.8z" class="st23"/>
        <path id="XMLID_33837_" d="M138.9 110.2c.3.7.6 1.5.6 2.3l-2.8.9c-.4-.6-.8-1.4-1-2.2l3.2-1z" class="st24"/>
        <path id="XMLID_33835_" d="M138.9 110.2c.3.7.6 1.5.6 2.3l-2.8.9c-.4-.6-.8-1.4-1-2.2l3.2-1z" class="st25"/>
        <path id="XMLID_33834_" d="M136.3 109.4c-.1 1.2.4 2.8 1.3 3.6.9.8 1.7.6 1.8-.6s-.4-2.8-1.3-3.6c-.8-.7-1.7-.5-1.8.6z" class="st23"/>
        <path id="XMLID_33833_" d="M136.5 109.7c-.1 1 .4 2.4 1.1 3.1s1.4.5 1.6-.5c.1-1-.4-2.4-1.1-3.1-.7-.8-1.3-.5-1.6.5z" class="st20"/>
        <path id="XMLID_33832_" d="M137.4 110.9c0 .2.1.6.3.7.2.2.3.1.4-.1 0-.2-.1-.6-.3-.7-.3-.1-.4-.1-.4.1z" class="st23"/>
      </g>
    </g>
    <g id="XMLID_33805_">
      <path id="XMLID_33829_" d="M115.3 103.8l-3.4-9.3 7.8-2.5c.6-.2 1.4.1 2.1.9 1.6 1.5 2.6 4.5 2.4 6.6-.1 1-1.8 2.1-3.1 2.5l-5.8 1.8z" class="st52"/>
      <path id="XMLID_33828_" d="M112.5 95.3c.8-.2 1.6 0 2.3.5 1 .7 2.7 1.9 3.7 2.6 2.1 1.3 5.1 1.4 5.3 1.1 1.1-1.3-2.7-7-2.7-7 .2.1.3.3.5.4.8.8 1.5 2 1.9 3.2s.6 2.4.4 3.4c0 .4-1 1.1-2.3 1.6l-5.9 1.9c-.3-.2-.5-.4-.8-.6-.3-.3-.6-.6-.8-1l-1.8-4.9c.2-.3.2-.8.2-1.2z" class="st16"/>
      <linearGradient id="XMLID_28_" x1="111.793" x2="119.24" y1="-47.62" y2="-47.62" gradientTransform="matrix(1 0 0 -1 0 51)" gradientUnits="userSpaceOnUse">
        <stop offset="0" stop-color="#0045db"/>
        <stop offset="1" stop-color="#ffa3ff"/>
      </linearGradient>
      <path id="XMLID_33827_" fill="url(#XMLID_28_)" d="M111.8 94.6l3.5-1.1c.6-.2 1.4.1 2.1.9 1.6 1.5 2 4.2 1.8 6.4-.2 1.6-1.2 2.3-2.6 2.7l-1.3.4-3.5-9.3z"/>
      <linearGradient id="XMLID_29_" x1="110.669" x2="116.42" y1="-48.228" y2="-48.228" gradientTransform="matrix(1 0 0 -1 0 51)" gradientUnits="userSpaceOnUse">
        <stop offset="0" stop-color="#0045db"/>
        <stop offset="1" stop-color="#ffa3ff"/>
      </linearGradient>
      <path id="XMLID_33826_" fill="url(#XMLID_29_)" d="M110.8 96.4c-.3 2.1.8 5 2.4 6.6 1.6 1.5 3 1.1 3.3-1s-.8-5-2.4-6.6c-1.7-1.6-3.2-1.1-3.3 1z"/>
      <path id="XMLID_33815_" d="M110.8 96.6c-.3 2 .8 4.9 2.3 6.3 1.5 1.5 2.9 1 3.2-1 .3-2-.8-4.9-2.3-6.3-1.6-1.5-3-1-3.2 1z" class="st20"/>
      <g id="XMLID_33806_">
        <path id="XMLID_33814_" d="M111.4 97.2c-.2 1.6.6 3.8 1.8 4.9 1.2 1.1 2.3.8 2.5-.8.2-1.6-.6-3.8-1.8-4.9-1.1-1.1-2.2-.8-2.5.8z" class="st21"/>
        <path id="XMLID_33813_" d="M111.5 97.3c-.2 1.5.5 3.5 1.6 4.6s2.1.7 2.3-.7c.2-1.5-.6-3.5-1.6-4.6-1-1-2-.8-2.3.7z" class="st22"/>
        <path id="XMLID_33812_" d="M113.8 96.7c1.1 1.1 1.8 3.1 1.6 4.6 0 .2-.1.4-.1.6l-1.7.4c-.2-.1-.3-.2-.5-.4-1.1-1-1.8-3-1.6-4.5l2.3-.7z" class="st23"/>
        <path id="XMLID_33811_" d="M114.9 98.2c.3.7.6 1.5.6 2.3l-2.8.9c-.4-.6-.8-1.4-1-2.2l3.2-1z" class="st24"/>
        <path id="XMLID_33810_" d="M114.9 98.2c.3.7.6 1.5.6 2.3l-2.8.9c-.4-.6-.8-1.4-1-2.2l3.2-1z" class="st25"/>
        <path id="XMLID_33809_" d="M112.3 97.4c-.1 1.2.4 2.8 1.3 3.6.9.8 1.7.6 1.8-.6.1-1.2-.4-2.8-1.3-3.6-.8-.7-1.7-.5-1.8.6z" class="st23"/>
        <path id="XMLID_33808_" d="M112.5 97.7c-.1 1 .4 2.4 1.1 3.1s1.4.5 1.6-.5c.1-1-.4-2.4-1.1-3.1-.8-.8-1.4-.5-1.6.5z" class="st20"/>
        <path id="XMLID_33807_" d="M113.3 98.9c0 .2.1.6.3.7.2.2.3.1.4-.1 0-.2-.1-.6-.3-.7-.3-.1-.4 0-.4.1z" class="st23"/>
      </g>
    </g>
    <g id="XMLID_33802_">
      <linearGradient id="XMLID_30_" x1="97.25" x2="178.16" y1="-52.95" y2="-52.95" gradientTransform="matrix(1 0 0 -1 0 51)" gradientUnits="userSpaceOnUse">
        <stop offset=".004" stop-color="#007cc0"/>
        <stop offset=".995" stop-color="#07c9ea"/>
      </linearGradient>
      <path id="XMLID_33804_" fill="url(#XMLID_30_)" d="M97.3 88.8l70.7 31.3 9.9-2.9.4-1.3-15.4-3.5-65.6-24.6v1z"/>
      <path id="XMLID_33803_" d="M97.3 87.8l70.5 31.3 10.3-3L140 94.7l-20-14.9s-16.8 4.5-22.7 8z" class="st30"/>
    </g>
    <path id="XMLID_33801_" d="M103.9 84.8l69.4 32.6-5.3 1.7-70.7-31.3z" class="st32"/>
    <path id="XMLID_33800_" d="M115.2 81.3l61.3 35.3-3.2.8-69.4-32.6z" class="st31"/>
    <g id="XMLID_33798_">
      <path id="XMLID_33799_" d="M59.5 92.7l.4.1-.1-6h-.5z" class="st35"/>
    </g>
    <g id="XMLID_33796_">
      <path id="XMLID_33797_" d="M52.8 91.3l3.8-5.7-.3-.3-3.9 5.8z" class="st35"/>
    </g>
    <g id="XMLID_33772_">
      <g id="XMLID_33774_">
        <linearGradient id="XMLID_31_" x1="733.716" x2="736.396" y1="-108.065" y2="-99.561" gradientTransform="matrix(-.9251 -.2114 -.0213 -.8402 748.558 155.227)" gradientUnits="userSpaceOnUse">
          <stop offset=".084" stop-color="#0cf"/>
          <stop offset=".941" stop-color="#01ceff"/>
        </linearGradient>
        <path id="XMLID_33775_" fill="url(#XMLID_31_)" d="M69.8 86.2l.3 1.3v.2l.1.6.1.3c0 .2.3.4.4.3l.9-.3c.2 0 .2-.2.2-.4l-.3-1.2-.3-1.2c0-.2-.3-.4-.4-.3h-.1l-.8.3c-.1 0-.1.1-.2.2.1-.1.1.1.1.2z"/>
      </g>
      <linearGradient id="XMLID_32_" x1="51.033" x2="52.696" y1="-94.382" y2="-94.382" gradientTransform="matrix(.9251 .2114 .1028 -.8609 33.021 -4.931)" gradientUnits="userSpaceOnUse">
        <stop offset=".084" stop-color="#50bed9"/>
        <stop offset=".598" stop-color="#8dddf1"/>
        <stop offset=".941" stop-color="#b1efff"/>
      </linearGradient>
      <path id="XMLID_33773_" fill="url(#XMLID_32_)" d="M71.3 88.3c.2 0 .2-.2.2-.4l-.3-1.2-.2-1.2c.2-.1.4.1.4.3l.3 1.2.3 1.2c0 .2-.1.4-.2.4l-.9.4c-.1.1-.4-.1-.4-.3l.8-.4z"/>
    </g>
    <g id="XMLID_15392_">
      <g id="XMLID_15397_">
        <linearGradient id="XMLID_33_" x1="729.674" x2="732.355" y1="-105.699" y2="-97.195" gradientTransform="matrix(-.9251 -.2114 -.0213 -.8402 748.558 155.227)" gradientUnits="userSpaceOnUse">
          <stop offset=".084" stop-color="#0cf"/>
          <stop offset=".941" stop-color="#01ceff"/>
        </linearGradient>
        <path id="XMLID_33558_" fill="url(#XMLID_33_)" d="M73.6 85.1l.3 1.3v.2l.1.6.1.3c0 .2.3.4.4.3l.9-.3c.2 0 .2-.2.2-.4l-.3-1.2-.3-1.2c0-.2-.3-.4-.4-.3h-.1l-.8.3c-.1 0-.1.1-.2.2.1-.1.1-.1.1.2z"/>
      </g>
      <linearGradient id="XMLID_34_" x1="54.75" x2="56.414" y1="-92.012" y2="-92.012" gradientTransform="matrix(.9251 .2114 .1028 -.8609 33.021 -4.931)" gradientUnits="userSpaceOnUse">
        <stop offset=".084" stop-color="#50bed9"/>
        <stop offset=".598" stop-color="#8dddf1"/>
        <stop offset=".941" stop-color="#b1efff"/>
      </linearGradient>
      <path id="XMLID_15393_" fill="url(#XMLID_34_)" d="M74.9 87.2c.2 0 .2-.2.2-.4l-.3-1.3-.2-1.2c.2-.1.4.1.4.3l.3 1.2.3 1.2c0 .2-.1.4-.2.4l-.9.3c-.1.1-.4-.1-.4-.3l.8-.2z"/>
    </g>
    <g id="XMLID_10976_">
      <g id="XMLID_10999_">
        <linearGradient id="XMLID_35_" x1="723.973" x2="726.654" y1="-102.883" y2="-94.379" gradientTransform="matrix(-.9251 -.2114 -.0213 -.8402 748.558 155.227)" gradientUnits="userSpaceOnUse">
          <stop offset=".084" stop-color="#0cf"/>
          <stop offset=".941" stop-color="#01ceff"/>
        </linearGradient>
        <path id="XMLID_11067_" fill="url(#XMLID_35_)" d="M78.8 83.8l.3 1.3v.2l.1.6.1.3c0 .2.3.4.4.3l.9-.3c.2 0 .2-.2.2-.4l-.3-1.2-.3-1.2c0-.2-.3-.4-.4-.3h-.1l-.8.3c-.1 0-.1.1-.2.2s-.1.2.1.2z"/>
      </g>
      <linearGradient id="XMLID_36_" x1="60.045" x2="61.709" y1="-89.312" y2="-89.312" gradientTransform="matrix(.9251 .2114 .1028 -.8609 33.021 -4.931)" gradientUnits="userSpaceOnUse">
        <stop offset=".084" stop-color="#50bed9"/>
        <stop offset=".598" stop-color="#8dddf1"/>
        <stop offset=".941" stop-color="#b1efff"/>
      </linearGradient>
      <path id="XMLID_10997_" fill="url(#XMLID_36_)" d="M80.1 85.9c.2 0 .2-.2.2-.4l-.3-1.3-.2-1.2c.2-.1.4.1.4.3l.3 1.2.3 1.2c0 .2-.1.4-.2.4l-.9.3c-.1.1-.4-.1-.4-.3l.8-.2z"/>
    </g>
    <path id="XMLID_10942_" fill="#ebcc7d" d="M150.1 44z"/>
    <g id="XMLID_263_">
      <path id="XMLID_1685_" d="M77.6 83.2l1 4.8.3 3 .1.6c.1.4.6.8.9.7l2-.7c.4-.1.5-.4.5-.9v-.1l-.5-3.7-.9-4.6c-.1-.4-.6-.8-.9-.7h-.2l-1.8.6c-.2.1-.3.2-.4.3-.1.2-.3.4-.1.7z" class="st65"/>
    </g>
    <g id="XMLID_259_">
      <g id="XMLID_261_">
        <linearGradient id="XMLID_37_" x1="660.803" x2="663.484" y1="-63.288" y2="-54.783" gradientTransform="matrix(-.9251 -.2114 -.0213 -.8402 748.558 155.227)" gradientUnits="userSpaceOnUse">
          <stop offset=".084" stop-color="#0cf"/>
          <stop offset=".941" stop-color="#01ceff"/>
        </linearGradient>
        <path id="XMLID_262_" fill="url(#XMLID_37_)" d="M136.4 64l.3 1.3v.2l.1.6.1.3c0 .2.3.4.4.3l.9-.3c.2 0 .2-.2.2-.4l-.3-1.2-.3-1.2c0-.2-.3-.4-.4-.3h-.1l-.8.3c-.1 0-.1.1-.2.2l.1.2z"/>
      </g>
      <linearGradient id="XMLID_38_" x1="118.161" x2="119.825" y1="-52.04" y2="-52.04" gradientTransform="matrix(.9251 .2114 .1028 -.8609 33.021 -4.931)" gradientUnits="userSpaceOnUse">
        <stop offset=".084" stop-color="#50bed9"/>
        <stop offset=".598" stop-color="#8dddf1"/>
        <stop offset=".941" stop-color="#b1efff"/>
      </linearGradient>
      <path id="XMLID_260_" fill="url(#XMLID_38_)" d="M137.8 66.1c.2 0 .2-.2.2-.4l-.3-1.2-.2-1.2c.2-.1.4.1.4.3l.3 1.2.3 1.2c0 .2-.1.4-.2.4l-.9.3c-.1.1-.4-.1-.4-.3l.8-.3z"/>
    </g>
    <g id="XMLID_257_">
      <path id="XMLID_258_" d="M135.1 63.3l1 4.8.3 3 .1.6c.1.4.6.8.9.7l2-.7c.4-.1.5-.4.5-.9v-.1l-.5-3.9-.9-4.6c-.1-.4-.6-.8-.9-.7h-.2l-1.8.6c-.2.1-.3.2-.4.3-.1.4-.1.6-.1.9z" class="st65"/>
    </g>
    <g id="XMLID_252_">
      <g id="XMLID_254_">
        <linearGradient id="XMLID_39_" x1="718.59" x2="721.27" y1="-99.28" y2="-90.776" gradientTransform="matrix(-.9251 -.2114 -.0213 -.8402 748.558 155.227)" gradientUnits="userSpaceOnUse">
          <stop offset=".084" stop-color="#0cf"/>
          <stop offset=".941" stop-color="#01ceff"/>
        </linearGradient>
        <path id="XMLID_255_" fill="url(#XMLID_39_)" d="M83.6 81.9l.3 1.3v.2l.1.6.1.3c0 .2.3.4.4.3l.9-.3c.2 0 .2-.2.2-.4l-.3-1.2-.3-1.2c0-.2-.3-.4-.4-.3h-.1l-.7.2c-.1 0-.1.1-.2.2v.3z"/>
      </g>
      <linearGradient id="XMLID_40_" x1="65.043" x2="66.706" y1="-86.01" y2="-86.01" gradientTransform="matrix(.9251 .2114 .1028 -.8609 33.021 -4.931)" gradientUnits="userSpaceOnUse">
        <stop offset=".084" stop-color="#50bed9"/>
        <stop offset=".598" stop-color="#8dddf1"/>
        <stop offset=".941" stop-color="#b1efff"/>
      </linearGradient>
      <path id="XMLID_253_" fill="url(#XMLID_40_)" d="M85.1 84.1c.2 0 .2-.2.2-.4l-.3-1.2-.2-1.2c.2-.1.4.1.4.3l.3 1.2.3 1.2c0 .2-.1.4-.2.4l-.9.3c-.1.1-.4-.1-.4-.3l.8-.3z"/>
    </g>
    <linearGradient id="SVGID_4_" x1="714.413" x2="717.094" y1="-96.713" y2="-88.209" gradientTransform="matrix(-.9251 -.2114 -.0213 -.8402 748.558 155.227)" gradientUnits="userSpaceOnUse">
      <stop offset=".084" stop-color="#0cf"/>
      <stop offset=".941" stop-color="#01ceff"/>
    </linearGradient>
    <path fill="url(#SVGID_4_)" d="M87.3 80.7l.3 1.3v.2l.1.6.1.3c0 .2.3.4.4.3l.9-.3c.2 0 .2-.2.2-.4l-.3-1.3-.1-1.2c0-.2-.3-.4-.4-.3h-.1l-.9.3c-.1 0-.1.1-.2.2v.3z"/>
    <linearGradient id="SVGID_5_" x1="68.738" x2="70.401" y1="-83.698" y2="-83.698" gradientTransform="matrix(.9251 .2114 .1028 -.8609 33.021 -4.931)" gradientUnits="userSpaceOnUse">
      <stop offset=".084" stop-color="#50bed9"/>
      <stop offset=".598" stop-color="#8dddf1"/>
      <stop offset=".941" stop-color="#b1efff"/>
    </linearGradient>
    <path fill="url(#SVGID_5_)" d="M88.8 82.8c.2 0 .2-.2.2-.4l-.3-1.2-.3-1.2c.2-.1.4.1.4.3l.3 1.2.3 1.2c0 .2-.1.4-.2.4l-.9.3c-.1.1-.4-.1-.4-.3l.9-.3z"/>
    <linearGradient id="SVGID_6_" x1="710.434" x2="713.115" y1="-94.207" y2="-85.703" gradientTransform="matrix(-.9251 -.2114 -.0213 -.8402 748.558 155.227)" gradientUnits="userSpaceOnUse">
      <stop offset=".084" stop-color="#0cf"/>
      <stop offset=".941" stop-color="#01ceff"/>
    </linearGradient>
    <path fill="url(#SVGID_6_)" d="M91 79.4l.3 1.3v.2l.1.6.1.3c0 .2.3.4.4.3l.9-.3c.2 0 .2-.2.2-.4l-.2-1.2-.3-1.2c0-.2-.3-.4-.4-.3H92l-.8.3c-.1 0-.1.1-.2.2-.1 0-.1.1 0 .2z"/>
    <linearGradient id="SVGID_7_" x1="72.433" x2="74.096" y1="-81.341" y2="-81.341" gradientTransform="matrix(.9251 .2114 .1028 -.8609 33.021 -4.931)" gradientUnits="userSpaceOnUse">
      <stop offset=".084" stop-color="#50bed9"/>
      <stop offset=".598" stop-color="#8dddf1"/>
      <stop offset=".941" stop-color="#b1efff"/>
    </linearGradient>
    <path fill="url(#SVGID_7_)" d="M92.4 81.6c.2 0 .2-.2.2-.4l-.3-1.2-.2-1.2c.2-.1.4.1.4.3l.3 1.2.3 1.2c0 .2-.1.4-.2.4l-1 .4c-.1.1-.4-.1-.4-.3l.9-.4z"/>
    <linearGradient id="SVGID_8_" x1="706.524" x2="709.205" y1="-91.723" y2="-83.219" gradientTransform="matrix(-.9251 -.2114 -.0213 -.8402 748.558 155.227)" gradientUnits="userSpaceOnUse">
      <stop offset=".084" stop-color="#0cf"/>
      <stop offset=".941" stop-color="#01ceff"/>
    </linearGradient>
    <path fill="url(#SVGID_8_)" d="M94.7 78.2l.3 1.3v.2l.1.6.1.3c0 .2.3.4.4.3l.9-.3c.2 0 .2-.2.2-.4l-.3-1.2-.4-1.2c0-.2-.3-.4-.4-.3h-.1l-.7.2c-.1 0-.1.1-.2.2.1 0 .1.2.1.3z"/>
    <linearGradient id="SVGID_9_" x1="76.128" x2="77.791" y1="-78.871" y2="-78.871" gradientTransform="matrix(.9251 .2114 .1028 -.8609 33.021 -4.931)" gradientUnits="userSpaceOnUse">
      <stop offset=".084" stop-color="#50bed9"/>
      <stop offset=".598" stop-color="#8dddf1"/>
      <stop offset=".941" stop-color="#b1efff"/>
    </linearGradient>
    <path fill="url(#SVGID_9_)" d="M96 80.3c.2 0 .2-.2.2-.4l-.3-1.2-.2-1.2c.2-.1.4.1.4.3l.3 1.2.3 1.2c0 .2-.1.4-.2.4l-.9.3c-.1.1-.4-.1-.4-.3l.8-.3z"/>
    <linearGradient id="SVGID_10_" x1="702.455" x2="705.136" y1="-89.189" y2="-80.685" gradientTransform="matrix(-.9251 -.2114 -.0213 -.8402 748.558 155.227)" gradientUnits="userSpaceOnUse">
      <stop offset=".084" stop-color="#0cf"/>
      <stop offset=".941" stop-color="#01ceff"/>
    </linearGradient>
    <path fill="url(#SVGID_10_)" d="M98.3 76.8l.3 1.3v.2l.1.6.1.3c0 .2.3.4.4.3l.9-.3c.2 0 .2-.2.2-.4l-.3-1.2-.3-1.2c0-.2-.3-.4-.4-.3h-.1l-.8.3c-.1 0-.1.1-.2.2.1.1.1.2.1.2z"/>
    <linearGradient id="SVGID_11_" x1="79.823" x2="81.486" y1="-76.564" y2="-76.564" gradientTransform="matrix(.9251 .2114 .1028 -.8609 33.021 -4.931)" gradientUnits="userSpaceOnUse">
      <stop offset=".084" stop-color="#50bed9"/>
      <stop offset=".598" stop-color="#8dddf1"/>
      <stop offset=".941" stop-color="#b1efff"/>
    </linearGradient>
    <path fill="url(#SVGID_11_)" d="M99.8 79.1c.2 0 .2-.2.2-.4l-.3-1.2-.2-1.2c.2-.1.4.1.4.3l.3 1.2.3 1.2c0 .2-.1.4-.2.4l-.9.3c-.2.1-.4-.1-.4-.3l.8-.3z"/>
    <g>
      <linearGradient id="SVGID_12_" x1="698.422" x2="701.103" y1="-86.667" y2="-78.163" gradientTransform="matrix(-.9251 -.2114 -.0213 -.8402 748.558 155.227)" gradientUnits="userSpaceOnUse">
        <stop offset=".084" stop-color="#0cf"/>
        <stop offset=".941" stop-color="#01ceff"/>
      </linearGradient>
      <path fill="url(#SVGID_12_)" d="M101.9 75.7l.3 1.3v.2l.1.6.1.3c0 .2.3.4.4.3l.9-.3c.2 0 .2-.2.2-.4l-.1-1.2-.3-1.2c0-.2-.3-.4-.4-.3h-.1l-.8.3c-.1 0-.1.1-.2.2-.1-.2-.1.1-.1.2z"/>
      <linearGradient id="SVGID_13_" x1="83.518" x2="85.181" y1="-74.158" y2="-74.158" gradientTransform="matrix(.9251 .2114 .1028 -.8609 33.021 -4.931)" gradientUnits="userSpaceOnUse">
        <stop offset=".084" stop-color="#50bed9"/>
        <stop offset=".598" stop-color="#8dddf1"/>
        <stop offset=".941" stop-color="#b1efff"/>
      </linearGradient>
      <path fill="url(#SVGID_13_)" d="M103.3 77.8c.2 0 .2-.2.2-.4l-.3-1.2-.2-1.2c.2-.1.4.1.4.3l.3 1.2.3 1.2c0 .2-.1.4-.2.4l-.9.3c-.1.1-.4-.1-.4-.3l.8-.3z"/>
    </g>
    <g>
      <linearGradient id="SVGID_14_" x1="694.46" x2="697.14" y1="-84.166" y2="-75.662" gradientTransform="matrix(-.9251 -.2114 -.0213 -.8402 748.558 155.227)" gradientUnits="userSpaceOnUse">
        <stop offset=".084" stop-color="#0cf"/>
        <stop offset=".941" stop-color="#01ceff"/>
      </linearGradient>
      <path fill="url(#SVGID_14_)" d="M105.7 74.3l.3 1.3v.2l.1.6.1.3c0 .2.3.4.4.3l.9-.3c.2 0 .2-.2.2-.4l-.3-1.2-.3-1.2c0-.2-.3-.4-.4-.3h-.1l-.7.2c-.1 0-.1.1-.2.2v.3z"/>
      <linearGradient id="SVGID_15_" x1="87.213" x2="88.876" y1="-71.738" y2="-71.738" gradientTransform="matrix(.9251 .2114 .1028 -.8609 33.021 -4.931)" gradientUnits="userSpaceOnUse">
        <stop offset=".084" stop-color="#50bed9"/>
        <stop offset=".598" stop-color="#8dddf1"/>
        <stop offset=".941" stop-color="#b1efff"/>
      </linearGradient>
      <path fill="url(#SVGID_15_)" d="M107 76.4c.2 0 .2-.2.2-.4l-.3-1.2-.2-1.2c.2-.1.4.1.4.3l.3 1.2.3 1.2c0 .2-.1.4-.2.4l-.9.3c-.2.1-.4-.1-.4-.3l.8-.3z"/>
    </g>
    <g>
      <linearGradient id="SVGID_16_" x1="690.39" x2="693.071" y1="-81.632" y2="-73.128" gradientTransform="matrix(-.9251 -.2114 -.0213 -.8402 748.558 155.227)" gradientUnits="userSpaceOnUse">
        <stop offset=".084" stop-color="#0cf"/>
        <stop offset=".941" stop-color="#01ceff"/>
      </linearGradient>
      <path fill="url(#SVGID_16_)" d="M109.3 73.1l.3 1.3v.2l.1.6.1.3c0 .2.3.4.4.3l.9-.3c.2 0 .2-.2.2-.4l-.3-1.2-.3-1.2c0-.2-.3-.4-.4-.3h-.1l-.8.3c-.1 0-.1.1-.2.2.1-.1.1 0 .1.2z"/>
      <linearGradient id="SVGID_17_" x1="90.908" x2="92.571" y1="-69.419" y2="-69.419" gradientTransform="matrix(.9251 .2114 .1028 -.8609 33.021 -4.931)" gradientUnits="userSpaceOnUse">
        <stop offset=".084" stop-color="#50bed9"/>
        <stop offset=".598" stop-color="#8dddf1"/>
        <stop offset=".941" stop-color="#b1efff"/>
      </linearGradient>
      <path fill="url(#SVGID_17_)" d="M110.8 75.3c.2 0 .2-.2.2-.4l-.3-1.2-.2-1.2c.2-.1.4.1.4.3l.3 1.2.3 1.2c0 .2-.1.4-.2.4l-.9.3c-.1.1-.4-.1-.4-.3l.8-.3z"/>
    </g>
    <g>
      <linearGradient id="SVGID_18_" x1="686.357" x2="689.038" y1="-79.11" y2="-70.606" gradientTransform="matrix(-.9251 -.2114 -.0213 -.8402 748.558 155.227)" gradientUnits="userSpaceOnUse">
        <stop offset=".084" stop-color="#0cf"/>
        <stop offset=".941" stop-color="#01ceff"/>
      </linearGradient>
      <path fill="url(#SVGID_18_)" d="M112.9 71.8l.3 1.3v.2l.1.6.1.3c0 .2.3.4.4.3l.9-.3c.2 0 .2-.2.2-.4l-.1-1.2-.3-1.2c0-.2-.3-.4-.4-.3h-.1l-.8.3c-.1 0-.1.1-.2.2-.1 0-.1.2-.1.2z"/>
      <linearGradient id="SVGID_19_" x1="94.603" x2="96.267" y1="-66.886" y2="-66.886" gradientTransform="matrix(.9251 .2114 .1028 -.8609 33.021 -4.931)" gradientUnits="userSpaceOnUse">
        <stop offset=".084" stop-color="#50bed9"/>
        <stop offset=".598" stop-color="#8dddf1"/>
        <stop offset=".941" stop-color="#b1efff"/>
      </linearGradient>
      <path fill="url(#SVGID_19_)" d="M114.3 73.9c.2 0 .2-.2.2-.4l-.2-1.3-.2-1.2c.2-.1.4.1.4.3l.3 1.2.3 1.2c0 .2-.1.4-.2.4l-.9.3c-.2.1-.4-.1-.4-.3l.7-.2z"/>
    </g>
    <g>
      <linearGradient id="SVGID_20_" x1="682.394" x2="685.075" y1="-76.609" y2="-68.105" gradientTransform="matrix(-.9251 -.2114 -.0213 -.8402 748.558 155.227)" gradientUnits="userSpaceOnUse">
        <stop offset=".084" stop-color="#0cf"/>
        <stop offset=".941" stop-color="#01ceff"/>
      </linearGradient>
      <path fill="url(#SVGID_20_)" d="M116.7 70.6l.3 1.3v.2l.1.6.1.3c0 .2.3.4.4.3l.9-.3c.2 0 .2-.2.2-.4l-.3-1.2-.3-1.2c0-.2-.3-.4-.4-.3h-.1l-.7.2c-.1 0-.1.1-.2.2v.3z"/>
      <linearGradient id="SVGID_21_" x1="98.298" x2="99.962" y1="-64.599" y2="-64.599" gradientTransform="matrix(.9251 .2114 .1028 -.8609 33.021 -4.931)" gradientUnits="userSpaceOnUse">
        <stop offset=".084" stop-color="#50bed9"/>
        <stop offset=".598" stop-color="#8dddf1"/>
        <stop offset=".941" stop-color="#b1efff"/>
      </linearGradient>
      <path fill="url(#SVGID_21_)" d="M118 72.7c.2 0 .2-.2.2-.4l-.3-1.2-.2-1.2c.2-.1.4.1.4.3l.3 1.2.3 1.2c0 .2-.1.4-.2.4l-.9.3c-.2.1-.4-.1-.4-.3l.8-.3z"/>
    </g>
    <g>
      <linearGradient id="SVGID_22_" x1="678.325" x2="681.006" y1="-74.075" y2="-65.571" gradientTransform="matrix(-.9251 -.2114 -.0213 -.8402 748.558 155.227)" gradientUnits="userSpaceOnUse">
        <stop offset=".084" stop-color="#0cf"/>
        <stop offset=".941" stop-color="#01ceff"/>
      </linearGradient>
      <path fill="url(#SVGID_22_)" d="M120.3 69.3l.3 1.3v.2l.1.6.1.3c0 .2.3.4.4.3l.9-.3c.2 0 .2-.2.2-.4L122 70l-.3-1.2c0-.2-.3-.4-.4-.3h-.1l-.8.3c-.1 0-.1.1-.2.2.1.1.1.2.1.3z"/>
      <linearGradient id="SVGID_23_" x1="101.993" x2="103.657" y1="-62.281" y2="-62.281" gradientTransform="matrix(.9251 .2114 .1028 -.8609 33.021 -4.931)" gradientUnits="userSpaceOnUse">
        <stop offset=".084" stop-color="#50bed9"/>
        <stop offset=".598" stop-color="#8dddf1"/>
        <stop offset=".941" stop-color="#b1efff"/>
      </linearGradient>
      <path fill="url(#SVGID_23_)" d="M121.8 71.4c.2 0 .2-.2.2-.4l-.3-1.2-.2-1.2c.2-.1.4.1.4.3l.3 1.2.3 1.2c0 .2-.1.4-.2.4l-.9.3c-.1.1-.4-.1-.4-.3l.8-.3z"/>
    </g>
    <g>
      <linearGradient id="SVGID_24_" x1="674.399" x2="677.08" y1="-71.587" y2="-63.082" gradientTransform="matrix(-.9251 -.2114 -.0213 -.8402 748.558 155.227)" gradientUnits="userSpaceOnUse">
        <stop offset=".084" stop-color="#0cf"/>
        <stop offset=".941" stop-color="#01ceff"/>
      </linearGradient>
      <path fill="url(#SVGID_24_)" d="M123.9 68.1l.3 1.3v.2l.1.6.1.3c0 .2.3.4.4.3l.9-.3c.2 0 .2-.2.2-.4l-.3-1.2-.3-1.2c0-.2-.3-.4-.4-.3h-.1l-.8.3c-.1 0-.1.1-.2.2.1-.1.1 0 .1.2z"/>
      <linearGradient id="SVGID_25_" x1="105.688" x2="107.352" y1="-59.886" y2="-59.886" gradientTransform="matrix(.9251 .2114 .1028 -.8609 33.021 -4.931)" gradientUnits="userSpaceOnUse">
        <stop offset=".084" stop-color="#50bed9"/>
        <stop offset=".598" stop-color="#8dddf1"/>
        <stop offset=".941" stop-color="#b1efff"/>
      </linearGradient>
      <path fill="url(#SVGID_25_)" d="M125.3 70.2c.2 0 .2-.2.2-.4l-.3-1.2-.2-1.2c.2-.1.4.1.4.3l.3 1.2.3 1.2c0 .2-.1.4-.2.4l-.9.3c-.2.1-.4-.1-.4-.3l.8-.3z"/>
    </g>
    <g>
      <linearGradient id="SVGID_26_" x1="670.33" x2="673.01" y1="-69.052" y2="-60.548" gradientTransform="matrix(-.9251 -.2114 -.0213 -.8402 748.558 155.227)" gradientUnits="userSpaceOnUse">
        <stop offset=".084" stop-color="#0cf"/>
        <stop offset=".941" stop-color="#01ceff"/>
      </linearGradient>
      <path fill="url(#SVGID_26_)" d="M127.7 66.8l.3 1.3v.2l.1.6.1.3c0 .2.3.4.4.3l.9-.3c.2 0 .2-.2.2-.4l-.3-1.2-.3-1.2c0-.2-.3-.4-.4-.3h-.1l-.8.3c-.1 0-.1.1-.2.2.1 0 .1.1.1.2z"/>
      <linearGradient id="SVGID_27_" x1="109.383" x2="111.046" y1="-57.454" y2="-57.454" gradientTransform="matrix(.9251 .2114 .1028 -.8609 33.021 -4.931)" gradientUnits="userSpaceOnUse">
        <stop offset=".084" stop-color="#50bed9"/>
        <stop offset=".598" stop-color="#8dddf1"/>
        <stop offset=".941" stop-color="#b1efff"/>
      </linearGradient>
      <path fill="url(#SVGID_27_)" d="M129 68.8c.2 0 .2-.2.2-.4l-.3-1.2-.2-1.2c.2-.1.4.1.4.3l.3 1.2.3 1.2c0 .2-.1.4-.2.4l-.9.3c-.1.1-.4-.1-.4-.3l.8-.3z"/>
    </g>
    <g id="XMLID_248_">
      <g id="XMLID_250_">
        <linearGradient id="XMLID_41_" x1="666.404" x2="669.084" y1="-66.564" y2="-58.059" gradientTransform="matrix(-.9251 -.2114 -.0213 -.8402 748.558 155.227)" gradientUnits="userSpaceOnUse">
          <stop offset=".084" stop-color="#0cf"/>
          <stop offset=".941" stop-color="#01ceff"/>
        </linearGradient>
        <path id="XMLID_251_" fill="url(#XMLID_41_)" d="M131.3 65.6l.3 1.3v.2l.1.6.1.3c0 .2.3.4.4.3l.9-.3c.2 0 .2-.2.2-.4l-.3-1.2-.3-1.2c0-.2-.3-.4-.4-.3h-.1l-.8.3c-.1 0-.1.1-.2.2.1-.1.1-.1.1.2z"/>
      </g>
      <linearGradient id="XMLID_42_" x1="113.078" x2="114.742" y1="-55.173" y2="-55.173" gradientTransform="matrix(.9251 .2114 .1028 -.8609 33.021 -4.931)" gradientUnits="userSpaceOnUse">
        <stop offset=".084" stop-color="#50bed9"/>
        <stop offset=".598" stop-color="#8dddf1"/>
        <stop offset=".941" stop-color="#b1efff"/>
      </linearGradient>
      <path id="XMLID_249_" fill="url(#XMLID_42_)" d="M132.6 67.7c.2 0 .2-.2.2-.4l-.3-1.2-.2-1.2c.2-.1.4.1.4.3l.3 1.2.3 1.2c0 .2-.1.4-.2.4l-.9.3c-.2.1-.4-.1-.4-.3l.8-.3z"/>
    </g>
  </g>
</svg>
