<svg xmlns="http://www.w3.org/2000/svg" xmlns:xlink="http://www.w3.org/1999/xlink" id="Layer_1" viewBox="0 0 200 200">
  <style>
    .st10{enable-background:new}.st11{fill:#8e2a1f}.st15{fill:#9c7907}.st16{fill:#9d9d9d}.st17{fill:#ededed}.st21{fill:#969696}.st22{fill:#9b9b9b}.st23{fill:#9f9f9f}.st24{fill:#a4a4a4}.st25{fill:#a8a8a8}.st26{fill:#adadad}.st27{fill:#b1b1b1}.st28{fill:#b6b6b6}.st29{fill:#bababa}.st30{fill:#bfbfbf}.st31{fill:#c4c4c4}.st32{fill:#c8c8c8}.st33{fill:#ccc}.st34{fill:#d0d0d0}.st36{fill:#e2e2e2}.st41{fill:#fff}.st44{fill:#d9d9d9}.st45{fill:#ddd}.st46{fill:#e1e1e1}.st47{fill:#e5e5e5}.st48{fill:#eaeaea}.st49{fill:#eee}.st50{fill:#f2f2f2}.st51{fill:#f6f6f6}.st52{fill:#fafafa}
  </style>
  <radialGradient id="SVGID_1_" cx="145.425" cy="-.754" r="23.426" gradientTransform="matrix(1 0 0 -1 0 56.2)" gradientUnits="userSpaceOnUse">
    <stop offset="0" stop-color="#00fcff"/>
    <stop offset=".11" stop-color="#03f6ff"/>
    <stop offset=".258" stop-color="#0ce5ff"/>
    <stop offset=".427" stop-color="#1ac9ff"/>
    <stop offset=".613" stop-color="#2da1ff"/>
    <stop offset=".809" stop-color="#4670ff"/>
    <stop offset="1" stop-color="#6238ff"/>
  </radialGradient>
  <path fill="url(#SVGID_1_)" d="M146.4 64.7l-2.7 1.6 1.7 7c.1.3.1.5 0 .6l2.7-1.6c.1 0 .1-.2 0-.6l-1.7-7z"/>
  <g id="_x31_8_28_">
    <g id="_x36__29_">
      <g id="XMLID_304_">
        <path id="XMLID_307_" fill="#272724" d="M87.6 169.4L30 135.6c-7.9-4.6-6.9-12.6 2.2-17.9l48.7-28.2c9.1-5.3 22.9-5.8 30.7-1.2l57.5 33.6c7.9 4.6 6.9 12.6-2.2 17.9L118.3 168c-9 5.4-22.9 5.9-30.7 1.4z" opacity=".1"/>
        <linearGradient id="XMLID_2_" x1="25.45" x2="175.253" y1="-69.422" y2="-69.422" gradientTransform="matrix(1 0 0 -1 0 56.2)" gradientUnits="userSpaceOnUse">
          <stop offset=".002" stop-color="#23dbea"/>
          <stop offset="1" stop-color="#0c5fcd"/>
        </linearGradient>
        <path id="XMLID_306_" fill="url(#XMLID_2_)" d="M175.3 126.5l-.1-9.1-10-1.3-52.7-30.9c-7.9-4.6-21.7-4-30.8 1.3L33 114.7c-.4.2-.8.5-1.1.7l-6.5 1.2v8.3c.1 2.9 1.8 5.6 5.3 7.6l57.5 33.6c7.9 4.6 21.6 4.1 30.7-1.2l48.6-28.2c5.3-2.9 7.9-6.7 7.8-10.2z"/>
        <linearGradient id="XMLID_3_" x1="100.25" x2="100.25" y1="-35.437" y2="-79.944" gradientTransform="matrix(1 0 0 -1 0 56.2)" gradientUnits="userSpaceOnUse">
          <stop offset="0" stop-color="#dfe0e1"/>
          <stop offset="1" stop-color="#fff"/>
        </linearGradient>
        <path id="XMLID_305_" fill="url(#XMLID_3_)" d="M88.3 158.8l-57.6-33.7c-7.9-4.6-6.9-12.6 2.2-17.9L81.5 79c9.1-5.3 22.9-5.8 30.7-1.2l57.5 33.6c7.9 4.6 6.9 12.6-2.2 17.9L119 157.4c-9.1 5.4-22.8 6-30.7 1.4z"/>
      </g>
    </g>
  </g>
  <linearGradient id="SVGID_2_" x1="157.968" x2="217.595" y1="-798.942" y2="-798.942" gradientTransform="scale(1 -1) rotate(-22.012 1908.059 -228.558)" gradientUnits="userSpaceOnUse">
    <stop offset=".004" stop-color="#007cc0"/>
    <stop offset=".995" stop-color="#07c9ea"/>
  </linearGradient>
  <path fill="url(#SVGID_2_)" d="M127.1 123.8c-2.7 6.6-17.2 7-32.5.8s-25.5-16.5-22.8-23.1 17.2-7 32.5-.8 25.5 16.5 22.8 23.1z" opacity=".25"/>
  <path fill="#02314b" d="M93.2 40.3v.9l9 5.2v-1z"/>
  <linearGradient id="SVGID_3_" x1="104.562" x2="83.812" y1="-6.313" y2="-46.813" gradientTransform="matrix(1 0 0 -1 0 56.2)" gradientUnits="userSpaceOnUse">
    <stop offset="0" stop-color="#0045db"/>
    <stop offset="1" stop-color="#ffa3ff"/>
  </linearGradient>
  <path fill="url(#SVGID_3_)" d="M83.4 38.1c-1-.6-1.7-.1-1.7 1L81.6 95c0 1.1.8 2.4 1.7 3l28.4 16.4c1 .6 1.7.1 1.7-1l.2-55.9c0-1.1-.8-2.4-1.7-3L83.4 38.1z"/>
  <linearGradient id="SVGID_4_" x1="97.55" x2="97.55" y1="22.897" y2="-135.533" gradientTransform="matrix(1 0 0 -1 0 56.2)" gradientUnits="userSpaceOnUse">
    <stop offset="0" stop-color="#00fcff"/>
    <stop offset=".073" stop-color="#00f7fd"/>
    <stop offset=".16" stop-color="#00e8f6"/>
    <stop offset=".255" stop-color="#00d0ec"/>
    <stop offset=".355" stop-color="#00aedd"/>
    <stop offset=".459" stop-color="#0183ca"/>
    <stop offset=".565" stop-color="#014fb3"/>
    <stop offset=".642" stop-color="#0124a0"/>
  </linearGradient>
  <path fill="url(#SVGID_4_)" d="M111.8 47.6c2.4 1.4 4.3 4.8 4.3 7.5l-.2 67.2c0 2.8-2 3.9-4.4 2.5l-28.1-16.3c-2.4-1.4-4.3-4.7-4.3-7.5l.2-67.2c0-2.7 2-3.9 4.4-2.5l28.1 16.3zM81.6 94.9c0 1.1.8 2.4 1.7 3l28.4 16.4c1 .6 1.7.1 1.7-1l.2-55.9c0-1.1-.8-2.4-1.7-3L83.4 38.1c-1-.6-1.7-.1-1.7 1l-.1 55.8zm13.2 16.9c0 .6.4 1.3.9 1.6l3.4 2c.5.3 1 .1 1-.5V111c0-.6-.4-1.3-1-1.6l-3.4-2c-.5-.3-.9-.1-.9.5v3.9zm7.4-66.4l-9-5.2v1l9 5.2v-1z"/>
  <linearGradient id="SVGID_5_" x1="80.45" x2="120.183" y1="-20.448" y2="-20.448" gradientTransform="matrix(1 0 0 -1 0 56.2)" gradientUnits="userSpaceOnUse">
    <stop offset="0" stop-color="#00fcff"/>
    <stop offset=".073" stop-color="#00f7fd"/>
    <stop offset=".16" stop-color="#00e8f6"/>
    <stop offset=".255" stop-color="#00d0ec"/>
    <stop offset=".355" stop-color="#00aedd"/>
    <stop offset=".459" stop-color="#0183ca"/>
    <stop offset=".565" stop-color="#014fb3"/>
    <stop offset=".642" stop-color="#0124a0"/>
  </linearGradient>
  <path fill="url(#SVGID_5_)" d="M84.7 28.6c.5-.3 1.1-.4 1.8-.2.4.1.9.3 1.3.5L116 45.2c.8.4 1.5 1.1 2.1 1.8 1.3 1.6 2.2 3.8 2.2 5.7l-.2 67.2c0 1.4-.5 2.3-1.3 2.8l-4.2 2.4c.8-.5 1.3-1.4 1.3-2.8l.2-67.2c0-1.9-.9-4-2.2-5.7-.6-.8-1.3-1.4-2.1-1.8L83.6 31.4c-.5-.3-.9-.4-1.3-.5-.7-.1-1.3-.1-1.8.2l4.2-2.5z"/>
  <path fill="#f6f7fa" d="M94.8 111.8v-3.9c0-.6.4-.8.9-.5l3.4 2c.5.3 1 1 1 1.6v3.9c0 .6-.4.8-1 .5l-3.4-2c-.5-.2-.9-1-.9-1.6z"/>
  <g>
    <g class="st10">
      <g class="st10">
        <g class="st10">
          <path d="M122.3 68.7l2.7-1.6-2.7 1.6z" class="st11"/>
        </g>
      </g>
      <radialGradient id="SVGID_6_" cx="118.748" cy="19.933" r="12.979" gradientTransform="matrix(1 0 0 -1 0 56.2)" gradientUnits="userSpaceOnUse">
        <stop offset="0" stop-color="#00fcff"/>
        <stop offset=".11" stop-color="#03f6ff"/>
        <stop offset=".258" stop-color="#0ce5ff"/>
        <stop offset=".427" stop-color="#1ac9ff"/>
        <stop offset=".613" stop-color="#2da1ff"/>
        <stop offset=".809" stop-color="#4670ff"/>
        <stop offset="1" stop-color="#6238ff"/>
      </radialGradient>
      <path fill="url(#SVGID_6_)" d="M105.3 27.9l-2.7 1.6c.8-.5 1.9-.4 3.2.3l26.4 15.3 2.7-1.6-26.4-15.3c-1.2-.7-2.4-.8-3.2-.3z"/>
      <radialGradient id="SVGID_7_" cx="137.342" cy="-6.7" r="8.429" gradientTransform="matrix(1 0 0 -1 0 56.2)" gradientUnits="userSpaceOnUse">
        <stop offset="0" stop-color="#00fcff"/>
        <stop offset=".11" stop-color="#03f6ff"/>
        <stop offset=".258" stop-color="#0ce5ff"/>
        <stop offset=".427" stop-color="#1ac9ff"/>
        <stop offset=".613" stop-color="#2da1ff"/>
        <stop offset=".809" stop-color="#4670ff"/>
        <stop offset="1" stop-color="#6238ff"/>
      </radialGradient>
      <path fill="url(#SVGID_7_)" d="M136.6 52.8l-.1 19c0 1.4-.5 2.4-1.3 2.9l2.7-1.6c.8-.5 1.3-1.5 1.3-2.9l.1-19-2.7 1.6z"/>
      <g class="st10">
        <g class="st10">
          <path d="M132.3 45l2.7-1.6c2.5 1.4 4.5 4.9 4.5 7.7l-2.7 1.6c-.2-2.8-2.2-6.2-4.5-7.7z" class="st11"/>
        </g>
      </g>
      <g>
        <radialGradient id="SVGID_8_" cx="125.617" cy="20.647" r="44.315" gradientTransform="matrix(1 0 0 -1 0 56.2)" gradientUnits="userSpaceOnUse">
          <stop offset="0" stop-color="#00fcff"/>
          <stop offset=".11" stop-color="#03f6ff"/>
          <stop offset=".258" stop-color="#0ce5ff"/>
          <stop offset=".427" stop-color="#1ac9ff"/>
          <stop offset=".613" stop-color="#2da1ff"/>
          <stop offset=".809" stop-color="#4670ff"/>
          <stop offset="1" stop-color="#6238ff"/>
        </radialGradient>
        <path fill="url(#SVGID_8_)" d="M132.3 45c2.5 1.4 4.5 4.9 4.5 7.7l-.1 19c0 2.8-2 4-4.5 2.6l-9.9-5.7c-.1.1-.2.1-.3.1L109.4 70c-.2 0-.4 0-.5-.1-.3-.2-.4-.5-.2-1l2.4-6.8-5.3-3.1c-2.5-1.4-4.5-4.9-4.5-7.7l.1-19c0-2.8 2-4 4.5-2.6L132.3 45z"/>
      </g>
    </g>
    <g class="st10">
      <g class="st10">
        <g class="st10">
          <path d="M130.1 46.4l2.7-1.6c-.4.2-.6.7-.6 1.4 0 1.3.9 3 2.1 3.6l-2.7 1.6c-1.2-.7-2.1-2.3-2.1-3.6-.1-.7.1-1.2.6-1.4z" class="st15"/>
        </g>
      </g>
      <g class="st10">
        <g class="st10">
          <path d="M130.1 46.4l2.7-1.6c.4-.2.9-.2 1.5.1l-2.7 1.6c-.7-.3-1.2-.3-1.5-.1z" class="st16"/>
        </g>
      </g>
      <g class="st10">
        <g class="st10">
          <path d="M131.6 46.6l2.7-1.6c1.2.7 2.1 2.3 2.1 3.6 0 .7-.2 1.1-.6 1.3l-2.7 1.6c.4-.2.6-.7.6-1.3-.1-1.3-1.1-3-2.1-3.6z" class="st16"/>
        </g>
      </g>
      <g class="st10">
        <g class="st10">
          <path d="M136.4 50.1l2.7-1.6c-.4.2-.6.7-.6 1.4 0 1.3.9 3 2.1 3.6l-2.7 1.6c-1.2-.7-2.1-2.3-2.1-3.6.1-.7.3-1.1.6-1.4z" class="st15"/>
        </g>
      </g>
      <g class="st10">
        <g class="st10">
          <path d="M136.4 50.1l2.7-1.6c.4-.2.9-.2 1.5.1l-2.7 1.6c-.5-.2-1-.3-1.5-.1z" class="st16"/>
        </g>
      </g>
      <g class="st10">
        <g class="st10">
          <path d="M137.9 50.3l2.7-1.6c1.2.7 2.1 2.3 2.1 3.6 0 .7-.2 1.1-.6 1.3l-2.7 1.6c.4-.2.6-.7.6-1.3.1-1.3-.9-2.9-2.1-3.6z" class="st16"/>
        </g>
      </g>
      <path d="M137.9 50.3c1.2.7 2.1 2.3 2.1 3.6 0 1.3-.9 1.9-2.1 1.2-1.2-.7-2.1-2.3-2.1-3.6s1.1-1.9 2.1-1.2z" class="st17"/>
      <g class="st10">
        <g class="st10">
          <path d="M142.9 53.9l2.7-1.6c-.4.2-.6.7-.6 1.4 0 1.3.9 3 2.1 3.6l-2.7 1.6c-1.2-.7-2.1-2.3-2.1-3.6.1-.7.3-1.2.6-1.4z" class="st15"/>
        </g>
      </g>
      <g class="st10">
        <g class="st10">
          <path d="M142.9 53.9l2.7-1.6c.4-.2.9-.2 1.5.1l-2.7 1.6c-.5-.3-1-.3-1.5-.1z" class="st16"/>
        </g>
      </g>
      <g class="st10">
        <g class="st10">
          <path d="M144.4 54l2.7-1.6c1.2.7 2.1 2.3 2.1 3.6 0 .7-.2 1.1-.6 1.3l-2.7 1.6c.4-.2.6-.7.6-1.3.1-1.3-.9-2.9-2.1-3.6z" class="st16"/>
        </g>
      </g>
      <path d="M144.4 54c1.2.7 2.1 2.3 2.1 3.6 0 1.3-.9 1.9-2.1 1.2s-2.1-2.3-2.1-3.6c.1-1.3 1-1.9 2.1-1.2z" class="st17"/>
      <radialGradient id="SVGID_9_" cx="146.033" cy="9.563" r="24.336" gradientTransform="matrix(1 0 0 -1 0 56.2)" gradientUnits="userSpaceOnUse">
        <stop offset="0" stop-color="#00fcff"/>
        <stop offset=".11" stop-color="#03f6ff"/>
        <stop offset=".258" stop-color="#0ce5ff"/>
        <stop offset=".427" stop-color="#1ac9ff"/>
        <stop offset=".613" stop-color="#2da1ff"/>
        <stop offset=".809" stop-color="#4670ff"/>
        <stop offset="1" stop-color="#6238ff"/>
      </radialGradient>
      <path fill="url(#SVGID_9_)" d="M147.8 46.9c1.8 1 3.3 3.6 3.3 5.7v14c0 2.1-1.5 2.9-3.3 1.9l-3.9-2.3 1.7 7c.1.5 0 .7-.2.5l-.4-.4-9.2-11.5c-.1-.1-.2-.2-.2-.3l-7.3-4.2c-1.8-1-3.3-3.6-3.3-5.7v-14c0-2.1 1.5-2.9 3.3-1.9l19.5 11.2zm-16.2 4.5c1.2.7 2.1.1 2.1-1.2s-.9-3-2.1-3.6c-1.2-.7-2.1-.1-2.1 1.2-.1 1.3.9 2.9 2.1 3.6zm6.3 3.7c1.2.7 2.1.1 2.1-1.2s-.9-3-2.1-3.6c-1.2-.7-2.1-.1-2.1 1.2.1 1.3 1.1 3 2.1 3.6zm6.5 3.8c1.2.7 2.1.1 2.1-1.2s-.9-3-2.1-3.6c-1.2-.7-2.1-.1-2.1 1.2.1 1.3 1 2.9 2.1 3.6z"/>
      <path d="M131.6 46.6c1.2.7 2.1 2.3 2.1 3.6 0 1.3-1 1.9-2.1 1.2-1.2-.7-2.1-2.3-2.1-3.6-.1-1.4.9-1.9 2.1-1.2z" class="st17"/>
      <g>
        <radialGradient id="SVGID_10_" cx="136.367" cy="52.004" r="91.477" gradientTransform="matrix(1 0 0 -1 0 56.2)" gradientUnits="userSpaceOnUse">
          <stop offset="0" stop-color="#00fcff"/>
          <stop offset=".11" stop-color="#03f6ff"/>
          <stop offset=".258" stop-color="#0ce5ff"/>
          <stop offset=".427" stop-color="#1ac9ff"/>
          <stop offset=".613" stop-color="#2da1ff"/>
          <stop offset=".809" stop-color="#4670ff"/>
          <stop offset="1" stop-color="#6238ff"/>
        </radialGradient>
        <path fill="url(#SVGID_10_)" d="M150.4 45.4l-19.5-11.3c-.9-.5-1.7-.6-2.3-.2l-2.7 1.6c.6-.3 1.4-.3 2.3.2l19.5 11.2c1.8 1 3.3 3.6 3.3 5.7v14c0 1-.4 1.8-1 2.1l2.7-1.6c.6-.3 1-1.1 1-2.1V51c.1-2-1.4-4.6-3.3-5.6z"/>
      </g>
    </g>
  </g>
  <g>
    <g class="st10">
      <g class="st10">
        <defs>
          <path id="SVGID_11_" d="M85.7 69l1.3-.7c.4-.2 1-.2 2 .4l-1.3.7c-1-.7-1.6-.7-2-.4z"/>
        </defs>
        <clipPath id="SVGID_12_">
          <use overflow="visible" xlink:href="#SVGID_11_"/>
        </clipPath>
        <g clip-path="url(#SVGID_12_)">
          <path d="M85.7 69l1.3-.7s.1-.1.2-.1l-1.3.7c-.1 0-.2 0-.2.1" class="st21"/>
          <path d="M85.8 68.9l1.3-.7h.1l-1.4.7c.1-.1 0 0 0 0" class="st22"/>
          <path d="M85.9 68.8l1.3-.7h.1l-1.3.7h-.1" class="st23"/>
          <path d="M86.1 68.8l1.3-.7h.1l-1.4.7c.1 0 .1 0 0 0" class="st24"/>
          <path d="M86.2 68.8l1.3-.7h.1l-1.4.7c.1 0 .1 0 0 0" class="st25"/>
          <path d="M86.3 68.8l1.3-.7h.1l-1.4.7" class="st26"/>
          <path d="M86.3 68.8l1.3-.7h.1l-1.4.7c.1 0 .1 0 0 0" class="st27"/>
          <path d="M86.6 68.8l1.3-.7h.1l-1.4.7c0 .1 0 .1 0 0" class="st28"/>
          <path d="M86.7 68.9l1.3-.7h.1l-1.4.7" class="st29"/>
          <path d="M86.8 68.9l1.3-.7h.1l-1.4.7" class="st30"/>
          <path d="M86.8 68.9l1.3-.7s.1 0 .1.1l-1.4.6c.1.1.1.1 0 0" class="st31"/>
          <path d="M87.1 69l1.3-.7s.1 0 .1.1l-1.4.6c.1 0 0 0 0 0" class="st32"/>
          <path d="M87.2 69.1l1.3-.7c.1 0 .1 0 .2.1l-1.3.7c-.1-.1-.1-.1-.2-.1" class="st33"/>
          <path d="M87.3 69.1l1.3-.7c.1 0 .1.1.2.1l-1.3.7c-.1 0-.2 0-.2-.1" class="st34"/>
          <linearGradient id="SVGID_13_" x1="87.499" x2="88.902" y1="-12.65" y2="-12.65" gradientTransform="matrix(1 0 0 -1 0 56.2)" gradientUnits="userSpaceOnUse">
            <stop offset=".001" stop-color="#b7fdff"/>
            <stop offset=".995" stop-color="#06ecc5"/>
          </linearGradient>
          <path fill="url(#SVGID_13_)" d="M87.4 69.2l1.3-.7.1.1-1.3.7c.1 0 .1 0-.1-.1"/>
        </g>
      </g>
      <path d="M88.7 78.5l1.2-.7 7.4 4.3-1.1.7z" class="st36"/>
      <g class="st10">
        <defs>
          <path id="SVGID_14_" d="M96.4 76.7l-1.3.7c.5-.3.6-1 .8-1.5l1.3-.7c0 .5-.3 1.2-.8 1.5z"/>
        </defs>
        <clipPath id="SVGID_15_">
          <use overflow="visible" xlink:href="#SVGID_14_"/>
        </clipPath>
        <g clip-path="url(#SVGID_15_)">
          <path d="M95.9 76l1.3-.7c0 .1-.1.3-.1.5l-1.3.7c.1-.2.1-.4.1-.5" class="st25"/>
          <path d="M95.8 76.4l1.3-.7c0 .1 0 .2-.1.2l-1.3.8c.1-.1.1-.2.1-.3" class="st24"/>
          <path d="M95.8 76.7l1.3-.7c0 .1-.1.1-.1.2l-1.3.7c.1-.1.1-.2.1-.2" class="st23"/>
          <path d="M95.7 76.9l1.3-.7c0 .1-.1.1-.1.2l-1.3.7c.1-.1.1-.2.1-.2" class="st22"/>
          <path d="M95.6 77.1l1.3-.7c-.1.2-.2.3-.4.4l-1.3.7c.1-.2.2-.3.4-.4" class="st21"/>
        </g>
      </g>
      <g class="st10">
        <defs>
          <path id="SVGID_16_" d="M102.4 83.2l-1.3.7c-.9.5-2.4.4-5.1-1.1l1.3-.7c2.8 1.6 4.3 1.6 5.1 1.1z"/>
        </defs>
        <clipPath id="SVGID_17_">
          <use overflow="visible" xlink:href="#SVGID_16_"/>
        </clipPath>
        <g clip-path="url(#SVGID_17_)">
          <linearGradient id="SVGID_18_" x1="96.111" x2="97.82" y1="-26.35" y2="-26.35" gradientTransform="matrix(1 0 0 -1 0 56.2)" gradientUnits="userSpaceOnUse">
            <stop offset=".001" stop-color="#b7fdff"/>
            <stop offset=".995" stop-color="#06ecc5"/>
          </linearGradient>
          <path fill="url(#SVGID_18_)" d="M96.2 82.8l1.3-.7c.2.1.3.2.5.3l-1.3.7c-.3-.1-.4-.2-.5-.3"/>
          <path d="M96.6 83.1l1.3-.7c.2.1.4.2.5.3l-1.3.7c-.2-.1-.3-.2-.5-.3" class="st34"/>
          <path d="M97.1 83.4l1.3-.7c.2.1.3.1.5.2l-1.3.7c-.3-.1-.3-.1-.5-.2" class="st33"/>
          <path d="M97.6 83.6l1.3-.7c.1.1.3.1.4.2l-1.3.7c-.2-.1-.3-.1-.4-.2" class="st32"/>
          <path d="M97.9 83.8l1.3-.7c.1 0 .2.1.4.1l-1.3.7c-.1 0-.2-.1-.4-.1" class="st31"/>
          <path d="M98.3 83.9l1.3-.7c.1 0 .2.1.3.1l-1.3.7s-.2-.1-.3-.1" class="st30"/>
          <path d="M98.7 84l1.3-.7c.1 0 .2.1.3.1l-1.3.7c-.2 0-.2-.1-.3-.1" class="st29"/>
          <path d="M98.9 84.1l1.3-.7c.1 0 .2 0 .3.1l-1.3.7c0-.1-.1-.1-.3-.1" class="st28"/>
          <path d="M99.3 84.2l1.3-.7h.3l-1.3.7h-.3" class="st27"/>
          <path d="M99.6 84.2l1.3-.7h.3l-1.4.7h-.2" class="st26"/>
          <path d="M99.8 84.2l1.3-.7h.3l-1.3.7h-.3" class="st25"/>
          <path d="M100.1 84.2l1.3-.7h.3l-1.3.7h-.3" class="st24"/>
          <path d="M100.3 84.2l1.3-.7h.3l-1.3.7h-.3" class="st23"/>
          <path d="M100.6 84.2l1.3-.7c.1 0 .2-.1.3-.1l-1.3.7c-.1 0-.2.1-.3.1" class="st22"/>
          <path d="M100.8 84.1l1.3-.7c.1 0 .2-.1.3-.2l-1.3.7c0 .1-.2.2-.3.2" class="st21"/>
        </g>
      </g>
      <g class="st10">
        <defs>
          <path id="SVGID_19_" d="M96.3 74.3l1.3-.7s-.1.5-.4 1.6l-1.3.7c.4-1.1.4-1.5.4-1.6z"/>
        </defs>
        <clipPath id="SVGID_20_">
          <use overflow="visible" xlink:href="#SVGID_19_"/>
        </clipPath>
        <g clip-path="url(#SVGID_20_)">
          <path d="M96.3 74.3l1.3-.7s-.1.3-.2.9l-1.3.7c.2-.6.2-.8.2-.9" class="st26"/>
          <path d="M96.2 75.2l1.3-.7c0 .2-.1.5-.2.8l-1.3.6c.1-.2.2-.5.2-.7" class="st25"/>
        </g>
      </g>
      <path d="M95.9 76c-.2.9-.5 2.4-2.8 1.1l-8.7-5s.1-.5.4-1.6c.2-.9.5-2.4 2.8-1.1l8.7 5s0 .4-.4 1.6z" class="st41"/>
      <path d="M87.7 69.3l1.2-.7 8.7 5-1.3.7zM91.3 62.8l1.3-.7 8.5 4.9-1.3.7z" class="st36"/>
      <g class="st10">
        <defs>
          <path id="SVGID_21_" d="M105.7 88.4l-1.3.7c1.6-.9 2.6-2.9 3.1-5.7 1.1-6-.2-11.4-7.7-15.7l1.3-.7c7.5 4.3 8.8 9.8 7.7 15.7-.5 2.8-1.5 4.8-3.1 5.7z"/>
        </defs>
        <clipPath id="SVGID_22_">
          <use overflow="visible" xlink:href="#SVGID_21_"/>
        </clipPath>
        <g clip-path="url(#SVGID_22_)">
          <linearGradient id="SVGID_23_" x1="99.83" x2="101.267" y1="-11.15" y2="-11.15" gradientTransform="matrix(1 0 0 -1 0 56.2)" gradientUnits="userSpaceOnUse">
            <stop offset=".001" stop-color="#b7fdff"/>
            <stop offset=".995" stop-color="#06ecc5"/>
          </linearGradient>
          <path fill="url(#SVGID_23_)" d="M99.8 67.7l1.3-.7c.1 0 .1.1.2.1l-1.3.7c-.1 0-.2 0-.2-.1"/>
          <path d="M100.1 67.8l1.3-.7c.3.2.5.3.8.5l-1.4.7c-.2-.2-.5-.3-.7-.5" class="st44"/>
          <path d="M100.8 68.3l1.3-.7c.2.1.4.3.7.4l-1.3.7c-.2-.1-.4-.3-.7-.4" class="st45"/>
          <path d="M101.4 68.7l1.3-.7c.2.1.4.3.6.4l-1.3.7c-.2-.1-.3-.2-.6-.4" class="st46"/>
          <path d="M102.1 69.2l1.3-.7c.2.1.4.3.5.4l-1.3.7c-.2-.1-.3-.3-.5-.4" class="st47"/>
          <path d="M102.6 69.6l1.3-.7c.2.1.3.3.5.4l-1.3.7c-.2-.1-.3-.3-.5-.4" class="st48"/>
          <path d="M103.2 70l1.3-.7c.2.1.3.3.5.4l-1.3.7c-.3-.1-.4-.3-.5-.4" class="st49"/>
          <path d="M103.6 70.4l1.3-.7.5.5-1.3.7-.5-.5" class="st50"/>
          <path d="M104.1 70.9l1.3-.7.5.5-1.3.7c-.3-.2-.3-.4-.5-.5" class="st51"/>
          <path d="M104.6 71.4l1.3-.7c.2.2.4.4.5.6l-1.3.7c-.3-.2-.3-.4-.5-.6" class="st52"/>
          <path d="M105.1 72l1.3-.7c.6.7 1.1 1.5 1.5 2.2l-1.3.7c-.4-.7-.9-1.5-1.5-2.2" class="st41"/>
          <path d="M106.6 74.2l1.3-.7c.1.2.2.4.3.5l-1.4.8c0-.2-.1-.4-.2-.6" class="st52"/>
          <path d="M106.8 74.8l1.3-.7c.1.2.1.3.2.5l-1.3.7c-.1-.2-.2-.4-.2-.5" class="st51"/>
          <path d="M106.9 75.2l1.3-.7c.1.1.1.3.2.4l-1.3.7c0-.1 0-.2-.2-.4" class="st50"/>
          <path d="M107.2 75.6l1.3-.7c0 .1.1.2.1.4l-1.3.7c0-.1-.1-.3-.1-.4" class="st49"/>
          <path d="M107.3 76l1.3-.7c0 .1.1.2.1.4l-1.3.7c-.1-.2-.1-.3-.1-.4" class="st48"/>
          <path d="M107.3 76.4l1.3-.7c0 .1.1.2.1.4l-1.3.7c0-.2 0-.3-.1-.4" class="st47"/>
          <path d="M107.4 76.7l1.3-.7c0 .1.1.2.1.4l-1.3.7c.1-.1-.1-.3-.1-.4" class="st46"/>
          <path d="M107.6 77.1l1.3-.7c0 .1.1.2.1.4l-1.3.7c0-.2-.1-.3-.1-.4" class="st45"/>
          <path d="M107.7 77.4l1.3-.7c0 .1 0 .3.1.4l-1.3.7c-.1-.1-.1-.2-.1-.4" class="st44"/>
          <linearGradient id="SVGID_24_" x1="107.689" x2="108.998" y1="-21.4" y2="-21.4" gradientTransform="matrix(1 0 0 -1 0 56.2)" gradientUnits="userSpaceOnUse">
            <stop offset=".001" stop-color="#b7fdff"/>
            <stop offset=".995" stop-color="#06ecc5"/>
          </linearGradient>
          <path fill="url(#SVGID_24_)" d="M107.7 77.8l1.3-.7c0 .1 0 .3.1.4l-1.3.7c0-.1 0-.3-.1-.4"/>
          <path d="M107.8 78.2l1.3-.7v.4l-1.3.7v-.4" class="st34"/>
          <path d="M107.8 78.6l1.3-.7v.4l-1.3.7v-.4" class="st33"/>
          <path d="M107.8 79.1l1.3-.7v.5l-1.3.7v-.5" class="st32"/>
          <path d="M107.8 79.6l1.3-.7v.5l-1.3.7v-.5" class="st31"/>
          <path d="M107.8 80.1l1.3-.7v.6l-1.3.7v-.6" class="st30"/>
          <path d="M107.8 80.7l1.3-.7v.7l-1.4.7c.1-.2.1-.4.1-.7" class="st29"/>
          <path d="M107.8 81.4l1.3-.7c0 .3-.1.6-.1.8l-1.2.8v-.9" class="st28"/>
          <path d="M107.8 82.3l1.3-.7c0 .3-.1.7-.2 1l-1.3.7c.1-.4.1-.7.2-1" class="st27"/>
          <path d="M107.6 83.3l1.3-.7v.2c0 .3-.1.5-.2.8l-1.3.7c.1-.2.1-.5.2-.8v-.2" class="st26"/>
          <path d="M107.3 84.2l1.3-.7c-.1.3-.1.6-.2.8l-1.3.7c.2-.2.2-.5.2-.8" class="st25"/>
          <path d="M107.2 85.1l1.3-.7c-.1.3-.2.5-.3.8l-1.3.7c0-.3.2-.6.3-.8" class="st24"/>
          <path d="M106.8 85.9l1.3-.7c-.1.3-.2.5-.3.8l-1.3.6c.2-.2.3-.5.3-.7" class="st23"/>
          <path d="M106.6 86.6l1.3-.7c-.1.3-.3.6-.4.8l-1.3.7c.1-.2.2-.5.4-.8" class="st22"/>
          <path d="M106.2 87.5l1.3-.7c-.5.7-1 1.3-1.7 1.7l-1.3.7c.6-.4 1.2-1 1.7-1.7" class="st21"/>
        </g>
      </g>
      <path d="M99.8 67.7c7.5 4.3 8.8 9.8 7.7 15.7-.7 4-2.5 6.4-5.5 6.2-1.4-.1-2.6-.4-5.6-2.1l-8.5-4.9.7-4.1 7.5 4.3c4.5 2.6 5.7 1.1 6.3-.6.2-.6.7-2.6.8-3.9 0-2.6-1.1-4.8-4.9-7l-7.7-4.4.7-4.1 8.5 4.9z" class="st41"/>
    </g>
  </g>
</svg>
