<svg id="Слой_1" xmlns="http://www.w3.org/2000/svg" xmlns:xlink="http://www.w3.org/1999/xlink" viewBox="0 0 419.5 385"><style>.st0{fill:#ccc}.st1{fill:#fff}.st2{fill:#282567}.st3{fill:#5170b6}.st22{fill:none}</style><path class="st0" d="M40.8 299.9l.1 14.9c.1.7.5 1.3 1.1 1.5L153 380c2.1.9 4.5.8 6.5-.3l218-126.6c.9-.4 1.5-1.2 1.6-2.1v-14.9l-12.3 6.8-99.8-57.2c-2.1-.9-4.5-.8-6.5.3l-208 120.9c.6-.6 1-1.1 1-1.1l-12.7-5.9z"/><path class="st1" d="M158.7 380l-.1-38.7-5.1-2.9.1 41.7c1.7.6 3.5.6 5.1-.1z"/><path class="st1" d="M266.9 170.8l111 63.7c1.7 1 1.5 2.6-.5 3.8L159.5 364.9c-2 1.1-4.4 1.2-6.5.3L42 301.5c-1.7-1-1.5-2.6.5-3.8L260.4 171c1.9-1 4.4-1.1 6.5-.2z"/><path class="st2" d="M263.7 174l106.9 63.3-191.1 111.1-112-60.4z"/><path class="st2" d="M238.5 188.6l111.9 60.5-193.8 112.6-109.3-62z"/><path class="st3" d="M245.1 282.4l5 3.2 5.1 3.2-15.9 3-19.6 11.1-58.6-36.9 30.4-17.3z"/><path class="st1" d="M212.8 271.8l-4.2-2.6 3.2-1.9 4.2 2.7zM205.9 267.5L189.3 257l3.2-1.8 16.6 10.4zM226.1 287l-42.5-26.8 3.3-1.8 42.5 26.7zM192.6 272.6l-14.6-9.2 3.3-1.8 14.6 9.2zM213.5 285.8l-17.9-11.3 3.3-1.9 17.8 11.3zM195.4 281.7l-23.5-14.8 3.2-1.8 23.6 14.8z"/><path class="st3" d="M223.9 218.1l-5.1-3.2-5.1-3.2-5.8 9.4h.1l-19.6 11.1 58.7 36.9 30.4-17.3z"/><path class="st1" d="M251.9 245.5L235.3 235l3.2-1.8 16.6 10.4zM232.6 233.3l-16.7-10.4 3.3-1.9 16.6 10.5zM253.5 253.2l-43.2-27.1 3.3-1.9 43.2 27.2zM223.6 241.2l-18.9-11.9 3.3-1.9 18.9 11.9zM227.8 251.1l-29.2-18.3 3.2-1.9 29.2 18.4z"/><path class="st3" d="M139.9 265.9l-5-3.2-5.1-3.2-5.8 9.4-13.7 7.9 34.9 21.9 24.6-14z"/><path class="st1" d="M152 283.6l-20.3-12.7 3.3-1.9 20.2 12.8zM137.7 281.9l-12.1-7.6 3.3-1.8 12.1 7.6zM136.6 287.9L120 277.5l3.3-1.8 16.5 10.4z"/><path class="st3" d="M326.8 237.4l5.1 3.2 5.1 3.2-15.9 3-.1-.1-19.5 11.2-58.6-36.9 30.4-17.4z"/><path class="st1" d="M294.5 226.8l-4.2-2.6 3.3-1.9 4.2 2.6zM287.6 222.5L271 212l3.3-1.9 16.6 10.5zM307.9 242l-42.5-26.8 3.3-1.9 42.5 26.8zM274.4 227.6l-14.6-9.2 3.2-1.9 14.6 9.2zM295.2 240.7l-17.8-11.2 3.2-1.9 17.9 11.3zM277.2 236.7l-23.6-14.8 3.3-1.9 23.5 14.8zM144 345.7l-69.6-40.2c-5.9-3.4-6.8-8.9-2-12.3 4.8-3.4 13.6-3.3 19.5.1l69.5 40.1c5.9 3.4 6.8 8.9 2 12.3-4.8 3.5-13.5 3.4-19.4 0z"/><path d="M146 340.9l4.8-2.8 2.1-4 6.2 7.9-13.1-1.1z" fill="#f36e38"/><path d="M212.2 265.8c-.9 5.6-24.9 11-40.8 10.5-14.7-.5-46.7-3.2-60.4-13.6l7.4-4.3 56.8-33c22.4 5.8 40.5 17.5 37 40.4z" opacity=".6" fill-rule="evenodd" clip-rule="evenodd" fill="#010101"/><linearGradient id="SVGID_1_" gradientUnits="userSpaceOnUse" x1="3919.155" y1="1217.816" x2="3919.155" y2="1295.436" gradientTransform="matrix(-.87 .5 0 -1.15 3626.85 -371.73)"><stop offset="0" stop-color="#5a64ad"/><stop offset=".19" stop-color="#556ab2"/><stop offset=".51" stop-color="#5170b6"/><stop offset=".86" stop-color="#5768b0"/><stop offset="1" stop-color="#5a64ad"/></linearGradient><path d="M216.8 103.9l.7-.4c2.6-1.5 4.8.1 4.8 3.6V184c0 3.5-2.1 7.6-4.8 9.1l-.7.4c-2.6 1.5-4.8-.1-4.8-3.6V113c.1-3.5 2.2-7.6 4.8-9.1z" opacity=".66" fill="url(#SVGID_1_)"/><linearGradient id="SVGID_2_" gradientUnits="userSpaceOnUse" x1="3975.661" y1="1268.646" x2="3975.661" y2="1365.966" gradientTransform="matrix(-.87 .5 0 -1.15 3626.85 -371.73)"><stop offset="0" stop-color="#5a64ad"/><stop offset=".16" stop-color="#5a64ad" stop-opacity=".76"/><stop offset=".35" stop-color="#5a64ad" stop-opacity=".49"/><stop offset=".54" stop-color="#5a64ad" stop-opacity=".28"/><stop offset=".72" stop-color="#5a64ad" stop-opacity=".12"/><stop offset=".88" stop-color="#5a64ad" stop-opacity=".03"/><stop offset="1" stop-color="#5a64ad" stop-opacity="0"/></linearGradient><path d="M167.7 50.8l.7-.4c2.6-1.5 4.8.1 4.8 3.6v99.7c0 3.5-2.1 7.6-4.8 9.1l-.7.4c-2.6 1.5-4.8-.1-4.8-3.6V59.9c0-3.5 2.1-7.5 4.8-9.1z" opacity=".43" fill="url(#SVGID_2_)"/><linearGradient id="SVGID_3_" gradientUnits="userSpaceOnUse" x1="3997.902" y1="1271.206" x2="3997.902" y2="1382.746" gradientTransform="matrix(-.87 .5 0 -1.15 3626.85 -371.73)"><stop offset="0" stop-color="#5a64ad"/><stop offset=".19" stop-color="#556ab2"/><stop offset=".51" stop-color="#5170b6"/><stop offset=".86" stop-color="#5768b0"/><stop offset="1" stop-color="#5a64ad"/></linearGradient><path d="M148.4 42.6l.5-.3c1.8-1.1 3.3.1 3.3 2.5v120c0 2.5-1.3 4.8-3.3 6.3l-.5.3c-1.8 1-3.3-.1-3.3-2.5v-120c.1-2.5 1.3-4.9 3.3-6.3z" opacity=".22" fill="url(#SVGID_3_)"/><linearGradient id="SVGID_4_" gradientUnits="userSpaceOnUse" x1="4026.215" y1="1255.05" x2="4057.455" y2="1268.58" gradientTransform="matrix(-.87 .5 0 -1.15 3626.85 -371.73)"><stop offset="0" stop-color="#5a64ad"/><stop offset=".96" stop-color="#5a64ad"/></linearGradient><path d="M126.1 159.5l.7-.4c2.6-1.5 4.8.1 4.8 3.6v64.8c0 3.5-2.1 7.6-4.8 9.1l-.7.4c-2.6 1.5-4.8-.1-4.8-3.6v-64.8c0-3.5 2.1-7.6 4.8-9.1z" opacity=".36" fill="url(#SVGID_4_)"/><linearGradient id="SVGID_5_" gradientUnits="userSpaceOnUse" x1="3914.569" y1="1306.506" x2="3914.569" y2="1373.616" gradientTransform="matrix(-.87 .5 0 -1.15 3626.85 -371.73)"><stop offset="0" stop-color="#5a64ad"/><stop offset=".19" stop-color="#556ab2"/><stop offset=".51" stop-color="#5170b6"/><stop offset=".56" stop-color="#5170b6" stop-opacity=".96"/><stop offset=".64" stop-color="#526eb5" stop-opacity=".84"/><stop offset=".74" stop-color="#546cb3" stop-opacity=".66"/><stop offset=".85" stop-color="#5669b1" stop-opacity=".39"/><stop offset=".98" stop-color="#5965ae" stop-opacity=".06"/><stop offset="1" stop-color="#5a64ad" stop-opacity="0"/></linearGradient><path d="M220.8 11.3l.7-.4c2.6-1.5 4.8.1 4.8 3.6v64.8c0 3.5-2.1 7.6-4.8 9.1l-.7.4c-2.6 1.5-4.8-.1-4.8-3.6V20.4c.1-3.5 2.2-7.6 4.8-9.1z" opacity=".38" fill="url(#SVGID_5_)"/><g opacity=".94"><linearGradient id="SVGID_6_" gradientUnits="userSpaceOnUse" x1="210.67" y1="135.015" x2="210.67" y2="285.8" gradientTransform="matrix(1 0 0 -1 0 392)"><stop offset="0" stop-color="#5a64ad"/><stop offset=".06" stop-color="#6865a2"/><stop offset=".29" stop-color="#9a687c"/><stop offset=".5" stop-color="#c06a5f"/><stop offset=".7" stop-color="#dc6c49"/><stop offset=".87" stop-color="#ed6d3d"/><stop offset="1" stop-color="#f36d38"/></linearGradient><path d="M251.2 112c0-1.8.3-3.6.8-5.3-11.8-2.2-27 3-41.1 11s-26.5 20.2-38.4 35.9c.5 1.6.7 3.3.6 5-.1 7.3-7.9 15.4-14.1 19 .1 21.2 1.6 45.6 10.1 60.2 9.2 15.7 27.9 19.6 40.4 19.2 12.7-13.9 31.6-39.2 41.2-65.7 8.9-24.5 10.8-44.9 11.3-66.4-6.2.2-10.8-5.6-10.8-12.9" fill-rule="evenodd" clip-rule="evenodd" fill="url(#SVGID_6_)"/><defs><path id="SVGID_7_" d="M251.2 112c0-1.8.3-3.6.8-5.3-11.8-2.2-27 3-41.1 11s-26.5 20.2-38.4 35.9c.5 1.6.7 3.3.6 5-.1 7.3-7.9 15.4-14.1 19 .1 21.2 1.6 45.6 10.1 60.2 9.2 15.7 27.9 19.6 40.4 19.2 12.7-13.9 31.6-39.2 41.2-65.7 8.9-24.5 10.8-44.9 11.3-66.4-6.2.2-10.8-5.6-10.8-12.9"/></defs><clipPath id="SVGID_8_"><use xlink:href="#SVGID_7_" overflow="visible"/></clipPath><g clip-path="url(#SVGID_8_)"><linearGradient id="SVGID_9_" gradientUnits="userSpaceOnUse" x1="210.395" y1="134.58" x2="210.395" y2="287.49" gradientTransform="matrix(1 0 0 -1 0 392)"><stop offset="0" stop-color="#5a64ad"/><stop offset=".06" stop-color="#6865a2"/><stop offset=".29" stop-color="#9a687c"/><stop offset=".5" stop-color="#c06a5f"/><stop offset=".7" stop-color="#dc6c49"/><stop offset=".87" stop-color="#ed6d3d"/><stop offset="1" stop-color="#f36d38"/></linearGradient><path opacity=".78" fill="url(#SVGID_9_)" d="M158.4 257.4H261l1.4-152.9H159.8z"/></g></g><linearGradient id="SVGID_10_" gradientUnits="userSpaceOnUse" x1="133.18" y1="206.144" x2="256.462" y2="206.144" gradientTransform="matrix(1 0 .01 -1 11.56 384.65)"><stop offset="0" stop-color="#b2b2b2"/><stop offset=".6" stop-color="#c2c1c1"/><stop offset=".75" stop-color="#c7c6c5"/></linearGradient><path d="M168.6 153.6l2.3 3-5.9 17-8.2 6.9c.6 18 2.8 38.9 10.2 51.6 8 13.6 23.9 18.8 37.4 19.3 13.6-15.9 29.8-39.3 38.1-62.3 8.3-22.8 8.7-45.5 9.5-64.9-7.2-.1-9.3-12.8-8-19-9.9-.1-24.7 4.6-38.4 12.3-13.6 7.8-25.9 17.7-36.3 29.4.1 2.2-.2 4.5-.7 6.7m83.7-59.8c-13.3-2.5-30.6 3.4-46.5 12.4-18.1 10.3-34 24.1-46.8 40.6l.4 1.3c.3 1.2.4 2.4.4 3.7-.1 8.2-5.8 18.1-12.8 22.2.1 24 1.8 51.6 11.5 68.1 10.4 17.8 31.5 22.2 45.8 21.7 14.4-15.8 38.4-41.4 49.3-71.3 8.5-23.4 8.8-51.3 9.8-73.2l7.5-8.1-7.1-3.7c-6.4 3.6-11.6 1-12.4-5.8l8-4.3-7.1-3.6z" fill-rule="evenodd" clip-rule="evenodd" fill="url(#SVGID_10_)"/><defs><path id="SVGID_11_" d="M168.6 153.6l2.3 3-5.9 17-8.2 6.9c.6 18 2.8 38.9 10.2 51.6 8 13.6 23.9 18.8 37.4 19.3 13.6-15.9 29.8-39.3 38.1-62.3 8.3-22.8 8.7-45.5 9.5-64.9-7.2-.1-9.3-12.8-8-19-9.9-.1-24.7 4.6-38.4 12.3-13.6 7.8-25.9 17.7-36.3 29.4.1 2.2-.2 4.5-.7 6.7m83.7-59.8c-13.3-2.5-30.6 3.4-46.5 12.4-18.1 10.3-34 24.1-46.8 40.6l.4 1.3c.3 1.2.4 2.4.4 3.7-.1 8.2-5.8 18.1-12.8 22.2.1 24 1.8 51.6 11.5 68.1 10.4 17.8 31.5 22.2 45.8 21.7 14.4-15.8 38.4-41.4 49.3-71.3 8.5-23.4 8.8-51.3 9.8-73.2l7.5-8.1-7.1-3.7c-6.4 3.6-11.6 1-12.4-5.8l8-4.3-7.1-3.6z"/></defs><clipPath id="SVGID_12_"><use xlink:href="#SVGID_11_" overflow="visible"/></clipPath><g clip-path="url(#SVGID_12_)"><linearGradient id="SVGID_13_" gradientUnits="userSpaceOnUse" x1="133.18" y1="206.87" x2="256.64" y2="206.87" gradientTransform="matrix(1 0 .01 -1 11.56 384.65)"><stop offset="0" stop-color="#b2b2b2"/><stop offset=".6" stop-color="#c2c1c1"/><stop offset=".75" stop-color="#c7c6c5"/></linearGradient><path fill="url(#SVGID_13_)" d="M146.2 264.3h123.3l1.6-173H147.8z"/></g><path d="M189.7 194c-1.9-.9-2-4.2-.3-7.4s4.6-5.1 6.5-4.1l9.8 4.7 17.3-36.4c1.5-3.3 4.4-5.4 6.4-4.7.2.1.4.1.6.3l6.1 3.7-4.4 7.2-2.5-1.7-22.3 46.8-11.6-5.1-5.6-3.3z" fill-rule="evenodd" clip-rule="evenodd" fill="#ccc"/><defs><path id="SVGID_14_" d="M189.7 194c-1.9-.9-2-4.2-.3-7.4s4.6-5.1 6.5-4.1l9.8 4.7 17.3-36.4c1.5-3.3 4.4-5.4 6.4-4.7.2.1.4.1.6.3l6.1 3.7-4.4 7.2-2.5-1.7-22.3 46.8-11.6-5.1-5.6-3.3z"/></defs><clipPath id="SVGID_15_"><use xlink:href="#SVGID_14_" overflow="visible"/></clipPath><g clip-path="url(#SVGID_15_)"><path class="st0" d="M187.6 202.3h47.9l.6-56.9h-48z"/></g><path d="M195.9 197.7c-1.9-.9-2-4.2-.3-7.4s4.6-5.1 6.5-4.1l9.8 4.7 17.3-36.4c1.5-3.3 4.4-5.4 6.4-4.7s2.4 3.8.9 7L213 206l-17.1-8.3z" fill-rule="evenodd" clip-rule="evenodd" fill="#fff"/><linearGradient id="SVGID_16_" gradientUnits="userSpaceOnUse" x1="256.52" y1="202.449" x2="140.425" y2="202.449" gradientTransform="matrix(1 0 .01 -1 11.56 384.65)"><stop offset="0" stop-color="#ececec"/><stop offset=".68" stop-color="#ececec"/></linearGradient><path d="M211.6 255c-13.5-.4-29.4-5.6-37.4-19.3s-9.9-36.3-10.3-55.1c7.3-8.3 12.4-19.9 12.7-30.1 10.4-11.7 22.7-21.7 36.3-29.4 13.6-7.8 26.2-11.8 36.1-11.8.1 10 5 15.9 12.2 15.9-.8 19.4-3.2 44.7-11.5 67.5-8.3 23-24.5 46.4-38.1 62.3m46.8-151.6c0-2 .4-4.1.9-6-13.3-2.5-30.6 3.4-46.5 12.4-18.1 10.3-34 24.1-46.8 40.6.6 1.6.9 3.3.8 5-.1 8.2-5.8 18.1-12.8 22.2.1 24 1.8 51.6 11.5 68.1 10.4 17.8 31.5 22.2 45.8 21.7 14.4-15.8 35.8-44.4 46.6-74.3 10.1-27.7 12.3-57.6 12.9-82-6.8 4-12.4.6-12.4-7.7z" fill-rule="evenodd" clip-rule="evenodd" fill="url(#SVGID_16_)"/><path class="st22" d="M143.4 79.4h132.9v183.3H143.4z"/><path class="st22" d="M123.8 117h132.9v183.3H123.8z"/><g><linearGradient id="SVGID_17_" gradientUnits="userSpaceOnUse" x1="3826.512" y1="1140.626" x2="3826.512" y2="1207.736" gradientTransform="matrix(-.87 .5 0 -1.15 3626.85 -371.73)"><stop offset="0" stop-color="#5a64ad"/><stop offset=".19" stop-color="#556ab2"/><stop offset=".51" stop-color="#5170b6"/><stop offset=".86" stop-color="#5768b0"/><stop offset="1" stop-color="#5a64ad"/></linearGradient><path d="M297.4 158.6l.7-.4c2.6-1.5 4.8.1 4.8 3.6v64.8c0 3.5-2.1 7.6-4.8 9.1l-.7.4c-2.6 1.5-4.8-.1-4.8-3.6v-64.8c.1-3.5 2.2-7.6 4.8-9.1z" opacity=".44" fill="url(#SVGID_17_)"/></g><g><linearGradient id="SVGID_18_" gradientUnits="userSpaceOnUse" x1="3856.006" y1="1111.996" x2="3856.006" y2="1156.886" gradientTransform="matrix(-.87 .5 0 -1.15 3626.85 -371.73)"><stop offset="0" stop-color="#5a64ad"/><stop offset=".19" stop-color="#556ab2"/><stop offset=".51" stop-color="#5170b6"/><stop offset=".86" stop-color="#5768b0"/><stop offset="1" stop-color="#5a64ad"/></linearGradient><path d="M271.9 232.1l.5-.3c1.8-1 3.2.1 3.2 2.4v43.4c0 2.4-1.2 4.7-3.2 6.1l-.5.3c-1.8 1-3.2-.1-3.2-2.4v-43.3c0-2.5 1.2-4.8 3.2-6.2z" opacity=".36" fill="url(#SVGID_18_)"/></g><g><linearGradient id="SVGID_19_" gradientUnits="userSpaceOnUse" x1="3967.356" y1="1142.016" x2="3967.356" y2="1177.946" gradientTransform="matrix(-.87 .5 0 -1.15 3626.85 -371.73)"><stop offset="0" stop-color="#5a64ad"/><stop offset=".19" stop-color="#556ab2"/><stop offset=".51" stop-color="#5170b6"/><stop offset=".86" stop-color="#5768b0"/><stop offset="1" stop-color="#5a64ad"/></linearGradient><path d="M175.1 263.7l.4-.2c1.4-.8 2.6 0 2.6 1.9v34.7c0 1.9-1 3.7-2.6 4.9l-.4.2c-1.4.8-2.6 0-2.6-1.9v-34.7c0-2 1-3.8 2.6-4.9z" opacity=".36" fill="url(#SVGID_19_)"/></g></svg>