<svg id="Слой_1" xmlns="http://www.w3.org/2000/svg" xmlns:xlink="http://www.w3.org/1999/xlink" viewBox="0 0 419.5 332.1"><style>.st0{fill:#ccc}.st1{fill:#fff}.st2{fill:#282567}.st3{fill:#e8e8f4}.st4{fill:#5170b6}.st7{fill:#47419a}.st8{fill:#f36d38}</style><path class="st0" d="M264.6 7.6L251.7.2c-.5-.3-1.2-.2-1.9.2L139 64.4c-1.7 1-3 3.5-3 5.8v252.1c0 1.2.4 2.1 1.1 2.4l12.9 7.4.3-14 99.7-57.5c1.7-1 3-3.5 3-5.8V14.2c.3.8.5 1.4.5 1.4-.1.1 11.1-8 11.1-8z"/><path class="st1" d="M262.6 267.9l-110.8 64c-1.7 1-3-.1-3-2.3V77.5c0-2.2 1.4-4.8 3-5.8l110.8-64c1.7-1 3 .1 3 2.3v252.1c0 2.2-1.3 4.8-3 5.8z"/><path class="st2" d="M261.5 263.6l-108.6 60.6V103.1l108.6-66.4z"/><path class="st2" d="M261.5 234.4l-108.6 66.4V76.7l108.6-63.4z"/><path class="st3" d="M142 98.4l-.2-.1c-.4-.2-.7-.2-1-.1l-.9.5h.4c-.1.2-.1.5-.1.8v14.6c0 1.2.7 2.6 1.6 3.1l.2.1c.1.1.2.1.3.1l-.2.5 1-.6c.3-.2.6-.6.6-1.3v-14.6c-.1-1.1-.8-2.5-1.7-3z"/><path class="st1" d="M141 117.9l-.2-.1c-.9-.5-1.6-1.9-1.6-3.1v-14.6c0-1.2.7-1.7 1.6-1.2l.2.1c.9.5 1.6 1.9 1.6 3.1v14.6c.1 1.1-.7 1.7-1.6 1.2z"/><path class="st4" d="M237.5 178.3l5.2-2.8 5.4-2.8-5.3 15.3h-.1v22.5l-61.1 32.7v-35z"/><path class="st1" d="M212.3 201.1l-4.4 2.4v-3.8l4.4-2.3zM205.1 205l-17.3 9.2v-3.7l17.3-9.2zM232.1 197l-44.3 23.7V217l44.3-23.7zM203 219.1l-15.2 8.1v-3.8l15.2-8.1zM224.7 207.4l-18.6 10v-3.8l18.6-9.9zM212.3 221.1l-24.5 13.1v-3.7l24.5-13.1z"/><path class="st4" d="M171.1 164.9l-5.3 2.8-5.3 2.9 5.3 9.6v22.5l61.1-32.7v-35z"/><path class="st1" d="M208.7 154.1l-17.3 9.3v-3.8l17.3-9.2zM188.6 164.9l-17.3 9.2v-3.7l17.3-9.3zM216.3 156.6l-45 24v-3.7l45-24.1zM191 176.5l-19.7 10.6v-3.8l19.7-10.5zM201.7 177.9l-30.4 16.2v-3.7l30.4-16.3z"/><path class="st4" d="M171.1 261.5l-5.3 2.8-5.3 2.9 5.3 9.6v15.8l36.4-19.4v-28.3z"/><path class="st1" d="M192.4 259.8l-21.1 11.3v-3.8l21.1-11.2zM183.9 271.4l-12.6 6.7v-3.7l12.6-6.8zM188.5 275.3l-17.2 9.3v-3.8l17.2-9.2z"/><path class="st3" d="M142 120.7l-.2-.1c-.4-.2-.7-.2-1-.1l-.9.5h.4c-.1.2-.1.5-.1.8v14.6c0 1.2.7 2.6 1.6 3.1l.2.1c.1.1.2.1.3.1l-.2.5 1-.6c.3-.2.6-.6.6-1.3v-14.5c-.1-1.2-.8-2.6-1.7-3.1z"/><path class="st1" d="M141 140.1l-.2-.1c-.9-.5-1.6-1.9-1.6-3.1v-14.6c0-1.2.7-1.7 1.6-1.2l.2.1c.9.5 1.6 1.9 1.6 3.1v14.6c.1 1.2-.7 1.8-1.6 1.2z"/><path opacity=".5" fill="#010101" d="M170.1 121.1l2.4 192 45.2-25.1-3.5-145.4L197 94.9z"/><path class="st0" d="M257.1 57.6l-6.7-4c-.1-.1-.2-.1-.3 0L164 100.8c-.3.2-.5.6-.5.9l-.3 16c0 .2 0 .3.1.4l6.8 4.1.2-7.7 79.3-43.6c.3-.2.5-.6.5-.9l.1-5.5 6.9-6.9z"/><path class="st1" d="M256.4 75l-86 47.3c-.3.2-.5 0-.5-.4l.3-16c0-.4.2-.8.5-.9l86-47.3c.3-.2.5 0 .5.4l-.3 16c0 .3-.2.7-.5.9z"/><path class="st0" d="M240.3 74.6L177.1 110c1.9 1.7 3.7 3.6 5.3 5.8l63.6-35c-1.7-2.3-3.6-4.4-5.7-6.2z"/><path class="st2" d="M254.1 70.1L173 114.7c-.2.1-.3 0-.3-.3l.1-4c0-.3.2-.5.4-.6l81.1-44.6c.2-.1.3 0 .3.3l-.1 4c-.1.2-.2.5-.4.6z"/><path class="st4" d="M254.2 65.2l-1.6.9v2.2c0 .3-.2.5-.4.6l-79.4 43.7v1.9c0 .3.1.4.3.3l81.1-44.6c.2-.1.4-.4.4-.6l.1-4c-.2-.4-.3-.5-.5-.4z"/><linearGradient id="SVGID_1_" gradientUnits="userSpaceOnUse" x1="-939.441" y1="2956.088" x2="-1033.202" y2="3122.225" gradientTransform="matrix(.9998 .0211 .0211 -.9998 1152.345 3233.245)"><stop offset="0" stop-color="#b2b2b2"/><stop offset=".093" stop-color="#cdcccc"/><stop offset=".202" stop-color="#e9e9e9"/><stop offset=".263" stop-color="#f5f6f6"/><stop offset=".358" stop-color="#efefef"/><stop offset=".488" stop-color="#dedddd"/><stop offset=".514" stop-color="#d9d9d8"/><stop offset=".666" stop-color="#e9e9e9"/><stop offset=".755" stop-color="#f5f6f6"/><stop offset="1" stop-color="#b2b2b2"/></linearGradient><path d="M216.1 284.1l67.5-37.1c-10.2-6.2-18.3-20.9-18.1-32.9l2.2-106.4c.3-14.1-9.2-31.4-21.2-38.6L179 106.2c12 7.3 21.5 24.6 21.2 38.6L198 251.2c-.2 12 7.9 26.7 18.1 32.9z" fill="url(#SVGID_1_)"/><path class="st7" d="M220.9 196.3l-14.5 7.9.1-1.6 14.4-7.9zM234 189.1l-3.5 1.9v-1.6l3.5-1.9zM214.2 203.5l-7.8 4.3v-1.6l7.9-4.3zM226 197l-9.6 5.3.1-1.6 9.6-5.3zM231.8 193.9l-3.5 1.9v-1.6l3.5-1.9zM237.2 190.9l-3.5 1.9v-1.6l3.6-1.9zM212 208.3l-5.7 3.2v-1.6l5.7-3.2zM216.1 206.1l-1.9 1v-1.6l1.9-1zM221.8 202.9l-3.5 1.9.1-1.5 3.5-2zM227.2 203.6l-21 11.5v-1.6l21-11.5zM234.6 199.5l-5.2 2.8v-1.5l5.2-2.9zM211.8 215.6l-5.7 3.1.1-1.6 5.7-3.1zM225.2 208.3l-11.2 6.1.1-1.6 11.1-6.1zM230.9 205.1l-3.5 1.9v-1.5l3.5-2zM217.7 215.9l-11.6 6.4v-1.6l11.6-6.3zM228.3 210.1l-8.4 4.6v-1.6l8.4-4.6zM236.2 205.8l-5.7 3.1v-1.6l5.7-3.1zM209.9 223.8L206 226v-1.6l3.9-2.2zM217.3 219.7l-5.2 2.9V221l5.2-2.9zM227.9 213.9l-8.4 4.6v-1.6l8.4-4.6zM217.9 223l-12 6.6V228l12.1-6.6zM231.4 215.6l-11.3 6.2.1-1.6 11.2-6.2zM237.1 212.4l-3.5 2v-1.6l3.6-2zM242.6 209.4l-3.5 1.9v-1.6l3.6-1.9zM213 229.2l-7.2 4 .1-1.6 7.2-3.9z"/><path class="st8" d="M262.2 182.7l7.8-4.4.1-1.5-7.9 4.3zM264.3 185.1l5.6-3.1.1-1.6-5.7 3.1zM261.6 190.1l8.3-4.5V184l-8.3 4.6zM264.1 192.3l5.7-3.1v-1.6l-5.7 3.2zM262.5 196.8l7.2-4v-1.5l-7.2 3.9zM265.7 198.6l3.9-2.1.1-1.6-4 2.1zM261.9 204.3l7.7-4.2v-1.6l-7.6 4.2zM262.3 207.7l7.2-4v-1.6l-7.2 4z"/><path class="st7" d="M218.3 226.4l-3.1 1.6.1-1.6 3-1.6zM227.4 221.3l-6.9 3.8v-1.5l6.9-3.8z"/><path class="st8" d="M234.9 235.9l-11.6 6.4v-1.6l11.6-6.4zM242.9 231.5l-4.6 2.5v-1.5l4.6-2.6z"/><g><defs><path id="SVGID_2_" d="M225.9 154.4l16.4-9.3.9-2.3-1.5-.3-15.8 9z"/></defs><clipPath id="SVGID_3_"><use xlink:href="#SVGID_2_" overflow="visible"/></clipPath><linearGradient id="SVGID_4_" gradientUnits="userSpaceOnUse" x1="398.214" y1="-317.086" x2="418.643" y2="-317.086" gradientTransform="matrix(.8445 -.451 0 -1 -110.392 15.153)"><stop offset="0" stop-color="#5170b6"/><stop offset=".66" stop-color="#5170b6"/><stop offset=".717" stop-color="#4d68ac"/><stop offset=".812" stop-color="#415699"/><stop offset=".935" stop-color="#313a80"/><stop offset="1" stop-color="#282973"/></linearGradient><path clip-path="url(#SVGID_3_)" fill="url(#SVGID_4_)" d="M225.9 154.4l17.3-9.7v-3l-17.3 9.8z"/><defs><path id="SVGID_5_" d="M236.1 139.7l-2.3 1.2-7.9 10.6 4.5-2.6 5.7-7.5z"/></defs><clipPath id="SVGID_6_"><use xlink:href="#SVGID_5_" overflow="visible"/></clipPath><linearGradient id="SVGID_7_" gradientUnits="userSpaceOnUse" x1="409.606" y1="-309.774" x2="398.351" y2="-315.906" gradientTransform="matrix(.8445 -.451 0 -1 -110.392 15.153)"><stop offset="0" stop-color="#5170b6"/><stop offset=".47" stop-color="#5170b6"/><stop offset=".724" stop-color="#3c4e92"/><stop offset="1" stop-color="#282973"/></linearGradient><path clip-path="url(#SVGID_6_)" fill="url(#SVGID_7_)" d="M225.9 151.5l10.2-5.8v-6l-10.2 5.7z"/><path class="st4" d="M236.1 138l-2.3 2.9 9.3 1.9 1.4-.8 1.7-2zM225.9 153.2v13.9l2.2-3V152z"/><g><defs><path id="SVGID_8_" d="M246.2 155.6V140l-2.2 6.4v8.8l.9.1z"/></defs><clipPath id="SVGID_9_"><use xlink:href="#SVGID_8_" overflow="visible"/></clipPath><linearGradient id="SVGID_10_" gradientUnits="userSpaceOnUse" x1="420.95" y1="-330.955" x2="420.95" y2="-315.264" gradientTransform="matrix(.8445 -.451 0 -1 -110.392 15.153)"><stop offset="0" stop-color="#5170b6"/><stop offset=".51" stop-color="#5170b6"/><stop offset=".701" stop-color="#3d4f93"/><stop offset=".899" stop-color="#2d347b"/><stop offset="1" stop-color="#282973"/></linearGradient><path clip-path="url(#SVGID_9_)" fill="url(#SVGID_10_)" d="M244 156.9l2.2-1.3V140l-2.2 1.3z"/></g><g><defs><path id="SVGID_11_" d="M243.6 141.4l-7.5 21.7.8 1.5 1.4-1.8 7.9-22.8z"/></defs><clipPath id="SVGID_12_"><use xlink:href="#SVGID_11_" overflow="visible"/></clipPath><linearGradient id="SVGID_13_" gradientUnits="userSpaceOnUse" x1="408.259" y1="-329.686" x2="425.002" y2="-320.022" gradientTransform="matrix(.8445 -.451 0 -1 -110.392 15.153)"><stop offset="0" stop-color="#282973"/><stop offset=".079" stop-color="#313a80"/><stop offset=".226" stop-color="#415699"/><stop offset=".342" stop-color="#4d68ac"/><stop offset=".41" stop-color="#5170b6"/><stop offset="1" stop-color="#5170b6"/></linearGradient><path clip-path="url(#SVGID_12_)" fill="url(#SVGID_13_)" d="M236.1 165.1l10.1-5.8V140l-10.1 5.7z"/></g><path class="st4" d="M245.1 153.7l-8.2 10.9-.8 2.8 1.9-.9 8.2-10.9z"/><g><defs><path id="SVGID_14_" d="M225.9 167.1l10.2 2-2.3-3.8-6.8-1.4z"/></defs><clipPath id="SVGID_15_"><use xlink:href="#SVGID_14_" overflow="visible"/></clipPath><linearGradient id="SVGID_16_" gradientUnits="userSpaceOnUse" x1="398.594" y1="-330.766" x2="410.459" y2="-337.526" gradientTransform="matrix(.8445 -.451 0 -1 -110.392 15.153)"><stop offset="0" stop-color="#5170b6"/><stop offset=".58" stop-color="#5170b6"/><stop offset=".604" stop-color="#4e6baf"/><stop offset="1" stop-color="#282973"/></linearGradient><path clip-path="url(#SVGID_15_)" fill="url(#SVGID_16_)" d="M225.9 174.9l10.2-5.8v-10.3l-10.2 5.7z"/></g><g><defs><path id="SVGID_17_" d="M228.1 153.2v2.2l8 13.7 1.9-2.6-8.2-14.2z"/></defs><clipPath id="SVGID_18_"><use xlink:href="#SVGID_17_" overflow="visible"/></clipPath><linearGradient id="SVGID_19_" gradientUnits="userSpaceOnUse" x1="398.316" y1="-321.816" x2="414.389" y2="-335.303" gradientTransform="matrix(.8445 -.451 0 -1 -110.392 15.153)"><stop offset="0" stop-color="#282973"/><stop offset=".077" stop-color="#313a80"/><stop offset=".221" stop-color="#415699"/><stop offset=".333" stop-color="#4d68ac"/><stop offset=".4" stop-color="#5170b6"/><stop offset="1" stop-color="#5170b6"/></linearGradient><path clip-path="url(#SVGID_18_)" fill="url(#SVGID_19_)" d="M228.1 173.6l9.9-5.6v-20.4l-9.9 5.6z"/></g></g></svg>