<?xml version="1.0" encoding="utf-8"?>
<!-- Generator: Adobe Illustrator 23.0.3, SVG Export Plug-In . SVG Version: 6.00 Build 0)  -->
<svg version="1.1" id="Ebene_1" xmlns="http://www.w3.org/2000/svg" xmlns:xlink="http://www.w3.org/1999/xlink" x="0px" y="0px"
	 viewBox="0 0 368.9 392.4" style="enable-background:new 0 0 368.9 392.4;" xml:space="preserve">
<style type="text/css">
	.st0{fill:#FB4137;}
	.st1{fill:#FFFFFF;}
	.st2{display:none;}
	.st3{display:inline;fill:#FFFFFF;}
	.st4{font-family:'NotoSans-ExtraBold';}
	.st5{font-size:25.2944px;}
	.st6{font-size:42.1573px;}
	.st7{font-size:58.0833px;}
	.st8{font-size:66px;}
	.st9{font-size:21.547px;}
	.st10{font-size:30.9153px;}
	.st11{font-size:62.7675px;}
	.st12{font-size:25px;}
</style>
<path class="st0" d="M98.6,45.7c25.6-13.5,54.8-21.2,85.8-21.2c7.4,0,14.6,0.4,21.7,1.3C179.8,10.1,148.9,1,116,1
	C87.4,1,60.4,7.8,36.5,19.9c0.7,0,1.4,0,2.1,0C64.7,19.9,87.3,30.3,98.6,45.7z"/>
<circle class="st0" cx="184.5" cy="208" r="184.5"/>
<circle class="st1" cx="183.7" cy="209.1" r="170.6"/>
<circle class="st0" cx="178.8" cy="203.2" r="168.5"/>
<rect id="Underline" x="93.7" y="320" transform="matrix(0.9912 -0.1323 0.1323 0.9912 -40.8331 28.5911)" class="st1" width="202.1" height="3.2"/>
<text id="DE_Text_1_" transform="matrix(0.9911 -0.1333 0.1333 0.9911 142.2521 101.7903)" class="st2"><tspan x="0" y="0" class="st3 st4 st5">DIE</tspan><tspan x="-77.5" y="37.5" class="st3 st4 st6">ANYDESK</tspan><tspan x="-108.8" y="99.3" class="st3 st4 st7">SOMMER</tspan><tspan x="-110.4" y="151.8" class="st3 st4 st8">AKTION</tspan><tspan x="-106.9" y="178.9" class="st3 st4 st9">(ZWEI GRATIS-MONATE)</tspan><tspan x="-82.3" y="219.2" class="st3 st4 st10">JETZT HOLEN!</tspan></text>
<g id="DE_Text" class="st2">
	<path class="st3" d="M158.1,90.3c0.4,3.1-0.1,5.5-1.6,7.3c-1.5,1.8-3.7,2.9-6.7,3.3l-5.4,0.7l-2.4-17.9l5.9-0.8
		c2.8-0.4,5.1,0.1,7,1.3C156.6,85.4,157.7,87.4,158.1,90.3z M153.7,91c-0.2-1.8-0.8-3.1-1.7-3.9c-0.9-0.8-2.1-1-3.6-0.8l-1.8,0.2
		l1.5,10.9l1.4-0.2c1.7-0.2,2.9-0.9,3.5-1.9C153.8,94.3,154,92.9,153.7,91z"/>
	<path class="st3" d="M170.3,98l-8.7,1.2l-0.3-2.4l2.1-1.2l-1.5-11.2l-2.3-0.6l-0.3-2.4l8.7-1.2l0.3,2.4l-2.1,1.2l1.5,11.2l2.3,0.6
		L170.3,98z"/>
	<path class="st3" d="M183.6,96.2l-10.5,1.4l-2.4-17.9l10.5-1.4l0.5,3.5l-6.2,0.8L176,86l5.7-0.8l0.5,3.5l-5.7,0.8l0.5,4l6.2-0.8
		L183.6,96.2z"/>
	<path class="st3" d="M92.2,146.3l-2.7-6.1l-10.3,1.4l-1,6.6l-7.8,1l6.1-31.3l9.1-1.2l14.3,28.6L92.2,146.3z M87.1,134.5l-2.6-5.7
		c-0.2-0.5-0.5-1.1-0.8-2c-0.4-0.8-0.7-1.7-1.1-2.5c-0.4-0.9-0.6-1.6-0.9-2.2c-0.1,0.6-0.1,1.4-0.2,2.4c-0.1,0.9-0.2,1.8-0.3,2.7
		c-0.1,0.9-0.2,1.6-0.3,2.1l-1,6.2L87.1,134.5z"/>
	<path class="st3" d="M130.8,141.1l-9.2,1.2l-15-20.2l-0.2,0c0.1,0.5,0.2,1.2,0.4,2.1c0.2,0.9,0.3,1.8,0.5,2.9c0.2,1,0.4,2,0.5,3
		l1.9,13.8l-6.4,0.9l-4-29.8l9.1-1.2l14.9,20l0.1,0c-0.1-0.5-0.2-1.2-0.4-2c-0.2-0.9-0.3-1.8-0.5-2.8c-0.2-1-0.3-2-0.5-2.9
		l-1.9-13.8l6.4-0.9L130.8,141.1z"/>
	<path class="st3" d="M145.3,120.8l4.1-12.5l7.7-1l-7.4,19.5l1.6,11.6l-7.1,1l-1.5-11.4l-12.3-17.1l7.7-1L145.3,120.8z"/>
	<path class="st3" d="M187.6,117.9c0.7,5.1-0.2,9.2-2.7,12.1c-2.5,2.9-6.2,4.8-11.2,5.4l-9,1.2l-4-29.8l9.8-1.3
		c4.7-0.6,8.6,0.1,11.6,2.2C185.1,109.7,186.9,113.1,187.6,117.9z M180.2,119.1c-0.4-3-1.4-5.2-2.8-6.5c-1.5-1.3-3.5-1.7-6-1.4
		l-2.9,0.4l2.4,18.2l2.3-0.3c2.8-0.4,4.8-1.4,5.9-3.2C180.3,124.6,180.7,122.2,180.2,119.1z"/>
	<path class="st3" d="M212.9,130.1l-17.4,2.3l-4-29.8l17.4-2.3l0.8,5.8l-10.3,1.4l0.8,5.7l9.6-1.3l0.8,5.8l-9.6,1.3l0.9,6.7
		l10.3-1.4L212.9,130.1z"/>
	<path class="st3" d="M235.9,118.2c0.2,1.7,0,3.3-0.6,4.8c-0.7,1.5-1.8,2.7-3.3,3.8c-1.6,1-3.6,1.7-6.1,2c-1.8,0.2-3.4,0.3-4.8,0.2
		c-1.4-0.1-2.8-0.4-4.2-0.8l-0.9-6.5c1.6,0.5,3.2,0.9,4.9,1.1c1.6,0.3,3.2,0.3,4.6,0.1c1.4-0.2,2.4-0.6,2.9-1.2s0.7-1.3,0.6-2.1
		c-0.1-1-0.7-1.7-1.8-2.1c-1-0.5-2.5-1-4.4-1.6c-1.2-0.4-2.5-0.9-3.7-1.4c-1.2-0.6-2.2-1.4-3.1-2.4c-0.8-1-1.4-2.4-1.6-4.2
		c-0.4-2.8,0.3-5,2-6.8c1.7-1.7,4.2-2.8,7.4-3.3c1.7-0.2,3.4-0.3,4.9-0.1c1.5,0.2,3.1,0.5,4.5,0.9l-1.5,5.9
		c-1.4-0.4-2.7-0.7-3.9-0.9c-1.2-0.2-2.3-0.2-3.4,0c-1.1,0.2-2,0.5-2.5,1.1c-0.5,0.5-0.7,1.2-0.6,1.9c0.1,0.6,0.3,1.1,0.8,1.4
		c0.4,0.4,1.1,0.7,2,1.1s2.1,0.7,3.5,1.2c1.6,0.5,2.9,1,4.1,1.7c1.2,0.6,2.1,1.4,2.8,2.4C235.3,115.4,235.7,116.7,235.9,118.2z"/>
	<path class="st3" d="M266.8,122.8l-8.1,1.1l-8.5-11.1l-2.3,2l1.4,10.4l-7.1,1l-4-29.8l7.1-1l1.8,13.3c0.3-0.7,0.6-1.3,0.9-2
		c0.3-0.7,0.7-1.3,1-2l6-10.7l7.8-1.1l-8.2,14.6L266.8,122.8z"/>
	<path class="st3" d="M76.3,198.7c0.3,2.3,0,4.5-0.9,6.6c-0.9,2.1-2.4,3.8-4.6,5.2c-2.2,1.4-5,2.3-8.5,2.8c-2.5,0.3-4.7,0.4-6.6,0.2
		c-2-0.2-3.9-0.6-5.8-1.2l-1.2-8.9c2.2,0.7,4.4,1.2,6.7,1.6c2.3,0.4,4.4,0.4,6.4,0.1c1.9-0.3,3.2-0.8,4-1.6c0.7-0.8,1-1.8,0.9-2.9
		c-0.2-1.3-1-2.3-2.4-3c-1.4-0.6-3.5-1.3-6.1-2.2c-1.7-0.6-3.4-1.2-5-2c-1.6-0.8-3.1-1.9-4.2-3.3c-1.2-1.4-1.9-3.4-2.2-5.8
		c-0.5-3.8,0.4-7,2.8-9.3c2.4-2.4,5.8-3.9,10.2-4.5c2.4-0.3,4.6-0.3,6.8-0.1c2.1,0.3,4.2,0.7,6.2,1.3l-2.1,8.1c-2-0.6-3.8-1-5.4-1.2
		c-1.7-0.2-3.2-0.2-4.7,0c-1.6,0.2-2.7,0.7-3.4,1.5c-0.7,0.8-1,1.6-0.8,2.6c0.1,0.8,0.5,1.5,1.1,2c0.6,0.5,1.5,1,2.8,1.5
		c1.2,0.5,2.9,1,4.9,1.6c2.2,0.6,4,1.4,5.6,2.3c1.6,0.9,2.9,2,3.8,3.4C75.4,194.9,76,196.6,76.3,198.7z"/>
	<path class="st3" d="M119.9,184c0.6,4.3,0.4,8.1-0.6,11.4c-1,3.4-2.8,6.1-5.4,8.3c-2.7,2.2-6.3,3.5-10.9,4.2
		c-4.5,0.6-8.4,0.2-11.5-1.1c-3.2-1.4-5.6-3.6-7.5-6.6c-1.8-3-3-6.6-3.6-10.9s-0.4-8.1,0.6-11.4c1-3.3,2.8-6.1,5.5-8.2
		c2.7-2.1,6.3-3.5,10.9-4.1c4.6-0.6,8.4-0.2,11.5,1.1c3.1,1.4,5.6,3.5,7.4,6.5C118.2,176.1,119.4,179.8,119.9,184z M90.7,187.9
		c0.5,4,1.7,7.1,3.5,9.2c1.8,2.1,4.4,2.9,7.7,2.5c3.4-0.5,5.6-1.9,6.8-4.4c1.1-2.5,1.5-5.8,0.9-9.8c-0.5-4-1.7-7.1-3.4-9.2
		c-1.8-2.1-4.3-3-7.7-2.5c-3.4,0.5-5.6,1.9-6.8,4.5C90.5,180.6,90.2,183.9,90.7,187.9z"/>
	<path class="st3" d="M148.3,201.2l-13.4-29.8l-0.2,0c0.2,0.8,0.4,1.9,0.7,3.3c0.3,1.4,0.6,3,0.9,4.6c0.3,1.6,0.5,3.1,0.7,4.5
		l2.5,18.5l-8.8,1.2l-5.5-41.1l13.2-1.8l13.2,29.2l0.2,0l5.4-31.7l13.2-1.8l5.5,41.1l-9.1,1.2l-2.5-18.8c-0.2-1.3-0.3-2.8-0.5-4.4
		c-0.2-1.6-0.3-3.1-0.4-4.6c-0.1-1.4-0.2-2.6-0.3-3.3l-0.2,0l-5.3,32.2L148.3,201.2z"/>
	<path class="st3" d="M203.2,193.8L189.8,164l-0.2,0c0.2,0.8,0.4,1.9,0.7,3.3c0.3,1.4,0.6,3,0.9,4.6c0.3,1.6,0.5,3.1,0.7,4.5
		l2.5,18.5l-8.7,1.2l-5.5-41.1l13.2-1.8l13.2,29.2l0.2,0l5.4-31.7l13.2-1.8l5.5,41.1l-9.1,1.2l-2.5-18.8c-0.2-1.3-0.3-2.8-0.5-4.4
		c-0.2-1.6-0.3-3.1-0.4-4.6c-0.1-1.4-0.2-2.6-0.3-3.3l-0.2,0l-5.3,32.2L203.2,193.8z"/>
	<path class="st3" d="M264.5,185.5l-24,3.2l-5.5-41.1l24-3.2l1.1,7.9l-14.2,1.9l1.1,7.9l13.2-1.8l1.1,7.9l-13.2,1.8l1.2,9.3
		l14.2-1.9L264.5,185.5z"/>
	<path class="st3" d="M279.6,141.7c11.1-1.5,17.1,1.9,18.2,10c0.4,2.7,0,5-1.2,7c-1.2,2-2.7,3.6-4.7,5l14.4,16.3l-11,1.5L284,167.2
		l-3.9,0.5l2.1,15.4l-9.8,1.3l-5.5-41.1L279.6,141.7z M280.2,149.4l-2.5,0.3l1.4,10.3l2.5-0.3c2.3-0.3,4-1,5.1-2
		c1.1-1,1.5-2.5,1.2-4.4c-0.2-1.7-0.9-2.8-2.2-3.5C284.5,149.3,282.7,149.1,280.2,149.4z"/>
	<path class="st3" d="M87.2,262.3l-4.2-9.6l-16.2,2.2l-1.5,10.4l-12.2,1.6l9.6-49l14.3-1.9l22.4,44.7L87.2,262.3z M79.2,243.8l-4-9
		c-0.3-0.8-0.8-1.8-1.3-3.1c-0.6-1.3-1.1-2.6-1.7-3.9c-0.6-1.3-1-2.5-1.4-3.4c-0.1,1-0.2,2.2-0.4,3.7c-0.2,1.5-0.3,2.9-0.5,4.3
		c-0.2,1.4-0.3,2.5-0.4,3.2l-1.5,9.7L79.2,243.8z"/>
	<path class="st3" d="M143.5,254.8l-12.7,1.7l-13.3-17.4l-3.6,3.2l2.2,16.2l-11.2,1.5l-6.3-46.7l11.2-1.5l2.8,20.9
		c0.4-1,0.9-2.1,1.5-3.1c0.5-1,1.1-2.1,1.6-3.1l9.3-16.7l12.2-1.6L124.4,231L143.5,254.8z"/>
	<path class="st3" d="M168.1,251.4l-11.1,1.5l-5-37.5l-12.1,1.6l-1.2-9.2l35.3-4.8l1.2,9.2l-12.1,1.6L168.1,251.4z"/>
	<path class="st3" d="M206.6,246.3l-22.7,3.1L183,243l5.4-3.2l-3.9-29.2l-6.1-1.6l-0.9-6.3l22.7-3.1l0.9,6.3l-5.4,3.2l3.9,29.2
		l6.1,1.6L206.6,246.3z"/>
	<path class="st3" d="M254.1,216c0.7,4.8,0.4,9.2-0.7,13c-1.1,3.8-3.1,6.9-6.2,9.4c-3,2.4-7.2,4-12.4,4.7c-5.1,0.7-9.5,0.3-13.1-1.3
		c-3.6-1.6-6.4-4-8.5-7.4c-2.1-3.4-3.4-7.5-4.1-12.4s-0.4-9.2,0.7-12.9c1.1-3.8,3.2-6.9,6.2-9.3c3-2.4,7.2-4,12.4-4.7
		c5.2-0.7,9.6-0.3,13.1,1.3c3.6,1.5,6.4,4,8.4,7.4C252.1,207.1,253.4,211.2,254.1,216z M220.9,220.5c0.6,4.6,1.9,8.1,4,10.5
		c2,2.4,4.9,3.3,8.7,2.8c3.8-0.5,6.4-2.2,7.7-5c1.3-2.8,1.6-6.5,1-11.1c-0.6-4.6-1.9-8.1-3.9-10.5c-2-2.4-4.9-3.4-8.7-2.9
		c-3.8,0.5-6.4,2.2-7.7,5.1C220.6,212.2,220.3,215.9,220.9,220.5z"/>
	<path class="st3" d="M309.2,232.5l-14.4,1.9l-23.4-31.7l-0.3,0c0.2,0.8,0.4,1.9,0.6,3.3c0.3,1.4,0.5,2.9,0.8,4.5
		c0.3,1.6,0.6,3.2,0.8,4.7l2.9,21.6l-9.9,1.3l-6.3-46.7l14.3-1.9l23.3,31.3l0.2,0c-0.1-0.8-0.3-1.8-0.6-3.2
		c-0.2-1.3-0.5-2.8-0.8-4.4c-0.3-1.6-0.5-3.1-0.7-4.5l-2.9-21.7l10-1.3L309.2,232.5z"/>
	<path class="st3" d="M61.7,287.1c-0.2-1.7-0.2-3.5,0-5.2c0.3-1.7,0.8-3.3,1.7-4.7l3-0.4c-0.8,1.5-1.3,3.1-1.6,4.8
		c-0.2,1.7-0.3,3.4,0,5.1c0.2,1.7,0.7,3.3,1.4,4.8c0.7,1.6,1.6,3,2.7,4.1L66,296c-1.3-1.1-2.2-2.4-2.9-4
		C62.4,290.5,61.9,288.8,61.7,287.1z"/>
	<path class="st3" d="M81.2,290.5l-11.6,1.6l-0.3-2.3l5.6-10.9l-6.8,0.9l-0.4-3l11.2-1.5l0.3,2.3l-5.6,10.9l7.2-1L81.2,290.5z"/>
	<path class="st3" d="M100.9,272.4l-1.8,15.8l-4.2,0.6l-2.8-7.1c0-0.1-0.1-0.4-0.2-0.7c-0.1-0.3-0.2-0.6-0.4-1s-0.2-0.7-0.3-1.1
		c-0.1-0.3-0.2-0.6-0.2-0.8c0,0.2,0,0.5,0,0.9c0,0.4,0,0.7-0.1,1.1c0,0.4,0,0.7-0.1,1c0,0.3,0,0.6-0.1,0.7l-0.8,7.6l-4.2,0.6
		l-5.9-14.7l3.5-0.5l2.9,7.8c0.1,0.3,0.3,0.7,0.4,1.2c0.2,0.5,0.3,1,0.5,1.5c0.2,0.5,0.3,0.9,0.4,1.3c0-0.5,0-1,0-1.6
		c0-0.6,0.1-1.2,0.1-1.8s0.1-1.1,0.1-1.4l0.8-7.5l3.4-0.5l2.8,7c0.1,0.2,0.2,0.5,0.3,0.9c0.1,0.4,0.3,0.8,0.4,1.3
		c0.2,0.5,0.3,0.9,0.4,1.3c0.1,0.4,0.2,0.8,0.3,1.1c0-0.4,0-0.8,0-1.3c0-0.5,0.1-1,0.1-1.5c0-0.5,0.1-0.9,0.1-1.2l0.7-8.3
		L100.9,272.4z"/>
	<path class="st3" d="M113.8,286.2l-8.9,1.2l-2.1-15.2l8.9-1.2l0.4,2.9l-5.3,0.7l0.4,2.9l4.9-0.7l0.4,2.9l-4.9,0.7l0.5,3.4l5.3-0.7
		L113.8,286.2z"/>
	<path class="st3" d="M123.1,284.9l-7.4,1l-0.3-2.1l1.8-1l-1.3-9.5l-2-0.5l-0.3-2.1l7.4-1l0.3,2.1l-1.8,1l1.3,9.5l2,0.5L123.1,284.9
		z"/>
	<path class="st3" d="M135.9,274.3l6.3-0.8l1.1,8.1c-0.8,0.4-1.6,0.7-2.5,1c-0.9,0.3-1.9,0.5-3,0.7c-2.2,0.3-4.1-0.1-5.6-1.3
		c-1.5-1.1-2.4-3-2.7-5.6c-0.2-1.6-0.1-3,0.4-4.3c0.5-1.2,1.2-2.3,2.3-3.1c1.1-0.8,2.5-1.3,4.2-1.5c0.9-0.1,1.7-0.1,2.6-0.1
		c0.8,0.1,1.6,0.2,2.3,0.4l-0.8,3c-0.5-0.2-1.1-0.3-1.7-0.4c-0.6-0.1-1.3-0.1-1.9,0c-0.9,0.1-1.7,0.4-2.3,0.9
		c-0.6,0.5-1,1.1-1.2,1.9c-0.2,0.8-0.3,1.6-0.1,2.6c0.2,1.5,0.7,2.6,1.4,3.4c0.7,0.8,1.7,1.1,3,0.9c0.4,0,0.7-0.1,1-0.2
		s0.6-0.2,0.8-0.2l-0.4-2.8l-2.8,0.4L135.9,274.3z"/>
	<path class="st3" d="M149.4,265.9c4.1-0.6,6.4,0.7,6.8,3.7c0.1,1,0,1.9-0.4,2.6c-0.4,0.7-1,1.3-1.7,1.8l5.4,6l-4.1,0.5l-4.2-5.3
		l-1.4,0.2l0.8,5.7l-3.6,0.5l-2.1-15.2L149.4,265.9z M149.6,268.7l-0.9,0.1l0.5,3.8l0.9-0.1c0.9-0.1,1.5-0.4,1.9-0.7
		s0.5-0.9,0.4-1.6c-0.1-0.6-0.4-1-0.8-1.3C151.2,268.7,150.5,268.6,149.6,268.7z"/>
	<path class="st3" d="M170.3,278.6l-1.4-3.1l-5.3,0.7l-0.5,3.4l-4,0.5l3.1-16l4.7-0.6l7.3,14.6L170.3,278.6z M167.7,272.5l-1.3-2.9
		c-0.1-0.2-0.2-0.6-0.4-1c-0.2-0.4-0.4-0.8-0.5-1.3s-0.3-0.8-0.4-1.1c0,0.3-0.1,0.7-0.1,1.2s-0.1,0.9-0.2,1.4
		c-0.1,0.5-0.1,0.8-0.1,1.1l-0.5,3.2L167.7,272.5z"/>
	<path class="st3" d="M180.9,277.1l-3.6,0.5l-1.6-12.2l-4,0.5l-0.4-3l11.5-1.6l0.4,3l-4,0.5L180.9,277.1z"/>
	<path class="st3" d="M193.4,275.5l-7.4,1l-0.3-2.1l1.8-1l-1.3-9.5l-2-0.5l-0.3-2.1l7.4-1l0.3,2.1l-1.8,1l1.3,9.5l2,0.5L193.4,275.5
		z"/>
	<path class="st3" d="M204.8,269.4c0.1,0.9,0,1.7-0.3,2.4c-0.3,0.8-0.9,1.4-1.7,1.9c-0.8,0.5-1.8,0.9-3.1,1
		c-0.9,0.1-1.7,0.2-2.5,0.1c-0.7-0.1-1.4-0.2-2.2-0.4l-0.4-3.3c0.8,0.3,1.6,0.4,2.5,0.6c0.8,0.1,1.6,0.2,2.4,0.1
		c0.7-0.1,1.2-0.3,1.5-0.6c0.3-0.3,0.4-0.7,0.3-1.1c-0.1-0.5-0.4-0.9-0.9-1.1c-0.5-0.2-1.3-0.5-2.3-0.8c-0.6-0.2-1.3-0.4-1.9-0.7
		c-0.6-0.3-1.1-0.7-1.6-1.2c-0.4-0.5-0.7-1.2-0.8-2.2c-0.2-1.4,0.2-2.6,1-3.5c0.9-0.9,2.1-1.4,3.8-1.7c0.9-0.1,1.7-0.1,2.5,0
		c0.8,0.1,1.6,0.3,2.3,0.5l-0.8,3c-0.7-0.2-1.4-0.4-2-0.4c-0.6-0.1-1.2-0.1-1.8,0c-0.6,0.1-1,0.3-1.3,0.5c-0.3,0.3-0.4,0.6-0.3,1
		c0,0.3,0.2,0.5,0.4,0.7c0.2,0.2,0.6,0.4,1,0.5c0.5,0.2,1.1,0.4,1.8,0.6c0.8,0.2,1.5,0.5,2.1,0.8c0.6,0.3,1.1,0.7,1.4,1.2
		S204.7,268.6,204.8,269.4z"/>
	<path class="st3" d="M206.1,269.4l-0.4-2.9l5.7-0.8l0.4,2.9L206.1,269.4z"/>
	<path class="st3" d="M221.3,271.7l-5-11l-0.1,0c0.1,0.3,0.2,0.7,0.3,1.2c0.1,0.5,0.2,1.1,0.3,1.7c0.1,0.6,0.2,1.2,0.3,1.7l0.9,6.9
		l-3.2,0.4l-2.1-15.2l4.9-0.7l4.9,10.8l0.1,0l2-11.7l4.9-0.7l2.1,15.2l-3.4,0.5l-0.9-7c-0.1-0.5-0.1-1-0.2-1.6
		c-0.1-0.6-0.1-1.2-0.2-1.7c0-0.5-0.1-0.9-0.1-1.2l-0.1,0l-2,12L221.3,271.7z"/>
	<path class="st3" d="M248.2,260.3c0.2,1.6,0.1,3-0.2,4.2c-0.4,1.2-1,2.3-2,3.1c-1,0.8-2.3,1.3-4,1.5c-1.7,0.2-3.1,0.1-4.3-0.4
		c-1.2-0.5-2.1-1.3-2.8-2.4c-0.7-1.1-1.1-2.5-1.3-4c-0.2-1.6-0.1-3,0.2-4.2c0.4-1.2,1-2.3,2-3c1-0.8,2.3-1.3,4-1.5
		c1.7-0.2,3.1-0.1,4.3,0.4c1.2,0.5,2.1,1.3,2.7,2.4C247.5,257.4,247.9,258.7,248.2,260.3z M237.3,261.8c0.2,1.5,0.6,2.6,1.3,3.4
		c0.7,0.8,1.6,1.1,2.9,0.9c1.3-0.2,2.1-0.7,2.5-1.6c0.4-0.9,0.5-2.1,0.3-3.6c-0.2-1.5-0.6-2.6-1.3-3.4c-0.6-0.8-1.6-1.1-2.9-0.9
		s-2.1,0.7-2.5,1.7C237.2,259.1,237.1,260.3,237.3,261.8z"/>
	<path class="st3" d="M266.1,265.7l-4.7,0.6l-7.7-10.3l-0.1,0c0.1,0.3,0.1,0.6,0.2,1.1c0.1,0.5,0.2,0.9,0.3,1.5
		c0.1,0.5,0.2,1,0.3,1.5l0.9,7l-3.2,0.4l-2.1-15.2l4.7-0.6l7.6,10.2l0.1,0c0-0.3-0.1-0.6-0.2-1c-0.1-0.4-0.2-0.9-0.3-1.4
		c-0.1-0.5-0.2-1-0.2-1.5l-1-7.1l3.3-0.4L266.1,265.7z"/>
	<path class="st3" d="M279.1,263.9l-1.4-3.1l-5.3,0.7l-0.5,3.4l-4,0.5l3.1-16l4.7-0.6l7.3,14.6L279.1,263.9z M276.5,257.9l-1.3-2.9
		c-0.1-0.2-0.2-0.6-0.4-1c-0.2-0.4-0.4-0.8-0.5-1.3s-0.3-0.8-0.4-1.1c0,0.3-0.1,0.7-0.1,1.2c-0.1,0.5-0.1,0.9-0.2,1.4
		c-0.1,0.4-0.1,0.8-0.1,1.1l-0.5,3.2L276.5,257.9z"/>
	<path class="st3" d="M289.6,262.5L286,263l-1.6-12.2l-4,0.5l-0.4-3l11.5-1.6l0.4,3l-4,0.5L289.6,262.5z"/>
	<path class="st3" d="M304.7,260.5l-8.9,1.2l-2.1-15.2l8.9-1.2l0.4,2.9l-5.3,0.7l0.4,2.9l4.9-0.7l0.4,2.9l-4.9,0.7l0.5,3.4l5.3-0.7
		L304.7,260.5z"/>
	<path class="st3" d="M311.7,253.5c0.2,1.7,0.2,3.4,0,5.1s-0.8,3.2-1.7,4.6l-2.9,0.4c0.8-1.4,1.3-3,1.5-4.7c0.2-1.7,0.3-3.4,0-5
		c-0.2-1.7-0.7-3.3-1.4-4.9c-0.7-1.6-1.6-3-2.7-4.2l3-0.4c1.3,1.1,2.2,2.5,2.9,4.1S311.5,251.7,311.7,253.5z"/>
	<path class="st3" d="M91.3,336.6c-0.7,0.1-1.2,0.1-1.7,0.1c-0.5,0-0.9,0-1.2-0.1l-0.6-4.2c0.3,0,0.7,0,1.1,0.1c0.4,0,0.8,0,1.2,0
		c0.9-0.1,1.6-0.5,2-1.1c0.4-0.6,0.5-1.7,0.3-3.2l-2.7-20.4l5.2-0.7l2.7,20.1c0.3,2,0.2,3.7-0.3,5c-0.5,1.3-1.2,2.3-2.2,3
		C94,335.9,92.8,336.4,91.3,336.6z"/>
	<path class="st3" d="M115.7,326.6l-12.8,1.7l-2.9-21.9l12.8-1.7l0.6,4.2l-7.6,1l0.6,4.2l7-0.9l0.6,4.2l-7,0.9l0.7,4.9l7.6-1
		L115.7,326.6z"/>
	<path class="st3" d="M128.9,324.8l-5.2,0.7l-2.4-17.6l-5.7,0.8l-0.6-4.3l16.5-2.2l0.6,4.3l-5.7,0.8L128.9,324.8z"/>
	<path class="st3" d="M152.7,321.6l-16.6,2.2l-0.4-3.3l8.1-15.7l-9.8,1.3l-0.6-4.3l16.1-2.2l0.4,3.3l-8.1,15.7l10.3-1.4L152.7,321.6
		z"/>
	<path class="st3" d="M165,319.9l-5.2,0.7l-2.4-17.6l-5.7,0.8l-0.6-4.3l16.5-2.2l0.6,4.3l-5.7,0.8L165,319.9z"/>
	<path class="st3" d="M200.2,315.2l-5.2,0.7l-1.2-9.2l-7.8,1.1l1.2,9.2l-5.2,0.7l-2.9-21.9l5.2-0.7l1.1,8.4l7.8-1.1l-1.1-8.4
		l5.2-0.7L200.2,315.2z"/>
	<path class="st3" d="M224,300.8c0.3,2.3,0.2,4.3-0.3,6.1c-0.5,1.8-1.5,3.3-2.9,4.4c-1.4,1.1-3.3,1.9-5.8,2.2
		c-2.4,0.3-4.5,0.1-6.1-0.6c-1.7-0.7-3-1.9-4-3.5c-1-1.6-1.6-3.5-1.9-5.8c-0.3-2.3-0.2-4.3,0.3-6.1c0.5-1.8,1.5-3.2,2.9-4.4
		c1.4-1.1,3.4-1.9,5.8-2.2s4.5-0.1,6.1,0.6s3,1.9,3.9,3.5C223.1,296.6,223.7,298.5,224,300.8z M208.5,302.9c0.3,2.1,0.9,3.8,1.9,4.9
		c1,1.1,2.3,1.6,4.1,1.3c1.8-0.2,3-1,3.6-2.4c0.6-1.3,0.8-3.1,0.5-5.2c-0.3-2.1-0.9-3.8-1.8-4.9c-0.9-1.1-2.3-1.6-4.1-1.3
		c-1.8,0.2-3,1-3.6,2.4C208.4,299,208.2,300.8,208.5,302.9z"/>
	<path class="st3" d="M229.8,311.2l-2.9-21.9l5.2-0.7l2.4,17.6l8.7-1.2l0.6,4.3L229.8,311.2z"/>
	<path class="st3" d="M260.1,307.1l-12.8,1.7l-2.9-21.9l12.8-1.7l0.6,4.2l-7.6,1l0.6,4.2l7-0.9l0.6,4.2l-7,0.9l0.7,4.9l7.6-1
		L260.1,307.1z"/>
	<path class="st3" d="M284.4,303.9l-6.7,0.9l-11-14.8l-0.1,0c0.1,0.4,0.2,0.9,0.3,1.6c0.1,0.6,0.2,1.4,0.4,2.1
		c0.1,0.8,0.3,1.5,0.4,2.2l1.4,10.1l-4.7,0.6l-2.9-21.9l6.7-0.9l10.9,14.7l0.1,0c-0.1-0.4-0.2-0.9-0.3-1.5c-0.1-0.6-0.2-1.3-0.4-2.1
		s-0.2-1.4-0.3-2.1l-1.4-10.1l4.7-0.6L284.4,303.9z"/>
	<path class="st3" d="M292.5,295.2l-4.3,0.6l-2.7-14.3l5.8-0.8L292.5,295.2z M288.2,301c-0.1-1,0.1-1.7,0.6-2.2
		c0.5-0.5,1.2-0.8,2-0.9c0.8-0.1,1.5,0,2.1,0.3c0.6,0.3,1,1,1.1,2c0.1,1-0.1,1.7-0.5,2.2c-0.5,0.5-1.1,0.8-1.9,0.9
		c-0.8,0.1-1.5,0-2.1-0.4C288.7,302.6,288.3,302,288.2,301z"/>
</g>
<text id="EN_Text_2_" transform="matrix(0.9911 -0.1333 0.1333 0.9911 139.7454 102.1275)" class="st2"><tspan x="0" y="0" class="st3 st4 st5">THE</tspan><tspan x="-75" y="37.5" class="st3 st4 st6">ANYDESK</tspan><tspan x="-105.1" y="99.3" class="st3 st4 st7">SUMMER</tspan><tspan x="-104.1" y="151.8" class="st3 st4 st11">SPECIAL</tspan><tspan x="-112.4" y="178.9" class="st3 st4 st9">(TWO MONTHS FOR FREE)</tspan><tspan x="-77.9" y="219.2" class="st3 st4 st12">GET THEM NOW!</tspan></text>
<g id="EN_Text">
	<path class="st1" d="M149.2,100.9l-4.3,0.6L143,87.1l-4.6,0.6l-0.5-3.5l13.5-1.8l0.5,3.5l-4.6,0.6L149.2,100.9z"/>
	<path class="st1" d="M171.5,97.9l-4.3,0.6l-1-7.5l-6.4,0.9l1,7.5l-4.3,0.6L154.1,82l4.3-0.6l0.9,6.8l6.4-0.9l-0.9-6.8l4.3-0.6
		L171.5,97.9z"/>
	<path class="st1" d="M186.1,95.9l-10.5,1.4l-2.4-17.9l10.5-1.4l0.5,3.5l-6.2,0.8l0.5,3.4l5.7-0.8l0.5,3.5l-5.7,0.8l0.5,4l6.2-0.8
		L186.1,95.9z"/>
	<path class="st1" d="M92.2,146.3l-2.7-6.1l-10.3,1.4l-1,6.6l-7.8,1l6.1-31.3l9.1-1.2l14.3,28.6L92.2,146.3z M87.1,134.5l-2.6-5.7
		c-0.2-0.5-0.5-1.1-0.8-2c-0.4-0.8-0.7-1.7-1.1-2.5c-0.4-0.9-0.6-1.6-0.9-2.2c-0.1,0.6-0.1,1.4-0.2,2.4c-0.1,0.9-0.2,1.8-0.3,2.7
		c-0.1,0.9-0.2,1.6-0.3,2.1l-1,6.2L87.1,134.5z"/>
	<path class="st1" d="M130.8,141.1l-9.2,1.2l-15-20.2l-0.2,0c0.1,0.5,0.2,1.2,0.4,2.1c0.2,0.9,0.3,1.8,0.5,2.9c0.2,1,0.4,2,0.5,3
		l1.9,13.8l-6.4,0.9l-4-29.8l9.1-1.2l14.9,20l0.1,0c-0.1-0.5-0.2-1.2-0.4-2c-0.2-0.9-0.3-1.8-0.5-2.8c-0.2-1-0.3-2-0.5-2.9
		l-1.9-13.8l6.4-0.9L130.8,141.1z"/>
	<path class="st1" d="M145.3,120.8l4.1-12.5l7.7-1l-7.4,19.5l1.6,11.6l-7.1,1l-1.5-11.4l-12.3-17.1l7.7-1L145.3,120.8z"/>
	<path class="st1" d="M187.6,117.9c0.7,5.1-0.2,9.2-2.7,12.1c-2.5,2.9-6.2,4.8-11.2,5.4l-9,1.2l-4-29.8l9.8-1.3
		c4.7-0.6,8.6,0.1,11.6,2.2C185.1,109.7,186.9,113.1,187.6,117.9z M180.2,119.1c-0.4-3-1.4-5.2-2.8-6.5c-1.5-1.3-3.5-1.7-6-1.4
		l-2.9,0.4l2.4,18.2l2.3-0.3c2.8-0.4,4.8-1.4,5.9-3.2C180.3,124.6,180.7,122.2,180.2,119.1z"/>
	<path class="st1" d="M212.9,130.1l-17.4,2.3l-4-29.8l17.4-2.3l0.8,5.8l-10.3,1.4l0.8,5.7l9.6-1.3l0.8,5.8l-9.6,1.3l0.9,6.7
		l10.3-1.4L212.9,130.1z"/>
	<path class="st1" d="M235.9,118.2c0.2,1.7,0,3.3-0.6,4.8c-0.7,1.5-1.8,2.7-3.3,3.8c-1.6,1-3.6,1.7-6.1,2c-1.8,0.2-3.4,0.3-4.8,0.2
		c-1.4-0.1-2.8-0.4-4.2-0.8l-0.9-6.5c1.6,0.5,3.2,0.9,4.9,1.1c1.6,0.3,3.2,0.3,4.6,0.1c1.4-0.2,2.4-0.6,2.9-1.2s0.7-1.3,0.6-2.1
		c-0.1-1-0.7-1.7-1.8-2.1c-1-0.5-2.5-1-4.4-1.6c-1.2-0.4-2.5-0.9-3.7-1.4c-1.2-0.6-2.2-1.4-3.1-2.4c-0.8-1-1.4-2.4-1.6-4.2
		c-0.4-2.8,0.3-5,2-6.8c1.7-1.7,4.2-2.8,7.4-3.3c1.7-0.2,3.4-0.3,4.9-0.1c1.5,0.2,3.1,0.5,4.5,0.9l-1.5,5.9
		c-1.4-0.4-2.7-0.7-3.9-0.9c-1.2-0.2-2.3-0.2-3.4,0c-1.1,0.2-2,0.5-2.5,1.1c-0.5,0.5-0.7,1.2-0.6,1.9c0.1,0.6,0.3,1.1,0.8,1.4
		c0.4,0.4,1.1,0.7,2,1.1s2.1,0.7,3.5,1.2c1.6,0.5,2.9,1,4.1,1.7c1.2,0.6,2.1,1.4,2.8,2.4C235.3,115.4,235.7,116.7,235.9,118.2z"/>
	<path class="st1" d="M266.8,122.8l-8.1,1.1l-8.5-11.1l-2.3,2l1.4,10.4l-7.1,1l-4-29.8l7.1-1l1.8,13.3c0.3-0.7,0.6-1.3,0.9-2
		c0.3-0.7,0.7-1.3,1-2l6-10.7l7.8-1.1l-8.2,14.6L266.8,122.8z"/>
	<path class="st1" d="M77.5,198.6c0.3,2.3,0,4.5-0.9,6.6c-0.9,2.1-2.4,3.8-4.6,5.2c-2.2,1.4-5,2.3-8.5,2.8c-2.5,0.3-4.7,0.4-6.6,0.2
		c-2-0.2-3.9-0.6-5.8-1.2l-1.2-8.9c2.2,0.7,4.4,1.2,6.7,1.6c2.3,0.4,4.4,0.4,6.4,0.1c1.9-0.3,3.2-0.8,4-1.6c0.7-0.8,1-1.8,0.9-2.9
		c-0.2-1.3-1-2.3-2.4-3c-1.4-0.6-3.5-1.4-6.1-2.2c-1.7-0.6-3.4-1.2-5-2c-1.6-0.8-3.1-1.9-4.2-3.3c-1.2-1.4-1.9-3.4-2.2-5.8
		c-0.5-3.8,0.4-7,2.8-9.3c2.4-2.4,5.8-3.9,10.2-4.5c2.4-0.3,4.6-0.3,6.8-0.1c2.1,0.3,4.2,0.7,6.2,1.3l-2.1,8.1c-2-0.6-3.8-1-5.4-1.2
		s-3.2-0.2-4.7,0c-1.6,0.2-2.7,0.7-3.4,1.5c-0.7,0.8-1,1.6-0.8,2.6c0.1,0.8,0.5,1.5,1.1,2c0.6,0.5,1.5,1,2.8,1.5
		c1.2,0.5,2.9,1,4.9,1.6c2.2,0.6,4,1.4,5.6,2.3c1.6,0.9,2.9,2,3.8,3.4C76.6,194.7,77.2,196.5,77.5,198.6z"/>
	<path class="st1" d="M114.6,163.9l3.5,25.7c0.4,3.1,0.2,5.9-0.8,8.5c-0.9,2.6-2.6,4.7-5,6.4c-2.4,1.7-5.5,2.8-9.4,3.3
		c-5.5,0.7-9.9-0.1-13.2-2.6c-3.3-2.4-5.3-6.1-5.9-11l-3.5-25.8l9.8-1.3l3.3,24.7c0.4,3.2,1.4,5.4,2.8,6.5c1.4,1.2,3.4,1.6,5.8,1.2
		c2.6-0.3,4.3-1.3,5.3-2.9c1-1.6,1.3-3.9,0.9-6.9l-3.3-24.6L114.6,163.9z"/>
	<path class="st1" d="M147.2,201.3l-13.4-29.8l-0.2,0c0.2,0.8,0.4,1.9,0.7,3.3c0.3,1.4,0.6,3,0.9,4.6c0.3,1.6,0.5,3.1,0.7,4.5
		l2.5,18.5l-8.8,1.2l-5.5-41.1l13.2-1.8l13.2,29.2l0.2,0l5.4-31.7l13.2-1.8l5.5,41.1l-9.1,1.2l-2.5-18.8c-0.2-1.3-0.3-2.8-0.5-4.4
		c-0.2-1.6-0.3-3.1-0.4-4.6c-0.1-1.4-0.2-2.6-0.3-3.3l-0.2,0l-5.3,32.2L147.2,201.3z"/>
	<path class="st1" d="M202.1,193.9l-13.4-29.8l-0.2,0c0.2,0.8,0.4,1.9,0.7,3.3c0.3,1.4,0.6,3,0.9,4.6c0.3,1.6,0.5,3.1,0.7,4.5
		l2.5,18.5l-8.7,1.2l-5.5-41.1l13.2-1.8l13.2,29.2l0.2,0l5.4-31.7l13.2-1.8l5.5,41.1l-9.1,1.2l-2.5-18.8c-0.2-1.3-0.3-2.8-0.5-4.4
		c-0.2-1.6-0.3-3.1-0.4-4.6c-0.1-1.4-0.2-2.6-0.3-3.3l-0.2,0l-5.3,32.2L202.1,193.9z"/>
	<path class="st1" d="M263.4,185.7l-24,3.2l-5.5-41.1l24-3.2l1.1,7.9l-14.2,1.9l1.1,7.9l13.2-1.8l1.1,7.9l-13.2,1.8l1.2,9.3
		l14.2-1.9L263.4,185.7z"/>
	<path class="st1" d="M278.5,141.8c11.1-1.5,17.1,1.9,18.2,10c0.4,2.7,0,5-1.2,7c-1.2,2-2.7,3.6-4.7,5l14.4,16.3l-11,1.5l-11.3-14.2
		l-3.9,0.5l2.1,15.4l-9.8,1.3l-5.5-41.1L278.5,141.8z M279.1,149.6l-2.5,0.3l1.4,10.3l2.5-0.3c2.3-0.3,4-1,5.1-2
		c1.1-1,1.5-2.5,1.2-4.4c-0.2-1.7-0.9-2.8-2.2-3.5C283.4,149.4,281.6,149.3,279.1,149.6z"/>
	<path class="st1" d="M87.8,249.1c0.3,2.5,0,4.9-0.9,7.1c-1,2.2-2.6,4.1-4.9,5.6c-2.3,1.5-5.4,2.5-9.2,3c-2.7,0.4-5,0.4-7.2,0.3
		c-2.1-0.2-4.2-0.6-6.3-1.2l-1.3-9.6c2.4,0.7,4.8,1.3,7.2,1.7c2.4,0.4,4.7,0.4,6.9,0.1c2.1-0.3,3.5-0.9,4.3-1.7
		c0.8-0.9,1.1-1.9,0.9-3.1c-0.2-1.5-1.1-2.5-2.6-3.2c-1.5-0.7-3.8-1.5-6.6-2.3c-1.9-0.6-3.7-1.3-5.5-2.1c-1.8-0.8-3.3-2-4.6-3.6
		c-1.3-1.5-2.1-3.6-2.4-6.3c-0.6-4.1,0.4-7.5,3-10.1c2.6-2.6,6.3-4.2,11.1-4.8c2.6-0.3,5-0.4,7.3-0.1c2.3,0.3,4.5,0.7,6.7,1.4
		l-2.2,8.7c-2.1-0.6-4.1-1-5.8-1.3c-1.8-0.2-3.5-0.3-5.1,0c-1.7,0.2-2.9,0.8-3.7,1.6c-0.7,0.8-1,1.8-0.9,2.8
		c0.1,0.9,0.5,1.6,1.2,2.2c0.7,0.6,1.7,1.1,3,1.6c1.3,0.5,3.1,1.1,5.2,1.8c2.3,0.7,4.4,1.5,6.1,2.5c1.7,0.9,3.1,2.2,4.2,3.6
		C86.8,245,87.5,246.9,87.8,249.1z"/>
	<path class="st1" d="M105.8,214.6c5.7-0.8,10-0.1,13.1,2c3,2.1,4.9,5.3,5.5,9.8c0.4,2.6,0.1,5.1-0.6,7.6c-0.8,2.4-2.3,4.6-4.6,6.3
		s-5.6,2.9-9.9,3.5l-3.7,0.5l2.1,15.3L97.1,261l-6-44.4L105.8,214.6z M106.6,223.3l-3.8,0.5l1.6,11.8l2.8-0.4c2.2-0.3,3.9-1,5.1-2.1
		c1.2-1.1,1.7-2.8,1.4-5C113.2,224.3,110.9,222.7,106.6,223.3z"/>
	<path class="st1" d="M162.2,252.2l-25.9,3.5l-6-44.4l25.9-3.5l1.2,8.6l-15.4,2.1l1.1,8.5l14.2-1.9l1.2,8.6l-14.2,1.9l1.3,10
		l15.4-2.1L162.2,252.2z"/>
	<path class="st1" d="M185.2,212.2c-3.3,0.4-5.6,2-7.1,4.8c-1.4,2.7-1.8,6.3-1.2,10.8c0.6,4.5,1.9,7.9,3.9,10c2,2.2,4.8,3,8.4,2.5
		c1.9-0.3,3.7-0.7,5.4-1.5c1.8-0.7,3.6-1.6,5.5-2.6l1.2,9c-1.8,1.1-3.7,2-5.7,2.6c-1.9,0.6-4.1,1.1-6.4,1.4c-4.7,0.6-8.7,0.2-12-1.3
		s-5.8-3.9-7.7-7.1c-1.9-3.2-3.1-7.1-3.8-11.7c-0.6-4.5-0.3-8.5,0.9-12.2c1.2-3.7,3.2-6.7,6.1-9.1c2.9-2.4,6.6-3.9,11.1-4.5
		c2.2-0.3,4.5-0.3,6.8-0.1c2.4,0.2,4.7,0.7,6.9,1.4l-2.2,8.9c-1.8-0.6-3.5-1-5.2-1.3C188.7,212,186.9,212,185.2,212.2z"/>
	<path class="st1" d="M229.2,243.2l-21.6,2.9l-0.8-6l5.2-3l-3.7-27.7l-5.8-1.6l-0.8-6l21.6-2.9l0.8,6l-5.2,3l3.7,27.7l5.8,1.6
		L229.2,243.2z"/>
	<path class="st1" d="M263.7,238.6l-4-9.1l-15.4,2.1l-1.5,9.9l-11.6,1.6l9.1-46.6l13.6-1.8l21.3,42.5L263.7,238.6z M256.1,220.9
		l-3.8-8.5c-0.3-0.7-0.7-1.7-1.2-2.9c-0.5-1.2-1-2.5-1.6-3.7c-0.5-1.3-1-2.4-1.3-3.2c-0.1,0.9-0.2,2.1-0.4,3.5
		c-0.2,1.4-0.3,2.7-0.5,4.1c-0.2,1.3-0.3,2.3-0.4,3.1l-1.4,9.2L256.1,220.9z"/>
	<path class="st1" d="M280.5,236.3l-6-44.4l10.6-1.4l4.8,35.8l17.6-2.4l1.2,8.6L280.5,236.3z"/>
	<path class="st1" d="M52.3,288.4c-0.2-1.7-0.2-3.5,0-5.2c0.3-1.7,0.8-3.3,1.7-4.7l3-0.4c-0.8,1.5-1.3,3.1-1.6,4.8
		c-0.2,1.7-0.3,3.4,0,5.1c0.2,1.7,0.7,3.3,1.4,4.8c0.7,1.6,1.6,3,2.7,4.1l-2.9,0.4c-1.3-1.1-2.2-2.4-2.9-4
		C53,291.7,52.5,290.1,52.3,288.4z"/>
	<path class="st1" d="M67.8,292.4l-3.6,0.5l-1.6-12.2l-4,0.5l-0.4-3l11.5-1.6l0.4,3l-4,0.5L67.8,292.4z"/>
	<path class="st1" d="M91.4,273.7l-1.8,15.8l-4.2,0.6l-2.8-7.1c0-0.1-0.1-0.4-0.2-0.7c-0.1-0.3-0.2-0.6-0.4-1
		c-0.1-0.4-0.2-0.7-0.3-1.1c-0.1-0.3-0.2-0.6-0.2-0.8c0,0.2,0,0.5,0,0.9c0,0.4,0,0.7-0.1,1.1c0,0.4,0,0.7-0.1,1s0,0.6-0.1,0.7
		l-0.8,7.6l-4.2,0.6l-5.9-14.7l3.5-0.5l2.9,7.8c0.1,0.3,0.3,0.7,0.4,1.2c0.2,0.5,0.3,1,0.5,1.5c0.2,0.5,0.3,0.9,0.4,1.3
		c0-0.5,0-1,0-1.6c0-0.6,0.1-1.2,0.1-1.8c0-0.6,0.1-1.1,0.1-1.4l0.8-7.5l3.4-0.5l2.8,7c0.1,0.2,0.2,0.5,0.3,0.9
		c0.1,0.4,0.3,0.8,0.4,1.3s0.3,0.9,0.4,1.3c0.1,0.4,0.2,0.8,0.3,1.1c0-0.4,0-0.8,0-1.3c0-0.5,0.1-1,0.1-1.5c0-0.5,0.1-0.9,0.1-1.2
		l0.7-8.3L91.4,273.7z"/>
	<path class="st1" d="M108.1,279.1c0.2,1.6,0.1,3-0.2,4.2c-0.4,1.2-1,2.3-2,3.1c-1,0.8-2.3,1.3-4,1.5c-1.7,0.2-3.1,0.1-4.3-0.4
		c-1.2-0.5-2.1-1.3-2.8-2.4c-0.7-1.1-1.1-2.5-1.3-4c-0.2-1.6-0.1-3,0.2-4.2c0.4-1.2,1-2.3,2-3s2.3-1.3,4-1.5
		c1.7-0.2,3.1-0.1,4.3,0.4c1.2,0.5,2.1,1.3,2.7,2.4C107.5,276.2,107.9,277.6,108.1,279.1z M97.3,280.6c0.2,1.5,0.6,2.6,1.3,3.4
		c0.7,0.8,1.6,1.1,2.9,0.9c1.3-0.2,2.1-0.7,2.5-1.6c0.4-0.9,0.5-2.1,0.3-3.6c-0.2-1.5-0.6-2.6-1.3-3.4c-0.6-0.8-1.6-1.1-2.9-0.9
		c-1.3,0.2-2.1,0.7-2.5,1.7C97.2,277.9,97.1,279.1,97.3,280.6z"/>
	<path class="st1" d="M124.2,284.8l-5-11l-0.1,0c0.1,0.3,0.1,0.7,0.3,1.2c0.1,0.5,0.2,1.1,0.3,1.7c0.1,0.6,0.2,1.2,0.3,1.7l0.9,6.9
		l-3.2,0.4l-2.1-15.2l4.9-0.7l4.9,10.8l0.1,0l2-11.7l4.9-0.7l2.1,15.2l-3.4,0.5l-0.9-7c-0.1-0.5-0.1-1-0.2-1.6
		c-0.1-0.6-0.1-1.2-0.2-1.7c-0.1-0.5-0.1-0.9-0.1-1.2l-0.1,0l-2,12L124.2,284.8z"/>
	<path class="st1" d="M151.1,273.4c0.2,1.6,0.1,3-0.2,4.2c-0.4,1.2-1,2.3-2,3.1c-1,0.8-2.3,1.3-4,1.5c-1.7,0.2-3.1,0.1-4.3-0.4
		c-1.2-0.5-2.1-1.3-2.8-2.4c-0.7-1.1-1.1-2.5-1.3-4c-0.2-1.6-0.1-3,0.2-4.2c0.4-1.2,1-2.3,2-3c1-0.8,2.3-1.3,4-1.5
		c1.7-0.2,3.1-0.1,4.3,0.4c1.2,0.5,2.1,1.3,2.7,2.4C150.4,270.4,150.8,271.8,151.1,273.4z M140.2,274.8c0.2,1.5,0.6,2.6,1.3,3.4
		c0.7,0.8,1.6,1.1,2.9,0.9c1.3-0.2,2.1-0.7,2.5-1.6c0.4-0.9,0.5-2.1,0.3-3.6c-0.2-1.5-0.6-2.6-1.3-3.4c-0.6-0.8-1.6-1.1-2.9-0.9
		c-1.3,0.2-2.1,0.7-2.5,1.7C140.1,272.1,140,273.3,140.2,274.8z"/>
	<path class="st1" d="M169,278.7l-4.7,0.6l-7.7-10.3l-0.1,0c0.1,0.3,0.1,0.6,0.2,1.1c0.1,0.5,0.2,0.9,0.3,1.5c0.1,0.5,0.2,1,0.3,1.5
		l0.9,7l-3.2,0.4l-2.1-15.2l4.7-0.6l7.6,10.2l0.1,0c0-0.3-0.1-0.6-0.2-1c-0.1-0.4-0.2-0.9-0.3-1.4s-0.2-1-0.2-1.5l-1-7.1l3.3-0.4
		L169,278.7z"/>
	<path class="st1" d="M178.9,277.4l-3.6,0.5l-1.6-12.2l-4,0.5l-0.4-3l11.5-1.6l0.4,3l-4,0.5L178.9,277.4z"/>
	<path class="st1" d="M197.9,274.9l-3.6,0.5l-0.9-6.4l-5.5,0.7l0.9,6.4l-3.7,0.5l-2.1-15.2l3.7-0.5l0.8,5.8l5.5-0.7l-0.8-5.8
		l3.6-0.5L197.9,274.9z"/>
	<path class="st1" d="M210.3,268.7c0.1,0.9,0,1.7-0.3,2.4c-0.3,0.8-0.9,1.4-1.7,1.9s-1.8,0.9-3.1,1c-0.9,0.1-1.7,0.2-2.5,0.1
		c-0.7-0.1-1.4-0.2-2.2-0.4l-0.4-3.3c0.8,0.3,1.6,0.4,2.5,0.6c0.8,0.1,1.6,0.2,2.4,0.1c0.7-0.1,1.2-0.3,1.5-0.6
		c0.3-0.3,0.4-0.7,0.3-1.1c-0.1-0.5-0.4-0.9-0.9-1.1c-0.5-0.2-1.3-0.5-2.3-0.8c-0.6-0.2-1.3-0.4-1.9-0.7c-0.6-0.3-1.1-0.7-1.6-1.2
		c-0.4-0.5-0.7-1.2-0.8-2.2c-0.2-1.4,0.2-2.6,1-3.5c0.9-0.9,2.1-1.4,3.8-1.7c0.9-0.1,1.7-0.1,2.5,0c0.8,0.1,1.6,0.3,2.3,0.5l-0.8,3
		c-0.7-0.2-1.4-0.4-2-0.4c-0.6-0.1-1.2-0.1-1.8,0c-0.6,0.1-1,0.3-1.3,0.5c-0.3,0.3-0.4,0.6-0.3,1c0,0.3,0.2,0.5,0.4,0.7
		s0.6,0.4,1,0.5c0.5,0.2,1.1,0.4,1.8,0.6c0.8,0.2,1.5,0.5,2.1,0.8c0.6,0.3,1.1,0.7,1.4,1.2C210,267.3,210.2,267.9,210.3,268.7z"/>
	<path class="st1" d="M222.6,271.5L219,272l-2.1-15.2l8.9-1.2l0.4,2.9l-5.3,0.7l0.5,3.5l4.9-0.7l0.4,2.9l-4.9,0.7L222.6,271.5z"/>
	<path class="st1" d="M243.7,260.9c0.2,1.6,0.1,3-0.2,4.2c-0.4,1.2-1,2.3-2,3.1c-1,0.8-2.3,1.3-4,1.5c-1.7,0.2-3.1,0.1-4.3-0.4
		s-2.1-1.3-2.8-2.4c-0.7-1.1-1.1-2.5-1.3-4c-0.2-1.6-0.1-3,0.2-4.2c0.4-1.2,1-2.3,2-3s2.3-1.3,4-1.5c1.7-0.2,3.1-0.1,4.3,0.4
		c1.2,0.5,2.1,1.3,2.7,2.4C243,258,243.4,259.3,243.7,260.9z M232.8,262.4c0.2,1.5,0.6,2.6,1.3,3.4c0.7,0.8,1.6,1.1,2.9,0.9
		c1.3-0.2,2.1-0.7,2.5-1.6c0.4-0.9,0.5-2.1,0.3-3.6c-0.2-1.5-0.6-2.6-1.3-3.4c-0.6-0.8-1.6-1.1-2.9-0.9c-1.3,0.2-2.1,0.7-2.5,1.7
		C232.7,259.7,232.6,260.9,232.8,262.4z"/>
	<path class="st1" d="M250.3,252.3c4.1-0.6,6.4,0.7,6.8,3.7c0.1,1,0,1.9-0.4,2.6c-0.4,0.7-1,1.3-1.7,1.8l5.4,6l-4.1,0.5l-4.2-5.3
		l-1.4,0.2l0.8,5.7l-3.6,0.5l-2.1-15.2L250.3,252.3z M250.5,255.2l-0.9,0.1l0.5,3.8l0.9-0.1c0.9-0.1,1.5-0.4,1.9-0.7
		c0.4-0.4,0.5-0.9,0.4-1.6c-0.1-0.6-0.3-1-0.8-1.3C252.1,255.1,251.4,255,250.5,255.2z"/>
	<path class="st1" d="M271.1,265l-3.6,0.5l-2.1-15.2l8.9-1.2l0.4,2.9l-5.3,0.7l0.5,3.5l4.9-0.7l0.4,2.9l-4.9,0.7L271.1,265z"/>
	<path class="st1" d="M281.7,248c4.1-0.6,6.4,0.7,6.8,3.7c0.1,1,0,1.9-0.4,2.6c-0.4,0.7-1,1.3-1.7,1.8l5.4,6l-4.1,0.5l-4.2-5.3
		l-1.4,0.2l0.8,5.7l-3.6,0.5l-2.1-15.2L281.7,248z M282,250.9l-0.9,0.1l0.5,3.8l0.9-0.1c0.9-0.1,1.5-0.4,1.9-0.7s0.5-0.9,0.4-1.6
		c-0.1-0.6-0.4-1-0.8-1.3C283.6,250.9,282.9,250.8,282,250.9z"/>
	<path class="st1" d="M302.3,260.8l-8.9,1.2l-2.1-15.2l8.9-1.2l0.4,2.9l-5.3,0.7l0.4,2.9l4.9-0.7l0.4,2.9l-4.9,0.7l0.5,3.4l5.3-0.7
		L302.3,260.8z"/>
	<path class="st1" d="M314.1,259.2l-8.9,1.2l-2.1-15.2l8.9-1.2l0.4,2.9l-5.3,0.7l0.4,2.9l4.9-0.7l0.4,2.9l-4.9,0.7l0.5,3.4l5.3-0.7
		L314.1,259.2z"/>
	<path class="st1" d="M321.1,252.2c0.2,1.7,0.2,3.4,0,5.1c-0.3,1.7-0.8,3.2-1.7,4.6l-2.9,0.4c0.8-1.4,1.3-3,1.5-4.7
		c0.2-1.7,0.3-3.4,0-5c-0.2-1.7-0.7-3.3-1.4-4.9c-0.7-1.6-1.6-3-2.7-4.2l3-0.4c1.3,1.1,2.2,2.5,2.9,4.1
		C320.4,248.8,320.8,250.5,321.1,252.2z"/>
	<path class="st1" d="M99.5,318.4l7.3-1l1.3,9.3c-0.9,0.4-1.9,0.8-2.9,1.2c-1.1,0.3-2.2,0.6-3.5,0.8c-2.6,0.3-4.7-0.1-6.4-1.5
		c-1.7-1.3-2.8-3.5-3.2-6.5c-0.2-1.8-0.1-3.5,0.4-5c0.5-1.4,1.4-2.6,2.7-3.6s2.9-1.5,4.9-1.8c1-0.1,2-0.2,3-0.1
		c1,0.1,1.9,0.2,2.6,0.5l-0.9,3.5c-0.6-0.2-1.3-0.3-2-0.4c-0.7-0.1-1.5-0.1-2.2,0c-1.1,0.1-1.9,0.5-2.6,1.1
		c-0.7,0.6-1.1,1.3-1.4,2.2c-0.2,0.9-0.3,1.9-0.2,3c0.2,1.7,0.8,3,1.6,3.9c0.8,0.9,2,1.3,3.5,1.1c0.4-0.1,0.8-0.1,1.2-0.2
		c0.4-0.1,0.7-0.2,1-0.3l-0.4-3.3l-3.3,0.4L99.5,318.4z"/>
	<path class="st1" d="M122.5,325.6l-10.3,1.4l-2.4-17.7l10.3-1.4l0.5,3.4l-6.1,0.8l0.5,3.4l5.7-0.8l0.5,3.4l-5.7,0.8l0.5,4l6.1-0.8
		L122.5,325.6z"/>
	<path class="st1" d="M133.1,324.2l-4.2,0.6l-1.9-14.2l-4.6,0.6l-0.5-3.5l13.4-1.8l0.5,3.5l-4.6,0.6L133.1,324.2z"/>
	<path class="st1" d="M154.1,321.4l-4.2,0.6l-1.9-14.2l-4.6,0.6l-0.5-3.5l13.4-1.8l0.5,3.5l-4.6,0.6L154.1,321.4z"/>
	<path class="st1" d="M176.1,318.4l-4.2,0.6l-1-7.4l-6.3,0.9l1,7.4l-4.2,0.6l-2.4-17.7l4.2-0.6l0.9,6.8l6.3-0.9l-0.9-6.8l4.2-0.6
		L176.1,318.4z"/>
	<path class="st1" d="M190.6,316.5l-10.3,1.4l-2.4-17.7l10.3-1.4l0.5,3.4l-6.1,0.8l0.5,3.4l5.7-0.8l0.5,3.4l-5.7,0.8l0.5,4l6.1-0.8
		L190.6,316.5z"/>
	<path class="st1" d="M201.6,315l-5.8-12.8l-0.1,0c0.1,0.3,0.2,0.8,0.3,1.4c0.1,0.6,0.2,1.3,0.4,2s0.2,1.4,0.3,2l1.1,8L194,316
		l-2.4-17.7l5.7-0.8l5.7,12.6l0.1,0l2.3-13.6l5.7-0.8l2.4,17.7l-3.9,0.5l-1.1-8.1c-0.1-0.6-0.1-1.2-0.2-1.9c-0.1-0.7-0.1-1.3-0.2-2
		c-0.1-0.6-0.1-1.1-0.1-1.4l-0.1,0l-2.3,13.9L201.6,315z"/>
	<path class="st1" d="M240.3,309.8l-5.5,0.7l-8.9-12l-0.1,0c0.1,0.3,0.1,0.7,0.2,1.3c0.1,0.5,0.2,1.1,0.3,1.7
		c0.1,0.6,0.2,1.2,0.3,1.8l1.1,8.2l-3.8,0.5l-2.4-17.7l5.4-0.7l8.8,11.9l0.1,0c-0.1-0.3-0.1-0.7-0.2-1.2c-0.1-0.5-0.2-1.1-0.3-1.7
		c-0.1-0.6-0.2-1.2-0.3-1.7l-1.1-8.2l3.8-0.5L240.3,309.8z"/>
	<path class="st1" d="M259.6,298.2c0.2,1.8,0.2,3.5-0.2,4.9c-0.4,1.4-1.2,2.6-2.3,3.6c-1.1,0.9-2.7,1.5-4.7,1.8
		c-1.9,0.3-3.6,0.1-5-0.5c-1.4-0.6-2.4-1.5-3.2-2.8c-0.8-1.3-1.3-2.9-1.6-4.7c-0.2-1.8-0.2-3.5,0.3-4.9c0.4-1.4,1.2-2.6,2.4-3.5
		c1.2-0.9,2.7-1.5,4.7-1.8c2-0.3,3.6-0.1,5,0.5c1.3,0.6,2.4,1.5,3.2,2.8C258.8,294.8,259.3,296.3,259.6,298.2z M247,299.9
		c0.2,1.7,0.7,3.1,1.5,4c0.8,0.9,1.9,1.3,3.3,1.1c1.5-0.2,2.4-0.8,2.9-1.9c0.5-1.1,0.6-2.5,0.4-4.2s-0.7-3.1-1.5-4
		c-0.8-0.9-1.9-1.3-3.3-1.1c-1.5,0.2-2.4,0.8-2.9,1.9C246.9,296.7,246.8,298.1,247,299.9z"/>
	<path class="st1" d="M284.1,285.9l-2.1,18.3l-4.9,0.7l-3.2-8.3c-0.1-0.2-0.1-0.4-0.3-0.8c-0.1-0.4-0.3-0.7-0.4-1.2
		c-0.1-0.4-0.3-0.8-0.4-1.2s-0.2-0.7-0.3-1c0,0.3,0,0.6,0,1c0,0.4,0,0.8-0.1,1.3c0,0.4-0.1,0.8-0.1,1.2c0,0.4-0.1,0.6-0.1,0.8
		l-0.9,8.8l-4.9,0.7l-6.8-17.1l4.1-0.6l3.4,9c0.1,0.3,0.3,0.8,0.5,1.3s0.4,1.1,0.6,1.7c0.2,0.6,0.3,1.1,0.4,1.5c0-0.5,0-1.2,0-1.9
		c0-0.7,0.1-1.4,0.1-2.1c0-0.7,0.1-1.2,0.1-1.6l1-8.7l3.9-0.5l3.2,8.1c0.1,0.3,0.2,0.6,0.4,1.1c0.2,0.5,0.3,0.9,0.5,1.5
		c0.2,0.5,0.3,1,0.5,1.5c0.2,0.5,0.3,0.9,0.4,1.3c0-0.4,0-0.9,0-1.5c0-0.6,0.1-1.2,0.1-1.8c0-0.6,0.1-1.1,0.1-1.4l0.9-9.6
		L284.1,285.9z"/>
	<path class="st1" d="M291.1,296.8l-3.4,0.5l-2.2-11.6l4.7-0.6L291.1,296.8z M287.6,301.5c-0.1-0.8,0-1.4,0.5-1.8
		c0.4-0.4,0.9-0.6,1.6-0.7c0.6-0.1,1.2,0,1.7,0.3s0.8,0.8,0.9,1.6c0.1,0.8,0,1.4-0.4,1.8c-0.4,0.4-0.9,0.6-1.5,0.7
		c-0.6,0.1-1.2,0-1.7-0.3C288,302.8,287.7,302.3,287.6,301.5z"/>
</g>
</svg>
