<svg xmlns="http://www.w3.org/2000/svg" viewBox="0 0 117.42 243.28"><defs><style>.cls-2{fill:#fff}.cls-3{fill:#24126a}.cls-5{fill:#e9e9fd}.cls-6{fill:#4275fa}</style><linearGradient id="Безымянный_градиент_69" x1="52.15" y1="9.72" x2="52.15" y2="238.93" gradientUnits="userSpaceOnUse"><stop offset="0" stop-color="#4275fa"/><stop offset=".07" stop-color="#3c60db"/><stop offset=".17" stop-color="#3448b9"/><stop offset=".27" stop-color="#2e349c"/><stop offset=".38" stop-color="#2a2586"/><stop offset=".5" stop-color="#271a76"/><stop offset=".63" stop-color="#25146d"/><stop offset=".82" stop-color="#24126a"/></linearGradient></defs><g id="Слой_2" data-name="Слой 2"><g id="_1200" data-name="1200"><path d="M94.19 5.54L84.77.11a1.41 1.41 0 0 0-1.4.13L2.21 47.11A5.31 5.31 0 0 0 0 51.34V236a2 2 0 0 0 .78 1.78l9.42 5.42.2-10.27 73-42.13a5.28 5.28 0 0 0 2.21-4.22V10.39c.19.59.33 1 .35 1s8.23-5.85 8.23-5.85z" fill="#ccc"/><path class="cls-2" d="M.06 50.66l24.52 14.16 3.7-2.14L1.82 47.4a5.43 5.43 0 0 0-1.76 3.26z"/><path class="cls-2" d="M92.73 196.15L11.57 243c-1.22.71-2.21 0-2.21-1.67V56.73a5.28 5.28 0 0 1 2.21-4.22L92.73 5.65c1.22-.71 2.21 0 2.21 1.67v184.61a5.28 5.28 0 0 1-2.21 4.22z"/><path class="cls-3" d="M91.89 192.99l-79.47 45.94V75.48l79.47-48.65v166.16z"/><path fill="url(#Безымянный_градиент_69)" d="M91.89 192.99l-79.47 45.94V56.1L91.89 9.72v183.27z"/><path class="cls-5" d="M4.37 72.05L4.19 72a.76.76 0 0 0-.75-.07l-.66.39h.32a1.62 1.62 0 0 0-.09.57v10.65a2.85 2.85 0 0 0 1.18 2.26l.18.1a.86.86 0 0 0 .24.11l-.17.36.71-.37a1 1 0 0 0 .4-1V74.32a2.85 2.85 0 0 0-1.18-2.27z"/><path class="cls-2" d="M3.7 86.29l-.18-.1a2.83 2.83 0 0 1-1.19-2.27V73.23c0-.87.53-1.27 1.19-.89l.18.1a2.85 2.85 0 0 1 1.18 2.26v10.69c0 .88-.53 1.28-1.18.9z"/><path class="cls-6" d="M25.69 101.14l-3.85 2.05-3.9 2.09 3.88 7.08.02-.02v16.47l44.75-23.93V79.27l-40.9 21.87z"/><path class="cls-2" d="M53.26 93.25l-12.67 6.78v-2.75l12.67-6.77v2.74zM38.53 101.13l-12.67 6.78v-2.75l12.67-6.77v2.74zM58.8 95.03l-32.94 17.61v-2.74L58.8 92.29v2.74zM40.29 109.66l-14.43 7.72v-2.75l14.43-7.71v2.74zM48.13 110.64l-22.27 11.91v-2.75l22.27-11.91v2.75z"/><path fill="#88fff3" opacity=".75" d="M107.41 79.38l4.97-2.72 5.04-2.76-5 15.98-.04.01v23.83l-57.82 31.67v-37.06l52.85-28.95z"/><path class="cls-3" d="M83.57 102.37l-4.14 2.27v-3.97l4.14-2.27v3.97zM76.76 106.1l-16.37 8.96v-3.97l16.37-8.96v3.97zM102.31 98.95l-41.92 22.97v-3.97l41.92-22.97v3.97zM74.78 120.89l-14.39 7.88v-3.97l14.39-7.88v3.97zM95.35 109.62l-17.63 9.65v-3.97l17.63-9.65v3.97zM83.57 123.54l-23.18 12.7v-3.97l23.18-12.7v3.97z"/><path class="cls-6" d="M25.69 171.88l-3.85 2.06-3.9 2.08 3.88 7.08.02-.01v11.59l26.61-14.23v-20.74l-22.76 12.17z"/><path class="cls-2" d="M41.32 170.64l-15.46 8.27v-2.75l15.46-8.27v2.75zM35.09 179.1l-9.23 4.94v-2.74l9.23-4.94v2.74zM38.49 182.01l-12.63 6.76v-2.75l12.63-6.75v2.74z"/><path class="cls-5" d="M4.37 88.37l-.18-.1a.74.74 0 0 0-.75-.07l-.66.38h.32a1.53 1.53 0 0 0-.09.56v10.71a2.86 2.86 0 0 0 1.18 2.27l.18.1a1.28 1.28 0 0 0 .24.11l-.17.35.71-.4a1.06 1.06 0 0 0 .41-1V90.63a2.85 2.85 0 0 0-1.19-2.26z"/><path class="cls-2" d="M3.7 102.61l-.18-.11a2.81 2.81 0 0 1-1.19-2.26V89.55c0-.87.53-1.28 1.19-.9l.18.1A2.86 2.86 0 0 1 4.88 91v10.69c0 .89-.53 1.31-1.18.92zM78.9 190.88L25.56 220c-3.18 1.73-5.75.24-5.75-3.34a12.07 12.07 0 0 1 5.75-9.66l53.34-29.1c3.18-1.74 5.76-.24 5.76 3.33a12.11 12.11 0 0 1-5.76 9.65z"/><path d="M76.07 188.49l.61-3-.61-2.32 4.38.26z" fill="#ff6d33"/></g></g></svg>