<svg xmlns="http://www.w3.org/2000/svg" xmlns:xlink="http://www.w3.org/1999/xlink" viewBox="0 0 247.99 221.81"><defs><style>.cls-1{fill:none}.cls-3{font-size:8.11px;fill:#3076ff;font-family:TTNorms-ExtraBold,TTNorms ExtraBold;font-weight:800}.cls-4{fill:#88fff3}.cls-7{fill:#453c9e}.cls-12{fill:#01005a}.cls-15{fill:#24126a}.cls-27{fill:#9198db}.cls-54{fill:#0b0244}.cls-38{opacity:.3}.cls-30{fill:#312a91}.cls-38,.cls-48,.cls-52{fill:#42e8e0}.cls-39{fill:#5cfff3}.cls-39,.cls-52,.cls-56{opacity:.5}.cls-49{fill:#73fff5}.cls-51{fill:#7979d3}.cls-56,.cls-57{fill:#8aaeff}</style><linearGradient id="_ÂÁ_Ï_ÌÌ_È_ËÂÌÚ_3" x1="826.96" y1="-299.43" x2="929.71" y2="-299.43" gradientTransform="matrix(-.87 .5 .87 .5 1182.21 -147.12)" gradientUnits="userSpaceOnUse"><stop offset="0" stop-color="#c0bff6"/><stop offset=".29" stop-color="#c5c4f7"/><stop offset=".64" stop-color="#d3d2f9"/><stop offset="1" stop-color="#e9e9fd"/></linearGradient><linearGradient id="Безымянный_градиент_44" x1="1841.67" y1="140.71" x2="1925.24" y2="140.71" gradientTransform="matrix(-1 0 0 1 2068.31 0)" gradientUnits="userSpaceOnUse"><stop offset=".35" stop-color="#d9d9d9"/><stop offset=".61" stop-color="#d3d3d2"/><stop offset=".89" stop-color="#c6c6c5"/></linearGradient><linearGradient id="Безымянный_градиент_41" x1="811.74" y1="-313.11" x2="917.57" y2="-313.11" gradientTransform="matrix(-.87 .5 .87 .5 1182.21 -147.12)" gradientUnits="userSpaceOnUse"><stop offset="0" stop-color="#f5f5f5"/><stop offset="1" stop-color="#f5f5f5"/></linearGradient><linearGradient id="Безымянный_градиент_57" x1="95.33" y1="77.39" x2="177.88" y2="77.39" gradientUnits="userSpaceOnUse"><stop offset="0" stop-color="#d9d9d9"/><stop offset=".46" stop-color="#dedede"/><stop offset="1" stop-color="#ececec"/></linearGradient><linearGradient id="Безымянный_градиент_61" x1="95.33" y1="98.56" x2="109.51" y2="98.56" gradientUnits="userSpaceOnUse"><stop offset="0" stop-color="#b1b1b1"/><stop offset=".21" stop-color="#b2b2b6"/><stop offset=".45" stop-color="#b4b4c4"/><stop offset=".71" stop-color="#b7b8dc"/><stop offset=".98" stop-color="#bcbefd"/><stop offset="1" stop-color="#bcbeff"/></linearGradient><linearGradient id="Безымянный_градиент_54" x1="106.39" y1="122.36" x2="222.98" y2="122.36" gradientUnits="userSpaceOnUse"><stop offset="0" stop-color="#c6c6c5"/><stop offset=".31" stop-color="#cbcbca"/><stop offset=".67" stop-color="#d9d9d8"/><stop offset="1" stop-color="#ececec"/></linearGradient><linearGradient id="Безымянный_градиент_47" x1="145.56" y1="118.47" x2="262.21" y2="118.47" gradientUnits="userSpaceOnUse"><stop offset="0" stop-color="#ececec"/><stop offset=".71" stop-color="#f1f1f1"/><stop offset="1" stop-color="#f5f5f5"/></linearGradient><linearGradient id="Безымянный_градиент_49" x1="165.32" y1="125.09" x2="195.18" y2="125.09" gradientUnits="userSpaceOnUse"><stop offset="0" stop-color="#d9d9d9"/><stop offset=".32" stop-color="#dbdbde"/><stop offset=".7" stop-color="#e2e2ec"/><stop offset="1" stop-color="#e9e9fd"/></linearGradient><clipPath id="clip-path"><path class="cls-1" d="M167.92 32.68L99.04 72.44l8.54 50.36 68.83-39.74-8.49-50.38z"/></clipPath><linearGradient id="_ÂÁ_Ï_ÌÌ_È_ËÂÌÚ_3-2" x1="101" y1="92.62" x2="217.65" y2="92.62" xlink:href="#_ÂÁ_Ï_ÌÌ_È_ËÂÌÚ_3"/><linearGradient id="_ÂÁ_Ï_ÌÌ_È_ËÂÌÚ_3-3" x1="93.32" y1="84.05" x2="123.18" y2="84.05" xlink:href="#_ÂÁ_Ï_ÌÌ_È_ËÂÌÚ_3"/><linearGradient id="_ÂÁ_Ï_ÌÌ_È_ËÂÌÚ_8" x1="5152.26" y1="52.55" x2="5049.88" y2="31.49" gradientTransform="matrix(-1 0 0 1 5120.96 0)" gradientUnits="userSpaceOnUse"><stop offset="0" stop-color="#180d5b"/><stop offset=".09" stop-color="#1a1660"/><stop offset=".25" stop-color="#1e2d6e"/><stop offset=".44" stop-color="#255385"/><stop offset=".66" stop-color="#2f87a5"/><stop offset=".9" stop-color="#3ccace"/><stop offset="1" stop-color="#42e8e0"/></linearGradient><linearGradient id="_ÂÁ_Ï_ÌÌ_È_ËÂÌÚ_8-2" x1="5121.09" y1="78.31" x2="5051.55" y2="33.14" xlink:href="#_ÂÁ_Ï_ÌÌ_È_ËÂÌÚ_8"/><linearGradient id="_ÂÁ_Ï_ÌÌ_È_ËÂÌÚ_8-3" x1="-4682.56" y1="79.65" x2="-4626.31" y2="49.66" gradientTransform="translate(4701.9)" xlink:href="#_ÂÁ_Ï_ÌÌ_È_ËÂÌÚ_8"/><linearGradient id="_ÂÁ_Ï_ÌÌ_È_ËÂÌÚ_8-4" x1="5129.35" y1="95.81" x2="5056.19" y2="55.69" xlink:href="#_ÂÁ_Ï_ÌÌ_È_ËÂÌÚ_8"/><linearGradient id="_ÂÁ_Ï_ÌÌ_È_ËÂÌÚ_59" x1="5070.41" y1="83.2" x2="5121.29" y2="83.2" gradientTransform="matrix(-1 0 0 1 5120.96 0)" gradientUnits="userSpaceOnUse"><stop offset="0" stop-color="#2b237c"/><stop offset="1" stop-color="#180d5b"/></linearGradient><linearGradient id="_ÂÁ_Ï_ÌÌ_È_ËÂÌÚ_122" x1="5085.96" y1="95.44" x2="5039.62" y2="69.09" gradientTransform="matrix(-1 0 0 1 5120.96 0)" gradientUnits="userSpaceOnUse"><stop offset="0" stop-color="#180d5b"/><stop offset=".1" stop-color="#1a1560"/><stop offset=".25" stop-color="#1e2d6e"/><stop offset=".28" stop-color="#1f3372"/><stop offset=".38" stop-color="#22447c"/><stop offset=".57" stop-color="#2b7097"/><stop offset=".83" stop-color="#39b7c2"/><stop offset="1" stop-color="#42e8e0"/></linearGradient><linearGradient id="_ÂÁ_Ï_ÌÌ_È_ËÂÌÚ_8-5" x1="5105.97" y1="35.97" x2="5046.27" y2="-2.81" xlink:href="#_ÂÁ_Ï_ÌÌ_È_ËÂÌÚ_8"/><linearGradient id="_ÂÁ_Ï_ÌÌ_È_ËÂÌÚ_59-2" x1="5070.41" y1="33.78" x2="5121.29" y2="33.78" xlink:href="#_ÂÁ_Ï_ÌÌ_È_ËÂÌÚ_59"/><linearGradient id="_ÂÁ_Ï_ÌÌ_È_ËÂÌÚ_122-2" x1="5080.03" y1="42.57" x2="5038.32" y2="19.06" xlink:href="#_ÂÁ_Ï_ÌÌ_È_ËÂÌÚ_122"/><linearGradient id="_ÂÁ_Ï_ÌÌ_È_ËÂÌÚ_8-6" x1="5094.1" y1="23.23" x2="5046.1" y2="12.39" xlink:href="#_ÂÁ_Ï_ÌÌ_È_ËÂÌÚ_8"/><linearGradient id="_ÂÁ_Ï_ÌÌ_È_ËÂÌÚ_8-7" x1="5103.8" y1="33.07" x2="5049.56" y2="-2.15" xlink:href="#_ÂÁ_Ï_ÌÌ_È_ËÂÌÚ_8"/><linearGradient id="_ÂÁ_Ï_ÌÌ_È_ËÂÌÚ_59-3" x1="5071.49" y1="29.11" x2="5117.71" y2="29.11" xlink:href="#_ÂÁ_Ï_ÌÌ_È_ËÂÌÚ_59"/><linearGradient id="_ÂÁ_Ï_ÌÌ_È_ËÂÌÚ_122-3" x1="5079.55" y1="36.71" x2="5043.5" y2="16.39" xlink:href="#_ÂÁ_Ï_ÌÌ_È_ËÂÌÚ_122"/><linearGradient id="_ÂÁ_Ï_ÌÌ_È_ËÂÌÚ_8-8" x1="5093.01" y1="21.5" x2="5049.41" y2="11.66" xlink:href="#_ÂÁ_Ï_ÌÌ_È_ËÂÌÚ_8"/></defs><g style="isolation:isolate"><g id="Слой_2" data-name="Слой 2"><g id="_1200" data-name="1200"><text class="cls-3" transform="translate(181.14 100.16)"></text><text class="cls-3" transform="translate(181.14 131.02)"></text><path class="cls-4" d="M102.05 102.76l-.15-.26"/><path class="cls-1" d="M162.36 65.64l-44.24 25.73"/><path stroke="#42ffff" stroke-miterlimit="10" fill="none" d="M57.41 98.56l110.12 61.05"/><path class="cls-4" d="M152.7 221.81a7.18 7.18 0 0 1-3.49-.88l-71-41a2.87 2.87 0 0 1-1.67-2.33 2.22 2.22 0 0 1 1.26-1.9l91.27-52.7a6.88 6.88 0 0 1 6.26.24l71 41a2.87 2.87 0 0 1 1.67 2.33 2.22 2.22 0 0 1-1.26 1.9l-91.27 52.69a5.52 5.52 0 0 1-2.77.65zm19.12-98.37a4.54 4.54 0 0 0-2.21.5l-91.27 52.69a1.25 1.25 0 0 0-.73 1c0 .47.43 1 1.14 1.4l71 41a5.89 5.89 0 0 0 5.19.24l91.27-52.7a1.22 1.22 0 0 0 .72-1c0-.47-.42-1-1.13-1.4l-71-41a6.09 6.09 0 0 0-2.98-.73z"/><path class="cls-4" d="M152.71 208.16a7.19 7.19 0 0 1-3.5-.88l-71-41a2.87 2.87 0 0 1-1.67-2.28 2.22 2.22 0 0 1 1.26-1.9l91.27-52.69a6.88 6.88 0 0 1 6.26.23l71 41a2.87 2.87 0 0 1 1.67 2.33 2.22 2.22 0 0 1-1.26 1.9l-91.27 52.7a5.62 5.62 0 0 1-2.76.59zm19.11-98.36a4.57 4.57 0 0 0-2.21.49L78.34 163a1.23 1.23 0 0 0-.73 1c0 .47.43 1 1.14 1.4l71 41a5.86 5.86 0 0 0 5.19.24l91.26-52.74a1.24 1.24 0 0 0 .72-1c0-.47-.42-1-1.13-1.4l-71-41a6.19 6.19 0 0 0-2.97-.7z"/><g opacity=".49"><path class="cls-7" d="M83.79 147.43l22.3-1.45 62.69-36.2a5.86 5.86 0 0 1 5.27.22l49.11 28.35 17.59-1.14v2.89a1.54 1.54 0 0 1-.89 1.33L155.75 190a5.86 5.86 0 0 1-5.27-.22L85.08 152a2.21 2.21 0 0 1-1.28-1.67z"/><path d="M155.75 187.11l84.09-48.54c1.35-.78 1.18-2.14-.38-3l-65.41-37.81a5.83 5.83 0 0 0-5.27-.21L84.7 146.09c-1.35.78-1.18 2.14.38 3l65.4 37.76a5.83 5.83 0 0 0 5.27.26z" fill="url(#_ÂÁ_Ï_ÌÌ_È_ËÂÌÚ_3)"/></g><path d="M81.43 133.36l23-1.49L169 94.58a6 6 0 0 1 5.43.23L225 124l18.13-1.18v12.64a1.61 1.61 0 0 1-.92 1.37l-86.61 50a6 6 0 0 1-5.43-.22l-67.37-38.9a2.28 2.28 0 0 1-1.36-1.71z" opacity=".42" fill="url(#Безымянный_градиент_44)"/><path d="M155.56 174.78l86.61-50c1.39-.8 1.21-2.2-.39-3.13l-67.37-38.9a6 6 0 0 0-5.43-.22l-86.61 50c-1.39.81-1.22 2.21.39 3.14l67.37 38.89a6 6 0 0 0 5.43.22z" fill="url(#Безымянный_градиент_41)"/><path class="cls-12" d="M179.95 99.49l-68.21 39.39 41.18 23.77 68.21-39.38-41.18-23.78z" opacity=".24"/><path d="M177.87 82.53l-9-53 .72-.3-1.08-.62a.77.77 0 0 0-.83.06L96.27 69.88a2 2 0 0 0-.92 1.81l9 53.47a.7.7 0 0 0 .37.55l1.06.61.18-1h-.06l71-41a2 2 0 0 0 .97-1.79z" fill="url(#Безымянный_градиент_57)"/><path d="M96.67 71.33l-1.17-.52a1.58 1.58 0 0 0-.15.88l9 53.47a.7.7 0 0 0 .37.55l1.06.61.18-1h-.06l3.6-2.08z" fill="url(#Безымянный_градиент_61)"/><path class="cls-15" d="M178.06 85l-71.46 41.24c-.55.32-1 .14-1.12-.44l-9-53.46a2 2 0 0 1 .92-1.82l71.46-41.26c.55-.31 1-.13 1.12.44l9 53.47a2 2 0 0 1-.92 1.83z"/><path class="cls-7" d="M167.92 32.68L99.04 72.44l8.54 50.36 68.83-39.74-8.49-50.38z" opacity=".51"/><path d="M223 110.3l-3.9 2L180 89.76a2.84 2.84 0 0 0-2.55.1L110 128.8c-.65-.36-3.59-1.77-3.59-1.77l1.43 3.72a.84.84 0 0 0 .4.44L149.41 155a2.84 2.84 0 0 0 2.55-.1L221 115a1.25 1.25 0 0 0 .58-.62z" fill="url(#Безымянный_градиент_54)"/><path d="M222.37 110.94l-70.73 40.84a2.91 2.91 0 0 1-2.61.1l-42.21-24.36c-.67-.39-.59-1.07.19-1.51l70.73-40.84a2.88 2.88 0 0 1 2.61-.11l42.21 24.37c.67.39.59 1.06-.19 1.51z" fill="url(#Безымянный_градиент_47)"/><path class="cls-12" d="M130.31 142.94v-.77c0-.08 0-.11.1-.08l2.73 1.58a.23.23 0 0 1 .1.19v.78c0 .07 0 .1-.1.07l-2.73-1.58a.21.21 0 0 1-.1-.19zM134.4 145.3v-.77c0-.07 0-.11.1-.08l2.74 1.58a.25.25 0 0 1 .09.19v.78c0 .07 0 .11-.09.07l-2.74-1.57a.25.25 0 0 1-.1-.2z"/><path d="M117.82 125.23L176.6 91.3a1.26 1.26 0 0 1 1.27 0l20.93 12.11a.45.45 0 0 1 0 .78l-58.75 33.92a1.26 1.26 0 0 1-1.27 0l-21-12.09a.46.46 0 0 1 .04-.79z" fill="#e2e2e2"/><path d="M117.82 126l.21.12 58.57-33.8a1.3 1.3 0 0 1 1.27 0l20.72 12 .21-.12a.45.45 0 0 0 0-.78L177.87 91.3a1.26 1.26 0 0 0-1.27 0l-58.78 33.93a.46.46 0 0 0 0 .77z" fill="#c6c6c6"/><path class="cls-15" d="M179.45 94.37l-51.06 29.47-2.27-1.31 51.06-29.47 2.27 1.31zM185.01 97.58l-47.89 27.65-2.27-1.31 47.89-27.65 2.27 1.31zM188.64 99.67l-56.39 32.55-2.27-1.31 56.39-32.55 2.27 1.31zM192.26 101.77l-56.38 32.55-2.27-1.31 56.38-32.56 2.27 1.32zM195.89 103.86l-56.39 32.55-2.27-1.31 56.39-32.55 2.27 1.31zM125.31 125.62l-2.28 1.32-2.27-1.32 2.27-1.31 2.28 1.31zM133.31 127.43l-4.71 2.72-2.27-1.31 4.71-2.72 2.27 1.31z"/><path d="M178.86 133.45l15.85-9.15a.69.69 0 0 0 0-1.3l-10.84-6.26a2.52 2.52 0 0 0-2.24 0l-15.85 9.15a.69.69 0 0 0 0 1.3l10.84 6.26a2.52 2.52 0 0 0 2.24 0z" fill="url(#Безымянный_градиент_49)"/><path d="M165.78 126.42l15.85-9.15a2.52 2.52 0 0 1 2.24 0l10.84 6.26a1 1 0 0 1 .39.38c.17-.31 0-.66-.39-.91l-10.84-6.26a2.52 2.52 0 0 0-2.24 0l-15.85 9.15c-.43.25-.55.6-.39.92a1 1 0 0 1 .39-.39z" fill="#d1d1d1"/><g clip-path="url(#clip-path)" opacity=".11"><path d="M177.81 85.08l-70.73 40.84a2.9 2.9 0 0 1-2.62.11l-42.21-24.37c-.67-.39-.58-1.06.19-1.51l70.73-40.84a2.93 2.93 0 0 1 2.62-.1L178 83.57c.67.43.58 1.07-.19 1.51z" fill="url(#_ÂÁ_Ï_ÌÌ_È_ËÂÌÚ_3-2)"/><path d="M106.87 92.41l15.84-9.15a.69.69 0 0 0 0-1.3l-10.83-6.26a2.54 2.54 0 0 0-2.25 0l-15.85 9.15a.69.69 0 0 0 0 1.3l10.84 6.26a2.54 2.54 0 0 0 2.25 0z" fill="url(#_ÂÁ_Ï_ÌÌ_È_ËÂÌÚ_3-3)"/><path class="cls-27" d="M93.78 85.38l15.85-9.15a2.54 2.54 0 0 1 2.25 0l10.83 6.26a.89.89 0 0 1 .39.38c.17-.31 0-.66-.39-.91l-10.83-6.26a2.54 2.54 0 0 0-2.25 0l-15.85 9.15c-.42.25-.55.6-.38.92a.94.94 0 0 1 .38-.39z"/><path d="M86.82 106.71l58.78-33.94a1.24 1.24 0 0 1 1.26 0l20.93 12.11a.45.45 0 0 1 0 .78L109 119.58a1.24 1.24 0 0 1-1.26 0l-21-12.09a.45.45 0 0 1 .08-.78z" fill="#adb1f2"/><path class="cls-27" d="M86.82 107.49l.21.12 58.57-33.82a1.26 1.26 0 0 1 1.26 0l20.72 12 .21-.12a.45.45 0 0 0 0-.78l-20.93-12.12a1.24 1.24 0 0 0-1.26 0l-58.78 33.94a.45.45 0 0 0 0 .78z"/><path class="cls-15" d="M162.31 84.06l-51.2 29.56 2.03 1.17 51.2-29.56-2.03-1.17zM156.92 80.94l-48.67 28.1 2.03 1.17 48.67-28.1-2.03-1.17zM104.61 111.14l-4.54 2.62 2.03 1.17 4.54-2.62-2.03-1.17zM108.63 115.05l-3.16 1.83 2.02 1.17 3.17-1.83-2.03-1.17zM153.54 78.99l-56.85 32.82 2.03 1.17 56.85-32.82-2.03-1.17zM150.16 77.04l-56.85 32.82 2.03 1.17 56.85-32.82-2.03-1.17zM146.78 75.08l-56.85 32.83 2.03 1.17 56.85-32.82-2.03-1.18z"/></g><path opacity=".3" fill="#0b0244" d="M38.34 105.78l30.21-17.43-30.21-17.44L8.13 88.35l30.21 17.43z"/><path class="cls-4" d="M0 88.35l38.34-22.14 38.34 22.14-38.34 22.13zm38.34-21.3L1.45 88.35l36.89 21.3 36.89-21.3z"/><path class="cls-30" d="M38.72 96.43l35.6-20.55-35.6-20.55L3.13 75.88l35.59 20.55z"/><path class="cls-30" d="M38.72 90.52l35.6-20.55-35.6-20.55L3.13 69.97l35.59 20.55z"/><g opacity=".9"><path fill="url(#_ÂÁ_Ï_ÌÌ_È_ËÂÌÚ_8)" d="M38.72 54.02L66.2 38.15 38.72 22.28 11.24 38.15l27.48 15.87z"/><path fill="url(#_ÂÁ_Ï_ÌÌ_È_ËÂÌÚ_8-2)" d="M11.24 38.15v31.82l27.48 15.87V54.02L11.24 38.15z"/><path fill="url(#_ÂÁ_Ï_ÌÌ_È_ËÂÌÚ_8-3)" d="M66.2 38.15v31.82L38.72 85.84V54.02L66.2 38.15z"/></g><path style="mix-blend-mode:lighten" fill="url(#_ÂÁ_Ï_ÌÌ_È_ËÂÌÚ_8-4)" opacity=".7" d="M38.72 85.84L66.2 69.97 38.72 54.1 11.24 69.97l27.48 15.87z"/><path fill="url(#_ÂÁ_Ï_ÌÌ_È_ËÂÌÚ_59)" d="M3.13 69.97v5.91l35.59 20.55v-5.91L3.13 69.97z"/><path class="cls-30" d="M74.32 69.97v5.91l-35.6 20.55v-5.91l35.6-20.55z"/><path style="mix-blend-mode:lighten" fill="url(#_ÂÁ_Ï_ÌÌ_È_ËÂÌÚ_122)" opacity=".7" d="M74.32 69.97v5.91l-35.6 20.55v-5.91l35.6-20.55z"/><path class="cls-30" d="M38.72 47.01l35.6-20.55-35.6-20.55L3.13 26.46l35.59 20.55z"/><path class="cls-30" d="M74.32 20.55v5.91l-35.6 20.55V41.1l35.6-20.55z"/><path class="cls-38" d="M38.72 47.01v43.51l35.6-20.55V26.46l-35.6 20.55z"/><path class="cls-38" d="M66.2 31.15v38.82L38.72 85.84 11.24 69.97V31.15l27.48 15.86L66.2 31.15z"/><path class="cls-38" d="M38.72 47.01v38.83L66.2 69.97V31.15L38.72 47.01z"/><path class="cls-39" d="M74.32 26.46v43.51l-35.6 20.55L3.13 69.97V26.46l35.59 20.55 35.6-20.55z"/><path class="cls-30" d="M38.72 41.1l35.6-20.55L38.72 0 3.13 20.55 38.72 41.1z"/><path style="mix-blend-mode:lighten" fill="url(#_ÂÁ_Ï_ÌÌ_È_ËÂÌÚ_8-5)" opacity=".7" d="M38.72 41.1l35.6-20.55L38.72 0 3.13 20.55 38.72 41.1z"/><path fill="url(#_ÂÁ_Ï_ÌÌ_È_ËÂÌÚ_59-2)" d="M3.13 20.55v5.91l35.59 20.55V41.1L3.13 20.55z"/><path style="mix-blend-mode:lighten" fill="url(#_ÂÁ_Ï_ÌÌ_È_ËÂÌÚ_122-2)" opacity=".7" d="M74.32 20.55v5.91l-35.6 20.55V41.1l35.6-20.55z"/><path style="mix-blend-mode:lighten" fill="url(#_ÂÁ_Ï_ÌÌ_È_ËÂÌÚ_8-6)" d="M73.48 20.55L38.3.24l.42-.24 35.6 20.55-35.6 20.55-.42-.24 35.18-20.31z"/><path class="cls-30" d="M38.72 39.16l32.34-18.67L38.72 5.77 6.39 20.49l32.33 18.67z"/><path class="cls-30" d="M71.06 19.07v1.42L38.72 39.16v-1.42l32.34-18.67z"/><path class="cls-30" d="M38.72 37.74l32.34-18.67L38.72.4 6.39 19.07l32.33 18.67z"/><path style="mix-blend-mode:lighten" fill="url(#_ÂÁ_Ï_ÌÌ_È_ËÂÌÚ_8-7)" opacity=".7" d="M38.72 37.74l32.34-18.67L38.72.4 6.39 19.07l32.33 18.67z"/><path fill="url(#_ÂÁ_Ï_ÌÌ_È_ËÂÌÚ_59-3)" d="M6.39 19.07v1.42l32.33 18.67v-1.42L6.39 19.07z"/><path style="mix-blend-mode:lighten" fill="url(#_ÂÁ_Ï_ÌÌ_È_ËÂÌÚ_122-3)" opacity=".7" d="M71.06 19.07v1.42L38.72 39.16v-1.42l32.34-18.67z"/><path style="mix-blend-mode:lighten" fill="url(#_ÂÁ_Ï_ÌÌ_È_ËÂÌÚ_8-8)" d="M70.29 19.07L38.34.62l.38-.22 32.34 18.67-32.34 18.67-.38-.22 31.95-18.45z"/><path class="cls-48" d="M60.7 19.77l1.22-.7-23.2-13.4-1.22.71 23.2 13.39zM58.26 21.19l1.22-.71-23.2-13.4-1.22.71 23.2 13.4zM55.82 22.6l1.22-.71L33.84 8.5l-1.22.7 23.2 13.4zM53.38 24.01l1.22-.71L31.4 9.91l-1.22.7 23.2 13.4zM50.93 25.42l1.22-.71-23.2-13.39-1.22.7 23.2 13.4zM48.49 26.83l1.22-.71-23.2-13.39-1.22.7 23.2 13.4zM46.05 28.24l1.22-.71-23.2-13.39-1.22.7 23.2 13.4zM43.61 29.65l1.22-.71-23.2-13.39-1.22.7 23.2 13.4zM41.16 31.06l1.22-.71-23.2-13.39-1.22.7 23.2 13.4zM38.72 32.47l1.22-.71-23.2-13.39-1.22.7 23.2 13.4z"/><path class="cls-49" d="M38.72 5.67l-1.22.71 1.22.7V5.67zM36.28 7.08l-1.22.71 1.22.71V7.08zM33.84 8.5l-1.22.7 1.22.71V8.5zM31.4 9.91l-1.22.7 1.22.71V9.91zM28.95 11.32l-1.22.7 1.22.71v-1.41zM26.51 12.73l-1.22.7 1.22.71v-1.41zM24.07 14.14l-1.22.7 1.22.71v-1.41zM21.63 15.55l-1.22.7 1.22.71v-1.41zM19.18 16.96l-1.22.7 1.22.71v-1.41zM16.74 18.37l-1.22.7 1.22.71v-1.41z"/><g opacity=".4"><path class="cls-51" d="M60.7 19.77l1.22-.7-23.2-13.4-1.22.71 23.2 13.39zM58.26 21.19l1.22-.71-23.2-13.4-1.22.71 23.2 13.4zM55.82 22.6l1.22-.71L33.84 8.5l-1.22.7 23.2 13.4zM53.38 24.01l1.22-.71L31.4 9.91l-1.22.7 23.2 13.4zM50.93 25.42l1.22-.71-23.2-13.39-1.22.7 23.2 13.4zM48.49 26.83l1.22-.71-23.2-13.39-1.22.7 23.2 13.4zM46.05 28.24l1.22-.71-23.2-13.39-1.22.7 23.2 13.4zM43.61 29.65l1.22-.71-23.2-13.39-1.22.7 23.2 13.4zM41.16 31.06l1.22-.71-23.2-13.39-1.22.7 23.2 13.4zM38.72 32.47l1.22-.71-23.2-13.39-1.22.7 23.2 13.4z"/></g><path class="cls-52" d="M74.32 26.46v43.51l-.49.28v-43.5l.49-.29zM3.13 26.46v43.51l.49.28v-43.5l-.49-.29zM38.72 47.01l.84-.48v43.51l-.84.48-.84-.48V46.53l.84.48z"/><path class="cls-39" d="M73.83 65.68L41.46 45.43l23.08-13.32 9.29 5.08v28.49zM66.57 74.44L39.56 59.09v11.16l17.87 9.47 9.14-5.28z"/><g opacity=".1"><path class="cls-54" d="M72.11 31.82l-30.7 17.7v-1.38l30.7-17.71v1.39zM72.11 35.07l-30.7 17.7v-1.38l30.7-17.71v1.39zM72.11 38.32l-30.7 17.7v-1.38l30.7-17.71v1.39zM72.11 41.56l-30.7 17.71v-1.38l30.7-17.71v1.38zM72.11 44.81l-30.7 17.71v-1.38l30.7-17.71v1.38zM72.11 48.06l-30.7 17.71v-1.38l30.7-17.71v1.38zM72.11 51.31l-30.7 17.71v-1.38l30.7-17.71v1.38zM72.11 54.56l-30.7 17.71v-1.38l30.7-17.71v1.38zM72.11 57.81l-30.7 17.71v-1.38l30.7-17.71v1.38zM72.11 61.06l-30.7 17.71v-1.38l30.7-17.71v1.38zM72.11 64.31l-30.7 17.71v-1.38l30.7-17.71v1.38zM72.11 67.56l-30.7 17.71v-1.38l30.7-17.71v1.38z"/></g><path class="cls-4" d="M35.38 48.6a1.32 1.32 0 0 0 .6 1c.33.19.6 0 .6-.34a1.32 1.32 0 0 0-.6-1c-.33-.19-.6-.04-.6.34zM33.41 47.47a1.32 1.32 0 0 0 .6 1c.33.19.6 0 .6-.34a1.33 1.33 0 0 0-.6-1c-.33-.2-.6-.05-.6.34zM31.44 46.33a1.32 1.32 0 0 0 .6 1c.33.2.6 0 .6-.34a1.33 1.33 0 0 0-.6-1c-.33-.2-.6-.05-.6.34zM15.43 37.77l15.1 8.72v-1.38l-15.1-8.72v1.38zM35.38 51.85a1.32 1.32 0 0 0 .6 1c.33.19.6 0 .6-.34a1.32 1.32 0 0 0-.6-1c-.33-.19-.6-.04-.6.34zM33.41 50.71a1.32 1.32 0 0 0 .6 1c.33.19.6 0 .6-.34a1.32 1.32 0 0 0-.6-1c-.33-.19-.6-.04-.6.34zM31.44 49.58a1.32 1.32 0 0 0 .6 1c.33.2.6 0 .6-.34a1.33 1.33 0 0 0-.6-1c-.33-.24-.6-.05-.6.34zM15.43 41.02l15.1 8.72v-1.38l-15.1-8.72v1.38zM35.38 55.1a1.32 1.32 0 0 0 .6 1c.33.19.6 0 .6-.34a1.32 1.32 0 0 0-.6-1c-.33-.19-.6-.04-.6.34zM33.41 54a1.32 1.32 0 0 0 .6 1c.33.19.6 0 .6-.34a1.32 1.32 0 0 0-.6-1c-.33-.23-.6-.08-.6.34zM31.44 52.83a1.32 1.32 0 0 0 .6 1c.33.2.6 0 .6-.34a1.33 1.33 0 0 0-.6-1c-.33-.2-.6-.05-.6.34zM15.43 44.27l15.1 8.72v-1.38l-15.1-8.72v1.38zM35.38 58.35a1.32 1.32 0 0 0 .6 1c.33.19.6 0 .6-.35a1.32 1.32 0 0 0-.6-1c-.33-.18-.6 0-.6.35zM33.41 57.21a1.32 1.32 0 0 0 .6 1c.33.19.6 0 .6-.34a1.32 1.32 0 0 0-.6-1c-.33-.19-.6-.04-.6.34zM31.44 56.08a1.32 1.32 0 0 0 .6 1c.33.19.6 0 .6-.34a1.32 1.32 0 0 0-.6-1c-.33-.2-.6-.05-.6.34zM15.43 47.52l15.1 8.72v-1.38l-15.1-8.72v1.38zM35.38 61.6a1.33 1.33 0 0 0 .6 1c.33.19.6 0 .6-.35a1.32 1.32 0 0 0-.6-1c-.33-.19-.6-.03-.6.35zM33.41 60.46a1.32 1.32 0 0 0 .6 1c.33.19.6 0 .6-.34a1.32 1.32 0 0 0-.6-1c-.33-.19-.6-.04-.6.34zM31.44 59.32a1.32 1.32 0 0 0 .6 1c.33.19.6 0 .6-.34a1.32 1.32 0 0 0-.6-1c-.33-.19-.6-.04-.6.34zM15.43 50.77l15.1 8.72v-1.38l-15.1-8.72v1.38zM35.38 64.85a1.33 1.33 0 0 0 .6 1c.33.19.6 0 .6-.35a1.32 1.32 0 0 0-.6-1c-.33-.19-.6-.03-.6.35zM33.41 63.71a1.32 1.32 0 0 0 .6 1c.33.19.6 0 .6-.34a1.32 1.32 0 0 0-.6-1c-.33-.19-.6-.04-.6.34zM31.44 62.57a1.32 1.32 0 0 0 .6 1c.33.19.6 0 .6-.34a1.32 1.32 0 0 0-.6-1c-.33-.23-.6-.04-.6.34zM15.43 54.02l15.1 8.72v-1.38l-15.1-8.72v1.38zM35.38 68.1a1.33 1.33 0 0 0 .6 1c.33.19.6 0 .6-.35a1.32 1.32 0 0 0-.6-1c-.33-.19-.6-.03-.6.35zM33.41 67a1.33 1.33 0 0 0 .6 1c.33.19.6 0 .6-.35a1.32 1.32 0 0 0-.6-1c-.33-.22-.6-.07-.6.35zM31.44 65.82a1.32 1.32 0 0 0 .6 1c.33.19.6 0 .6-.34a1.32 1.32 0 0 0-.6-1c-.33-.19-.6-.04-.6.34zM15.43 57.27l15.1 8.72v-1.38l-15.1-8.72v1.38zM35.38 71.35a1.33 1.33 0 0 0 .6 1c.33.19.6 0 .6-.35a1.35 1.35 0 0 0-.6-1c-.33-.19-.6 0-.6.35zM33.41 70.21a1.33 1.33 0 0 0 .6 1c.33.19.6 0 .6-.35a1.32 1.32 0 0 0-.6-1c-.33-.19-.6-.03-.6.35zM31.44 69.07a1.32 1.32 0 0 0 .6 1c.33.19.6 0 .6-.34a1.32 1.32 0 0 0-.6-1c-.33-.19-.6-.04-.6.34zM15.43 60.52l15.1 8.72v-1.38l-15.1-8.72v1.38zM35.38 74.6a1.33 1.33 0 0 0 .6 1c.33.19.6 0 .6-.35a1.35 1.35 0 0 0-.6-1c-.33-.19-.6-.03-.6.35zM33.41 73.46a1.33 1.33 0 0 0 .6 1c.33.19.6 0 .6-.35a1.32 1.32 0 0 0-.6-1c-.33-.19-.6-.03-.6.35zM31.44 72.32a1.33 1.33 0 0 0 .6 1c.33.19.6 0 .6-.35a1.32 1.32 0 0 0-.6-1c-.33-.18-.6-.03-.6.35zM15.43 63.77l15.1 8.72v-1.38l-15.1-8.73v1.39zM35.38 77.85a1.33 1.33 0 0 0 .6 1c.33.19.6 0 .6-.35a1.33 1.33 0 0 0-.6-1c-.33-.19-.6-.03-.6.35zM33.41 76.71a1.33 1.33 0 0 0 .6 1c.33.19.6 0 .6-.35a1.35 1.35 0 0 0-.6-1c-.33-.19-.6-.03-.6.35zM31.44 75.57a1.33 1.33 0 0 0 .6 1c.33.19.6 0 .6-.35a1.32 1.32 0 0 0-.6-1c-.33-.22-.6-.03-.6.35zM15.43 67.02l15.1 8.72v-1.38l-15.1-8.72v1.38zM35.38 81.1a1.33 1.33 0 0 0 .6 1c.33.19.6 0 .6-.35a1.33 1.33 0 0 0-.6-1c-.33-.19-.6-.03-.6.35zM33.41 80a1.33 1.33 0 0 0 .6 1c.33.19.6 0 .6-.35a1.35 1.35 0 0 0-.6-1c-.33-.23-.6-.07-.6.35zM31.44 78.82a1.33 1.33 0 0 0 .6 1c.33.19.6 0 .6-.35a1.32 1.32 0 0 0-.6-1c-.33-.19-.6-.03-.6.35zM15.43 70.27l15.1 8.72v-1.38l-15.1-8.73v1.39zM35.38 84.35a1.33 1.33 0 0 0 .6 1c.33.19.6 0 .6-.35a1.33 1.33 0 0 0-.6-1c-.33-.19-.6 0-.6.35zM33.41 83.21a1.33 1.33 0 0 0 .6 1c.33.19.6 0 .6-.35a1.35 1.35 0 0 0-.6-1c-.33-.19-.6-.03-.6.35zM31.44 82.07a1.33 1.33 0 0 0 .6 1c.33.19.6 0 .6-.35a1.32 1.32 0 0 0-.6-1c-.33-.19-.6-.03-.6.35zM15.43 73.52l15.1 8.72v-1.39l-15.1-8.72v1.39z"/><path opacity=".5" fill="#88fff3" d="M5.14 67.63L14 72.75V35.7l-8.86-5.12v37.05z"/><path class="cls-56" d="M155.95 13.22l6.99-4.04V7.65l-6.99 4.03v1.54zM152.37 15.28l2.51-1.45V12.3l-2.51 1.45v1.53zM149.59 16.89l1.71-.99v-1.53l-1.71.98v1.54zM159.13 14.88l3.81-2.19v-1.54l-3.81 2.2v1.53zM153.4 18.19l4.66-2.69v-1.53l-4.66 2.69v1.53zM150.62 19.8l1.71-.99v-1.54l-1.71.99v1.54zM147.98 21.32l1.71-.99V18.8l-1.71.99v1.53z"/><path class="cls-57" d="M160.18 17.78l2.76-1.59v-1.53l-2.76 1.59v1.53zM158.17 18.94l.94-.54v-1.54l-.94.55v1.53z"/><path class="cls-56" d="M155.4 20.54l1.71-.98v-1.54l-1.71.99v1.53zM152.77 25.56l10.17-5.86v-1.54l-10.17 5.87v1.53zM149.19 27.63l2.51-1.45v-1.54l-2.51 1.46v1.53zM160.18 24.79l2.76-1.59v-1.54l-2.76 1.59v1.54zM153.72 28.52l5.39-3.12v-1.53l-5.39 3.11v1.54zM150.94 30.12l1.71-.98V27.6l-1.71.99v1.53zM157.3 29.95l5.64-3.25v-1.53l-5.64 3.25v1.53z"/><path class="cls-57" d="M152.16 32.92l4.07-2.35v-1.53l-4.07 2.35v1.53z"/><path class="cls-56" d="M148.34 35.13l2.75-1.59v-1.53l-2.75 1.58v1.54zM161.03 31.3l1.91-1.09v-1.54l-1.91 1.1v1.53zM157.45 33.37l2.52-1.45v-1.53l-2.52 1.45v1.53zM152.33 36.33l4.05-2.34v-1.54l-4.05 2.34v1.54zM157.11 37.08l5.83-3.37v-1.53l-5.83 3.36v1.54zM150.58 40.84l5.46-3.15v-1.53l-5.46 3.15v1.53z"/><path class="cls-57" d="M147.8 42.45l1.71-.99v-1.53l-1.71.98v1.54z"/><path class="cls-56" d="M145.14 43.98l1.71-.98v-1.53l-1.71.98v1.53zM159.44 39.23l3.5-2.02v-1.53l-3.5 2.02v1.53z"/><path class="cls-57" d="M144.84 19.63l-4.85 2.8v-1.54l4.85-2.79v1.53z"/><path class="cls-56" d="M143.8 23.73l-3.81 2.2V24.4l3.81-2.2v1.53zM142.75 27.85l-2.76 1.59V27.9l2.76-1.59v1.54zM144 30.63l-4.01 2.31v-1.53l4.01-2.32v1.54zM142.75 34.85l-2.76 1.59v-1.53l2.76-1.59v1.53zM143.49 37.93l-3.5 2.02v-1.54l3.5-2.01v1.53zM141.9 42.35l-1.91 1.1v-1.53l1.91-1.1v1.53zM143.68 44.83l-3.69 2.12v-1.53l3.69-2.13v1.54zM143.49 48.44l-3.5 2.02v-1.54l3.5-2.01v1.53zM156.89 40.7l1.49-.85v-1.54l-1.49.86v1.53zM152.48 43.25l3.34-1.93v-1.53l-3.34 1.93v1.53zM128.87 28.79l6.98-4.03v-1.53l-6.98 4.03v1.53zM125.28 30.86l2.52-1.45v-1.53l-2.52 1.45v1.53z"/><path class="cls-57" d="M122.51 32.46l1.71-.98v-1.54l-1.71.99v1.53z"/><path class="cls-56" d="M132.04 30.46l3.81-2.2v-1.53l-3.81 2.2v1.53zM126.31 33.77l4.67-2.69v-1.54l-4.67 2.7v1.53z"/><path class="cls-57" d="M123.54 35.37l1.71-.98v-1.54l-1.71.99v1.53z"/><path class="cls-56" d="M120.9 36.9l1.71-.99v-1.53l-1.71.98v1.54zM133.1 33.36l2.75-1.59v-1.54l-2.75 1.59v1.54zM131.09 34.52l.94-.55v-1.53l-.94.54v1.54zM128.31 36.12l1.71-.99V33.6l-1.71.99v1.53zM125.69 41.14l10.16-5.87v-1.53l-10.16 5.87v1.53zM122.11 43.21l2.51-1.45v-1.54l-2.51 1.45v1.54zM133.1 40.37l2.75-1.59v-1.54l-2.75 1.59v1.54zM126.64 44.1l5.39-3.12v-1.53l-5.39 3.11v1.54zM123.86 45.7l1.71-.99v-1.53l-1.71.98v1.54z"/><path class="cls-57" d="M130.22 45.53l5.63-3.25v-1.53L130.22 44v1.53z"/><path class="cls-56" d="M125.08 48.5l4.07-2.35v-1.54l-4.07 2.36v1.53zM121.25 50.71l2.76-1.59v-1.54l-2.76 1.59v1.54zM133.95 46.88l1.9-1.1v-1.53l-1.9 1.1v1.53zM130.37 48.95l2.51-1.45v-1.54l-2.51 1.46v1.53z"/><path class="cls-57" d="M125.25 51.91l4.05-2.34v-1.54l-4.05 2.34v1.54z"/><path class="cls-56" d="M130.02 52.65l5.83-3.36v-1.54l-5.83 3.37v1.53zM123.49 56.42l5.46-3.15v-1.54l-5.46 3.16v1.53zM120.72 58.02l1.71-.98V55.5l-1.71.99v1.53zM118.05 59.56l1.71-.98v-1.54l-1.71.99v1.53zM132.36 54.81l3.49-2.02v-1.53l-3.49 2.01v1.54z"/><path class="cls-57" d="M117.75 35.21l-4.84 2.8v-1.54l4.84-2.8v1.54z"/><path class="cls-56" d="M116.72 39.31l-3.81 2.2v-1.53l3.81-2.2v1.53zM115.66 43.42l-2.75 1.59v-1.53l2.75-1.59v1.53zM116.92 46.2l-4.01 2.32v-1.54l4.01-2.31v1.53zM115.66 50.43l-2.75 1.59v-1.53l2.75-1.59v1.53zM116.4 53.51l-3.49 2.01v-1.53l3.49-2.02v1.54zM114.81 57.93l-1.9 1.1v-1.54l1.9-1.09v1.53zM116.6 60.4l-3.69 2.13V61l3.69-2.13v1.53zM116.4 64.02l-3.49 2.02V64.5l3.49-2.01v1.53z"/><path class="cls-57" d="M129.81 56.28l1.48-.86v-1.53l-1.48.86v1.53z"/><path class="cls-56" d="M125.4 58.83l3.34-1.93v-1.54l-3.34 1.93v1.54zM155.95 44.77l6.99-4.03V39.2l-6.99 4.04v1.53zM152.37 46.84l2.51-1.45v-1.54l-2.51 1.45v1.54zM149.59 48.44l1.71-.99v-1.53l-1.71.99v1.53zM159.13 46.44l3.81-2.2v-1.53l-3.81 2.2v1.53zM153.4 49.75l4.66-2.7v-1.53l-4.66 2.69v1.54zM150.62 51.35l1.71-.99v-1.53l-1.71.99v1.53zM147.98 52.88l1.71-.99v-1.54l-1.71.99v1.54zM160.18 49.34l2.76-1.59v-1.54l-2.76 1.59v1.54zM158.17 50.49l.94-.54v-1.53l-.94.54v1.53zM155.4 52.1l1.71-.99v-1.53l-1.71.98v1.54zM152.77 57.12l10.17-5.87v-1.53l-10.17 5.86v1.54zM149.19 59.19l2.51-1.46V56.2l-2.51 1.45v1.54zM160.18 56.34l2.76-1.59v-1.53l-2.76 1.59v1.53zM153.72 60.07l5.39-3.11v-1.54l-5.39 3.12v1.53zM150.94 61.68l1.71-.99v-1.53l-1.71.98v1.54zM157.3 61.51l5.64-3.25v-1.54l-5.64 3.26v1.53zM152.16 64.48l4.07-2.35v-1.54l-4.07 2.36v1.53zM148.34 66.68l2.75-1.59v-1.53l-2.75 1.59v1.53zM161.03 62.86l1.91-1.1v-1.53l-1.91 1.1v1.53zM157.45 64.93l2.52-1.45v-1.54l-2.52 1.45v1.54zM152.33 67.88l4.05-2.34v-1.53l-4.05 2.34v1.53zM157.11 68.63l5.83-3.36v-1.54l-5.83 3.37v1.53zM150.58 72.4l5.46-3.15v-1.54l-5.46 3.16v1.53zM147.8 74l1.71-.98v-1.54l-1.71.99V74zM145.14 75.54l1.71-.99v-1.53l-1.71.99v1.53zM159.44 70.78l3.5-2.01v-1.54l-3.5 2.02v1.53zM144.84 51.19l-4.85 2.79v-1.53l4.85-2.8v1.54zM143.8 55.29l-3.81 2.2v-1.54l3.81-2.19v1.53zM142.75 59.4l-2.76 1.59v-1.53l2.76-1.59v1.53zM144 62.18l-4.01 2.31v-1.53l4.01-2.31v1.53zM142.75 66.41L139.99 68v-1.54l2.76-1.58v1.53zM143.49 69.49l-3.5 2.01v-1.53l3.5-2.02v1.54zM141.9 73.91l-1.91 1.1v-1.54l1.91-1.1v1.54zM143.68 76.38l-3.69 2.13v-1.53l3.69-2.13v1.53zM143.49 80l-3.5 2.01v-1.53l3.5-2.02V80zM156.89 72.26l1.49-.86v-1.53l-1.49.85v1.54zM152.48 74.81l3.34-1.93v-1.54l-3.34 1.93v1.54zM149.72 86.59l5.64-3.26V81.8l-5.64 3.26v1.53zM145.85 88.82l2.22-1.28V86l-2.22 1.29v1.53zM128.87 60.35l6.98-4.04v-1.53l-6.98 4.03v1.54zM125.28 62.42l2.52-1.46v-1.53l-2.52 1.45v1.54zM122.51 64.02l1.71-.99V61.5l-1.71.98v1.54zM132.04 62.02l3.81-2.2v-1.54l-3.81 2.2v1.54zM126.31 65.33l4.67-2.7V61.1l-4.67 2.69v1.54zM123.54 66.93l1.71-.99v-1.53l-1.71.98v1.54zM120.9 68.45l1.71-.98v-1.54l-1.71.99v1.53zM133.1 64.91l2.75-1.59v-1.53l-2.75 1.59v1.53zM131.09 66.07l.94-.54v-1.54l-.94.55v1.53zM128.31 67.67l1.71-.98v-1.54l-1.71.99v1.53zM125.69 72.69l10.16-5.86v-1.54l-10.16 5.87v1.53zM122.11 74.76l2.51-1.45v-1.53l-2.51 1.45v1.53zM133.1 71.92l2.75-1.59V68.8l-2.75 1.59v1.53zM126.64 75.65l5.39-3.11V71l-5.39 3.12v1.53zM123.86 77.25l1.71-.98v-1.54l-1.71.99v1.53zM130.22 77.09l5.63-3.26V72.3l-5.63 3.25v1.54zM125.08 80.06l4.07-2.36v-1.53l-4.07 2.35v1.54zM121.25 82.26l2.76-1.59v-1.53l-2.76 1.59v1.53zM133.95 78.44l1.9-1.1V75.8l-1.9 1.1v1.54zM130.37 80.5l2.51-1.45v-1.53l-2.51 1.45v1.53zM125.25 83.46l4.05-2.34v-1.53l-4.05 2.34v1.53zM130.02 84.21l5.83-3.37v-1.53l-5.83 3.36v1.54zM123.49 87.98l5.46-3.16v-1.53l-5.46 3.15v1.54zM120.72 89.58l1.71-.99v-1.53l-1.71.99v1.53zM118.05 91.12l1.71-.99V88.6l-1.71.98v1.54zM132.36 86.36l3.49-2.01v-1.54l-3.49 2.02v1.53zM117.75 66.76l-4.84 2.8v-1.53l4.84-2.8v1.53zM116.72 70.87l-3.81 2.19v-1.53l3.81-2.2v1.54zM115.66 74.98l-2.75 1.59v-1.54l2.75-1.59v1.54zM116.92 77.76l-4.01 2.31v-1.53l4.01-2.32v1.54zM115.66 81.99l-2.75 1.59v-1.54l2.75-1.59v1.54zM116.4 85.06l-3.49 2.02v-1.53l3.49-2.02v1.53zM114.81 89.48l-1.9 1.1v-1.53l1.9-1.1v1.53zM116.6 91.96l-3.69 2.13v-1.54l3.69-2.13v1.54zM116.4 95.57l-3.49 2.02v-1.53l3.49-2.02v1.53zM129.81 87.84l1.48-.86v-1.54l-1.48.86v1.54zM125.4 90.38l3.34-1.93v-1.53l-3.34 1.93v1.53zM122.63 102.17l5.64-3.26v-1.53l-5.64 3.25v1.54zM118.77 104.4l2.22-1.28v-1.54l-2.22 1.28v1.54z"/></g></g></g></svg>