<svg xmlns="http://www.w3.org/2000/svg" viewBox="0 0 14.63 18.14"><defs><style>.cls-1{fill:#fff;}</style></defs><title>33Ресурс 2</title><g id="Слой_2" data-name="Слой 2"><g id="_1200" data-name="1200"><path class="cls-1" d="M12.22,9.72A4.06,4.06,0,0,1,14.16,6.3a4.16,4.16,0,0,0-3.28-1.78c-1.4-.14-2.74.82-3.45.82s-1.8-.8-3-.78A4.41,4.41,0,0,0,.75,6.81c-1.58,2.75-.4,6.83,1.14,9.06.76,1.09,1.66,2.31,2.84,2.27s1.57-.74,2.94-.74,1.76.74,3,.72,2-1.11,2.75-2.21a10.15,10.15,0,0,0,1.24-2.55,4,4,0,0,1-2.41-3.64Z"/><path class="cls-1" d="M9.86,2.87A3.94,3.94,0,0,0,10.8,0,4.06,4.06,0,0,0,8.15,1.36a3.75,3.75,0,0,0-1,2.78A3.3,3.3,0,0,0,9.86,2.87Z"/></g></g></svg>