<svg xmlns="http://www.w3.org/2000/svg" viewBox="0 0 19.27 14.66"><defs><style>.cls-1{fill:#fff;}</style></defs><title>321321Ресурс 5</title><g id="Слой_2" data-name="Слой 2"><g id="_1200" data-name="1200"><path class="cls-1" d="M16.92,0H2.36A2.36,2.36,0,0,0,0,2.36v10a2.36,2.36,0,0,0,2.36,2.35H16.91a2.36,2.36,0,0,0,2.36-2.35v-10A2.36,2.36,0,0,0,16.92,0ZM18.2,12.31a1.29,1.29,0,0,1-1.28,1.28H2.36a1.28,1.28,0,0,1-1.28-1.28v-10A1.28,1.28,0,0,1,2.36,1.08H16.91a1.28,1.28,0,0,1,1.28,1.28v10Z"/><path class="cls-1" d="M12.15,7.21,16.87,3a.56.56,0,0,0,0-.76.55.55,0,0,0-.77,0L9.64,8,8.38,6.88h0l-.09-.08L3.12,2.18A.54.54,0,1,0,2.4,3L7.17,7.24,2.42,11.69a.55.55,0,0,0,0,.76.56.56,0,0,0,.39.17.5.5,0,0,0,.37-.14L8,8,9.29,9.14a.53.53,0,0,0,.36.13A.5.5,0,0,0,10,9.13l1.34-1.2,4.79,4.55a.55.55,0,0,0,.37.15.52.52,0,0,0,.4-.17.55.55,0,0,0,0-.76Z"/></g></g></svg>