<svg xmlns="http://www.w3.org/2000/svg" viewBox="0 0 18.01 18.04"><defs><style>.cls-1{fill:#fff;}</style></defs><title>321321Ресурс 4</title><g id="Слой_2" data-name="Слой 2"><g id="_1200" data-name="1200"><path class="cls-1" d="M14.24,11.17A1.79,1.79,0,0,0,13,10.58a1.84,1.84,0,0,0-1.3.59l-1.2,1.2-.29-.15L9.78,12A12.76,12.76,0,0,1,6.65,9.16a7.53,7.53,0,0,1-1-1.62c.31-.29.6-.59.88-.87l.32-.32a1.75,1.75,0,0,0,0-2.64l-1-1-.35-.36C5.2,2.07,5,1.83,4.71,1.6A1.82,1.82,0,0,0,3.44,1a1.89,1.89,0,0,0-1.3.56h0L.84,2.92A2.74,2.74,0,0,0,0,4.69,6.56,6.56,0,0,0,.5,7.51a16.57,16.57,0,0,0,2.91,4.86,18,18,0,0,0,6,4.67,9.46,9.46,0,0,0,3.35,1H13a2.88,2.88,0,0,0,2.2-.95s0,0,0,0c.2-.24.43-.45.67-.69s.33-.32.49-.49a1.89,1.89,0,0,0,.58-1.31,1.85,1.85,0,0,0-.59-1.31Zm1.36,4h0l-.46.46c-.25.24-.5.49-.74.77A1.82,1.82,0,0,1,13,17H12.8a8.37,8.37,0,0,1-3-.89,17,17,0,0,1-5.62-4.4A15.31,15.31,0,0,1,1.47,7.15,5.6,5.6,0,0,1,1,4.77a1.74,1.74,0,0,1,.53-1.13l1.3-1.3a.87.87,0,0,1,.58-.27A.81.81,0,0,1,4,2.34H4c.23.22.46.44.69.68l.36.37,1,1a.73.73,0,0,1,0,1.18L5.77,6c-.32.32-.62.63-.95.92l0,0a.78.78,0,0,0-.2.87v0a8.31,8.31,0,0,0,1.23,2h0a14,14,0,0,0,3.38,3.08,4.33,4.33,0,0,0,.47.25l.38.2,0,0a.76.76,0,0,0,1-.17l1.3-1.3a.87.87,0,0,1,.58-.28.74.74,0,0,1,.54.27L15.6,14a.75.75,0,0,1,0,1.19Z"/><path class="cls-1" d="M9.73,4.29a4.88,4.88,0,0,1,4,4,.52.52,0,0,0,.51.43h.09a.52.52,0,0,0,.42-.6,5.91,5.91,0,0,0-1.65-3.17A5.77,5.77,0,0,0,9.91,3.28a.51.51,0,0,0-.18,1Z"/><path class="cls-1" d="M18,8A9.73,9.73,0,0,0,10.05,0a.52.52,0,0,0-.59.42A.52.52,0,0,0,9.89,1,8.75,8.75,0,0,1,17,8.12a.51.51,0,0,0,.5.43h.09A.5.5,0,0,0,18,8Z"/></g></g></svg>