<svg xmlns="http://www.w3.org/2000/svg" viewBox="0 0 16.38 23.55"><defs><style>.cls-1{fill:#fff;}.cls-2{fill:none;stroke:#f5f5f5;stroke-miterlimit:10;stroke-width:0.75px;}</style></defs><title>321321Ресурс 6</title><g id="Слой_2" data-name="Слой 2"><g id="_1200" data-name="1200"><path class="cls-1" d="M11,19.46A17.16,17.16,0,0,0,12.37,18a16.49,16.49,0,0,0,2.75-4.16,13.51,13.51,0,0,0,1.26-5.69A8.19,8.19,0,0,0,0,8.19a12.87,12.87,0,0,0,1.28,5.48.36.36,0,0,0,.47.17.36.36,0,0,0,.16-.47A12.25,12.25,0,0,1,.7,8.19a7.49,7.49,0,0,1,15,0,12.89,12.89,0,0,1-1.19,5.39,15.92,15.92,0,0,1-2.63,4,18.9,18.9,0,0,1-3.65,3.19,25.43,25.43,0,0,1-5.6-6.09.34.34,0,0,0-.48-.11A.32.32,0,0,0,2,15a23.89,23.89,0,0,0,3.6,4.39A15.93,15.93,0,0,0,2.48,20c-1.16.36-1.75.84-1.75,1.41s.79,1.21,2.34,1.6a21.64,21.64,0,0,0,5.11.54h.08a22.24,22.24,0,0,0,5-.51c1.56-.39,2.35-.92,2.35-1.59,0-1.3-3-1.81-4.67-2Zm2.15,2.9a21.36,21.36,0,0,1-4.94.5,21.85,21.85,0,0,1-4.95-.52c-1.49-.38-1.81-.8-1.81-.93,0-.34,1.47-1.12,4.87-1.34.94.85,1.62,1.35,1.68,1.4a.39.39,0,0,0,.21.06.31.31,0,0,0,.18-.05,16.52,16.52,0,0,0,1.9-1.39c3.57.28,4.68,1.09,4.68,1.36s-.33.54-1.82.91Z"/><circle class="cls-2" cx="8.19" cy="8.18" r="3.6"/></g></g></svg>