<?xml version="1.0" encoding="utf-8"?>
<!-- Generator: Adobe Illustrator 23.0.3, SVG Export Plug-In . SVG Version: 6.00 Build 0)  -->
<svg version="1.1" id="Layer_1" xmlns="http://www.w3.org/2000/svg" xmlns:xlink="http://www.w3.org/1999/xlink" x="0px" y="0px"
	 viewBox="0 0 67 58.7" style="enable-background:new 0 0 67 58.7;" xml:space="preserve">
<style type="text/css">
	.st0{fill:#FB4137;}
</style>
<g>
	<path class="st0" d="M56.4,45.7c0.5,1.2,0.8,2.4,0.7,3.7c0,0.6,0.1,1.2,0.1,1.7c-0.1,0.9-0.5,1.8-0.6,2.7c-0.2,1.2-0.9,2-1.8,2.7
		c-0.9,0.6-1.7,1.4-2.7,1.7c-1.6,0.6-3.2,0.5-4.8,0c-0.7-0.2-1.5-0.4-2.2-0.6c-1.8-0.5-2.6-1.9-3.3-3.5c-0.3-0.7-0.5-1.4-0.7-2.1
		c-0.5,0.1-1,0.1-1.5,0.2c-0.1,0-0.3,0-0.4,0c-0.2-0.1-0.4-0.2-0.4-0.3c0-0.1,0.2-0.3,0.3-0.4c0.5-0.2,1.1-0.4,1.7-0.6
		c0.2-0.1,0.4-0.3,0.4-0.5c0.1-0.5,0.2-1.1,0.2-1.6c0.1-0.7,0.1-1.3,0.6-1.8c0.3-0.3,0.3-0.8,0.6-1.1c0.5-0.7,1-1.4,1.4-2
		c-0.2-0.7-1-1.1-0.8-2c0.8,0.2,1,0.9,1.4,1.5c0.1,0,0.2,0,0.3-0.1c0.7-0.9,1.7-1.2,2.8-1.4c0.5-0.1,1.1-0.2,1.6-0.3
		c2.1-0.4,4,0.1,5.7,1.4c0.4,0.3,0.6,0.8,1,1.2c0.7-0.5,1.4-1,1.9-1.9c0.1-0.1,0.3-0.2,0.4-0.3c0.1,0.2,0.2,0.4,0.2,0.6
		c0,0.7-0.3,1.1-0.8,1.6C57,44.6,56.8,45.2,56.4,45.7z M53.9,55.5c0.9-1.2,1.3-2.6,1.5-4c0.2-2.1-0.2-4-1-5.9
		c-0.7-1.5-1.6-2.8-3.4-3c-1-0.1-2,0.1-2.9,0.2c-0.6,0.1-1.3,0.2-1.7,0.5c-0.6,0.5-1.3,1-1.8,1.7c-0.5,0.7-1,1.4-1.4,2.2
		c-0.3,0.7-0.8,1.4-0.6,2.2c0.2,1.2,0.6,2.4,0.9,3.6c0.3,1.1,1,2.1,1.8,2.8c0.7-1,1.3-2.1,2.1-3c0.6-0.7,1.4-1.3,2.5-1.1
		c0.4,0.1,0.8,0.3,1.2,0.3c0.8,0.2,1.4,0.7,1.9,1.4C53.3,54.1,53.6,54.7,53.9,55.5z"/>
	<path class="st0" d="M24.6,27.2c-0.9-0.6-1.9-1.1-2.9-1.7c0.3-0.4,0.7-0.2,1.1-0.1c0.8,0.4,1.7,0.8,2.6,1.2
		c0.3-0.6,0.5-1.2,0.9-1.6c1-0.9,2-1.8,3.1-2.6c1.1-0.8,2.5-1,3.8-0.9c0.4,0,0.6-0.1,0.6-0.5c0-0.4,0.1-0.9,0.2-1.3
		c0-0.2,0.3-0.3,0.4-0.4c0.1,0.2,0.3,0.3,0.3,0.5c0,0.4-0.1,0.8-0.2,1.1c-0.2,0.7-0.1,0.8,0.6,1c1.4,0.4,2.8,0.9,4,1.9
		c0.4,0.4,0.7,0.9,1,1.4c0.5,1.1,1.1,2.1,1.5,3.3c0.2,0.6,0.2,1.3,0.2,1.9c0,1.1-0.5,2.2-0.5,3.3c0,0.8-0.6,1.6-1,2.3
		c-0.2,0.4-0.7,0.7-0.7,1c0,0.3,0.4,0.7,0.7,1c0.1,0.2,0.2,0.4,0.3,0.7c-1.1,0.1-1-1.1-1.7-1.4c-1,1.1-2.3,1.7-3.8,1.9
		c-1.6,0.2-3.2,0.1-4.7-0.5c-1.2-0.5-2.4-1-3.5-1.5c-0.1-0.1-0.5,0.1-0.6,0.3c-0.4,0.3-0.7,0.6-1.3,0.2c0.5-0.4,0.9-0.8,1.4-1.1
		C24.2,33.6,23.7,30.6,24.6,27.2z M37.6,36.4c0.3-0.3,0.6-0.5,0.9-0.7c0.7-0.9,1.2-1.8,1.5-2.9c0.3-1.2,0.5-2.5,0.1-3.7
		c-0.5-1.4-1.2-2.8-1.9-4.1c-0.5-1.1-1.6-1.5-2.6-2c-1.5-0.8-3-0.9-4.5-0.4c-1.7,0.5-2.6,2.2-4.2,2.9c-0.4,0.8-0.9,1.6-1.2,2.4
		c-0.3,0.9-0.3,2-0.4,2.9c0,0.1,0,0.2,0,0.2c0.2,0.9,0.5,1.7,0.9,2.5c0.6,1.3,1.5,2.3,2.4,3.3c0.5-1.2,1.1-2.3,1.6-3.5
		c0.4-0.8,0.8-1.4,1.8-1.4c0.7,0,1.4-0.1,2.1,0c0.3,0,0.7,0.1,1,0.3c0.7,0.7,1.3,1.5,1.8,2.3C37.3,35,37.4,35.7,37.6,36.4z"/>
	<path class="st0" d="M9.9,40.2c1.4-0.9,2.8-1.3,4.2-1.3c0.9,0,1.8,0.4,2.7,0.7c0.5,0.2,1,0.7,1.5,1c0.1,0.1,0.4,0,0.5-0.1
		c0.4-0.2,0.8-0.4,1.2-0.6c0.1-0.1,0.3,0,0.4,0c0,0.2,0,0.4-0.1,0.5c-0.3,0.4-0.7,0.7-1,1c0.1,0.4,0.2,0.8,0.3,1.2
		c0,0.2,0.1,0.3,0.2,0.4c1,1.4,1.3,3,1.5,4.6c0.1,0.9-0.1,1.7-0.1,2.6c0,0.2,0.2,0.5,0.3,0.6c0.9,0.6,1.9,0.6,2.9,0.6
		c0.5,0,1,0.2,1.5,0.2c-0.1,0.8-0.7,0.9-1.2,0.9c-1.4-0.2-2.9-0.1-4.3-0.6c-0.1,0-0.3,0-0.4,0.1c-1,1.2-2.2,2-3.7,2.5
		c-0.9,0.3-1.8,0.9-2.8,0.8c-1.4-0.1-2.9,0.1-4.1-0.9c-1.3-1.1-2.6-2.4-3.6-3.9c-0.2-0.3-0.3-0.7-0.4-1c-0.2-0.7-0.4-1.3-0.5-2
		c-0.1-0.5-0.1-1,0-1.5c0.2-1.4,0.6-2.8,1.6-3.8c0.5-0.5,1.2-1,1.8-1.4c0.3-0.2,0.5-0.3,0.3-0.8c-0.3-1.1-0.6-2.1-0.9-3.2
		C7.9,36.9,8,36.6,8,36.4c0.2,0.1,0.4,0.2,0.5,0.4c0.6,0.6,0.9,1.3,0.9,2.1C9.5,39.3,9.7,39.7,9.9,40.2z M16.6,53.8
		c1-0.6,1.8-1.1,2.4-2c0.5-0.7,0.8-1.5,1-2.4c0.3-1.7,0.2-3.3-0.5-4.9c-0.7-1.5-1.8-2.7-3.2-3.5c-1.3-0.7-2.6-1.3-4.2-0.6
		c-1.5,0.6-2.7,1.4-4,2.3c-1.2,0.9-1.7,2.3-2,3.7c-0.2,1.1,0.2,2.3,0.8,3.4c0.7,1.1,1.4,2.1,2.5,2.7c0.5-0.8,0.9-1.6,1.4-2.4
		c1-1.7,2.8-2,4.3-0.4C16.1,50.8,16.8,52.1,16.6,53.8z"/>
	<path class="st0" d="M14.3,13.4c1-0.6,2.1-1.3,3.1-1.9c0.2-0.1,0.4-0.2,0.6-0.2c0.2,0,0.4,0.2,0.5,0.3c-0.1,0.1-0.2,0.3-0.4,0.4
		c-0.9,0.6-1.8,1.2-2.7,1.7c-0.3,0.2-0.6,0.4-0.9,0.5c0.1,0.3,0.2,0.6,0.3,0.9c0.3,1.1,0.1,2.1-0.1,3.2c-0.2,0.7-0.2,1.5-0.4,2.2
		c-0.1,0.5,0.2,0.8,0.6,1c0.5,0.3,1,0.6,1.5,0.9c-0.8,0.5-1,0.4-2.8-0.6c-0.7,1.3-2,1.9-3.2,2.5c-1.3,0.7-2.7,0.5-4.1,0.4
		c0.1,1,0.2,1.9,0.3,2.9c0,0.4-0.1,0.7-0.5,0.6c-0.1,0-0.4-0.2-0.4-0.3c-0.1-0.9-0.2-1.8-0.3-2.7c0-0.4-0.2-0.6-0.7-0.6
		c-1.1-0.2-2-0.7-2.8-1.6c-1.5-1.7-2.4-3.7-2-6.1c0-0.1,0-0.3,0-0.4c0.6-1.1,1.2-2.3,1.8-3.4c1.1-2.2,2.9-3.2,5.2-3.5
		c2.3-0.3,4.3,0.2,5.9,1.9C13.5,12.3,13.8,12.8,14.3,13.4z M10.8,23.2c0.1,0,0.2-0.1,0.4-0.2c0.6-0.3,0.9-0.9,1.2-1.4
		c0.8-1,1.1-2.2,1.1-3.3c0.1-2.3-0.8-4.4-2.4-6.1c-0.9-0.9-1.9-1.5-3.3-1.3c-0.2,0-0.4,0.1-0.6,0.1c-1.3,0.1-2.3,0.6-3.1,1.6
		c-0.5,0.6-0.8,1.4-1.4,1.9c-0.8,0.8-1.3,1.7-1.6,2.7c-0.3,1,0.2,1.9,0.7,2.8c0.3,0.5,0.6,0.9,1,1.4c0.3,0.4,0.5,0.7,0.8,0.9
		c0.5-0.8,1-1.5,1.6-2.2c0.3-0.3,0.7-0.6,1.1-0.8c0.8-0.5,1.6-0.1,2.4,0.1C9,19.5,9.4,19.7,9.5,20C10,21,10.4,22.1,10.8,23.2z"/>
	<path class="st0" d="M46,10.6c-1.1-0.3-2.1-0.6-3.2-0.9c-0.1,0.2-0.1,0.5-0.2,0.7c-0.1,0.2-0.3,0.5-0.4,0.7
		c-0.1,0.2-0.2,0.4-0.3,0.6c0,0.1-0.1,0.2-0.1,0.2c-1.2,0.9-2.3,1.9-4,1.9c-0.8,0-1.5,0.2-2.3,0.3c0,0.1,0,0.3-0.1,0.4
		c-0.1,0.2-0.3,0.4-0.5,0.5c-0.1-0.2-0.4-0.5-0.4-0.7c0.3-0.8-0.2-0.9-0.7-1c-0.4-0.1-0.8-0.3-1.1-0.4c-2-0.7-2.7-2.3-3-4.2
		C29.6,8.1,29.5,7.9,29,8c-0.5,0.1-1,0.3-1.5,0.4c-0.6,0.1-1.2,0.2-1.8,0.3c0-0.1-0.1-0.2-0.1-0.3c0.4-0.2,0.8-0.5,1.2-0.7
		c0.6-0.2,1.2-0.3,1.8-0.5c0.1,0,0.3-0.1,0.4-0.1c0.7,0,1-0.2,1-0.9c0-1.9,1-3.2,2.3-4.5c1.4-1.5,3.8-2,5.7-1.5
		c2.2,0.6,3.6,2,4.7,3.9c0.1,0.2,0.2,0.3,0.2,0.5c0.1,1.2,0.2,2.4,0.3,3.6c0,0.4,0.2,0.6,0.5,0.6C44,9,44.6,9,45.1,9.2
		C45.7,9.4,46,9.7,46,10.6z M39.9,11.6c0.1-0.1,0.4-0.2,0.5-0.4c0.6-1.1,1.1-2.2,1.1-3.5c0-2.8-1.8-5.9-4.5-6.5
		c-0.3-0.1-0.6-0.3-0.8-0.2c-1,0.2-2.1,0.4-2.8,1.3c-0.3,0.4-0.8,0.6-1.1,0.9c-0.2,0.2-0.4,0.4-0.6,0.7c-0.8,1-0.6,2.2-0.9,3.4
		c-0.3,1,0.3,2.1,0.9,2.9c0.5,0.7,1,1.4,1.7,1.7c0.3-0.9,0.5-1.8,0.8-2.7c0.3-1.1,1.1-1.5,2.1-1.7c0.9-0.2,1.6,0.3,2,1
		C38.8,9.5,39.3,10.5,39.9,11.6z"/>
	<path class="st0" d="M61.6,28.9c0,0.4,0.2,0.9,0.1,1.5c-0.1,0.5,0.1,1.1-0.6,1.5c-0.1-0.2-0.1-0.4-0.1-0.6c0-0.4,0-0.8,0-1.2
		c-0.1-1.3-0.1-1.3-1.4-1.6c-1.5-0.4-2.9-0.9-4.4-1.4c-0.5-0.2-0.9-0.8-1.3-1.3c-0.2-0.3-0.4-0.6-0.6-0.9c-0.8-1.4-0.8-2.9-0.4-4.4
		c0.3-1.4,0.8-2.7,1.6-3.9c0.1-0.1,0-0.6-0.2-0.7c-0.6-0.6-1.2-1.1-1.8-1.6c-0.2-0.2-0.3-0.4-0.5-0.6c0.3-0.1,0.6-0.2,0.9-0.2
		c0.1,0,0.1,0,0.2,0c0.7,0.5,1.4,1,2,1.6c0.6,0.6,0.6,0.7,1.3,0.2c1.1-0.8,2.4-1.1,3.7-1c0.4,0,0.9,0.1,1.3,0c1.5,0,2.6,0.8,3.5,1.8
		c1.1,1.2,1.6,2.6,1.9,4.2c0.3,1.8,0,3.4-1,4.9C65.1,26.4,64,27.2,63,28C62.6,28.3,62.2,28.5,61.6,28.9z M64.3,24.7
		c0.1,0,0.1,0,0.2,0c0.2-0.5,0.5-0.9,0.6-1.4c0.1-0.8,0.2-1.6,0.1-2.4c-0.1-0.8-0.2-1.6-0.6-2.4c-0.4-0.8-0.9-1.5-1.5-2.2
		c-0.4-0.4-0.8-0.9-1.3-1.1c-0.6-0.2-1.4-0.2-2-0.2c-0.8,0.1-1.5,0.4-2.3,0.6c-0.4,0.1-0.8,0.4-1.2,0.6c-0.7,0.2-1.2,0.7-1.5,1.3
		c-0.4,1-0.8,2-1,3c-0.1,0.5-0.1,1.2,0.1,1.7c0.2,0.4,0.2,0.7,0.3,1.1c0.1,0.5,0,1.1,0.3,1.5c0.5,0.6,1.2,1,1.8,1.5
		c0.4,0.3,0.6,0.2,0.7-0.3c0.3-1.1,1.1-1.9,2-2.5c0.5-0.4,1.2-0.7,1.8-0.7C62.2,23.1,63.5,23.4,64.3,24.7z"/>
	<path class="st0" d="M6.9,30.7c0.2,0.3,0.4,0.7,0.5,1c0.2,0.7,0.3,1.4,0.4,2.1c0,0.2-0.1,0.3-0.2,0.5c-0.1-0.1-0.3-0.2-0.4-0.4
		c-0.2-0.9-0.5-1.8-0.7-2.7c0-0.1,0-0.3,0.1-0.5C6.7,30.8,6.8,30.8,6.9,30.7z"/>
	<path class="st0" d="M40.9,27.9c0.3-0.2,0.6-0.5,1-0.6c0.7-0.2,1.4-0.3,2.1-0.5c0.2,0,0.3,0.2,0.5,0.3c-0.1,0.1-0.2,0.4-0.4,0.4
		c-0.9,0.3-1.8,0.5-2.7,0.7c-0.1,0-0.3,0-0.5-0.1C40.9,28.1,40.9,28,40.9,27.9z"/>
	<path class="st0" d="M50.6,12.5c-0.9-0.4-1.8-0.7-2.6-1.1c-0.2-0.1-0.3-0.3-0.5-0.5c0.2-0.1,0.5-0.4,0.7-0.4
		C49,10.5,50.3,11.6,50.6,12.5z"/>
	<path class="st0" d="M20.6,24.5c-0.6,0.3-1.1,0.3-1.6-0.2c-0.3-0.2-0.7-0.3-1-0.5c-0.1-0.1-0.3-0.1-0.5-0.2c0.6-0.7,1.4-0.6,1.9,0
		C19.7,23.9,20.2,24.1,20.6,24.5z"/>
	<path class="st0" d="M28.2,52.7c0.5-0.5,3.4-0.9,4.1-0.5c-0.4,0.2-0.7,0.5-1.1,0.5c-0.8,0.1-1.7,0.1-2.5,0.1
		C28.6,52.8,28.4,52.7,28.2,52.7z"/>
	<path class="st0" d="M60.4,37.7c-0.4,0.8-0.8,1.5-1.2,2.2c-0.1,0.2-0.4,0.2-0.7,0.2c0-0.2,0-0.4,0.1-0.5c0.3-0.6,0.5-1.1,0.8-1.7
		C59.6,37.5,59.7,37.5,60.4,37.7z"/>
	<path class="st0" d="M61.5,33.7c0,0.2-0.1,0.3-0.1,0.5c-0.1,0.4-0.2,0.8-0.3,1.2c-0.1,0.2-0.3,0.4-0.5,0.5
		c-0.1-0.2-0.4-0.4-0.4-0.6c0-0.4,0.1-0.7,0.3-1.1C60.6,33.8,60.8,33.4,61.5,33.7z"/>
	<path class="st0" d="M49.2,25.9c-0.9,0.2-1.6,0.4-2.4,0.6c-0.2,0-0.4-0.2-0.6-0.3c0.1-0.1,0.3-0.3,0.4-0.3c0.6-0.2,1.2-0.4,1.8-0.5
		C48.8,25.2,48.8,25.3,49.2,25.9z"/>
	<path class="st0" d="M53.5,24.4c-0.2,0.1-0.4,0.2-0.6,0.2c-0.5,0.2-0.9,0.4-1.4,0.6c-0.3,0.1-0.5,0-0.8-0.1
		c0.1-0.3,0.2-0.6,0.4-0.7c0.4-0.2,0.8-0.4,1.2-0.5C53,23.6,53.5,23.6,53.5,24.4z"/>
	<path class="st0" d="M37,52c-0.8,0.8-1.7,0.6-2.6,0.5c0.1-0.7,0.7-0.7,1-0.8C35.9,51.7,36.5,51.5,37,52z"/>
	<path class="st0" d="M23.3,9.5c-1.2,0.4-2.3,0.9-3.5,1.3c0-0.1-0.1-0.2-0.1-0.2c0.9-0.7,2.1-1,3.1-1.4c0.1,0,0.3,0.1,0.5,0.1
		C23.4,9.4,23.3,9.4,23.3,9.5z"/>
	<path class="st0" d="M41,39.6c0.6-0.1,1.5,0.8,1.4,1.3c0,0.1-0.3,0.2-0.4,0.2C41.5,40.9,41,40.1,41,39.6z"/>
	<path class="st0" d="M35.1,16.1c-0.1,0.6-0.1,1.1-0.3,1.5c0,0.2-0.2,0.3-0.3,0.4c-0.1-0.1-0.3-0.3-0.3-0.4c0-0.4,0.1-0.8,0.2-1.2
		C34.5,16.2,34.8,16.2,35.1,16.1z"/>
	<path class="st0" d="M23.5,38.5c-0.6,0.3-1.2,0.6-1.9,0.9c0-0.6,0.4-0.9,1.2-1.1c0.2-0.1,0.5,0,0.7,0
		C23.6,38.4,23.6,38.5,23.5,38.5z"/>
	<path class="st0" d="M51.4,47.8c0.2,1.4-0.1,2.3-1.2,2.7c-0.6,0.2-1.4,0.1-2.1,0c-0.1,0-0.3-0.2-0.4-0.4c-0.4-0.6-0.2-2.2,0.2-2.7
		c1.1-1.4,1.4-1.4,2.9-0.6C51.1,47,51.2,47.4,51.4,47.8z"/>
	<path class="st0" d="M33.4,30.9c-0.9,0.2-2.2-0.5-2.4-1.2c-0.3-1.2,0.5-2.8,1.6-3.1c1.2-0.3,2.6,0.5,2.8,1.5
		C35.8,29.5,35,30.4,33.4,30.9z"/>
	<path class="st0" d="M14.9,44.1c0.3,1.3-0.7,3.1-1.8,3.2c-0.9,0.1-1.9,0-2.4-0.9c-0.5-0.9-0.5-1.9,0.1-2.8c0.6-1,1.7-1,2.8-0.9
		C14.3,42.7,14.7,43.4,14.9,44.1z"/>
	<path class="st0" d="M6.8,14.7c0.6-0.1,1.5,0.6,1.7,1.3c0.2,1.2-0.1,2.1-1,2.4c-1,0.3-2-0.4-2.3-1.5C5,15.9,5.7,15,6.8,14.7z"/>
	<path class="st0" d="M36.4,6.9c-0.8,0.2-2-0.3-2.1-0.9c-0.2-0.7,0.6-1.9,1.2-2.1c0.6-0.2,1.8,0.4,1.9,0.9C37.6,5.6,37,6.8,36.4,6.9
		z"/>
	<path class="st0" d="M57.8,20.6c-0.2-0.8,0.4-1.8,1.1-2c1.6-0.3,2.4,0.1,2.6,1.5c0.2,0.8-0.4,1.7-1.2,1.9
		C59.4,22.2,58,21.6,57.8,20.6z"/>
</g>
</svg>
