<?xml version="1.0" encoding="utf-8"?>
<!-- Generator: Adobe Illustrator 23.0.3, SVG Export Plug-In . SVG Version: 6.00 Build 0)  -->
<svg version="1.1" id="Layer_1" xmlns="http://www.w3.org/2000/svg" xmlns:xlink="http://www.w3.org/1999/xlink" x="0px" y="0px"
	 viewBox="0 0 57.2 64.1" style="enable-background:new 0 0 57.2 64.1;" xml:space="preserve">
<style type="text/css">
	.st0{fill:#FB4137;}
</style>
<g>
	<path class="st0" d="M4.7,36c-1.9-1.9-3.1-4.2-4.1-6.6c-1.5-3.6-0.1-7.2,1.3-10.5c0.7-1.8,2-3.4,3.2-4.9c1.5-1.9,3.2-3.8,5-5.6
		c1.1-1,2.4-1.9,3.7-2.6C15.3,5,17,4.5,18.8,4.4c2.3-0.2,4.4-0.3,6.5,1c0.6,0.4,1,0.3,1.6-0.2c1-1,2.1-1.9,3.1-2.9
		c0.5-0.5,0.8-1.1,1.2-1.7C31.4,0.3,31.8,0,31.9,0c0.3,0.2,0.6,0.5,0.7,0.8c0.1,0.4,0,1,0.1,1.4c0.4,1.7,0.8,3.4,1.2,5.2
		c0.2,1,0.3,2,0.5,2.9c0.4,2,0.8,4,1.2,5.7c0.7-0.5,1.6-1.2,2.5-2c1.1-0.9,2.4-1.7,3.1-2.8c0.7-1.1,1.6-1.1,2.7-1.5
		c-0.1,1.7,1.2,2.2,2.1,3c1.4,1.4,2.8,2.8,4.1,4.2c1.1,1.2,2.2,2.5,3.2,3.7c0.2,0.3,0.5,0.9,0.4,1.2c-0.4,1.1-1,2.2-1.5,3.3
		C52,25.5,51.9,26,52,26.3c0.4,0.7,1,1.2,1.5,1.9c1.9,2.6,4.1,5,3.6,8.6c-0.2,1.7,0,3.5-0.3,5.2c-0.2,1.2-0.9,2.3-1.4,3.4
		c-1.4,2.8-3,5.5-5.3,7.6c-0.9,0.9-1.7,1.9-2.6,2.9c-0.9,1-1.7,2.2-2.7,3c-1.4,1.2-2.9,2.2-4.4,3.3c-1.4,1.1-3,1.5-4.7,1.5
		c-0.8,0-1.5,0.2-2.3,0.1c-0.7,0-1.5-0.1-2.1-0.4c-2-1-3.9-2.2-5.9-3.3c-1,1.1-2,2.3-3.1,3.5c-0.6,0.7-1.1,0.6-1.2-0.3
		c-0.1-0.7,0-1.4,0-2.2c-0.1-4-0.1-8.1-0.2-12.1c-0.1-0.1-0.3-0.1-0.4-0.2c-0.5,0.5-1.1,0.9-1.5,1.4c-1.3,1.3-2.5,2.7-3.8,4
		c-1,0.9-2.6,0.8-3.5-0.1c-0.3-0.3-0.7-0.6-1-0.8c-1.2-0.7-2.5-1.3-3.6-2.2c-1.7-1.4-3.1-2.9-4.7-4.4c-1.4-1.3-1.5-2-0.4-3.6
		c1.3-1.8,2.7-3.6,4.1-5.6C5.6,37.1,5.2,36.5,4.7,36z M39.3,37.9c-0.5,0.5-0.9,0.3-1.3-0.1c-0.7-0.8-1.4-1.6-2.3-2.3
		c-1.5-1.2-3.2-2.1-4.7-3.3c-1.6-1.2-3.1-2.5-4.5-3.9c-0.9-0.8-0.9-1.9,0-2.8c1.9-2,3.9-4,5.8-6c0.6-0.6,1-1.4,1.6-2.1
		c-2.9-0.4-13.2,0.7-17.7,2.2c-0.8-0.9-0.7-1.8,0.1-2.7c0.8-0.9,1.5-1.9,2.3-3c-1.3,0-2.4-0.1-3.5,0c-1.1,0.1-2.2,0.2-3.2,0.5
		c-3.3,1.1-5,3.4-3.4,6.9c1.4,3.2,3.3,6.2,5.9,8.6c0.1,0,0.1,0.1,0.2,0.1c1.3-0.9,2.6-1.9,3.9-2.7c0.4-0.2,1.1-0.2,1.4,0
		c1.7,1.3,3.6,2.4,4.7,4.3c0.4,0.7,0.8,1.3,1.2,2c0.4,0.7,0.9,1.3,1.3,1.9c0.7,0.8,1.5,1.6,2.1,2.4c0.9,1.4,0.6,2.6-0.6,3.7
		c-1.7,1.6-3.4,3.4-5.2,5.2c4.3,0.1,8.5,0.2,12.9,0.4c-0.1,0.3-0.1,0.9-0.3,1.2c-0.9,1.1-1.9,2.2-3,3.3c-0.6,0.6-0.4,1,0.1,1.3
		c2,1.4,4.1,2.6,6.5,3c0.6,0.1,1.3-0.1,1.9-0.3c1.3-0.4,2.6-0.8,3.7-1.5c1.9-1.2,1.9-3.2,1.9-5.2c0-0.9-0.2-1.8-0.1-2.7
		c0.1-2.1-0.5-3.9-1.7-5.6c-0.8-1.1-1.3-2.4-2-3.6c-0.4-0.7-0.9-1.3-1.5-2.2C41,36.2,40.1,37,39.3,37.9z M51.5,22.3
		c-2.2-3.7-5.3-6.5-8.4-9.3c-0.9-0.8-1.6-0.6-2.3,0.1c-2.1,1.8-4.3,3.5-6.3,5.4c-1.5,1.4-2.7,3.1-4,4.7c-0.3,0.4-0.6,0.9-0.9,1.3
		c-1.2,1.3-1.2,1.3,0.1,2.5c3,2.9,6.1,5.6,9.3,8.6C43.3,31,47.4,26.6,51.5,22.3z M18.5,16.8c0.1,0.1,0.1,0.2,0.2,0.3
		c4.9-0.6,9.8-1.3,14.7-1.9c-0.7-3.9-1.4-7.8-2.1-11.7c-0.1,0-0.3-0.1-0.4-0.1c-0.5,0.5-1.1,0.9-1.6,1.4c-0.8,0.8-1.6,1.7-2.5,2.4
		c-0.2,0.1-0.6,0.1-0.8,0c-3.3-2.6-7-2-10.4-0.9c-2.1,0.7-4.2,2-5.6,4c-0.7,1-1.7,1.8-2.4,2.8C6,15,4.8,17,3.8,19.1
		c4.7-5.5,10.5-7.7,17.7-6.5C20.5,13.9,19.5,15.4,18.5,16.8z M44.2,34.2c1.5,2.3,3.1,4.7,4.6,7.1c1.4,2.2,1.1,4.6,0.7,6.9
		c-0.2,1.4-0.7,2.7-1.1,4c0.1,0.1,0.2,0.1,0.2,0.2c0.8-0.8,1.5-1.7,2.4-2.4c2-1.7,2.7-4.2,3.9-6.3c0.5-1,0.5-2.3,0.6-3.4
		c0.1-1.1-0.2-2.2,0-3.3c0.2-1.1,0-2.2-0.5-3.1c-1-1.6-2.1-3.1-3.3-4.9C49,30.9,46.6,32.6,44.2,34.2z M11.1,36.1
		c-2.2,2.2-5,3.8-6.6,6.7C4,43.7,4,44.3,4.9,45c1.1,0.9,1.9,2.1,2.9,3.1c1.6,1.4,3.2,2.8,4.9,4.1c0.6,0.5,1.3,0.6,2-0.1
		c1.3-1.4,2.8-2.8,4.3-4.1c1.3-1.2,2.7-2.2,4-3.4c1.5-1.4,2.9-2.9,4.3-4.4c0.2-0.2,0.4-0.8,0.3-1c-0.4-0.9-0.9-1.7-1.5-2.4
		c-1.2-1.6-2.5-3.2-3.9-4.7c-0.9-1.1-2-2-3.1-3C16.2,31.5,13.5,33.6,11.1,36.1z"/>
	<path class="st0" d="M36,26.3c3-2.8,6-5.1,7.7-9c-0.5,0.3-0.9,0.4-1.2,0.6c-1.3,1.1-2.5,2.3-3.7,3.5c-0.9,0.8-1.7,1.6-2.6,2.4
		C35.7,24.5,35.6,25.2,36,26.3z"/>
	<path class="st0" d="M45.3,19.9c-1.4,1.3-2.9,2.5-4.2,3.8c-1.2,1.2-2.3,2.4-3.5,3.6c-0.6,0.5-0.3,0.9,0.1,1.3
		c0.4,0.5,0.8,0.2,1.1-0.2c1.3-1.4,2.5-2.9,3.8-4.3c0.9-1,1.9-1.9,2.8-2.9c0.2-0.3,0.3-0.7,0.4-1.1C45.6,20.1,45.4,20,45.3,19.9z"/>
	<path class="st0" d="M18.4,32.4c1.8,1.8,3.7,3.6,5.3,5.6c1.3,1.5,1.1,2.2-0.5,3.6c-1.4,1.3-2.9,2.5-4.2,3.9
		c-1.4,1.5-2.7,3.1-4.1,4.6c-0.4,0.5-0.8,0.5-1.3-0.1c-1.2-1.4-2.4-3-4.5-3.3c-1.3-0.2-2.2-2.4-1.4-3.5c0.8-1.2,1.7-2.4,2.8-3.5
		c2.5-2.6,5-5,7.6-7.5C18.2,32.3,18.3,32.3,18.4,32.4z M20,40.5c-1.2-0.5-2.4-0.6-3.7-0.2c-1,0.4-2.1,0.5-3,0.9
		c-0.9,0.4-2.2,0-2.8,1.5C13.8,42,16.9,41.2,20,40.5z M22,38c-0.2-0.6-0.6-0.8-1.3-0.6c-0.9,0.2-1.8,0.3-2.7,0.3
		c-1.7,0-3.2,0.7-4.6,1.5c0,0.1,0.1,0.2,0.1,0.3C16.3,39,19.1,38.5,22,38z M19.1,42.6c-2.9,0.4-5.8,0.6-8.4,2
		C13.6,44,16.7,44.6,19.1,42.6z M15.5,36.4c0,0.1,0,0.2,0.1,0.4c1.1-0.2,2.3-0.5,3.4-0.7c0-0.1-0.1-0.3-0.1-0.4
		C17.8,35.9,16.6,36.2,15.5,36.4z"/>
</g>
</svg>
