<?xml version="1.0" encoding="utf-8"?>
<!-- Generator: Adobe Illustrator 23.0.3, SVG Export Plug-In . SVG Version: 6.00 Build 0)  -->
<svg version="1.1" id="Layer_1" xmlns="http://www.w3.org/2000/svg" xmlns:xlink="http://www.w3.org/1999/xlink" x="0px" y="0px"
	 viewBox="0 0 81.8 54.9" style="enable-background:new 0 0 81.8 54.9;" xml:space="preserve">
<style type="text/css">
	.st0{fill:#FB4137;}
</style>
<g>
	<path class="st0" d="M18.4,0.8C18.5,0.5,18.7,0.1,19,0c0.3-0.1,0.8,0.1,0.9,0.4c0.6,1.1,1.2,2.2,1.7,3.4c1.1,2.8,2.6,5.3,3.4,8.3
		c0.4,1.5,1.2,2.9,1.8,4.3c0.2,0.5,0.5,0.9,0.7,1.3c0.4,1,0.6,2.2,1.1,3.2c1.5,3,3,6.1,4.7,9c1.2,2.1,2.7,4.1,3.8,6.3
		c1.4,2.7,2.7,5.6,3.9,8.4c1,2.2,1.9,4.5,2.8,6.8c0.3,0.6,0.5,1.3,0.5,2c0,0.4-0.4,1-0.8,1.3c-0.3,0.3-0.9,0.3-1.2-0.3
		c-1.3-1.9-2.9-3.5-3.9-5.6c-0.8-1.6-1.8-3-2.7-4.5c-1.4-2.4-2.7-4.8-4.1-7.2c-0.8-1.3-1.8-2.6-2.6-3.9c-1.1-1.9-2.1-4-3.1-6
		c-0.5-1-1-2-1.4-2.9c-0.2-0.5-0.4-1.1-0.7-1.5c-0.3-0.5-0.8-0.9-1.1-1.4c-0.9-1.8-1.7-3.7-2.7-5.4c-0.8-1.4-1.9-2.7-2.8-4.1
		c-1-1.4-1.9-2.8-2.9-4.2c-0.4-0.6-0.8-1.2-1.3-1.8c-0.3-0.4-0.6-0.7-0.9-1c0.7-0.6,1.3-1.1,1.9-1.6C14,2.8,14,2.6,13.9,2.2
		c0.5,0,1-0.2,1.1,0c0.5,0.8,1.3,0.6,2,0.9c-0.2-0.4-0.3-0.8-0.5-1.1c-0.3-0.5-0.1-0.8,0.3-0.8c0.5,0,1.1,0.1,1.6,0.2
		C18.4,1.3,18.3,1.1,18.4,0.8z M41.2,47.8c-0.9-1.5-1.8-3-2.2-4.8c-0.4-2.1-1.9-3.6-2.8-5.4c-1.7-3.2-3.9-6.1-5.4-9.4
		c-0.7-1.6-1.6-3.1-2.5-4.7c-1.4,0.1-2,1.1-1.3,2.3c2.2,3.9,4.5,7.8,6.7,11.8c1.1,2,2.1,4.1,3.3,6.1c1.9,3.3,3.8,6.5,5.8,9.7
		C43.6,53.6,43.3,51.9,41.2,47.8z M22.9,18.4c0.9-0.6,1.8-1.1,2.8-1.7c-0.6-1.3-1.2-2.7-1.9-4.1c-0.1-0.1-0.6-0.2-0.7-0.1
		c-0.4,0.3-0.7,0.8-1.1,1.1c-0.2,0.2-0.4,0.4-0.7,0.7C21.7,15.7,22.3,17,22.9,18.4z M26.6,20.9c0.5-0.3,0.7-0.7,0.4-1.3
		c-0.4-0.6-0.9-1.2-1.4-1.8c-0.7,0.5-1.3,0.9-2,1.3c0.4,0.9,0.9,1.8,1.3,2.7C25.5,21.5,26,21.3,26.6,20.9z M22.2,9.1
		c0.1-0.1-1.1-3.7-3-6c-0.1,0-0.1,0.1-0.2,0.1C19.5,4,21.7,8.3,22.2,9.1z"/>
	<g>
		<path class="st0" d="M13,45c-0.7,0.1-1.2,0.4-1.1,1c0.1,0.4,0.5,0.9,0.9,1.1c0.4,0.2,1.1-0.5,1.1-1C13.9,45.5,13.4,45,13,45z"/>
		<g>
			<path class="st0" d="M2.9,46.2c-0.7,0.1-1.4,0.2-2-0.4c-1.3-1.3-1.1-4.1,0.1-5.5c1.4-1.6,3.2-3,2.6-5.5c0-0.1,0-0.3,0-0.4
				c-0.1-0.3-0.2-0.6-0.4-0.7c-1-0.6-1.1-1.6-1.1-2.6c0-0.3-0.1-0.7-0.1-1c0.1-1-0.4-2,0.4-2.9c0.7-0.7,1.5-1.3,2.5-1.4
				c1.3-0.1,2.6-0.3,4-0.3c3.9-0.1,7.6,0.4,11.2,2c1.9,0.9,2.6,1.9,2.6,4c0,0.2,0,0.3,0,0.5c0.2,1.3-0.5,2.1-1.6,2.6
				c-0.2,0.1-0.5,0.4-0.5,0.6c-0.1,1.1-0.1,2.2-0.1,3.3c-0.1,2.8-0.1,5.5-0.2,8.3c0,1.3-0.8,2.2-1.7,3c-1.3,1.1-3,1.2-4.6,1.6
				c-0.9,0.2-1.8,0.5-2.7,0.4c-1.1,0-2.2-0.2-3.3-0.5c-1.7-0.3-3.3-0.8-4.2-2.5c-0.1-0.2-0.1-0.4-0.1-0.6c0.1-0.7,0.2-1.4,0.4-2.3
				C3.4,46.1,3.2,46.2,2.9,46.2z M17.4,42.2c0.2-2,0-4,0-6c-0.1,0-0.3,0-0.4-0.1c-0.1,0.3-0.3,0.6-0.3,0.9c-0.1,2-0.1,3.9-0.2,5.9
				c0,1-0.1,1.9-1.2,2.3c-0.4,0.2-0.7,0.2-0.9-0.3c-0.8-1.8-1-3.7-0.6-5.7c0.1-0.3,0-0.6,0.1-0.9c-1.3,1.2-2.4,2.3-3.7,3.4
				c-1.5,1.2-3.1,2.2-4.7,3.3c-0.5,0.3-0.9,0.5-0.6,1.2c0.1,0.2,0.1,0.4,0,0.5c-0.3,1.5,0.8,2.1,1.8,2.6c1.8,0.8,3.7,1.3,5.7,1.1
				c1.3-0.1,2.6-0.2,3.7-0.6c1.6-0.6,3.1-2,2.8-4.5C17.9,44.5,17.3,43.6,17.4,42.2z M3.4,30.4c-0.2,2.3,0.4,2.5,2.4,3.3
				c1.7,0.6,3.5,1,5.3,1.2c2.3,0.3,4.7,0.5,7-0.1c1-0.3,2.1-0.4,2.9-1.3c0.9-1.1,0.6-2.9-0.5-3.9c-2.4-2.1-5.4-2.6-8.3-2.8
				c-2.1-0.2-4.2,0-6.3,0c-0.3,0-0.5,0.1-0.8,0.1c-1.1,0.2-1.6,0.8-1.6,1.9c0,0.3,0,0.7,0,1c0,0,0,0,0,0C3.4,29.9,3.5,30.2,3.4,30.4
				z M5.1,34.7c-0.1,2.5-0.3,4.8-0.4,7.4c2.6-1.2,5.1-2.2,5.1-5.8C8.4,35.8,6.8,35.3,5.1,34.7z M1.3,42.8c-0.1,0.5,0,1,0.1,1.5
				C1.6,45,2,45.3,2.8,45c1-0.5,2.2-0.7,3.1-1.3c1.4-0.9,2.7-2,4.1-3c0.4-0.3,0.7-0.8-0.2-1.2c-0.5,0.5-1,1.1-1.6,1.7
				c-1.4,1.4-3,2.4-5.1,2.6C2,43.9,1.7,43.5,2,42.5c0.2-0.7,0.7-1.4,1-2.1c0.3-0.6,0.5-1.3,0.7-1.9c-0.1,0-0.2,0-0.3-0.1
				C2.4,39.8,1.5,41.1,1.3,42.8z M11.6,38.9c0.5,0.2,1.2-0.6,1.2-1.1c-0.1-0.6-0.3-1.2-1-1.1c-0.8,0-1,0.3-1,1.4
				C10.9,38.2,11.2,38.7,11.6,38.9z"/>
			<path class="st0" d="M4.9,30.9c-0.7-1.1-0.2-2.6,1.1-2.7c2.1-0.2,4.3-0.2,6.4-0.3c0.3,0,0.7,0.2,1.1,0.2c2,0.3,4.1,0.4,5.9,1.8
				c0.8,0.6,0.9,1,0.1,1.7c-2.2,1.9-5.4,1.4-7.3,1.2C9.1,32.5,5.4,31.8,4.9,30.9z M17.7,30.4c-3.7-1.6-7.6-1.8-11.5-0.9
				C10,29.8,13.8,30.7,17.7,30.4z"/>
		</g>
	</g>
	<g>
		<path class="st0" d="M55.8,35.3c-1.5,0-2.9,0-4.4-0.1c-1,0-2.1-0.1-3.1-0.2c-0.7-0.1-1.4-0.3-2.1-0.3c-0.8,0.1-1.3-0.3-1.7-1
			c-1-2-2.1-3.9-3.1-5.9c-1.4-2.9-2.7-5.9-4-8.9c-1.4-3.1-2.8-6.2-4.2-9.4c-0.5-1.1-0.1-1.7,0.9-1.6c2.3,0.2,4.6,0.5,6.8,0.6
			c2.4,0.1,4.7,0,7.1,0.1c2.7,0.1,5.4,0.3,8.1,0.6c1.2,0.1,2.4,0.5,3.7,0.5c1.5,0,3.1,0.6,4.6,0.3c0.1,0,0.1,0,0.2,0
			c2.1,0.3,4.2,0.6,6.3,0.8c0.7,0.1,1.2,0.4,1.5,1c0.8,1.8,1.6,3.6,2.4,5.4c0.2,0.6,0.5,1.1,0.7,1.7c0.4,1.1,0.7,2.2,1.2,3.3
			c0.9,2,1.8,4,2.7,6c0.8,2,1.5,4,2.3,5.9c0.3,0.9,0.3,0.9-0.5,1.2c-0.1,0-0.2,0.1-0.3,0.2c-0.5,0.2-1,0.4-1.6,0.4
			c-1.1,0-2.2-0.2-3.3-0.2c-2.4,0-4.8,0-7.1,0c-1.6,0-3.2-0.1-4.9-0.1c0.2,3.5,0.4,7,0.6,10.5c0.6,0,1.3,0,2,0
			c1.5,0.1,3.1,0.1,4.6,0.2c0.5,0,1.1,0,1.6,0.2c0.4,0.2,1.1,0.2,1,0.9c0,0.5-0.1,2.2-0.2,2.7c-0.1,0.5,0,1.1-0.8,1.1
			c-3.7,0-7.3-0.1-11-0.1c-2.2,0-4.5-0.1-6.7-0.2c-0.7,0-1.4-0.2-2.1-0.2c-1.1,0-2.2,0.1-3.3,0.1c-0.1,0-0.4-0.2-0.5-0.3
			c-0.2-1.2-0.2-2.9-0.4-4.1c-0.1-0.6,0.5-0.7,0.6-0.7c1.9,0.1,3.4,0.1,5.3,0.2c0.5,0,0.9,0,1.4,0c0.9,0,1.8,0,2.6,0.1
			c0.4,0,0.6-0.1,0.5-0.5c-0.1-1-0.3-2-0.4-3.1c-0.2-2.4-0.4-4.8-0.5-7.1C57.5,35.4,56.7,35.3,55.8,35.3z M55.6,33.3
			c1.8,0,3.6,0.1,5.4,0.2c0.2,0,0.4,0,0.6,0c1.4,0.1,2.7,0.2,4.1,0.2c2,0.1,4.1,0.2,6.1,0.3c2.5,0.1,5,0.3,7.4,0.5
			c0.3,0,0.6-0.1,0.9-0.1c-0.1-0.4-0.1-0.7-0.2-1.1c-0.3-0.5-0.7-0.9-0.9-1.4c-0.9-1.9-1.7-3.8-2.6-5.7c-0.5-1.2-1.1-2.3-1.6-3.5
			c-0.8-1.9-1.6-3.9-2.4-5.8c-0.7-1.6-1.5-3.2-2.3-4.7c-0.1-0.1-0.4-0.2-0.7-0.2C69,12,68.6,12,68.1,12c-0.5-0.1-1.1-0.1-1.6-0.2
			c-0.8-0.1-1.7-0.2-2.5-0.2c-0.4,0-0.9,0-1.3,0.1c-0.9,0.3-1.9-0.3-2.8-0.4c-0.5,0-1,0-1.6-0.1c-0.4,0-0.8,0-1.1-0.1
			c-1.4-0.2-2.8-0.5-4.2-0.7c-1.4-0.1-2.7-0.1-4.1-0.2c-1.3,0-2.7,0.1-4,0.1c-0.6,0-1.3,0-1.9-0.1c-1.6-0.1-3.2-0.3-4.9-0.4
			c-0.8-0.1-1.5-0.1-2.3-0.1c-0.6,0-0.2,0.4-0.1,0.7c0.6,1.4,1.2,2.9,1.8,4.3c1.6,3.7,3.2,7.3,4.8,11c0.6,1.3,1.4,2.4,2.1,3.7
			c0.6,1,1,2.1,1.5,3.1c0.2,0.5,0.5,0.6,1,0.6c1.2,0.1,2.4,0.2,3.6,0.4C52.2,33.4,53.9,33.3,55.6,33.3z M50.3,48.7
			c0.7,0,8,0.2,8.3,0.2c2.7,0,5.3,0,8,0.1c1.4,0,2.7,0.2,4.1,0.4c0.3,0,0.6,0,1,0c0.5,0,0.7-0.1,0.8-0.7c0.1-1-0.2-1.4-1.3-1.5
			c-0.8,0-1.6-0.1-2.4-0.1c-1.1,0-2.1,0.1-3.2,0.1c-0.4,0-0.9-0.1-1.3-0.2c-2.2,0-4.5-0.1-6.7-0.1c-0.5,0-2.6,0.1-2.7,0.1
			c-1.5,0.1-3.2-0.3-4.7-0.2C50.1,47.2,50.2,48.4,50.3,48.7z M60.4,45.9c1.1,0.2,2,0.6,2.9,0.2c-0.1-0.8-0.2-1.6-0.2-2.4
			c0-0.5,0-1-0.1-1.5c-0.1-1-0.2-2.1-0.4-3.1c0-0.2-0.2-0.4-0.3-0.5c-0.8-0.4-1.6-0.8-2.4-1.2C60.2,40.2,60.3,43,60.4,45.9z"/>
		<path class="st0" d="M47.8,29.6c-0.9-1.8-1.8-3.5-2.7-5.3c-0.1-0.2-0.3-0.5-0.4-0.7c-0.8-0.9-1.1-1.9-1.5-3
			c-0.5-1.2-0.8-2.4-1.3-3.5c-0.6-1.3-1.4-2.6-2.1-3.9c-0.4-0.7-0.2-1.5,0.4-1.5c0.7,0,1.5,0,2.2,0c2.2,0.1,4.5,0.3,6.7,0.4
			c0.8,0,1.6,0,2.5,0.1c0.8,0.1,1.6,0.1,2.4,0.2c0.9,0.1,1.8,0.2,2.6,0.4c0.5,0.1,1,0.2,1.6,0.3c3.4,0.3,6.8,0.6,10.2,0.9
			c0.5,0,0.8,0.2,0.7,0.7c0,0.2,0.1,0.4,0.2,0.6c0.5,1.1,1,2.1,1.5,3.1c1.1,2.4,2.1,4.8,3.1,7.1c0.9,2,1.7,4,2.6,6
			c-0.4,0-0.6,0.1-0.9,0.1c-1-0.1-2-0.3-3-0.3c-1.4-0.1-2.8-0.2-4.3-0.2c-1.8,0-3.7-0.5-5.4,0.1c-0.1,0-0.3,0-0.4,0
			c-1.1-0.2-2.3-0.4-3.4-0.5c-1.1-0.1-2.2-0.2-3.3-0.2c-2.6-0.2-5.3-0.4-8-0.6C47.9,29.9,47.9,29.8,47.8,29.6z M45.4,22.4
			c0.8,1.6,1.6,3.1,2.4,4.7c0.3,0.5,0.5,1.1,0.7,1.6c0.1,0.2,0.3,0.4,0.5,0.4c0.8,0.1,1.7,0.3,2.5,0.3c1.6,0.1,3.3,0.3,4.9,0.4
			c1.9,0.1,3.9,0.2,5.8,0.3c2.5,0.1,4.9,0.3,7.4,0.4c0.1,0,0.2,0,0.2,0c-0.2-0.9-0.3-1.7-0.5-2.6c-0.3-1-0.6-2-1-3
			c-0.3-0.8-0.7-1.5-1.1-2.3c-0.7-1.4-1.9-1.4-2.9-1.2c-0.2,0-0.4,0.4-0.4,0.7c0.1,1.5-0.6,2.5-1.7,3.3c-0.8,0.5-2,0.6-2.9,0
			c-0.1-0.1-0.2-0.1-0.4-0.2c-0.7-0.4-1.2-0.9-1.4-1.8c-0.2-0.9-0.9-1.7-1.4-2.6c-0.4-0.7-0.8-1.4-1.4-2c-1.3-1.4-2.9-2.1-4.6-2
			c-0.4,0-0.7,0.5-1,0.8c-0.6,0.7-1.2,1.5-1.9,2.1c-0.5,0.5-1.2,0.6-1.9,0.1c-0.3-0.2-0.6-0.3-1.1-0.5C44.7,20.7,45,21.6,45.4,22.4z
			"/>
		<path class="st0" d="M52.5,25.4c1,0.1,1.6-0.4,1.8-1.4c0.1-0.4,0.2-0.8,0.3-1.2c0.1-0.6-0.2-1-0.7-1.3c-0.9-0.6-1.9-0.5-2.8-0.2
			c-0.3,0.1-0.5,0.5-0.6,0.8C49.9,23.7,50.8,25.3,52.5,25.4z"/>
	</g>
</g>
</svg>
