<?xml version="1.0" encoding="utf-8"?>
<!-- Generator: Adobe Illustrator 23.0.3, SVG Export Plug-In . SVG Version: 6.00 Build 0)  -->
<svg version="1.1" id="Layer_1" xmlns="http://www.w3.org/2000/svg" xmlns:xlink="http://www.w3.org/1999/xlink" x="0px" y="0px"
	 viewBox="0 0 94 48.4" style="enable-background:new 0 0 94 48.4;" xml:space="preserve">
<style type="text/css">
	.st0{fill:#FB4137;}
</style>
<g>
	<path class="st0" d="M15.4,8.2c-0.7-1.3-1.3-2.5-2-3.8c-2,1.3-4.2,1.1-6.3,0.8c-1.3-0.1-2-1.2-1.9-2.7c1.1,0,2.3,0,3.4,0
		c1.2-0.1,2.3-0.2,3.5-0.3c3.1-0.1,3.9-0.3,5.4,2.9c0.5,1,0.9,2.1,1.3,3.1c2.1,0.1,4.2,0.3,6.4,0.4c1.1,0.1,2.7,1.8,2.7,3
		c0,1.3,0,2.5,0,4.2c1.3-1.1,2.3-2,3.4-2.8c0.9-0.7,1.9-1.5,2.9-2.1c0.6-0.4,3,1.7,3,6.3c0,4.6-2.5,6.4-3.7,5.7
		c-1.8-0.9-3.5-1.8-5.3-2.8c-0.3,1.5-0.5,3.1-0.9,4.6c-0.2,0.6-0.7,1.4-1.2,1.6c-1.6,0.4-3.2,0.7-4.8,0.8c-1.7,0.2-3.4,0.2-5.1,0.3
		c-0.2,0-0.5,0.3-0.6,0.5c-1.1,1.8-2.2,3.6-3.3,5.4c-0.3,0.5-0.4,1.2-0.8,1.7c-0.3,0.4-0.7,0.9-1.2,1c-0.8,0.1-1.7,0.1-2.5-0.1
		c-1.1-0.2-1.7-1.2-1.3-2.4c0.5-1.4,1.1-2.8,1.7-4.2c0.2-0.5,0.5-0.9,0.8-1.5c-2,0.3-5.1-0.6-6.6-1.2c-1.5-0.6-2-2.1-2.1-3.5
		C0.2,19.7,0.1,16.3,0,12.9c-0.1-2.7,1.7-3.2,4.2-3.6c3.5-0.5,7.1-0.7,10.6-1C15,8.3,15.1,8.3,15.4,8.2z M10.5,11.4
		c-1,0-2,0.3-2.9,0.7c-1,0.4-1.6,1-1.4,2.3c0.2,2.6,0.3,5.3,0.5,7.9c0.1,1.1,1.2,2.2,2.3,2.2c0.7,0,1.4,0,2.1,0c2.5,0,3.5,0,6-0.1
		c2.2-0.1,4.4-0.5,6.5-0.8c0.6-0.1,0.9-0.4,0.9-1c0-1.4,0-2.8,0.1-4.2c0-1.7-0.1-3.4,0-5.1c0.1-1.4-0.2-1.9-1.6-2
		C20.9,11.1,13.2,11.3,10.5,11.4z"/>
	<path class="st0" d="M11.2,18.2c0.1-3.3,3.6-5.3,6.6-3.9c0.5,0.2,1,0.4,1.4,0.8c1.5,1.4,1.3,2,0.4,4c-1.5,3.3-6,2.9-7.8,0.6
		C11.4,19.3,11.4,18.7,11.2,18.2z"/>
	<g>
		<path class="st0" d="M55.7,0.3c1.5,0.3,2.9,0.6,4.4,0.9c1.2,0.3,2.4,0.5,3.6,0.8c2.9,0.7,5.8,1.2,8.6,2.1c3.6,1,7,2.3,10.6,3.5
			c2.7,0.9,5.4,1.9,8.2,2.8c0.7,0.2,1.5,0.3,2.2,0.5c0.3,0.1,0.6,0.5,0.7,0.8c0.1,0.2-0.1,0.6-0.2,0.9c-1.6,4.1-3,8.2-4.9,12.2
			c-2.3,5-4.4,10.1-6.5,15.1c-0.3,0.7-0.7,1-1.4,1.2c-1.9,0.7-3.9,1.3-5.8,2.2c-3.2,1.4-6.5,2.7-9.9,3.6c-1,0.3-1.9,0.8-2.9,1.1
			c-0.6,0.2-1.4,0.6-1.9,0.4c-0.8-0.2-1.4-1-2.1-1.4c-3.2-1.8-6.4-3.6-9.6-5.3c-1.2-0.6-2.6-1-3.8-1.7c-2-1.1-3.8-2.3-5.8-3.4
			c-0.6-0.4-1.4-0.7-2-1c-1-0.5-1.9-1-2.8-1.6c-0.8-0.4-1.5-0.8-1.4-1.9c0.1-0.6,0-1.4-0.3-1.9c-0.3-0.6-0.2-0.8,0.3-1
			c1.4-0.7,2.7-1.4,4.1-2.1c2-1.1,4-2.2,6-3.3c0.2-0.1,0.4-0.3,0.5-0.5c0.7-1.4,1.4-2.8,1.9-4.2c0.5-1.3,0.8-2.8,1.3-4.1
			c0.7-1.8,1.5-3.5,2.3-5.2c0.4-1,0.9-1.9,1.3-2.9C51.2,4.3,52.3,2,53.8,0C54.5,0.1,55.1,0.2,55.7,0.3z M34.9,32.9
			c3.5,1.7,7,3.3,10.5,4.9c2.2,1,4.5,2,6.7,3.1c1.3,0.7,2.5,1.6,3.9,2.4c1.5,0.8,3.1,1.6,4.7,2.3c0.3,0.2,0.6,0.3,0.8,0.4
			c2.8-1.1,5.5-2.2,8.3-3.2c2.9-1.1,5.7-2.4,8.7-3c2.2-0.5,2.6-2.2,3.3-3.6c1.4-2.8,2.4-5.7,3.7-8.6c0.7-1.5,1.7-3,2.4-4.5
			c0.9-2,1.8-4,2.6-6c0.6-1.5,1-3.2,1.4-4.6c-1-0.6-1.9-1.3-2.9-1.8c-0.9-0.5-1.8-0.9-2.8-1.3c-1.2-0.4-2.4-0.7-3.6-1.1
			c-0.1,0-0.3,0-0.4-0.1c-1-1-2.4-1.3-3.7-1.7c-2.7-0.8-5.4-1.6-8-2.4c-1.2-0.3-2.5-0.4-3.7-0.7C64.5,3,62.3,2.3,60,1.8
			c-1.1-0.2-2.3-0.2-3.4-0.3c-0.1,0-0.3,0-0.4-0.1c-1.2-1.1-1.4,0.1-1.7,0.8c-1.4,3-2.9,5.9-4.1,9C49,14.4,48,17.7,46.9,21
			c-0.3,0.8-0.6,1.6-1,2.3c-0.2,0.4-0.7,0.8-1.1,1c-3.1,1.7-6.2,3.3-9.3,5c-0.4,0.2-0.7,0.3-1.1,0.5c-0.2,0.1-0.4,0.3-0.4,0.4
			c0.1,0.2,0.2,0.5,0.4,0.5c2.3,0.9,4.7,1.7,7,2.7c2,0.8,3.9,1.8,5.9,2.7c3.6,1.7,7.3,3.3,10.9,5c0.5,0.2,1,0.4,1.3,0.7
			c1.2,1,2.5,0.6,3.7,0.1c2.5-1,4.9-2.1,7.3-3.2c1.7-0.7,3.3-1.5,5-2.2c0.1-0.1,0.4,0,0.6,0c-0.1,0.9-0.9,1-1.4,1.2
			c-1.1,0.5-2.3,0.8-3.4,1.2c-0.5,0.2-1,0.5-1.5,0.8c-1.9,1-3.7,2-5.6,3c-0.4,0.2-0.8,0.3-1.2,0.5c-0.2,0.1-0.4,0.2-0.5,0.4
			c-0.3,0.6-0.4,1.4-1.4,0.4c-1-0.9-2.5-1.4-3.7-2.1c-1.7-1-3.4-2-5.1-2.9c-1.7-0.9-3.5-1.6-5.2-2.4c-2-0.9-4-1.9-6.1-2.8
			c-0.4-0.2-1-0.2-1.4-0.4c-1.6-0.7-3.1-1.4-4.7-2c-0.2-0.1-0.5-0.1-0.7-0.1c-0.1,0.1-0.2,0.2-0.3,0.3
			C34.3,32.2,34.5,32.7,34.9,32.9z"/>
		<path class="st0" d="M44.9,26.2c0.7,0.1,2.3,0.7,2.9,0.9c5.6,1.8,11.3,3.4,16.9,5.4c3.4,1.2,6.6,2.9,10.1,4.4
			c-0.7,0.4-1.4,0.7-2,1l1.2,0.4c0.7-0.4,1.3-0.7,2-1.1c0.3-0.2,0.5-0.4,0.7-0.6c-4-1.7-7.8-3.5-11.7-5c-5.3-2-10.6-3.9-15.9-5.8
			c-1.8-0.6-3.4-1.8-5.3-1.9c-1.8-0.1-3.5,1.4-5.1,2.2l1.6,0.5C41,26.5,43.8,26.1,44.9,26.2z"/>
		<path class="st0" d="M89.2,13c-1.1-0.4-2.2-0.7-3.3-1.1c-1.9-0.6-3.7-1.3-5.5-2C77.7,9,75,8.1,72.2,7.3C67.4,5.9,62.5,4.5,57.5,4
			c-1.5-0.1-2.4,0.3-2.9,1.7c-1,2.6-1.9,5.2-2.8,7.8c-0.5,1.4-1.1,2.7-1.6,4c-0.5,1.2-0.9,2.4-1.3,3.5c-0.1,0.3-0.3,0.7-0.5,1
			c-0.7,1.1-0.7,1.5,0.5,2c3.2,1.2,6.1,2.1,9.6,2.8c0.4,0.1,10.4,3.8,13.4,4.9c1.2,0.4,2.3,0.9,3.5,1.4c0.6,0.2,1.5,0.3,1.7,0.7
			c0.3,0.6,0.6,0.6,1.1,0.5c0.4-0.1,0.8-0.4,0.9-0.7c1.1-2.3,2.2-4.6,3.3-6.9c1.6-3.2,3.1-6.4,4.7-9.7c0.1-0.2,0.2-0.4,0.3-0.6
			c0.6-1.1,0.5-2.5,1.9-3.1C89.2,13.2,89.2,13.1,89.2,13z M71.5,16.9c-0.3,0.9-0.4,1.8-1,2.5c-0.8,1-1.5,2.2-2.9,2.8
			c-1,0.5-2,1-3,0.7c-1.7-0.3-3.3-0.6-4.4-1.8c-0.1-0.2-0.2-0.4-0.2-0.6c-0.1-1.9,0.5-3.7,1.8-5.6c1.1-1.5,4-2.9,5.6-2.7
			c0.8,0.1,1.6,0.2,2.4,0.5C71.3,13.3,72,15,71.5,16.9z"/>
	</g>
</g>
</svg>
