<svg xmlns="http://www.w3.org/2000/svg" id="Layer_1" viewBox="0 0 1000 700">
  <style>
    .st0{fill:none;stroke:#fff;stroke-width:8;stroke-linecap:round;stroke-linejoin:round;stroke-miterlimit:10}.st1{fill:#fff}
  </style>
  <path d="M634.5 685.5h-269c-25.1 0-45.5-20.4-45.5-45.5V60c0-25.1 20.4-45.5 45.5-45.5h269c25.1 0 45.5 20.4 45.5 45.5v580c0 25.2-20.4 45.5-45.5 45.5zM472.8 49.7h54.4" class="st0"/>
  <path d="M339 79.8h322v489.1H339z" class="st0"/>
  <circle cx="500" cy="629.5" r="35.7" class="st0"/>
  <g>
    <path d="M428.3 280.9c-3.4 0-6.3 1.2-8.7 3.6s-3.6 5.3-3.6 8.6v51.3c0 3.4 1.2 6.3 3.6 8.7 2.4 2.4 5.3 3.6 8.7 3.6 3.4 0 6.3-1.2 8.7-3.6 2.3-2.4 3.5-5.3 3.5-8.7v-51.3c0-3.3-1.2-6.2-3.6-8.6s-5.3-3.6-8.6-3.6zM527.1 234.9l8.5-15.6c.6-1 .4-1.8-.6-2.4-1-.5-1.8-.2-2.4.7l-8.6 15.8c-7.6-3.3-15.6-5-24-5s-16.4 1.7-24 5l-8.6-15.8c-.6-1-1.4-1.2-2.4-.7-1 .6-1.2 1.4-.6 2.4l8.5 15.6c-8.6 4.4-15.4 10.5-20.5 18.3s-7.6 16.4-7.6 25.7h110.4c0-9.3-2.5-17.9-7.6-25.7-5.2-7.9-12-14-20.5-18.3zm-49 22.7c-.9.9-2 1.4-3.3 1.4s-2.3-.5-3.2-1.4-1.3-2-1.3-3.3.4-2.4 1.3-3.3c.9-.9 1.9-1.4 3.2-1.4 1.3 0 2.4.5 3.3 1.4s1.4 2 1.4 3.3-.5 2.4-1.4 3.3zm50.3 0c-.9.9-2 1.4-3.2 1.4-1.3 0-2.4-.5-3.3-1.4-.9-.9-1.4-2-1.4-3.3s.5-2.4 1.4-3.3c.9-.9 2-1.4 3.3-1.4s2.3.5 3.2 1.4 1.3 2 1.3 3.3-.4 2.4-1.3 3.3zM445.2 362.7c0 3.7 1.3 6.8 3.8 9.3s5.6 3.8 9.3 3.8h8.8l.1 27.1c0 3.4 1.2 6.3 3.6 8.7 2.4 2.4 5.3 3.6 8.6 3.6 3.4 0 6.3-1.2 8.7-3.6 2.4-2.4 3.6-5.3 3.6-8.7v-27.1h16.5v27.1c0 3.4 1.2 6.3 3.6 8.7s5.3 3.6 8.7 3.6c3.4 0 6.3-1.2 8.7-3.6s3.6-5.3 3.6-8.7v-27.1h9c3.6 0 6.6-1.3 9.2-3.8 2.5-2.5 3.8-5.6 3.8-9.3v-79.5H445.2v79.5zM571.7 280.9c-3.3 0-6.2 1.2-8.6 3.5-2.4 2.3-3.6 5.2-3.6 8.7v51.3c0 3.4 1.2 6.3 3.6 8.7 2.4 2.4 5.3 3.6 8.6 3.6 3.4 0 6.3-1.2 8.7-3.6s3.6-5.3 3.6-8.7v-51.3c0-3.4-1.2-6.3-3.6-8.7-2.3-2.3-5.2-3.5-8.7-3.5z" class="st1"/>
  </g>
</svg>
