<svg xmlns="http://www.w3.org/2000/svg" id="Layer_1" viewBox="0 0 1000 700">
  <style>
    .st0{fill:none;stroke:#fff;stroke-width:8;stroke-linecap:round;stroke-linejoin:round;stroke-miterlimit:10}.st5{fill:#fff}
  </style>
  <path d="M634.5 685.5h-269c-25.1 0-45.5-20.4-45.5-45.5V60c0-25.1 20.4-45.5 45.5-45.5h269c25.1 0 45.5 20.4 45.5 45.5v580c0 25.2-20.4 45.5-45.5 45.5zM472.8 49.6h54.4" class="st0"/>
  <path d="M339 79.8h322v489.1H339z" class="st0"/>
  <circle cx="500" cy="629.5" r="35.7" class="st0"/>
  <g>
    <g id="g186_1_" transform="matrix(54.85 0 0 -54.85 -2485.383 4815.859)">
      <path id="path188_1_" d="M55.3 82.1c0 .4.3.6.3.6-.2.2-.4.3-.6.3-.2 0-.5-.1-.6-.1s-.3.1-.5.1c-.3 0-.5-.2-.6-.4-.3-.5-.1-1.2.2-1.6.1-.2.3-.4.5-.4s.3.1.5.1.3-.1.5-.1.3.2.5.4.2.4.2.4-.4.2-.4.7" class="st5"/>
    </g>
    <path id="path190_1_" d="M525.3 250.3c6-7.3 10.1-17.4 9-27.5-8.7.3-19.1 5.8-25.4 13.1-5.6 6.4-10.4 16.7-9.1 26.6 9.6.7 19.5-4.9 25.5-12.2" class="st5"/>
  </g>
</svg>
