<svg xmlns="http://www.w3.org/2000/svg" id="Layer_1" viewBox="0 0 1000 700">
  <style>
    .st0{fill:none;stroke:#fff;stroke-width:8;stroke-linecap:round;stroke-linejoin:round;stroke-miterlimit:10}.st1{fill:#fff}
  </style>
  <path d="M80.7 62.4h838.6v531.7H80.7zM948.4 684.1H51.6c-22.1 0-40-17.9-40-40v-26.7h976.8v26.7c0 22.1-17.9 40-40 40z" class="st0"/>
  <path d="M901.8 15.9H98.2c-22.1 0-40 17.9-40 40v561.5h883.6V55.9c0-22.1-17.9-40-40-40zM471.3 40.7h57.4" class="st0"/>
  <path id="path11" d="M510.6 286.7c-2.8 1.5-6 3.2-9.5 3.2s-6.2-1.6-8.2-3.2c-1-.8-1.8-1.6-2.4-2.1-1-.8-.9-2-.5-1.9.7.1.8 1 1.3 1.5.6.6 1.4 1.3 2.3 2.1 1.9 1.5 4.3 2.9 7.5 2.9 3.1 0 6.7-1.8 8.9-3.1 1.3-.7 2.8-2 4.1-2.9 1-.7 1-1.6 1.8-1.5s.2 1-.9 2-2.9 2.2-4.4 3z" class="st1"/>
  <path d="M564.3 360.9c-1.1-1.2-1.6-3.5-2.2-5.9-.6-2.4-1.2-5-3.2-6.7l-1.2-.9-1.2-.6c2.8-8.2 1.7-16.3-1.1-23.6-3.4-9-9.4-16.9-13.9-22.2-5.1-6.4-10.1-12.5-10-21.5.2-13.7 1.5-39.2-22.7-39.2-1 0-2 0-3.1.1-27 2.2-19.8 30.7-20.2 40.3-.5 7-1.9 12.5-6.7 19.3-5.6 6.7-13.6 17.6-17.4 28.9-1.8 5.3-2.6 10.8-1.8 15.9-.2.2-.5.4-.7.7-1.7 1.8-2.9 3.9-4.2 5.4-1.3 1.3-3.1 1.8-5.1 2.5s-4.2 1.8-5.5 4.3c-.6 1.2-.8 2.4-.8 3.7 0 1.2.2 2.4.4 3.5.4 2.4.7 4.7.2 6.2-1.6 4.3-1.8 7.3-.7 9.5s3.4 3.1 6 3.7c5.2 1.1 12.2.8 17.7 3.7l.5-.9-.5.9c5.9 3.1 11.9 4.2 16.7 3.1 3.5-.8 6.3-2.9 7.7-6 3.7 0 7.9-1.6 14.4-2 4.5-.4 10 1.6 16.5 1.2.2.7.4 1.4.7 2 2.5 5 7.1 7.3 12 6.9s10.2-3.3 14.4-8.3l-.8-.7.8.6c4-4.9 10.7-6.9 15.2-9.6 2.2-1.3 4-3 4.2-5.5.3-2.4-1.1-5.2-4.4-8.8zm-59.7-89.7c0-1.8.3-3.3 1-4.9s1.5-2.7 2.7-3.6 2.4-1.3 3.8-1.3h.1c1.4 0 2.5.4 3.7 1.3s2.1 2 2.8 3.5 1 3 1.1 4.7v.1c0 1.8-.3 3.3-1 4.9-.4.9-.8 1.6-1.4 2.3l-.6-.3c-.7-.3-1.3-.5-1.8-.7s-1-.3-1.4-.5c.3-.4.9-.8 1.2-1.4.3-.8.5-1.7.6-2.7v-.1c0-.9-.1-1.8-.4-2.6-.3-.9-.7-1.5-1.2-2s-1.1-.8-1.7-.8h-.1c-.6 0-1.1.2-1.7.7s-1 1.1-1.3 1.9-.5 1.7-.6 2.7v.1c0 .5 0 1 .1 1.5-1.2-.6-2.8-1.1-3.9-1.3-.1-.5-.1-1-.1-1.5h.1zm-15.9-3.9c.4-1.4 1-2.4 1.8-3.2.8-.8 1.7-1.2 2.7-1.3h.2c.9 0 1.7.3 2.6 1s1.6 1.7 2.2 3 .9 2.6 1 4.2v1.9c-.2.1-.4.1-.5.2-1 .3-1.8.7-2.5 1.2.1-.5.1-1 0-1.6v-.1c-.1-.8-.2-1.4-.5-2.1s-.6-1.2-1.1-1.6c-.4-.3-.8-.5-1.2-.5h-.1c-.5 0-.8.3-1.2.7-.4.4-.6 1-.8 1.7-.2.7-.2 1.4-.1 2.2v.1c.1.8.2 1.4.5 2.1s.6 1.2 1.1 1.5l.2.2c-.4.3-.8.6-1.1.9-.2.2-.5.4-.8.6-.7-.7-1.3-1.5-1.8-2.6-.6-1.3-.9-2.6-1-4.2-.2-1.6 0-2.9.4-4.3zm.7 13.7c1.4-1.1 2.4-1.8 3.1-2.3s.9-.7 1.1-.9c1.1-1 2.8-2.9 5.4-3.8.9-.3 1.9-.5 3-.5 2.1 0 4.7.7 7.7 2.7 1.9 1.2 3.4 1.3 6.8 2.8 1.6.7 2.6 1.5 3.1 2.5.5.9.5 1.9.1 3-.8 2.1-3.3 4.3-6.8 5.4-1.7.6-3.2 1.8-5 2.8s-3.7 1.8-6.5 1.7c-1.2-.1-2.1-.3-2.9-.6s-1.4-.8-2.1-1.3c-1.2-1-2.3-2.3-3.9-3.2-2.6-1.4-4-3.1-4.4-4.6-.4-1.5 0-2.8 1.3-3.7zm1 99.7c-.4 4.8-3.1 7.4-7.2 8.3s-9.7 0-15.3-2.9c-6.2-3.3-13.5-2.9-18.3-3.9-2.4-.5-3.9-1.2-4.6-2.6s-.7-3.8.8-7.9c.7-2.3.2-4.8-.2-7.2-.4-2.4-.5-4.5.3-6 1-2 2.5-2.7 4.4-3.4 1.9-.7 4.1-1.2 5.8-3 1.6-1.7 2.8-3.9 4.3-5.4 1.2-1.3 2.4-2.1 4.2-2.1h.1c.3 0 .7 0 1 .1 2.4.4 4.5 2 6.5 4.8l5.8 10.6c1.6 3.2 4.8 6.8 7.6 10.5 2.9 3.6 5.1 7.3 4.8 10.1zm-.5-7.7c-.8-1.2-1.6-2.4-2.5-3.6-.6-.8-1.2-1.5-1.8-2.2 1.2 0 2.1-.2 2.9-.5 1-.5 1.7-1.2 2-2.1.7-1.9 0-4.5-2.2-7.5s-5.9-6.4-11.4-9.7c-4-2.5-6.3-5.6-7.3-8.9-1.1-3.3-.9-7-.1-10.5 1.6-6.8 5.6-13.5 8.1-17.7.7-.5.2.9-2.6 6.2-2.5 4.8-7.3 15.9-.8 24.6.2-6.2 1.6-12.5 4.1-18.4 3.6-8.2 11.2-22.4 11.8-33.7.3.2 1.4.9 1.8 1.2 1.4.8 2.4 2 3.8 3.1 1.3 1.1 3 2 5.6 2.2h.7c2.6 0 4.7-.9 6.4-1.8 1.9-1.1 3.3-2.2 4.7-2.7 3-.9 5.3-2.6 6.7-4.5 2.3 9.1 7.7 22.2 11.1 28.6 1.8 3.4 5.5 10.6 7 19.3 1 0 2.1.1 3.3.4 4.1-10.7-3.5-22.2-7-25.4-1.4-1.4-1.5-2-.8-1.9 3.8 3.3 8.7 10 10.5 17.6.8 3.5 1 7.1.1 10.7.4.2.9.4 1.3.6 6.6 3.2 9 6 7.9 9.8H552c1-3-1.2-5.3-6.8-7.8-5.9-2.6-10.5-2.3-11.3 2.9 0 .3-.1.6-.1.8-.4.2-.9.3-1.3.6-2.7 1.5-4.2 4.2-5.1 7.6-.8 3.3-1.1 7.4-1.3 11.9-.1 2.3-1.1 5.4-2 8.7-9.6 6.8-22.9 9.8-34.2 2.1zm77-3.4c-.1 1.5-1.2 2.6-3.2 3.8-4 2.4-11.2 4.5-15.7 10.1-4 4.7-8.8 7.3-13 7.6-4.2.3-7.9-1.4-10.1-5.8-1.3-2.6-.8-6.6.3-10.8 1.1-4.2 2.8-8.6 3-12.1.2-4.5.5-8.5 1.2-11.6.8-3.1 2-5.1 4.1-6.3.1-.1.2-.1.3-.2.2 3.9 2.2 7.9 5.6 8.8 3.8 1 9.2-2.2 11.5-4.9.5 0 .9 0 1.3-.1 2 0 3.7.1 5.4 1.6 1.3 1.1 2 3.2 2.5 5.6s1 5 2.6 6.8c3.2 3.6 4.3 6 4.2 7.5z" class="st1"/>
  <path id="path28396-7" d="M503.7 276.5c.1.4.7.3 1.1.5.3.2.5.5.9.5.3 0 .8-.1.9-.4.1-.4-.6-.7-1-.9-.5-.2-1.2-.3-1.7 0-.1.1-.2.2-.2.3z" class="st1"/>
  <path id="path5461" d="M500.2 276.5c-.1.4-.7.3-1.1.5-.3.2-.5.5-.9.5-.3 0-.8-.1-.9-.4-.1-.4.6-.7 1-.9.5-.2 1.2-.3 1.7 0 .1.1.2.2.2.3z" class="st1"/>
  <path d="M649 268.4l62.3-8.5V320l-62.3.4v-52zm62.3 58.5v60.2l-62.3-8.6v-52l62.3.4zm7.6-68.1l82.6-12.1v72.5l-82.6.7v-61.1zm82.6 68.7v72.2L718.9 388l-.1-60.7 82.7.2z" class="st1"/>
  <g>
    <g id="g186_1_" transform="matrix(54.85 0 0 -54.85 -2485.383 4815.859)">
      <path id="path188_1_" d="M51.3 81.9c0 .4.3.5.3.5-.2.2-.4.3-.5.3-.2 0-.4-.1-.5-.1s-.3.1-.5.1-.5-.1-.6-.4c-.2-.4-.1-1.1.2-1.4.1-.2.3-.4.4-.4.2 0 .2.1.5.1.2 0 .3-.1.5-.1s.3.2.4.3l.2.4c0 .2-.4.3-.4.7" class="st1"/>
    </g>
    <path id="path190_1_" d="M309.9 264c5.4-6.5 9-15.6 8-24.7-7.8.3-17.2 5.2-22.8 11.7-5 5.8-9.4 15-8.2 23.9 8.8.7 17.6-4.3 23-10.9" class="st1"/>
  </g>
</svg>
