<svg xmlns="http://www.w3.org/2000/svg" width="48" height="41" viewBox="0 0 48 41"><g><g><path fill="#6f6f6f" d="M33.974 3.169c5.968 0 10.807 4.43 10.807 9.896 0 2.807-1.278 5.338-3.328 7.14L24 36.86 6.233 19.916c-1.866-1.78-3.014-4.191-3.014-6.85 0-5.468 4.838-9.897 10.807-9.897 4.493 0 8.345 2.76 9.974 6.336 1.629-3.576 5.176-6.356 9.95-6.356 4.773 0 .024.02.024.02zM24 4.71C21.502 1.633 17.625.013 13.402.013 6.011.013 0 5.734 0 12.766c0 3.305 1.327 6.442 3.737 8.832l18.901 18.078 1.362 1.3 1.361-1.3L43.905 21.94C46.533 19.538 48 16.27 48 12.766 48 5.734 41.988.013 34.597.013c-4.222 0-8.1 1.62-10.597 4.698z"/></g></g></svg>