<svg xmlns="http://www.w3.org/2000/svg" width="34" height="40" viewBox="0 0 34 40"><g><g><path fill="#6f6f6f" d="M0 39.998V21.33h5.23V10.664h10.48l-4.224-4.345a3.762 3.762 0 0 1-1.017-2.584c0-.748.22-1.44.59-2.023h-.029l.03-.001C11.71.685 12.834 0 14.116 0c1.149 0 2.204.475 2.884 1.375.68-.9 1.735-1.374 2.884-1.374 1.281 0 2.405.683 3.056 1.709l.03.001h-.03c.37.583.591 1.275.591 2.023a3.738 3.738 0 0 1-1.114 2.685l-4.127 4.244h10.48V21.33H34v18.668zM14.544 2.685c-.103 0-.197.01-.292.016h.447c-.053-.007-.108-.016-.155-.016zm4.83 0l-.004-.004c-.056.002-.117.012-.177.02h.491c-.1-.008-.2-.016-.31-.016zm1.542 1.696c0-.648-.216-1.595-1.215-1.679h-.515c-.661.099-1.192.479-2.186 1.335-.994-.773-1.691-1.25-2.293-1.335h-.47c-1.01.085-1.194 1.266-1.153 1.712.062.679.468.857.843 1.255L17 8.75l2.94-2.913c.412-.403.976-.829.976-1.455zm5.238 8.95H7.846v7.999h18.308zm5.23 10.666H2.616v6.608c.198.035.416.059.677.059 1.8 0 3.258-1.494 3.258-3.334 0-.313-.04-.665 0-.667l.967.001 1.64-.001c-.043.002 0 .408 0 .667 0 1.84 1.46 3.334 3.26 3.334 1.8 0 3.259-1.494 3.259-3.334 0-.313-.04-.665 0-.667l.966.001 1.64-.001c-.042.002.001.408.001.667 0 1.84 1.46 3.334 3.26 3.334 1.799 0 3.258-1.494 3.258-3.334 0-.313-.04-.665 0-.667l.967.001 1.64-.001c-.043.002 0 .408 0 .667 0 1.84 1.46 3.334 3.26 3.334.278 0 .508-.068.717-.163zm0 9.238a2.633 2.633 0 0 1-.717.095c-1.843 0-3.487-.873-4.562-2.233-1.076 1.36-2.719 2.233-4.563 2.233-1.844 0-3.487-.873-4.562-2.233-1.076 1.36-2.72 2.233-4.563 2.233-1.844 0-3.487-.873-4.563-2.233-1.075 1.36-2.719 2.233-4.562 2.233-.27 0-.466-.035-.677-.063v4.063h28.77z"/></g></g></svg>