<svg xmlns="http://www.w3.org/2000/svg" viewBox="0 0 3112 1804">
  <style>
    .st0{stroke-width:3}.st0,.st1{fill:none;stroke:#008de4;stroke-miterlimit:10}.st2{fill:#24baff}.st3{opacity:.9}.st4{fill:#008de4}.st5{fill:#fff}
  </style>
  <g id="Thick_Lines_1_">
    <path d="M8.4 520.5l164-91.4M8.4 520.5l163.3-48.3M253.2 427.1l-81.5 45.1M141.5 402.3l30.9 26.8M151.4 326.2l-9.9 76.1M240.7 355.1l-89.3-28.9M141.5 402.3l111.7 24.8M151.4 326.2l101.8 100.9M240.7 355.1l12.5 72M350.4 347.6l-97.2 79.5M240.7 355.1l108-6.1M221.3 299l129.1 48.6M151.4 326.2l69.9-27.2M171.7 264l49.6 35M233.9 250.8L171.7 264M221.3 299l12.6-48.2M240.7 355.1L221.3 299M316.4 243.3l-75.7 111.8M221.3 299l95.1-55.7M172.4 429.1l-.7 43.1M253.2 427.1l-80.8 2M343.6 457.6l-90.4-30.5M350.4 347.6l-6.8 110M367.4 550.3l-23.8-92.7M482.8 518.1l-115.4 32.2M343.6 457.6l139.2 60.5M447.5 421l-103.9 36.6M482.8 518.1L447.5 421M350.4 347.6l97.1 73.4M414.6 295l32.9 126M350.4 347.6l64.2-52.6M316.4 243.3l34 104.3M414.6 295l-98.2-51.7M235.6 199.2l-1.7 51.6M316.4 243.3l-80.8-44.1M351.4 151l-115.8 48.2M316.4 243.3l35-92.3M414.6 295l-63.2-144M472 263L351.4 151M414.6 295l57.4-32M526.3 378.8L472 263M447.5 421L472 263M526.3 378.8L447.5 421M482.8 518.1l43.5-139.3M591.5 436.9l-65.2-58.1M482.8 518.1l108.7-81.2M606.8 327.9l-80.5 50.9M539.9 247.4l-13.6 131.4M472 263l67.9-15.6M606.8 327.9l-66.9-80.5M648.6 363.2l-41.8-35.3M591.5 436.9l57.1-73.7M526.3 378.8l122.3-15.6M671 422.3l-22.4-59.1M591.5 436.9l79.5-14.6M553.5 576.5l-70.7-58.4M446.5 606.7l107-30.2M367.4 550.3l79.1 56.4M397.2 641l-29.8-90.7M541.2 665.8l-94.7-59.1M397.2 641l49.3-34.3M370.4 755.1L397.2 641M392.2 837.7l-21.8-82.6M482.8 732.7l-90.6 105M446.2 870.6l-54-32.9M459.4 976.6l-67.2-138.9M446.2 870.6l13.2 106M480.1 936.2l-33.9-65.6M528 867.6l-47.9 68.6M482.8 732.7l-36.6 137.9M627.2 725.6l-181 145M482.8 732.7l144.4-7.1M370.4 755.1l112.4-22.4M541.2 665.8l-170.8 89.3M482.8 732.7l58.4-66.9M627.2 725.6l-86-59.8M397.2 641l144 24.8M553.5 576.5l-12.3 89.3M627.2 725.6l-99.2 142M591.2 911.4L528 867.6M480.1 936.2l111.1-24.8M861.5 1787.8l58.4 8.1M896.5 1747l23.4 48.9M837.1 1716.1l24.4 71.7M908 1691.7l-11.5 55.3M837.1 1716.1l70.9-24.4M905.3 1621.3l2.7 70.4M837.1 1716.1l68.2-94.8M824.5 1577.5l12.6 138.6M905.3 1621.3l-80.8-43.8M928.4 1586.4l-103.9-8.9M905.3 1621.3l23.1-34.9M983.8 1571.8l-55.4 14.6M967.1 1543.9l-38.7 42.5M983.8 1571.8l-16.7-27.9M1001.8 1526.3l-34.7 17.6M911.4 1475.7l90.4 50.6M824.5 1577.5l86.9-101.8M967.1 1543.9l-55.7-68.2M928.4 1586.4l-17-110.7M1031 1477.9l-119.6-2.2M966.5 1407.7l-55.1 68M1042.5 1426.7l-76-19M1031 1476.3l11.5-49.6M1101.3 1409.4l-58.8 17.3M1031 1477.9l-29.2 48.4M830.9 1376.8l-6.4 200.7M911.4 1475.7l-80.5-98.9M966.5 1407.7l-135.6-30.9M907.4 1333l-76.5 43.8M773.9 1339.1l57 37.7M907.4 1333l-133.5 6.1M838.1 1275.6l69.3 57.4M1042.5 1426.7L907.4 1333M965.1 1268.5l-127 7.1M773.9 1339.1l64.2-63.5M720.6 1243l117.5 32.6M773.9 1339.1l-53.3-96.1M722.3 1192.2l-1.7 50.8M805.8 1198.9l-85.2 44.1M838.1 1275.6l-32.3-76.7M759.3 1146.4l-37 45.8M805.8 1198.9l-83.5-6.7M759.3 1146.4l46.5 52.5M898.9 1185.6l-93.1 13.3M838.1 1275.6l60.8-90M965.1 1268.5l-66.2-82.9M907.4 1333l57.7-64.5M1021.1 1189.9l-56 78.6M1045.9 1285.8l-80.8-17.3M1042.5 1426.7l-77.4-158.2M1101.3 1409.4l-55.4-123.6M965.1 1268.5l136.2 140.9M1125.1 1319.3l-23.8 90.1M1149.7 1292.1l-24.6 27.2M1045.9 1285.8l79.2 33.5M1150 1247.9l-104.1 37.9M1149.7 1292.1l-103.8-6.3M1150 1247.9l-.3 44.2M1021.1 1189.9l24.8 95.9M1150 1247.9l-128.9-58M942.3 1135.7l22.8 132.8M1021.1 1189.9l-32.1-55.7M942.3 1135.7l46.7-1.5M898.9 1185.6l43.4-49.9M888.3 1089.5l54 46.2M898.9 1185.6l-10.6-96.1M826.2 1132.1l62.1-42.6M805.8 1198.9l20.4-66.8M898.9 1185.6l-72.7-53.5M759.3 1146.4l66.9-14.3M820.4 1075.7l5.8 56.4M888.3 1089.5l-67.9-13.8M781.5 1065.5l44.7 66.6M746 1112.4l13.3 34M826.2 1132.1l-80.2-19.7M781.5 1065.5l-35.5 46.9M820.4 1075.7l-38.9-10.2M720.2 1103.6l61.3-38.1M719.2 1127.4l1-23.8M746 1112.4l-26.8 15M682.9 1096.8l36.3 30.6M698.8 1078.1l21.4 25.5M682.9 1096.8l15.9-18.7M708.3 1043.5l-9.5 35.3M653.3 1041.1l55 2.4M682.9 1096.8l-29.6-55.7M632.9 1059.1l50 37.7M675.1 984.4l-21.8 56.7M629.5 1016l23.8 25.1M648.2 987.8l5.1 53.3M629.5 1016l18.7-28.2M675.1 984.4l-26.9 3.4M632.9 1059.1l-3.4-43.1M564.3 1052.7l68.6 6.4M583.4 991.2l-19.1 61.5M629.5 1016l-65.2 36.7M583.4 991.2l46.1 24.8M591.2 911.4l-7.8 79.8M499.5 995.6l83.9-4.4M564.3 1052.7l-64.8-57.1M480.1 936.2l19.4 59.4M591.2 911.4l-91.7 84.2M706 898.1l-114.8 13.3M740.6 944L706 898.1M737.9 880l2.7 64M706 898.1l31.9-18.1M664.9 851.1l41.1 47M591.2 911.4l73.7-60.3M528 867.6l136.9-16.5M446.2 870.6l81.8-3M629.7 796.9L528 867.6M664.9 851.1l-35.2-54.2M627.2 725.6l2.5 71.3M728.9 746.5l-99.2 50.4M735.2 816.3l-6.3-69.8M664.9 851.1l64-104.6M735.2 816.3l-70.3 34.8M737.9 880l-2.7-63.7M785.4 838.2l-50.2-21.9M817.4 781l-32 57.2M728.9 746.5l56.5 91.7M737.9 880l47.5-41.8M824.8 690.6l-7.4 90.4M728.9 746.5l88.5 34.5M869.3 734.9L817.4 781M728.9 746.5l95.9-55.9M627.2 725.6l101.7 20.9M612.9 665.3l14.3 60.3M541.2 665.8l71.7-.5M624.8 572.1l-83.6 93.7M553.5 576.5l71.3-4.4M591.5 436.9l-38 139.6M651.3 516l-26.5 56.1M591.5 436.9l33.3 135.2M553.5 576.5l71.3-4.4M612.9 665.3l11.9-93.2M541.2 665.8l71.7-.5M627.2 725.6l-14.3-60.3M674 624.7l-46.8 100.9M794.9 639.7l-167.7 85.9M782.4 579.7l-33.1 93.4M824.8 690.6l-75.5-17.5M728.9 746.5l20.4-73.4M674 624.7l75.3 48.4M782.4 579.7l-108.4 45M794.9 639.7l29.9 50.9M869.3 734.9l-44.5-44.3M910.1 667.5l-40.8 67.4M956.6 722.9l-87.3 12M824.8 690.6l85.3-23.1M877.8 598.2l-53 92.4M794.9 639.7l82.9-41.5M837.6 575.8l-42.7 63.9M782.4 579.7l12.5 60M923.5 545.1l-45.7 53.1M837.6 575.8l85.9-30.7M963.1 514.7l-39.6 30.4M931.1 620.7l-7.6-75.6M877.8 598.2l53.3 22.5M910.1 667.5l-32.3-69.3M972.6 664.5l-62.5 3M973.6 581.6l-1 82.9M931.1 620.7l41.5 43.8M973.6 581.6l-42.5 39.1M923.5 545.1l50.1 36.5M963.1 514.7l10.5 66.9M1009.9 618.6l-36.3-37M972.6 664.5l37.3-45.9M957.6 688.6l15-24.1M1019.9 703.7l-47.3-39.2M957.6 689.9l62.3 13.8M910.1 667.5l46.5 55.4M1009.9 618.6l10 85.1M860 472.4l63.5 72.7M837.6 575.8L860 472.4M879.5 435.2l73.9 54.9M1014.7 419.6l-61.3 70.5M936.2 401.1l17.2 89M879.5 435.2l56.7-34.1M1014.7 419.6l-78.5-18.5M976 339.8l-39.8 61.3M903.5 333l32.7 68.1M924.2 269.5L903.5 333M976 339.8l38.7 79.8M924.2 269.5l51.8 70.3M875.6 247.4l48.6 22.1M903.5 333l-27.9-85.6M825 313l50.6-65.6M903.5 333L825 313M865.2 341.1l-24.7 106.3M784.4 432.2l56.1 15.2M704.3 511.3l80.1-79.1M671 422.3l113.4 9.9M651.3 516l19.7-93.7M591.5 436.9l59.8 79.1M624.8 572.1l49.2 52.6M704.3 511.3L674 624.7M651.3 516l53-4.7M782.4 579.7l-78.1-68.4M731.9 351.7L671 422.3M648.6 363.2l83.3-11.5M814.1 369.3l-82.2-17.6M784.4 432.2l29.7-62.9M865.2 341.1l-51.1 28.2M780.2 293.3l33.9 76M731.9 351.7l48.3-58.4M664.7 257.3L642.8 308M731.3 306.5l-88.5 1.5M731.6 224.3l-.3 82.2M664.7 257.3l66.9-33M688.6 203.9l43 20.4M664.7 257.3l23.9-53.4M640.2 160.3l24.5 97M590.3 222.4l74.4 34.9M640.2 160.3l-49.9 62.1M688.6 203.9l-48.4-43.6M688.5 144.7l14.6 39.7M736 156.2l-47.5-11.5M767.9 128.7L736 156.2M703.1 186.1l32.9-29.9M767.9 184.4L736 156.2M767.9 128.7v55.7M703.1 186.1l64.8-1.7M785.9 213.1l-18.3 55.4M832.1 228.7l-46.2-15.6M767.6 268.5l64.5-39.8M793.4 159.6l11.2 35M832.5 149.8l-27.9 44.8M793.4 159.6l39.1-9.8M853.2 212.8l67.2 21M940.5 206l-20.1 27.8M853.2 212.8l87.3-6.8M878.7 190l61.8 16M897.3 176.4l65.9 18.7M924 158.6l-26.7 17.8M963.2 195.1L924 158.6M1004.8 131.6l-41.6 63.5M924 158.6l80.8-27M918.1 120.6l5.9 38M1004.8 131.6l-86.7-11M903.5 95.8l14.6 24.8M816.2 107.3l42.8 2M842 72l17 37.3M816.2 107.3L842 72M937.2 36.2l-33.7 59.6M966.1 70.1l-48 50.5M903.5 95.8l62.6-25.7M937.2 36.2l28.9 33.9M1004.8 131.6l-38.7-61.5M979.2 23.4l-13.1 46.7M1081.4 73.7l-76.6 57.9M1039.6 9.8l-34.8 121.8M966.1 70.1l73.5-60.3M979.2 23.4l60.4-13.6M1140.2 39.4l-58.8 34.3M1039.6 9.8l41.8 63.9M1140.2 39.4L1039.6 9.8M1033 149.3l-13.9 67.5M1078.9 122.9l-45.9 26.4M1126.9 76.5l-48 46.4M1161.7 167.7l-82.8-44.8M1126.9 76.5l34.8 91.2M1019.1 216.8l142.6-49.1M1082.7 243.3l-63.6-26.5M1074.9 354.2l7.8-110.9M1129.5 305.8l-46.8-62.5M1169 269.6l-86.3-26.3M1175.3 387.8l-45.8-82M1074.9 354.2l22.3 24.8M1129.5 305.8l-32.3 73.2M1069.1 428.5l52.6 6.4M1073.2 470.4l-4.1-41.9M1097.2 379l-28.1 49.5M1073.2 470.4l52.8 74.3M1167.4 468.8l-41.4 75.9M1121.7 434.9l4.3 109.8M1167.4 468.8l-45.7-33.9M1175.3 387.8l-53.6 47.1M1097.2 379l78.1 8.8M1211.3 442.8l27.2-26.9M1167.4 468.8l43.9-26M1175.3 387.8l36 55M1238.5 415.9l-63.2-28.1M1259.5 346.3l-84.2 41.5M1238.5 415.9l21-69.6M1314.6 381.9l-55.1-35.6M1238.5 415.9l76.1-34M1169 269.6l6.3 118.2M1129.5 305.8l39.5-36.2M1259.5 346.3l-90.5-76.7M1258.2 278.2l1.3 68.1M1169 269.6l89.2 8.6M1350.8 256l-91.3 90.3M1314.6 381.9l36.2-125.9M1211.8 223.2l-42.8 46.4M1258.2 278.2l29-65.4M1211.8 223.2l46.4 55M1287.2 212.8l-75.4 10.4M1350.8 256l-63.6-43.2M1313.4 166.8l-26.2 46M1350.8 256l-37.4-89.2M1404 118.1L1350.8 256M1313.4 166.8l90.6-48.7M1345.4 107.9l-32 58.9M1404 118.1l-58.6-10.2M1248.2 139.9l39 72.9M1161.7 167.7l7.3 101.9M1248.2 139.9l-86.5 27.8M1287.2 212.8l-125.5-45.1M1202 59.5l-40.3 108.2M1126.9 76.5l75.1-17M1308.2 32.5l-106.2 27M1351.9 66.3l-43.7-33.8M1202 59.5l149.9 6.8M1248.2 139.9L1202 59.5M1345.4 107.9l-97.2 32M1313.4 166.8l-65.2-26.9M1202 59.5l143.4 48.4M1350.8 256l-5.4-148.1M1290.3 458.2l35.1 38.3M1366 466.8l-40.6 29.7M1325.9 445.5l40.1 21.3M1325.4 496.5l.5-51M1290.3 458.2l35.6-12.7M1366 466.8l-75.7-8.6M664.7 257.3l66.6 49.2M911.4 1475.7l131.1-49M1319.8 1067.9l78.8 81.2M1331.7 954.8l-11.9 113.1M1381.6 916.8l-49.9 38M1409.8 866.9l-28.2 49.9M1559.3 834.3l-149.5 32.6M1617.3 891.3l-58-57M1680.5 874l-63.2 17.3M1781.4 883.5l-100.9-9.5M1841.5 871.3l-60.1 12.2M1917.2 898.1l-75.7-26.8M1964.1 926.3l-46.9-28.2M1958.7 957.2l-41.5-59.1M1994 943.3l-35.3 13.9M2027.6 976.6l-33.6-33.3M1965.5 1041.4l62.1-64.8M1888 1066.2l77.5-24.8M1867.3 1022.4l20.7 43.8M1828.9 950.8l38.4 71.6M1792.9 922.2l36 28.6M1836.4 1026.8l-43.5-104.6M1885.6 1095.8l-49.2-69M1959.3 1083.6l-73.7 12.2M1945.1 1141.6l14.2-58M1851.3 1227.6l93.8-86M1862.9 1325.7l-11.6-98.1M1800.1 1371.6l62.8-45.9M1932.8 1302.6l-56 50.6M1868 1434.7l8.8-81.5M1920.3 1426.2l-52.3 8.5M1950.8 1333.5l-30.5 92.7M1932.8 1302.6l18 30.9M1868 1434.7l82.8-101.2M1876.8 1353.2l74-19.7M1773.9 1459.9l26.2-88.3M1705.3 1523.7l68.6-63.8M1638.4 1523.7h66.9M1578.3 1358l60.1 165.7M1598.7 1269.3l-20.4 88.7M1569.5 1217.4l29.2 51.9M1510 1150.5l59.5 66.9M1398.6 1149.1l111.4 1.4M1442.4 1103.6l-43.8 45.5M1510 1150.5l-67.6-46.9M1319.8 1067.9l122.6 35.7M1434.6 1017.7l7.8 85.9M1319.8 1067.9l114.8-50.2M1331.7 954.8l102.9 62.9M1381.6 916.8l53 100.9M1457 935.5l-22.4 82.2M1527.7 944.7l-93.1 73M1553.5 1026.2l-118.9-8.5M1538.2 1088.3l-103.6-70.6M1442.4 1103.6l95.8-15.3M1510 1150.5l28.2-62.2M1656.7 1111.4l-146.7 39.1M1538.2 1088.3l118.5 23.1M1641.8 1012.6l-103.6 75.7M1553.5 1026.2l-15.3 62.1M1641.8 1012.6l14.9 98.8M1553.5 1026.2l88.3-13.6M1653.7 936.8l-11.9 75.8M1553.5 1026.2l100.2-89.4M1527.7 944.7l25.8 81.5M1457 935.5l70.7 9.2M1381.6 916.8l75.4 18.7M1409.8 866.9l47.2 68.6M1559.3 834.3L1457 935.5M1527.7 944.7l31.6-110.4M1617.3 891.3l-89.6 53.4M1653.7 936.8l-36.4-45.5M1680.5 874l-26.8 62.8M1730.8 941.3l-77.1-4.5M1641.8 1012.6l89-71.3M1781.4 883.5l-127.7 53.3M1792.9 922.2l-62.1 19.1M1781.4 883.5l-50.6 57.8M1841.5 871.3l-48.6 50.9M1890.4 971.5l26.8-73.4M1841.5 871.3l48.9 100.2M1828.9 950.8l61.5 20.7M1958.7 957.2l-68.3 14.3M1962.1 995.9l65.5-19.3M1994 943.3l-31.9 52.6M1867.3 1022.4l94.8-26.5M1965.5 1041.4l-98.2-19M1890.4 971.5l-23.1 50.9M1962.1 995.9l-71.7-24.4M1958.7 957.2l3.4 38.7M1965.5 1041.4l-3.4-45.5M1841.5 871.3l-12.6 79.5M1730.8 941.3l39 124.6M1792.9 922.2l-23.1 143.7M1781.4 883.5l11.5 38.7M1730.8 941.3l-74.1 170.1M1769.8 1065.9l-113.1 45.5M1836.4 1026.8l-66.6 39.1M1885.6 1095.8l-34.6 39.4M1945.1 1141.6l-94.1-6.4M1885.6 1095.8l59.5 45.8M1769.8 1065.9l81.5 161.7M1851 1135.2l.3 92.4M1836.4 1026.8l14.6 108.4M1733.8 1149.4l117.5 78.2M1759.6 1243.2l-25.8-93.8M1649.3 1214.3l84.5-64.9M1769.8 1065.9l-36 83.5M1656.7 1111.4l77.1 38M1649.3 1214.3l7.4-102.9M1569.5 1217.4l87.2-106M1649.3 1214.3l-79.8 3.1M1598.7 1269.3l50.6-55M1694.8 1289l-45.5-74.7M1733.8 1149.4l-39 139.6M1759.6 1243.2l-64.8 45.8M1578.3 1358l74.7-3.4M1598.7 1269.3l54.3 85.3M1694.8 1289l-41.8 65.6M1649.3 1214.3l3.7 140.3M1746.1 1339.3l-93.1 15.3M1694.8 1289l51.3 50.3M1759.6 1243.2l-13.5 96.1M1800.1 1371.6l-65.9 36.3M1653 1354.6l38.4 85.6M1773.9 1459.9l-82.5-19.7M1746.1 1339.3l-54.7 100.9M1638.4 1523.7l53-83.5M1705.3 1523.7l-13.9-83.5M1653 1354.6l-14.6 169.1M1759.6 1243.2l40.5 128.4M1746.1 1339.3l54 32.3M1734.2 1407.9l39.7 52M1691.4 1440.2l42.8-32.3M1746.1 1339.3l-11.9 68.6M2526.2 1418l-3.1 125.6M2612.5 1546.4l-89.4-2.8M2680.5 1523.2l-68 23.2M2592.4 1470l20.1 76.4M2523.1 1543.6l69.3-73.6M2526.2 1418l66.2 52M2680.8 1445.3l-88.4 24.7M2680.5 1523.2l-88.1-53.2M2704.5 1555.8l-24-32.6M2680.8 1445.3l-.3 77.9M2600 1381.1l-7.6 88.9M2526.2 1418l73.8-36.9M2641.3 1336.5l-41.3 44.6M2680.8 1445.3l-80.8-64.2M2683.1 1335l-41.8 1.5M2680.8 1445.3l-39.5-108.8M2716.4 1383.6l-35.6 61.7M2641.3 1336.5l75.1 47.1M2794.4 1445.3h-113.6M2793.4 1366.8l1 78.5M2716.4 1383.6l78 61.7M2680.5 1523.2l113.9-77.9M2683.1 1335l33.3 48.6M2744.7 1335.2l-28.3 48.4M2683.1 1335l61.6.2M2717.7 1301.1l-34.6 33.9M2762.5 1310l-17.8 25.2M2717.7 1301.1l27 34.1M2762.5 1310l-44.8-8.9M2793.4 1366.8l-48.7-31.6M2716.4 1383.6l77-16.8M2811.7 1308.7l-18.3 58.1M2843.3 1372.9l-49.9-6.1M2811.7 1308.7l31.6 64.2M2794.4 1445.3l48.9-72.4M2889.4 1441.7l-46.1-68.8M2794.4 1445.3l95-3.6M2738.3 1578.5l-33.8-22.7M2778.8 1518.9l-74.3 36.9M2835.7 1610.8l-48.4 11.7M2738.3 1578.5l49 44M2778.8 1518.9l8.5 103.6M2738.3 1578.5l40.5-59.6M2835.7 1610.8l-56.9-91.9M2680.5 1523.2l98.3-4.3M2794.4 1445.3l-15.6 73.6M2849.7 1484l-70.9 34.9M2894.5 1506.4l-58.8 104.4M2849.7 1484l-14 126.8M2794.4 1445.3l55.3 38.7M2889.4 1441.7l-95 3.6M2894.5 1506.4l-5.1-64.7M2849.7 1484l39.7-42.3M2765.3 1651.1l41.8 12.2M2777.6 1700.5l29.5-37.2M2765.3 1651.1l12.3 49.4M2941.1 1752.4l29.6 22.5M2982.4 1717.3l-41.3 35.1M2970.7 1774.9l11.7-57.6M3035.3 1699.5l-64.6 75.4M3005.8 1676.5l-23.4 40.8M3035.3 1699.5l-29.5-23M2982.4 1717.3l52.9-17.8M3042 1658.2l17.8 28M3101.6 1637.8l-41.8 48.4M3058.8 1636.3l1 49.9M3042 1658.2l16.8-21.9M3049.1 1575.2l52.5 62.6M3058.8 1636.3l-9.7-61.1M3101.6 1637.8l-42.8-1.5M2711.6 1196.7l-4.1 29.8M2773.5 1245.8l-66-19.3M2711.6 1196.7l122.3 31.8M2894.5 1290.4l-60.6-61.9M2813.2 1283l81.3 7.4M2833.9 1228.5l-20.7 54.5M2773.5 1245.8l39.7 37.2M2711.6 1196.7l61.9 49.1M2833.9 1228.5l-60.4 17.3M2642.7 1184.1l-5.1 59.8M2598.5 1206.2l39.1 37.7M2597.8 1245.9l39.8-2M2598.5 1206.2l-.7 39.7M2642.7 1184.1l-44.2 22.1M2588.7 1275.1l-67.6 2.4M2468.8 1260.5l52.3 17M2518.4 1249.3l-49.6 11.2M2588.7 1275.1l-70.3-25.8M2510.2 1218.7l-14.3-36M2560.5 1229.6l-50.3-10.9M2588 1182.7l-27.5 46.9M2495.9 1182.7l64.6 46.9M2528.9 1165.7l-33 17M2588 1182.7h-92.1M2576.1 1160l11.9 22.7M2528.9 1165.7l59.1 17M2571 1123l5.1 37M2592.4 1141l-16.3 19M2571 1123l21.4 18M2528.9 1165.7l42.1-42.7M2576.1 1160l-47.2 5.7M2626 1125l30.2 19.3M2682.1 1124l-25.9 20.3M2666.8 1100.5L2626 1125M2682.1 1124l-56.1 1M2666.8 1100.5l15.3 23.5M2613.5 1071l-2.8 29.2M2643.3 1092.4l-32.6 7.8M2613.5 1071l29.8 21.4M2636.2 1060.8l-32.6-4.4M2589.3 1038.7l14.3 17.7M2619.9 1012.2l-16.3 44.2M2636.2 1060.8l-16.3-48.6M2589.3 1038.7l30.6-26.5M2599.5 1003.4l-10.2 35.3M2619.9 1012.2l-20.4-8.8M2466.1 1213.6l-14.6 33M2420.2 1213l31.3 33.6M2466.1 1213.6l-45.9-.6M2427.3 1180.3l38.8 33.3M2420.2 1213l7.1-32.7M2365.2 1137.9l55 75.1M2393.7 1140.3l33.6 40M2365.2 1137.9l62.1 42.4M2393.7 1140.3l-28.5-2.4M2426 1157.9l35.3 24.1M2446.7 1142.7l14.6 39.3M2426 1157.9l20.7-15.2M2397.1 1111.4l28.9 46.5M2446.7 1142.7l-49.6-31.3M2416.5 1102.9l30.2 39.8M2397.5 1071.3l-.4 40.1M2426 1065.6l-28.9 45.8M2416.5 1102.9l9.5-37.3M2465.7 1104.3l-39.7-38.7M2500 1080.8l-34.3 23.5M2466.1 1057.7l-.4 46.6M2426 1065.6l40.1-7.9M2487.1 1031.9l12.9 48.9M2466.1 1057.7l21-25.8M2415.8 1012.2l50.3 45.5M2382.5 1026.2l43.5 39.4M2397.5 1071.3l-15-45.1M2415.8 1012.2l10.2 53.4M2382.5 1026.2l33.3-14M2358.1 1038.4l24.4-12.2M2386.9 969.4l-28.8 69M2415.8 1012.2l47.2-11.9M2487.1 1031.9l-71.3-19.7M2463 1000.3l24.1 31.6M2386.9 969.4l28.9 42.8M2323.1 970.1l35 68.3M2599.5 926.7l13.3 25.4M2594.1 980l18.7-27.9M2583.9 961.3l10.2 18.7M2612.8 952.1l-28.9 9.2M2599.5 926.7l-15.6 34.6M2664.7 842.3l10.5 29.1M2692.5 836l-17.3 35.4M2664.7 842.3l27.8-6.3M2666.8 814.1l50.9-27M2735.5 821.7l-68.7-7.6M2762.5 793.2l-27 28.5M2717.7 787.1l17.8 34.6M2762.5 793.2l-44.8-6.1M2720.3 738.4l-2.6 48.7M2746 739.2l-25.7-.8M2746 739.2l-28.3 47.9M2762.5 793.2l-16.5-54M2714.9 721.9l5.4 16.5M2762.2 708.5l-47.3 13.4M2729.6 669.6l-14.7 52.3M2776.2 682.9l-14 25.6M2729.6 669.6l32.6 38.9M2776.2 682.9l-46.6-13.3M2716.2 653.7l36.7-34.6M2685.5 519.8l30.7 133.9M2752.9 619.1l-67.4-99.3M2691.6 613.2l-24.1 95.4M2651.5 798.6l-24.8 23.1M2601.6 779.9l25.1 41.8M2651.5 798.6l-49.9-18.7M2619.9 757.5l31.6 41.1M2601.6 779.9l18.3-22.4M2667.5 708.6l-47.6 48.9M2609.4 642l58.1 66.6M2828.4 556.8l-60.8-98.8M2831.8 465.8l-3.4 91M2767.6 458l64.2 7.8M2822.7 386.3l9.1 79.5M2767.6 458l55.1-71.7M2793.1 372.7l-25.5 85.3M2822.7 386.3l-29.6-13.6M2864.4 366.6l-41.7 19.7M2870.2 327.6l-5.8 39M2793.1 372.7l77.1-45.1M2904.8 293.3l-34.6 34.3M2759.8 379.5l33.3-6.8M2730.3 417.2l4.7-48.9M2759.8 379.5l-24.8-11.2M2738.4 286.5l54.7 86.2M2735 368.3l3.4-81.8M2870.2 327.6l-131.8-41.1M2904.8 293.3l-36-68.3M2870.2 327.6l-1.4-102.6M2907.6 201.6l-38.8 23.4M2738.4 286.5l130.4-61.5M2878.7 137.7l28.9 63.9M2800.2 216.2l107.4-14.6M2731.3 140.1l68.9 76.1M2738.4 286.5l61.8-70.3M2878.7 137.7l-78.5 78.5M2731.3 140.1l147.4-2.4M2704.1 166.2l27.2-26.1M2800.2 216.2l-96.1-50M2738.4 286.5l-34.3-120.3M2638.4 441.3l91.9-24.1M2735 368.3l-96.6 73M2638.8 342.2l96.2 26.1M2738.4 286.5l-99.6 55.7M2560.6 274.6l78.2 67.6M2738.4 286.5l-177.8-11.9M2600.4 157.4l138 129.1M2704.1 166.2l-103.7-8.8M2560.6 274.6l39.8-117.2M2497.5 404.3l237.5-36M2638.8 342.2l-141.3 62.1M2560.6 274.6l-63.1 129.7M2566.8 174.7l33.6-17.3M2515.8 152l51 22.7M2463.2 162.5l52.6-10.5M2449.2 197.5l14-35M2560.6 274.6l-111.4-77.1M2371.8 74.2l18.7 52.6M2435.7 91.2l-45.2 35.6M2371.8 74.2l63.9 17M2800.2 216.2l68.6 8.8M2463 1000.3l47.9-21.3M2445.7 946.3l65.2 32.7M2386.9 969.4l124 9.6M2568.3 934.8l-57.4 44.2M2505.8 915.8l5.1 63.2M2568.3 934.8l-62.5-19M2445.7 946.3l60.1-30.5M2528.5 879.8l-22.7 36M2568.3 934.8l-39.8-55M2595.1 879.4l-26.8 55.4M2528.5 879.8l66.6-.4M2563.2 829.5l31.9 49.9M2528.5 879.8l34.7-50.3M2578.5 797.6l-15.3 31.9M2535.3 773.8l27.9 55.7M2578.5 797.6l-43.2-23.8M2600.9 703.2l.7 76.7M2576.1 765l25.5 14.9M2535.3 773.8l65.6-70.6M2667.5 708.6l-66.6-5.4M2535.3 773.8l40.8-8.8M2600.9 703.2l-24.8 61.8M2609.4 642l-8.5 61.2M2519 712l90.4-70M2567.1 581.9l42.3 60.1M2519 712l48.1-130.1M2619.9 532.3L2609.4 642M2691.6 613.2l-82.2 28.8M2619.9 532.3l71.7 80.9M2663.4 534.4l28.2 78.8M2619.9 532.3l43.5 2.1M2638.4 441.3l-18.5 91M2489.7 538.5l130.2-6.2M2638.4 441.3l-148.7 97.2M2497.5 404.3l-7.8 134.2M2385.4 537.4l44.4 62.3M2567.1 581.9l-137.3 17.8M2489.7 538.5l-59.9 61.2M2567.1 581.9l-77.4-43.4M2619.9 532.3l-52.8 49.6M2236.5 1107l8.8 34.6M2217.8 1132.5l18.7-25.5M2245.3 1141.6l-27.5-9.1M2172.6 1057.4l23.8 53.3M2222.9 1091.7l-26.5 19M2172.6 1057.4l50.3 34.3M2226.3 1043.8l-3.4 47.9M2172.6 1057.4l53.7-13.6M2261.6 1019.4l-35.3 24.4M2157.3 982l69 61.8M2172.6 1057.4l-15.3-75.4M2129.8 987.1l27.5-5.1M2261.6 1019.4L2157.3 982M2218.8 950.1l42.8 69.3M2288.8 976.2l-27.2 43.2M2323.1 970.1l-34.3 6.1M2302.4 906.3l-13.6 69.9M2218.8 950.1l70 26.1M2302.4 906.3l-83.6 43.8M2323.1 970.1l-20.7-63.8M2386.9 969.4l-63.8.7M2302.4 906.3l84.5 63.1M2394.1 910l-7.2 59.4M2302.4 906.3l91.7 3.7M2473.5 851.3l-27.8 95M2505.8 915.8l-32.3-64.5M2528.5 879.8l-55-28.5M2402.9 831.6l42.8 114.7M2394.1 910l8.8-78.4M2265 814.9l37.4 91.4M2402.9 831.6L2265 814.9M2394.1 910L2265 814.9M2380.5 768.7l22.4 62.9M2473.5 851.3l-70.6-19.7M2380.5 768.7l93 82.6M2535.3 773.8l-61.8 77.5M2479.6 782l-6.1 69.3M2380.5 768.7l99.1 13.3M2519 712l16.3 61.8M2479.6 782l55.7-8.2M2519 712l-39.4 70M2421.9 685.9l57.7 96.1M2519 712l-97.1-26.1M2567.1 581.9l-145.2 104M2380.5 768.7l41.4-82.8M2429.8 599.7l-7.9 86.2M2324.3 635.3l97.6 50.6M2429.8 599.7l-105.5 35.6M2385.4 537.4l-61.1 97.9M2489.7 538.5l-104.3-1.1M2309 443.4l180.7 95.1M2278.8 535.7l106.6 1.7M2260.8 661.1l63.5-25.8M2421.9 685.9l-161.1-24.8M2380.5 768.7l-119.7-107.6M2265 814.9l115.5-46.2M2260.8 661.1l4.2 153.8M2230.4 858.4l72 47.9M2218.8 950.1l11.6-91.7M2151.2 871.3l67.6 78.8M2230.4 858.4l-79.2 12.9M2084.7 941.9l45.1 45.2M2151.2 871.3l-21.4 115.8M2084.7 941.9l66.5-70.6M2043.2 837.7l41.5 104.2M2036.8 944.7l47.9-2.8M2043.2 837.7l-6.4 107M1991.9 922.2l44.9 22.5M1964.1 926.3l27.8-4.1M2043.2 837.7l-79.1 88.6M1917.2 898.1l126-60.4M2151.2 871.3l-108-33.6M2105.7 782.3l45.5 89M2043.2 837.7l62.5-55.4M2230.4 858.4l-124.7-76.1M2265 814.9l-34.6 43.5M2105.7 782.3l159.3 32.6M2143.8 707.3L2265 814.9M2105.7 782.3l38.1-75M2260.8 661.1l-117 46.2M2204 578.5l-60.2 128.8M2260.8 661.1l-56.8-82.6M2385.4 537.4l-124.6 123.7M2278.8 535.7l-18 125.4M2204 578.5l74.8-42.8M2309 443.4l-30.2 92.3M2385.4 537.4l-76.4-94M2497.5 404.3L2309 443.4M2402.4 292.9L2309 443.4M2497.5 404.3l-95.1-111.4M2560.6 274.6l-158.2 18.3M2449.2 197.5l-46.8 95.4M2386.6 205.3l15.8 87.6M2449.2 197.5l-62.6 7.8M2344 174.7l42.6 30.6M2247.1 300.7l155.3-7.8M2344 174.7l-96.9 126M2386.6 205.3l-139.5 95.4M2309 443.4l-61.9-142.7M2189.6 390.6l119.4 52.8M2247.1 300.7l-57.5 89.9M2233.1 209.7l-43.5 180.9M2344 174.7l-110.9 35M2141.4 234.8l48.2 155.8M2233.1 209.7l-91.7 25.1M2220.5 153l12.6 56.7M2129.8 127.5l103.3 82.2M2141.4 234.8l-11.6-107.3M2220.5 153l-90.7-25.5M2092.8 81l2 32.6M2129.5 92.5l-34.7 21.1M2092.8 81l36.7 11.5M2055.5 65l13.5 38.4M1991.9 35.8l22.8 55M2055.5 65l-40.8 25.8M1991.9 35.8l63.6 29.2M2069 103.4l-54.3-12.6M2057.5 198.2l83.9 36.6M2129.8 127.5l-72.3 70.7M2033.4 252.8l108-18M2057.5 198.2l-24.1 54.6M2047 332.7l94.4-97.9M2033.4 252.8l13.6 79.9M2189.6 390.6l-75 93.1M2204 578.5l-89.4-94.8M2278.8 535.7l-164.2-52M2189.6 390.6l89.2 145.1M2047 332.7l67.6 151M2141.4 234.8l-26.8 248.9M1970.9 279.7l62.5-26.9M1949.2 325.5l21.7-45.8M1954.6 368.7l92.4-36M1949.2 325.5l97.8 7.2M1954.6 368.7l-5.4-43.2M1970.9 279.7l76.1 53M1917.1 193.4l-24.8 48.2M1863.7 309.2l24.8 41.1M1835.5 335.7l53 14.6M1863.7 309.2l-28.2 26.5M1847.4 250.5l-11.9 85.2M1917.1 193.4l-69.7 57.1M1892.3 241.6l-28.6 67.6M1847.4 250.5l16.3 58.7M1958.7 464.1l155.9 19.6M1954.6 368.7l160 115M1904.7 381.2l209.9 102.5M1925.4 358.1l-20.7 23.1M1954.6 368.7l-29.2-10.6M1958.7 464.1l-54-82.9M2068.7 592.5l45.9-108.8M1958.7 464.1l110 128.4M2143.8 707.3l-29.2-223.6M2068.7 592.5l75.1 114.8M2035.4 688.6l7.8 149.1M2105.7 782.3l-70.3-93.7M2143.8 707.3l-108.4-18.7M1964.3 755.5l78.9 82.2M1893.6 822.4l149.6 15.3M1917.2 898.1l-23.6-75.7M1781.4 883.5l17.1-51.6M1837.2 774.5l4.3 96.8M1798.5 831.9l43 39.4M1893.6 822.4l-52.1 48.9M1964.3 755.5l-70.7 66.9M1837.2 774.5l56.4 47.9M1958.3 584.3l6 171.2M2035.4 688.6l-71.1 66.9M1958.3 584.3l77.1 104.3M2068.7 592.5l-33.3 96.1M1958.3 584.3l110.4 8.2M1958.7 464.1l-.4 120.2M1812.1 389l92.6-7.8M1958.7 464.1L1794.8 440M1812.1 389l-17.3 51M1958.7 464.1L1812.1 389M1794.8 440l163.5 144.3M1828.8 530.1l129.5 54.2M1794.8 440l34 90.1M1889.1 688.6l69.2-104.3M1828.8 530.1l60.3 158.5M1964.3 755.5l-75.2-66.9M1800.2 736.8l164.1 18.7M1837.2 774.5l-47.5 24.5M1777.5 765.3l12.2 33.7M1837.2 774.5l-59.7-9.2M1800.2 736.8l37 37.7M1761.5 743.3l38.7-6.5M1796.8 691l3.4 45.8M1889.1 688.6l-88.9 48.2M1796.8 691l92.3-2.4M1784.6 627.4l12.2 63.6M1889.1 688.6l-104.5-61.2M1828.8 530.1l-44.2 97.3M1713.3 542.5l71.3 84.9M1730.3 642.7l54.3-15.3M1692.7 604.9l91.9 22.5M1713.3 542.5l115.5-12.4M1692.7 604.9l20.6-62.4M1660.6 556.5l32.1 48.4M1713.3 542.5l-52.7 14M1743.8 717.1l53-26.1M1761.5 743.3l-17.7-26.2M1701.7 691.6l42.1 25.5M1724.2 776.9l19.6-59.8M1701.7 691.6l22.5 85.3M1770.7 838l27.8-6.1M1789.7 799l8.8 32.9M1732.3 838.3l38.4-.3M1789.7 799l-57.4 39.3M1713.6 802.7l76.1-3.7M1777.5 765.3l-63.9 37.4M1732.3 838.3l-18.7-35.6M1730.3 642.7l-28.6 48.9M1692.7 604.9l9 86.7M1618.9 698.4l82.8-6.8M1648.4 654.6l53.3 37M1618.9 698.4l29.5-43.8M1660.6 556.5l-13.2 33.2M1660 620l-12.6-30.3M1616.5 616.9l31.9 37.7M1660 620l-43.5-3.1M1701.7 691.6L1660 620M1648.4 654.6L1660 620M1701.7 691.6l-39.7 48.6M1724.2 776.9l-46.9 14.6M1656.6 809.8l22 23.1M1694.6 812.9l-16 20M1677.3 791.5l-20.7 18.3M1694.6 812.9l-17.3-21.4M1642.3 769.1l14.3 40.7M1677.3 791.5l-35-22.4M1662 740.2l15.3 51.3M1724.2 776.9l-62.2-36.7M1609.7 746l32.6 23.1M1616.2 818.7l16.3-25.9M1605.6 766.3l26.9 26.5M1604.9 791.5l11.3 27.2M1632.5 792.8l-27.6-1.3M1605.6 766.3l-.7 25.2M1575.7 775.5l29.2 16M1605.6 766.3l-29.9 9.2M1580.5 729.7l-4.8 45.8M1609.7 746l-29.2-16.3M1605.6 766.3l-25.1-36.6M1554.7 742.9l21 32.6M1527.2 757.2l27.5-14.3M1580.5 729.7l-25.8 13.2M1538.4 717.4l16.3 25.5M1662 740.2l-52.3 5.8M1618.9 698.4l-9.2 47.6M1580.5 729.7l38.4-31.3M1579.1 660.7l39.8 37.7M1580.5 729.7l-1.4-69M1648.4 654.6l-69.3 6.1M1616.5 616.9l-37.4 43.8M1574 622.3l5.1 38.4M1616.5 616.9l-42.5 5.4M1549.6 595.5l24.4 26.8M1547.2 629.1l26.8-6.8M1549.6 595.5l-2.4 33.6M1519 640l60.1 20.7M1547.2 629.1L1519 640M1533.6 680.8L1519 640M1579.1 660.7l-40.7 56.7M1507.8 749.7l19.4 7.5M1538.4 717.4l-30.6 32.3M1501.7 718.5l6.1 31.2M1538.4 717.4l-36.7 1.1M1507.8 749.7l-9.2 27.9M1471.5 820l27.1-42.4M1423.9 836.7l47.6-16.7M1386.9 826.5l37 10.2M1422.9 781.3l1 55.4M1386.9 826.5l36-45.2M1399.1 756.8l-12.2 69.7M1422.9 781.3l-23.8-24.5M1459.2 754.1l-60.1 2.7M1422.9 781.3l36.3-27.2M1457.5 798.6l14 21.4M1423.9 836.7l33.6-38.1M1422.9 781.3l34.6 17.3M1459.2 754.1l-1.7 44.5M1498.6 777.6l-41.1 21M1459.2 754.1l39.4 23.5M1501.7 718.5l-42.5 35.6M1458.9 717.4l.3 36.7M1501.7 718.5l-42.8-1.1M1475.9 683.1l25.8 35.4M1533.6 680.8l-31.9 37.7M1538.4 717.4l-4.8-36.6M1579.1 660.7l-45.5 20.1M1533.6 680.8l-57.7 2.3M1519 640l-43.1 43.1M1458.9 717.4l17-34.3M1433.1 702.8l25.8 14.6M1475.9 683.1l-42.8 19.7M1433.1 674.3v28.5M1475.9 683.1l-42.8-8.8M1408 655.6l25.1 18.7M1371.6 633.6l36.4 22M1404.2 605.4l-32.6 28.2M1408 655.6l-3.8-50.2M1435.8 619l-2.7 55.3M1404.2 605.4l31.6 13.6M1447 565l-11.2 54M1490.5 644.8L1447 565M1433.1 674.3l57.4-29.5M1519 640l-43.1 43.1M1547.2 629.1L1435.8 619M1490.5 644.8l-54.7-25.8M1519 640l-28.5 4.8M1503.7 529l18.7 38.7M1558.8 561.9l-36.4 5.8M1595.1 604.7l-36.3-42.8M1618.9 555.4l-23.8 49.3M1558.8 561.9l60.1-6.5M1601.4 513.2l-42.6 48.7M1618.9 555.4l-17.5-42.2M1550.1 486l-46.4 43M1522.4 567.7l27.7-81.7M1601.4 513.2l21-17.7M1634.3 457.8l-11.9 37.7M1550.1 486l72.3 9.5M1601.4 513.2l-51.3-27.2M1598.8 389.7l-48.7 96.3M1622.4 495.5l-23.6-105.8M1634.3 457.8l-35.5-68.1M1655.9 364.2l-57.1 25.5M1634.3 457.8l28.7-.2M1655.9 364.2l-21.6 93.6M1663 457.6l-7.1-93.4M1699 383.6l-36 74M1655.9 364.2l43.1 19.4M1763.5 403.6l-100.5 54M1648.1 531.5l14.9-73.9M1713.3 542.5l-65.2-11M1663 457.6l50.3 84.9M1763.5 403.6l-50.2 138.9M1699 383.6l64.5 20M1794.8 440l-31.3-36.4M1532.3 173.7l40.4 79.1M1576.4 168.6l-44.1 5.1M1589.7 206l-17 46.8M1627.4 222.6l-37.7-16.6M1532.3 173.7l57.4 32.3M1613.8 187.6l13.6 35M1589.7 206l24.1-18.4M1624.6 145.2l-10.8 42.4M1576.4 168.6l13.3 37.4M1613.8 187.6l-37.4-19M1624.6 145.2l-48.2 23.4M2600.9 703.2L2519 712M1662 740.2l-43.1-41.8M233.9 250.8l82.5-7.5" class="st0"/>
  </g>
  <g id="Thin_Lines">
    <path d="M240.7 355.1l-68.3 74M253.2 427.1L8.4 520.5M151.4 326.2l21 102.9M240.7 355.1l102.9 102.5M350.4 347.6l-199-21.4M233.9 250.8l116.5 96.8M351.4 151l-117.5 99.8M350.4 347.6l1-196.6M316.4 243.3L447.5 421M472 263l-155.6-19.7M414.6 295l-71 162.6M526.3 378.8L414.6 295M447.5 421l-80.1 129.3M482.8 518.1L350.4 347.6M446.5 606.7l36.3-88.6M367.4 550.3l186.1 26.2M591.5 436.9l-145 169.8M392.2 837.7l54.3-231M553.5 576.5L370.4 755.1M397.2 641l85.6 91.7M370.4 755.1l75.8 115.5M612.9 665.3L392.2 837.7M482.8 732.7l130.1-67.4M629.7 796.9l-146.9-64.2M528 867.6l-45.2-134.9M370.4 755.1L528 867.6M627.2 725.6l-235 112.1M629.7 796.9l-237.5 40.8M591.2 911.4l38.5-114.5M446.2 870.6l137.2 120.6M480.1 936.2l103.3 55M528 867.6l55.4 123.6M499.5 995.6l28.5-128M446.2 870.6l183.5-73.7M528 867.6l178 30.5M785.4 838.2l-194.2 73.2M735.2 816.3L706 898.1M629.7 796.9l105.5 19.4M749.3 673.1L629.7 796.9M627.2 725.6l108 90.7M817.4 781l-82.2 35.3M749.3 673.1l36.1 165.1M728.9 746.5L674 624.7M612.9 665.3l116 81.2M794.9 639.7L817.4 781M837.6 575.8l31.7 159.1M877.8 598.2l-8.5 136.7M931.1 620.7l-21 46.8M860 472.4l17.8 125.8M963.1 514.7l-32 106M973.6 581.6l46.3 122.1M446.5 606.7l166.4 58.6M526.3 378.8l27.2 197.7M591.5 436.9l21.4 228.4M704.3 511.3l-112.8-74.4M472 263l232.3 248.3M606.8 327.9L472 263M671 422.3L472 263M704.3 511.3l-33.3-89M526.3 378.8L671 422.3M704.3 511.3l27.6-159.6M780.2 293.3l-75.9 218M840.5 447.4l-108.6-95.7M648.6 363.2l135.8 69M814.1 369.3l-143.1 53M840.5 447.4l-26.4-78.1M780.2 293.3l4.2 138.9M865.2 341.1l-80.8 91.1M837.6 575.8l136 5.8M879.5 435.2l135.2-15.6M903.5 333l111.2 86.6M924.2 269.5l12 131.6M825 313l99.2-43.5M590.3 222.4l98.3-18.5M731.3 306.5l-42.7-102.6M642.8 308l88.8-83.7M651.3 516L674 624.7M903.5 333l72.5 6.8M878.7 190l41.7 43.8M832.5 150.4l20.7 62.4M832.1 228.7l21.1-15.9M875.6 247.4l-43.5-18.7M859 109.3l-26.5 41.1M903.5 95.8L859 109.3M937.2 36.2l-19.1 84.4M966.1 70.1l-2.9 125M918.1 120.6l163.3-46.9M979.2 23.4l102.2 50.3M966.1 70.1l115.3 3.6M1140.2 39.4L966.1 70.1M1081.4 73.7l-2.5 49.2M1033 149.3l128.7 18.4M1019.1 216.8L1202 59.5M1126.9 76.5l-44.2 166.8M1248.2 139.9l-165.5 103.4M1019.1 216.8l192.7 6.4M1202 59.5l9.8 163.7M1161.7 167.7l50.1 55.5M1129.5 305.8l32.2-138.1M1308.2 32.5l-146.5 135.2M1126.9 76.5l121.3 63.4M1308.2 32.5l-60 107.4M1313.4 166.8l-5.2-134.3M1258.2 278.2l-10-138.3M1211.8 223.2l101.6-56.4M1082.7 243.3l129.1-20.1M1074.9 354.2l54.6-48.4M1259.5 346.3l-130-40.5M1211.8 223.2l-36.5 164.6M1258.2 278.2l-82.9 109.6M1211.8 223.2l47.7 123.1M1287.2 212.8l27.4 169.1M1258.2 278.2l56.4 103.7M1313.4 166.8l1.2 215.1M1169 269.6l69.5 146.3M1129.5 305.8l-7.8 129.1M1073.2 470.4l48.5-35.5M1097.2 379l114.1 63.8M1167.4 468.8l7.9-81M1073.2 470.4l94.2-1.6M1009.9 618.6l116.1-73.9M1238.5 415.9l51.8 42.3M1121.7 434.9l89.6 7.9M1238.5 415.9l-116.8 19M1175.3 387.8l139.3-5.9M1258.2 278.2l92.6-22.2M472 263l10.8 255.1M447.5 421l144 15.9M482.8 518.1l168.5-2.1M629.5 1016l45.6-31.6M653.3 1041.1l45.5 37.7M781.5 1065.5l-22.2 80.9M826.2 1132.1l-103.9 60.1M720.6 1243l105.6-110.9M820.4 1075.7l78.5 109.9M888.3 1089.5l-82.5 109.4M759.3 1146.4l139.6 39.2M722.3 1192.2l115.8 83.4M805.8 1198.9l-31.9 140.2M826.2 1132.1l11.9 143.5M720.6 1243l244.5 25.5M826.2 1132.1l81.2 200.9M942.3 1135.7l-116.1-3.6M898.9 1185.6l122.2 4.3M942.3 1135.7l78.8 54.2M838.1 1275.6L989 1134.2M1021.1 1189.9l-183 85.7M720.6 1243l300.5-53.1M907.4 1333l-186.8-90M965.1 1268.5l-191.2 70.6M838.1 1275.6l-7.2 101.2M911.4 1475.7l-73.3-200.1M907.4 1333l-82.9 244.5M837.1 1716.1l82.8 79.8M896.5 1747l-35 40.8M837.1 1716.1l59.4 30.9M824.5 1577.5l83.5 114.2M911.4 1475.7l-6.1 145.6M824.5 1577.5l142.6-33.6M1031 1476.3l-206.5 101.2M911.4 1475.7l-74.3 240.4M907.4 1333l-70.3 383.1M965.1 1268.5l-53.7 207.2M907.4 1333l138.5-47.2M966.5 1407.7l79.4-121.9M1125.1 1319.3l-82.6 107.4M1045.9 1285.8L949 1171.7M1021.1 1189.9l104 129.4M1398.6 1149.1l-248.6 98.8M965.1 1268.5l184.9-20.6M966.5 1407.7l-1.4-139.2M898.9 1185.6l90.1-51.4M966.5 1407.7l134.8 1.7M1082.7 243.3l14.5 135.7M1287.2 212.8L1169 269.6M1331.7 954.8l66.9 194.3M1381.6 916.8l17 232.3M1434.6 1017.7l-36 131.4M1510 1150.5l-75.4-132.8M1457 935.5l53 215M1331.7 954.8l221.8 71.4M1409.8 866.9l24.8 150.8M1527.7 944.7l-117.9-77.8M1617.3 891.3l-207.5-24.4M1457 935.5l96.5 90.7M1617.3 891.3l-63.8 134.9M1641.8 1012.6l-114.1-67.9M1553.5 1026.2l103.2 85.2M1538.2 1088.3l31.3 129.1M1649.3 1214.3l-111.1-126M1641.8 1012.6l-72.3 204.8M1792.9 922.2l-143.6 292.1M1641.8 1012.6l92 136.8M1653.7 936.8l116.1 129.1M1641.8 1012.6l128 53.3M1538.2 1088.3l231.6-22.4M1527.7 944.7l126-7.9M1680.5 874l50.3 67.3M1792.9 922.2L1680.5 874M1917.2 898.1l-88.3 52.7M1730.8 941.3l105.6 85.5M1828.9 950.8l136.6 90.6M1958.7 957.2l-70.7 109M1890.4 971.5l75.1 69.9M1888 1066.2l2.4-94.7M2027.6 976.6l-137.2-5.1M1828.9 950.8l129.8 6.4M1769.8 1065.9l115.8 29.9M1836.4 1026.8l-102.6 122.6M1851 1135.2l-117.2 14.2M1885.6 1095.8l-151.8 53.6M1959.3 1083.6l-108.3 51.6M1851.3 1227.6l108-144M1769.8 1065.9l81.2 69.3M1759.6 1243.2l10.2-177.3M1656.7 1111.4l102.9 131.8M1510 1150.5l223.8-1.1M1569.5 1217.4l125.3 71.6M1598.7 1269.3l96.1 19.7M1759.6 1243.2l-160.9 26.1M1649.3 1214.3l110.3 28.9M1851.3 1227.6l-202-13.3M1656.7 1111.4l38.1 177.6M1578.3 1358l116.5-69M1653 1354.6l106.6-111.4M1733.8 1149.4l129.1 176.3M1932.8 1302.6l-64.8 132.1M1876.8 1353.2l43.5 73M1800.1 1371.6l67.9 63.1M1851.3 1227.6l-51.2 144M1694.8 1289l168.1 36.7M1851.3 1227.6l-105.2 111.7M1694.8 1289l39.4 118.9M1653 1354.6l81.2 53.3M1578.3 1358l113.1 82.2M1746.1 1339.3l27.8 120.6M1638.4 1523.7l135.5-63.8M1945.1 1141.6l581.1 276.4M2600 1381.1l-76.9 162.5M2526.2 1418l86.3 128.4M2523.1 1543.6l157.4-20.4M2683.1 1335l-70.6 211.4M2641.3 1336.5l-48.9 133.5M2526.2 1418l154.6 27.3M2600 1381.1l116.4 2.5M2794.4 1445l-194.4-63.9M2793.4 1366.8l-88.9 189M2680.8 1445.3l98 73.6M2592.4 1470l186.4 48.9M2716.4 1383.6l62.4 135.3M2738.3 1578.5l97.4 32.3M2777.6 1700.5l72.1-216.5M2835.7 1610.8l-24-302.1M2894.5 1290.4l-51.2 82.5M2794.4 1445l-49.7-109.8M2600 1381.1l144.7-45.9M2680.8 1445.3l112.6-78.5M2843.3 1372.9l-162.5 72.4M2849.7 1484l-6.4-111.1M2793.4 1366.8l56.3 117.2M2738.3 1578.5l111.4-94.5M2794.4 1445l41.3 165.8M2592.4 1470l202-25M2683.1 1335l110.3 31.8M2894.5 1506.4l207.1 131.4M3042 1658.2l59.6-20.4M2894.5 1290.4l-121-44.6M2682.1 1124l29.5 72.7M2598.5 1206.2l113.1-9.5M2656.2 1144.3l-13.5 39.8M785.4 838.2l647.7-163.9M1019.9 703.7l403 77.6M1366 466.8l156.4 100.9M1589.7 206l66.2 158.2M1847.4 250.5l-191.5 113.7M1576.4 168.6l-3.7 84.2M1624.6 145.2l-34.9 60.8M1847.4 250.5l123.5 29.2M1991.9 35.8l77.1 67.6M2129.5 92.5l-60.5 10.9M2129.8 127.5l-.3-35M2371.8 74.2l91.4 88.3M2828.4 556.8l-75.5 62.3M2776.2 682.9l-23.3-63.8M2714.9 721.9l61.3-39M2716.2 653.7l13.4 15.9M2642.7 1184.1l-44.9 61.8M2521.1 1277.5l76.7-31.6M2576.1 1160l-57.7 89.3M2420.2 1213l98.2 36.3M2560.5 1229.6l-31.6-63.9M2510.2 1218.7l65.9-58.7M2666.8 1100.5l-10.6 43.8M2643.3 1092.4l-7.1-31.6M2393.7 1140.3l26.5 72.7M2500 1080.8l-74-15.2M2397.5 1071.3l28.5-5.7M2382.5 1026.2l104.6 5.7M2445.7 946.3l-29.9 65.9M2463 1000.3l-17.3-54M2563.2 829.5L2510.9 979M2402.9 831.6l108 147.4M2394.1 910l68.9 90.3M2386.9 969.4l86.6-118.1M2402.9 831.6l102.9 84.2M2323.1 970.1l71-60.1M2415.8 1012.2l-92.7-42.1M2382.5 1026.2l-59.4-56.1M2445.7 946.3l-58.8 23.1M2394.1 910l51.6 36.3M2218.8 950.1l175.3-40.1M2473.5 851.3l-171.1 55M2402.9 831.6l-100.5 74.7M2479.6 782l-76.7 49.6M2535.3 773.8l-6.8 106M2479.6 782l48.9 97.8M2563.2 829.5l-83.6-47.5M2421.9 685.9l113.4 87.9M2576.1 765l-57.1-53M2691.6 613.2L2576.1 765M2663.4 534.4l-54 107.6M2567.1 581.9l124.5 31.3M2663.4 534.4l-96.3 47.5M2638.4 441.3l-71.3 140.6M2793.1 372.7l35.3 184.1M2868.8 225l-46.1 161.3M2738.4 286.5l126 80.1M2868.8 225L2735 368.3M2904.8 293.3l-166.4-6.8M2800.2 216.2l22.5 170.1M2904.8 293.3l-104.6-77.1M2731.3 140.1l176.3 61.5M2704.1 166.2l203.5 35.4M2731.3 140.1l7.1 146.4M2704.1 166.2l-65.3 176M2600.4 157.4l38.4 184.8M2735 368.3l-168.2-193.6M2738.4 286.5l-100 154.8M2567.1 581.9l33.8 121.3M2429.8 599.7l171.1 103.5M2519 712l-138.5 56.7M2421.9 685.9l-19 145.7M2600.9 703.2l-179-17.3M2609.4 642l-187.5 43.9M2489.7 538.5L2519 712M2421.9 685.9l67.8-147.4M2385.4 537.4l181.7 44.5M2497.5 404.3l69.6 177.6M2619.9 532.3l-122.4-128M2638.4 441.3l-140.9-37M2402.4 292.9l236 148.4M2385.4 537.4l253-96.1M2309 443.4l310.9 88.9M2247.1 300.7l242.6 237.8M2278.8 535.7l218.7-131.4M2385.4 537.4l112.1-133.1M2189.6 390.6l307.9 13.7M2344 174.7l-35 268.7M2189.6 390.6l212.8-97.7M2247.1 300.7l250.4 103.6M2515.8 152l-18.3 252.3M2560.6 274.6L2515.8 152M2638.8 342.2l-123-190.2M2386.6 205.3l174 69.3M2449.2 197.5l117.6-22.8M2638.8 342.2l-236.4-49.3M2233.1 209.7l264.4 194.6M2344 174.7l58.4 118.2M2129.8 127.5l117.3 173.2M2033.4 252.8l213.7 47.9" class="st1"/>
    <path d="M2247.1 300.7l-14-91" class="st0"/>
    <path d="M2047 332.7l82.8-205.2M2057.5 198.2l175.6 11.5M2220.5 153l-265.9 215.7M2033.4 252.8l156.2 137.8M2047 332.7l142.6 57.9M1954.6 368.7l78.8-115.9M1958.7 464.1l74.7-211.3M2047 332.7l-88.3 131.4M1925.4 358.1l33.3 106M2189.6 390.6l-230.9 73.5M2047 332.7l21.7 259.8M1958.3 584.3l156.3-100.6M1828.8 530.1l285.8-46.4M2189.6 390.6l14.4 187.9M2309 443.4l-105 135.1M2114.6 483.7l194.4-40.3M2143.8 707.3l135-171.6M2204 578.5l120.3 56.8M2143.8 707.3l241.6-169.9M2380.5 768.7l-56.2-133.4M2265 814.9l59.3-179.6M2302.4 906.3l21.9-271M2218.8 950.1l161.7-181.4M2302.4 906.3l78.1-137.6M2365.2 1137.9l-119.9 3.7M2196.4 1110.7l48.9 30.9M2226.3 1043.8l-29.9 66.9M1959.3 1083.6l237.1 27.1M2288.8 976.2l-116.2 81.2M2218.8 950.1l-46.2 107.3M2226.3 1043.8l-7.5-93.7M2157.3 982l131.5-5.8M2230.4 858.4L2157.3 982M2084.7 941.9l134.1 8.2M2230.4 858.4l-145.7 83.5M2323.1 970.1l-92.7-111.7M2421.9 685.9l-156.9 129M2385.4 537.4l-4.9 231.3M2260.8 661.1l-109.6 210.2M2143.8 707.3l86.6 151.1M2151.2 871.3l-7.4-164M2265 814.9l-113.8 56.4M2105.7 782.3l-21 159.6M2230.4 858.4l-187.2-20.7M2035.4 688.6l49.3 253.3M1893.6 822.4l191.1 119.5M2035.4 688.6l-71.3 237.7M1964.3 755.5l-.2 170.8M2105.7 782.3l-141.4-26.8M2084.7 941.9l-120.4-186.4M1841.5 871.3l201.7-33.6M1798.5 831.9l30.4 118.9M1893.6 822.4l-64.7 128.4M1837.2 774.5l80 123.6M1889.1 688.6l-47.6 182.7M1837.2 774.5l-38.7 57.4M1893.6 822.4l-95.1 9.5M1789.7 799l103.9 23.4M1889.1 688.6l4.5 133.8M1837.2 774.5l127.1-19M1889.1 688.6l-51.9 85.9M2035.4 688.6l-198.2 85.9M1770.7 838l19-39M1798.5 831.9l-84.9-29.2M1958.3 584.3l-158.1 152.5M1761.5 743.3l35.3-52.3M1730.3 642.7l13.5 74.4M1796.8 691l-66.5-48.3M1784.6 627.4l-23.1 115.9M1796.8 691l161.5-106.7M1784.6 627.4l173.7-43.1M1958.7 464.1l-174.1 163.3M1828.8 530.1l129.9-66M1713.3 542.5l245.4-78.4M1812.1 389l146.2 195.3M1828.8 530.1l75.9-148.9M1663 457.6l295.7 6.5M1812.1 389l16.7 141.1M1904.7 381.2L1794.8 440M1763.5 403.6l21.1 223.8M1794.8 440l-64.5 202.7M1713.3 542.5l245 41.8M1663 457.6l165.8 72.5M1794.8 440l-81.5 102.5M1828.8 530.1L1699 383.6M1713.3 542.5L1699 383.6M1648.1 531.5l115.4-127.9M1794.8 440l-146.7 91.5M1663 457.6l131.8-17.6M1699 383.6l95.8 56.4M1660.6 556.5l124 70.9M1701.7 691.6l82.9-64.2M1660 620l70.3 22.7M2057.5 198.2l163-45.2M2084.7 941.9l72.6 40.1M632.9 1059.1l75.4-15.6M1386.9 826.5l70.6-27.9M1501.7 718.5l-44.2 80.1M1458.9 717.4l39.7 60.2M1501.7 718.5l53 24.4M1677.3 791.5l1.3 41.4M1656.6 809.8l38 3.1M1701.7 691.6l-24.4 99.9M1743.8 717.1l-66.5 74.4M1662 740.2l81.8-23.1M1796.8 691l-95.1.6M1800.2 736.8l-56.4-19.7M1554.7 742.9l50.9 23.4M1533.6 680.8l46.9 48.9M1618.9 698.4l-85.3-17.6M1547.2 629.1l31.9 31.6M1616.5 616.9l2.4 81.5M1609.7 746l-30.6-85.3M1547.2 629.1l101.2 25.5M1662 740.2l-13.6-85.6M1660 620l2 120.2M1692.7 604.9L1662 740.2M1701.7 691.6l-92 54.4M1660 620l-79.5 109.7M1554.7 742.9l24.4-82.2M1647.4 589.7l45.3 15.2M1601.4 513.2l-6.3 91.5M1503.7 529l115.2 26.4M1558.8 561.9l-55.1-32.9M1550.1 486l8.7 75.9M1618.9 555.4l-68.8-69.4M1598.8 389.7l2.6 123.5M1634.3 457.8l-84.2 28.2M1699 383.6L1550.1 486M1655.9 364.2L1550.1 486M1663 457.6l-64.2-67.9M1699 383.6l-100.2 6.1M1634.3 457.8l64.7-74.2M2463 1000.3l-37 65.3M2466.1 1057.7l-3.1-57.4M2626.7 821.7l38 20.6M2666.8 814.1l-2.1 28.2M2265 814.9l214.6-32.9M2143.8 707.3l236.7 61.4M2068.7 592.5l37 189.8M2114.6 483.7l-8.9 298.6M2260.8 661.1l-192.1-68.6M2204 578.5l-135.3 14M2143.8 707.3l-185.5-123M2449.2 197.5l48.3 206.8M1371.6 633.6l162 47.2M1447 565l28.9 118.1M1404.2 605.4l71.7 77.7M1490.5 644.8l11.2 73.7M703.1 186.1l-14.5 17.8" class="st1"/>
  </g>
  <g id="Dots">
    <circle cx="171.7" cy="264" r="7.8" class="st2"/>
    <circle cx="233.9" cy="250.8" r="7.8" class="st2"/>
    <circle cx="221.3" cy="299" r="7.8" class="st2"/>
    <circle cx="240.7" cy="355.1" r="7.8" class="st2"/>
    <circle cx="151.4" cy="326.2" r="7.8" class="st2"/>
    <circle cx="141.5" cy="402.3" r="7.8" class="st2"/>
    <circle cx="172.4" cy="429.1" r="7.8" class="st2"/>
    <circle cx="171.7" cy="472.2" r="7.8" class="st2"/>
    <circle cx="253.2" cy="427.1" r="7.8" class="st2"/>
    <circle cx="350.4" cy="347.6" r="7.8" class="st2"/>
    <circle cx="343.6" cy="457.6" r="7.8" class="st2"/>
    <circle cx="367.4" cy="550.3" r="7.8" class="st2"/>
    <circle cx="482.8" cy="518.1" r="7.8" class="st2"/>
    <circle cx="447.5" cy="421" r="7.8" class="st2"/>
    <circle cx="414.6" cy="295" r="7.8" class="st2"/>
    <circle cx="316.4" cy="243.3" r="7.8" class="st2"/>
    <circle cx="472" cy="263" r="7.8" class="st2"/>
    <circle cx="235.6" cy="199.2" r="7.8" class="st2"/>
    <circle cx="351.4" cy="151" r="7.8" class="st2"/>
    <circle cx="539.9" cy="247.4" r="7.8" class="st2"/>
    <circle cx="606.8" cy="327.9" r="7.8" class="st2"/>
    <circle cx="526.3" cy="378.8" r="7.8" class="st2"/>
    <circle cx="591.5" cy="436.9" r="7.8" class="st2"/>
    <circle cx="648.6" cy="363.2" r="7.8" class="st2"/>
    <circle cx="671" cy="422.3" r="7.8" class="st2"/>
    <circle cx="553.5" cy="576.5" r="7.8" class="st2"/>
    <circle cx="446.5" cy="606.7" r="7.8" class="st2"/>
    <circle cx="397.2" cy="641" r="7.8" class="st2"/>
    <circle cx="541.2" cy="665.8" r="7.8" class="st2"/>
    <circle cx="482.8" cy="732.7" r="7.8" class="st2"/>
    <circle cx="627.2" cy="725.6" r="7.8" class="st2"/>
    <circle cx="392.2" cy="837.7" r="7.8" class="st2"/>
    <circle cx="370.4" cy="755.1" r="7.8" class="st2"/>
    <circle cx="446.2" cy="870.6" r="7.8" class="st2"/>
    <circle cx="459.4" cy="976.6" r="7.8" class="st2"/>
    <circle cx="480.1" cy="936.2" r="7.8" class="st2"/>
    <circle cx="499.5" cy="995.6" r="7.8" class="st2"/>
    <circle cx="583.4" cy="991.2" r="7.8" class="st2"/>
    <circle cx="648.2" cy="987.8" r="7.8" class="st2"/>
    <circle cx="675.1" cy="984.4" r="7.8" class="st2"/>
    <circle cx="632.9" cy="1059.1" r="7.8" class="st2"/>
    <circle cx="629.5" cy="1016" r="7.8" class="st2"/>
    <circle cx="564.3" cy="1052.7" r="7.8" class="st2"/>
    <circle cx="653.3" cy="1041.1" r="7.8" class="st2"/>
    <circle cx="708.3" cy="1043.5" r="7.8" class="st2"/>
    <circle cx="698.8" cy="1078.8" r="7.8" class="st2"/>
    <circle cx="682.9" cy="1096.8" r="7.8" class="st2"/>
    <circle cx="719.2" cy="1127.4" r="7.8" class="st2"/>
    <circle cx="720.2" cy="1103.6" r="7.8" class="st2"/>
    <circle cx="746" cy="1112.4" r="7.8" class="st2"/>
    <circle cx="781.5" cy="1065.5" r="7.8" class="st2"/>
    <circle cx="820.4" cy="1075.7" r="7.8" class="st2"/>
    <circle cx="826.2" cy="1132.1" r="7.8" class="st2"/>
    <circle cx="722.3" cy="1192.2" r="7.8" class="st2"/>
    <circle cx="720.6" cy="1243" r="7.8" class="st2"/>
    <circle cx="805.8" cy="1198.9" r="7.8" class="st2"/>
    <circle cx="898.9" cy="1185.6" r="7.8" class="st2"/>
    <circle cx="888.3" cy="1089.5" r="7.8" class="st2"/>
    <circle cx="942.3" cy="1135.7" r="7.8" class="st2"/>
    <circle cx="965.1" cy="1268.5" r="7.8" class="st2"/>
    <circle cx="1021.1" cy="1189.9" r="7.8" class="st2"/>
    <circle cx="989" cy="1134.2" r="7.8" class="st2"/>
    <circle cx="949" cy="1171.7" r="7.8" class="st2"/>
    <circle cx="1150" cy="1247.9" r="7.8" class="st2"/>
    <circle cx="1398.6" cy="1149.1" r="7.8" class="st2"/>
    <circle cx="1319.8" cy="1067.9" r="7.8" class="st2"/>
    <circle cx="1434.6" cy="1017.7" r="7.8" class="st2"/>
    <circle cx="1331.7" cy="954.8" r="7.8" class="st2"/>
    <circle cx="1457" cy="935.5" r="7.8" class="st2"/>
    <circle cx="1381.6" cy="916.8" r="7.8" class="st2"/>
    <circle cx="1409.8" cy="866.9" r="7.8" class="st2"/>
    <circle cx="1423.9" cy="836.7" r="7.8" class="st2"/>
    <circle cx="1471.5" cy="820" r="7.8" class="st2"/>
    <circle cx="1457.5" cy="798.6" r="7.8" class="st2"/>
    <circle cx="1422.9" cy="781.3" r="7.8" class="st2"/>
    <circle cx="1459.2" cy="754.1" r="7.8" class="st2"/>
    <circle cx="1498.6" cy="777.6" r="7.8" class="st2"/>
    <circle cx="1507.8" cy="749.7" r="7.8" class="st2"/>
    <circle cx="1527.2" cy="757.2" r="7.8" class="st2"/>
    <circle cx="1554.7" cy="742.9" r="7.8" class="st2"/>
    <circle cx="1538.4" cy="717.4" r="7.8" class="st2"/>
    <circle cx="1579.1" cy="660.7" r="7.8" class="st2"/>
    <circle cx="1574" cy="622.3" r="7.8" class="st2"/>
    <circle cx="1549.6" cy="595.5" r="7.8" class="st2"/>
    <circle cx="1547.2" cy="629.1" r="7.8" class="st2"/>
    <circle cx="1580.5" cy="729.7" r="7.8" class="st2"/>
    <circle cx="1575.7" cy="775.5" r="7.8" class="st2"/>
    <circle cx="1609.7" cy="746" r="7.8" class="st2"/>
    <circle cx="1605.6" cy="766.3" r="7.8" class="st2"/>
    <circle cx="1632.5" cy="792.8" r="7.8" class="st2"/>
    <circle cx="1604.9" cy="791.5" r="7.8" class="st2"/>
    <circle cx="1616.2" cy="818.7" r="7.8" class="st2"/>
    <circle cx="1656.6" cy="809.8" r="7.8" class="st2"/>
    <circle cx="1678.6" cy="832.9" r="7.8" class="st2"/>
    <circle cx="1694.6" cy="812.9" r="7.8" class="st2"/>
    <circle cx="1677.3" cy="791.5" r="7.8" class="st2"/>
    <circle cx="1642.3" cy="769.1" r="7.8" class="st2"/>
    <circle cx="1662" cy="740.2" r="7.8" class="st2"/>
    <circle cx="1618.9" cy="698.4" r="7.8" class="st2"/>
    <circle cx="1616.5" cy="616.9" r="7.8" class="st2"/>
    <circle cx="1648.4" cy="654.6" r="7.8" class="st2"/>
    <circle cx="1660" cy="620" r="7.8" class="st2"/>
    <circle cx="1595.1" cy="604.7" r="7.8" class="st2"/>
    <circle cx="1558.8" cy="561.9" r="7.8" class="st2"/>
    <circle cx="1503.7" cy="529" r="7.8" class="st2"/>
    <circle cx="1550.1" cy="486" r="7.8" class="st2"/>
    <circle cx="1601.4" cy="513.2" r="7.8" class="st2"/>
    <circle cx="1622.4" cy="495.5" r="7.8" class="st2"/>
    <circle cx="1648.1" cy="531.5" r="7.8" class="st2"/>
    <circle cx="1634.3" cy="457.8" r="7.8" class="st2"/>
    <circle cx="1598.8" cy="389.7" r="7.8" class="st2"/>
    <circle cx="1655.9" cy="364.2" r="7.8" class="st2"/>
    <circle cx="1572.7" cy="252.8" r="7.8" class="st2"/>
    <circle cx="1589.7" cy="206" r="7.8" class="st2"/>
    <circle cx="1627.4" cy="222.6" r="7.8" class="st2"/>
    <circle cx="1613.8" cy="187.6" r="7.8" class="st2"/>
    <circle cx="1576.4" cy="168.6" r="7.8" class="st2"/>
    <circle cx="1624.6" cy="145.2" r="7.8" class="st2"/>
    <circle cx="1532.3" cy="173.7" r="7.8" class="st2"/>
    <circle cx="1699" cy="383.6" r="7.8" class="st2"/>
    <circle cx="1663" cy="457.6" r="7.8" class="st2"/>
    <circle cx="1763.5" cy="403.6" r="7.8" class="st2"/>
    <circle cx="1835.5" cy="335.7" r="7.8" class="st2"/>
    <circle cx="1863.7" cy="309.2" r="7.8" class="st2"/>
    <circle cx="1888.5" cy="350.3" r="7.8" class="st2"/>
    <circle cx="1847.4" cy="250.5" r="7.8" class="st2"/>
    <circle cx="1892.3" cy="241.6" r="7.8" class="st2"/>
    <circle cx="1917.1" cy="193.4" r="7.8" class="st2"/>
    <circle cx="1794.8" cy="440" r="7.8" class="st2"/>
    <circle cx="1713.3" cy="542.5" r="7.8" class="st2"/>
    <circle cx="1660.6" cy="556.5" r="7.8" class="st2"/>
    <circle cx="1647.4" cy="589.7" r="7.8" class="st2"/>
    <circle cx="1692.7" cy="604.9" r="7.8" class="st2"/>
    <circle cx="1889.1" cy="688.6" r="7.8" class="st2"/>
    <circle cx="1730.3" cy="642.7" r="7.8" class="st2"/>
    <circle cx="1701.7" cy="691.6" r="7.8" class="st2"/>
    <circle cx="1743.8" cy="717.1" r="7.8" class="st2"/>
    <circle cx="1796.8" cy="691" r="7.8" class="st2"/>
    <circle cx="1800.2" cy="736.8" r="7.8" class="st2"/>
    <circle cx="1761.5" cy="743.3" r="7.8" class="st2"/>
    <circle cx="1724.2" cy="776.9" r="7.8" class="st2"/>
    <circle cx="1777.5" cy="765.3" r="7.8" class="st2"/>
    <circle cx="1837.2" cy="774.5" r="7.8" class="st2"/>
    <circle cx="1789.7" cy="799" r="7.8" class="st2"/>
    <circle cx="1713.6" cy="802.7" r="7.8" class="st2"/>
    <circle cx="1732.3" cy="838.3" r="7.8" class="st2"/>
    <circle cx="1770.7" cy="838" r="7.8" class="st2"/>
    <circle cx="1798.5" cy="831.9" r="7.8" class="st2"/>
    <circle cx="1893.6" cy="822.4" r="7.8" class="st2"/>
    <circle cx="1964.3" cy="755.5" r="7.8" class="st2"/>
    <circle cx="1784.6" cy="627.4" r="7.8" class="st2"/>
    <circle cx="1828.8" cy="530.1" r="7.8" class="st2"/>
    <circle cx="1812.1" cy="389" r="7.8" class="st2"/>
    <circle cx="1618.9" cy="555.4" r="7.8" class="st2"/>
    <circle cx="1522.4" cy="567.7" r="7.8" class="st2"/>
    <circle cx="1447" cy="565" r="7.8" class="st2"/>
    <circle cx="1404.2" cy="605.4" r="7.8" class="st2"/>
    <circle cx="1371.6" cy="633.6" r="7.8" class="st2"/>
    <circle cx="1433.1" cy="702.8" r="7.8" class="st2"/>
    <circle cx="1458.9" cy="717.4" r="7.8" class="st2"/>
    <circle cx="1501.7" cy="718.5" r="7.8" class="st2"/>
    <circle cx="1475.9" cy="683.1" r="7.8" class="st2"/>
    <circle cx="1533.6" cy="680.8" r="7.8" class="st2"/>
    <circle cx="1519" cy="640" r="7.8" class="st2"/>
    <circle cx="1433.1" cy="674.3" r="7.8" class="st2"/>
    <circle cx="1435.8" cy="619" r="7.8" class="st2"/>
    <circle cx="1490.5" cy="644.8" r="7.8" class="st2"/>
    <circle cx="1408" cy="655.6" r="7.8" class="st2"/>
    <circle cx="1399.1" cy="756.8" r="7.8" class="st2"/>
    <circle cx="1386.9" cy="826.5" r="7.8" class="st2"/>
    <circle cx="1559.3" cy="834.3" r="7.8" class="st2"/>
    <circle cx="1527.7" cy="944.7" r="7.8" class="st2"/>
    <circle cx="1641.8" cy="1012.6" r="7.8" class="st2"/>
    <circle cx="1653.7" cy="936.8" r="7.8" class="st2"/>
    <circle cx="1617.3" cy="891.3" r="7.8" class="st2"/>
    <circle cx="1680.5" cy="874" r="7.8" class="st2"/>
    <circle cx="1730.8" cy="941.3" r="7.8" class="st2"/>
    <circle cx="1781.4" cy="883.5" r="7.8" class="st2"/>
    <circle cx="1792.9" cy="922.2" r="7.8" class="st2"/>
    <circle cx="1841.5" cy="871.3" r="7.8" class="st2"/>
    <circle cx="1828.9" cy="950.8" r="7.8" class="st2"/>
    <circle cx="1890.4" cy="971.5" r="7.8" class="st2"/>
    <circle cx="1917.2" cy="898.1" r="7.8" class="st2"/>
    <circle cx="1964.1" cy="926.3" r="7.8" class="st2"/>
    <circle cx="1991.9" cy="922.2" r="7.8" class="st2"/>
    <circle cx="2036.8" cy="944.7" r="7.8" class="st2"/>
    <circle cx="2043.2" cy="837.7" r="7.8" class="st2"/>
    <circle cx="2084.7" cy="941.9" r="7.8" class="st2"/>
    <circle cx="2151.2" cy="871.3" r="7.8" class="st2"/>
    <circle cx="2230.4" cy="858.4" r="7.8" class="st2"/>
    <circle cx="2265" cy="814.9" r="7.8" class="st2"/>
    <circle cx="2380.5" cy="768.7" r="7.8" class="st2"/>
    <circle cx="2402.9" cy="831.6" r="7.8" class="st2"/>
    <circle cx="2394.1" cy="910" r="7.8" class="st2"/>
    <circle cx="2386.9" cy="969.4" r="7.8" class="st2"/>
    <circle cx="2323.1" cy="970.1" r="7.8" class="st2"/>
    <circle cx="2302.4" cy="906.3" r="7.8" class="st2"/>
    <circle cx="2288.8" cy="976.2" r="7.8" class="st2"/>
    <circle cx="2218.8" cy="950.1" r="7.8" class="st2"/>
    <circle cx="2129.8" cy="987.1" r="7.8" class="st2"/>
    <circle cx="2157.3" cy="982" r="7.8" class="st2"/>
    <circle cx="2261.6" cy="1019.4" r="7.8" class="st2"/>
    <circle cx="2226.3" cy="1043.8" r="7.8" class="st2"/>
    <circle cx="2172.6" cy="1057.4" r="7.8" class="st2"/>
    <circle cx="2222.9" cy="1091.7" r="7.8" class="st2"/>
    <circle cx="2196.4" cy="1110.7" r="7.8" class="st2"/>
    <circle cx="2217.8" cy="1132.5" r="7.8" class="st2"/>
    <circle cx="2236.5" cy="1107" r="7.8" class="st2"/>
    <circle cx="2245.3" cy="1141.6" r="7.8" class="st2"/>
    <circle cx="2365.2" cy="1137.9" r="7.8" class="st2"/>
    <circle cx="2358.1" cy="1038.4" r="7.8" class="st2"/>
    <circle cx="2382.5" cy="1026.2" r="7.8" class="st2"/>
    <circle cx="2415.8" cy="1012.2" r="7.8" class="st2"/>
    <circle cx="2466.1" cy="1057.7" r="7.8" class="st2"/>
    <circle cx="2500" cy="1080.8" r="7.8" class="st2"/>
    <circle cx="2487.1" cy="1031.9" r="7.8" class="st2"/>
    <circle cx="2463" cy="1000.3" r="7.8" class="st2"/>
    <circle cx="2426" cy="1065.6" r="7.8" class="st2"/>
    <circle cx="2465.7" cy="1104.3" r="7.8" class="st2"/>
    <circle cx="2416.5" cy="1102.9" r="7.8" class="st2"/>
    <circle cx="2446.7" cy="1142.7" r="7.8" class="st2"/>
    <circle cx="2461.3" cy="1182" r="7.8" class="st2"/>
    <circle cx="2426" cy="1157.9" r="7.8" class="st2"/>
    <circle cx="2427.3" cy="1180.3" r="7.8" class="st2"/>
    <circle cx="2420.2" cy="1213" r="7.8" class="st2"/>
    <circle cx="2451.5" cy="1246.6" r="7.8" class="st2"/>
    <circle cx="2466.1" cy="1213.6" r="7.8" class="st2"/>
    <circle cx="2521.1" cy="1277.5" r="7.8" class="st2"/>
    <circle cx="2468.8" cy="1260.5" r="7.8" class="st2"/>
    <circle cx="2510.2" cy="1218.7" r="7.8" class="st2"/>
    <circle cx="2495.9" cy="1182.7" r="7.8" class="st2"/>
    <circle cx="2528.9" cy="1165.7" r="7.8" class="st2"/>
    <circle cx="2588" cy="1182.7" r="7.8" class="st2"/>
    <circle cx="2576.1" cy="1160" r="7.8" class="st2"/>
    <circle cx="2592.4" cy="1141" r="7.8" class="st2"/>
    <circle cx="2560.5" cy="1229.6" r="7.8" class="st2"/>
    <circle cx="2598.5" cy="1206.2" r="7.8" class="st2"/>
    <circle cx="2518.4" cy="1249.3" r="7.8" class="st2"/>
    <circle cx="2588.7" cy="1275.1" r="7.8" class="st2"/>
    <circle cx="2597.8" cy="1245.9" r="7.8" class="st2"/>
    <circle cx="2637.6" cy="1243.9" r="7.8" class="st2"/>
    <circle cx="2642.7" cy="1184.1" r="7.8" class="st2"/>
    <circle cx="2711.6" cy="1196.7" r="7.8" class="st2"/>
    <circle cx="2707.5" cy="1226.5" r="7.8" class="st2"/>
    <circle cx="2833.9" cy="1228.5" r="7.8" class="st2"/>
    <circle cx="2813.2" cy="1283" r="7.8" class="st2"/>
    <circle cx="2894.5" cy="1290.4" r="7.8" class="st2"/>
    <circle cx="2773.5" cy="1245.8" r="7.8" class="st2"/>
    <circle cx="2811.7" cy="1308.7" r="7.8" class="st2"/>
    <circle cx="2843.3" cy="1372.9" r="7.8" class="st2"/>
    <circle cx="2793.4" cy="1366.8" r="7.8" class="st2"/>
    <circle cx="2744.7" cy="1335.2" r="7.8" class="st2"/>
    <circle cx="2762.5" cy="1310" r="7.8" class="st2"/>
    <circle cx="2717.7" cy="1301.1" r="7.8" class="st2"/>
    <circle cx="2683.1" cy="1335" r="7.8" class="st2"/>
    <circle cx="2641.3" cy="1336.5" r="7.8" class="st2"/>
    <circle cx="2716.4" cy="1383.6" r="7.8" class="st2"/>
    <circle cx="2600" cy="1381.1" r="7.8" class="st2"/>
    <circle cx="2526.2" cy="1418" r="7.8" class="st2"/>
    <circle cx="2523.1" cy="1543.6" r="7.8" class="st2"/>
    <circle cx="2612.5" cy="1546.4" r="7.8" class="st2"/>
    <circle cx="2592.4" cy="1470" r="7.8" class="st2"/>
    <circle cx="2680.5" cy="1523.2" r="7.8" class="st2"/>
    <circle cx="2680.8" cy="1445.3" r="7.8" class="st2"/>
    <circle cx="2778.8" cy="1518.9" r="7.8" class="st2"/>
    <circle cx="2704.5" cy="1555.8" r="7.8" class="st2"/>
    <circle cx="2738.3" cy="1578.5" r="7.8" class="st2"/>
    <circle cx="2787.3" cy="1622.5" r="7.8" class="st2"/>
    <circle cx="2835.7" cy="1610.8" r="7.8" class="st2"/>
    <circle cx="2807.1" cy="1663.3" r="7.8" class="st2"/>
    <circle cx="2765.3" cy="1651.1" r="7.8" class="st2"/>
    <circle cx="2777.6" cy="1700.5" r="7.8" class="st2"/>
    <circle cx="2941.1" cy="1752.4" r="7.8" class="st2"/>
    <circle cx="2970.7" cy="1774.9" r="7.8" class="st2"/>
    <circle cx="2982.4" cy="1717.3" r="7.8" class="st2"/>
    <circle cx="3101.6" cy="1637.8" r="7.8" class="st2"/>
    <circle cx="3049.1" cy="1575.2" r="7.8" class="st2"/>
    <circle cx="3058.8" cy="1636.3" r="7.8" class="st2"/>
    <circle cx="3042" cy="1658.2" r="7.8" class="st2"/>
    <circle cx="3059.8" cy="1686.2" r="7.8" class="st2"/>
    <circle cx="3035.3" cy="1699.5" r="7.8" class="st2"/>
    <circle cx="3005.8" cy="1676.5" r="7.8" class="st2"/>
    <circle cx="2794.4" cy="1445" r="7.8" class="st2"/>
    <circle cx="2849.7" cy="1484" r="7.8" class="st2"/>
    <circle cx="2889.4" cy="1441.7" r="7.8" class="st2"/>
    <circle cx="2894.5" cy="1506.4" r="7.8" class="st2"/>
    <circle cx="2656.2" cy="1144.3" r="7.8" class="st2"/>
    <circle cx="2626" cy="1125" r="7.8" class="st2"/>
    <circle cx="2666.8" cy="1100.5" r="7.8" class="st2"/>
    <circle cx="2682.1" cy="1124" r="7.8" class="st2"/>
    <circle cx="2643.3" cy="1092.4" r="7.8" class="st2"/>
    <circle cx="2610.7" cy="1100.2" r="7.8" class="st2"/>
    <circle cx="2613.5" cy="1071" r="7.8" class="st2"/>
    <circle cx="2636.2" cy="1060.8" r="7.8" class="st2"/>
    <circle cx="2603.6" cy="1056.4" r="7.8" class="st2"/>
    <circle cx="2589.3" cy="1038.7" r="7.8" class="st2"/>
    <circle cx="2619.9" cy="1012.2" r="7.8" class="st2"/>
    <circle cx="2599.5" cy="1003.4" r="7.8" class="st2"/>
    <circle cx="2594.1" cy="980" r="7.8" class="st2"/>
    <circle cx="2583.9" cy="961.3" r="7.8" class="st2"/>
    <circle cx="2612.8" cy="952.1" r="7.8" class="st2"/>
    <circle cx="2599.5" cy="926.7" r="7.8" class="st2"/>
    <circle cx="2568.3" cy="934.8" r="7.8" class="st2"/>
    <circle cx="2510.9" cy="979" r="7.8" class="st2"/>
    <circle cx="2445.7" cy="946.3" r="7.8" class="st2"/>
    <circle cx="2505.8" cy="915.8" r="7.8" class="st2"/>
    <circle cx="2528.5" cy="879.8" r="7.8" class="st2"/>
    <circle cx="2595.1" cy="879.4" r="7.8" class="st2"/>
    <circle cx="2473.5" cy="851.3" r="7.8" class="st2"/>
    <circle cx="2479.6" cy="782" r="7.8" class="st2"/>
    <circle cx="2535.3" cy="773.8" r="7.8" class="st2"/>
    <circle cx="2563.2" cy="829.5" r="7.8" class="st2"/>
    <circle cx="2578.5" cy="797.6" r="7.8" class="st2"/>
    <circle cx="2576.1" cy="765" r="7.8" class="st2"/>
    <circle cx="2601.6" cy="779.9" r="7.8" class="st2"/>
    <circle cx="2626.7" cy="821.7" r="7.8" class="st2"/>
    <circle cx="2651.5" cy="798.6" r="7.8" class="st2"/>
    <circle cx="2666.8" cy="814.1" r="7.8" class="st2"/>
    <circle cx="2664.7" cy="842.3" r="7.8" class="st2"/>
    <circle cx="2675.2" cy="871.4" r="7.8" class="st2"/>
    <circle cx="2692.5" cy="836" r="7.8" class="st2"/>
    <circle cx="2735.5" cy="821.7" r="7.8" class="st2"/>
    <circle cx="2762.5" cy="793.2" r="7.8" class="st2"/>
    <circle cx="2717.7" cy="787.1" r="7.8" class="st2"/>
    <circle cx="2746" cy="739.2" r="7.8" class="st2"/>
    <circle cx="2720.3" cy="738.4" r="7.8" class="st2"/>
    <circle cx="2619.9" cy="757.5" r="7.8" class="st2"/>
    <circle cx="2667.5" cy="708.6" r="7.8" class="st2"/>
    <circle cx="2600.9" cy="703.2" r="7.8" class="st2"/>
    <circle cx="2519" cy="712" r="7.8" class="st2"/>
    <circle cx="2421.9" cy="685.9" r="7.8" class="st2"/>
    <circle cx="2609.4" cy="642" r="7.8" class="st2"/>
    <circle cx="2691.6" cy="613.2" r="7.8" class="st2"/>
    <circle cx="2752.9" cy="619.1" r="7.8" class="st2"/>
    <circle cx="2716.2" cy="653.7" r="7.8" class="st2"/>
    <circle cx="2729.6" cy="669.6" r="7.8" class="st2"/>
    <circle cx="2776.2" cy="682.9" r="7.8" class="st2"/>
    <circle cx="2762.2" cy="708.5" r="7.8" class="st2"/>
    <circle cx="2714.9" cy="721.9" r="7.8" class="st2"/>
    <circle cx="2685.5" cy="519.8" r="7.8" class="st2"/>
    <circle cx="2730.3" cy="417.2" r="7.8" class="st2"/>
    <circle cx="2767.6" cy="458" r="7.8" class="st2"/>
    <circle cx="2828.4" cy="556.8" r="7.8" class="st2"/>
    <circle cx="2831.8" cy="465.8" r="7.8" class="st2"/>
    <circle cx="2822.7" cy="386.3" r="7.8" class="st2"/>
    <circle cx="2864.4" cy="366.6" r="7.8" class="st2"/>
    <circle cx="2870.2" cy="327.6" r="7.8" class="st2"/>
    <circle cx="2904.8" cy="293.3" r="7.8" class="st2"/>
    <circle cx="2868.8" cy="225" r="7.8" class="st2"/>
    <circle cx="2907.6" cy="201.6" r="7.8" class="st2"/>
    <circle cx="2800.2" cy="216.2" r="7.8" class="st2"/>
    <circle cx="2878.7" cy="137.7" r="7.8" class="st2"/>
    <circle cx="2731.3" cy="140.1" r="7.8" class="st2"/>
    <circle cx="2704.1" cy="166.2" r="7.8" class="st2"/>
    <circle cx="2738.4" cy="286.5" r="7.8" class="st2"/>
    <circle cx="2793.1" cy="372.7" r="7.8" class="st2"/>
    <circle cx="2759.8" cy="379.5" r="7.8" class="st2"/>
    <circle cx="2735" cy="368.3" r="7.8" class="st2"/>
    <circle cx="2663.4" cy="534.4" r="7.8" class="st2"/>
    <circle cx="2619.9" cy="532.3" r="7.8" class="st2"/>
    <circle cx="2567.1" cy="581.9" r="7.8" class="st2"/>
    <circle cx="2571" cy="1123" r="7.8" class="st2"/>
    <circle cx="2397.5" cy="1071.3" r="7.8" class="st2"/>
    <circle cx="2397.1" cy="1111.4" r="7.8" class="st2"/>
    <circle cx="2393.7" cy="1140.3" r="7.8" class="st2"/>
    <circle cx="2105.7" cy="782.3" r="7.8" class="st2"/>
    <circle cx="2143.8" cy="707.3" r="7.8" class="st2"/>
    <circle cx="2035.4" cy="688.6" r="7.8" class="st2"/>
    <circle cx="1958.3" cy="584.3" r="7.8" class="st2"/>
    <circle cx="1958.7" cy="464.1" r="7.8" class="st2"/>
    <circle cx="1904.7" cy="381.2" r="7.8" class="st2"/>
    <circle cx="1925.4" cy="358.1" r="7.8" class="st2"/>
    <circle cx="1954.6" cy="368.7" r="7.8" class="st2"/>
    <circle cx="1949.2" cy="325.5" r="7.8" class="st2"/>
    <circle cx="2047" cy="332.7" r="7.8" class="st2"/>
    <circle cx="2189.6" cy="390.6" r="7.8" class="st2"/>
    <circle cx="2114.6" cy="483.7" r="7.8" class="st2"/>
    <circle cx="1970.9" cy="279.7" r="7.8" class="st2"/>
    <circle cx="2033.4" cy="252.8" r="7.8" class="st2"/>
    <circle cx="2057.5" cy="198.2" r="7.8" class="st2"/>
    <circle cx="2141.4" cy="234.8" r="7.8" class="st2"/>
    <circle cx="2233.1" cy="209.7" r="7.8" class="st2"/>
    <circle cx="2344" cy="174.7" r="7.8" class="st2"/>
    <circle cx="2390.5" cy="126.8" r="7.8" class="st2"/>
    <circle cx="2435.7" cy="91.2" r="7.8" class="st2"/>
    <circle cx="2371.8" cy="74.2" r="7.8" class="st2"/>
    <circle cx="2463.2" cy="162.5" r="7.8" class="st2"/>
    <circle cx="2515.8" cy="152" r="7.8" class="st2"/>
    <circle cx="2566.8" cy="174.7" r="7.8" class="st2"/>
    <circle cx="2600.4" cy="157.4" r="7.8" class="st2"/>
    <circle cx="2560.6" cy="274.6" r="7.8" class="st2"/>
    <circle cx="2402.4" cy="292.9" r="7.8" class="st2"/>
    <circle cx="2497.5" cy="404.3" r="7.8" class="st2"/>
    <circle cx="2309" cy="443.4" r="7.8" class="st2"/>
    <circle cx="2278.8" cy="535.7" r="7.8" class="st2"/>
    <circle cx="2385.4" cy="537.4" r="7.8" class="st2"/>
    <circle cx="2429.8" cy="599.7" r="7.8" class="st2"/>
    <circle cx="2324.3" cy="635.3" r="7.8" class="st2"/>
    <circle cx="2260.8" cy="661.1" r="7.8" class="st2"/>
    <circle cx="2204" cy="578.5" r="7.8" class="st2"/>
    <circle cx="2489.7" cy="538.5" r="7.8" class="st2"/>
    <circle cx="2638.4" cy="441.3" r="7.8" class="st2"/>
    <circle cx="2638.8" cy="342.2" r="7.8" class="st2"/>
    <circle cx="2449.2" cy="197.5" r="7.8" class="st2"/>
    <circle cx="2386.6" cy="205.3" r="7.8" class="st2"/>
    <circle cx="2220.5" cy="153" r="7.8" class="st2"/>
    <circle cx="2247.1" cy="300.7" r="7.8" class="st2"/>
    <circle cx="2129.8" cy="127.5" r="7.8" class="st2"/>
    <circle cx="2129.5" cy="92.5" r="7.8" class="st2"/>
    <circle cx="2092.8" cy="81" r="7.8" class="st2"/>
    <circle cx="2069" cy="103.4" r="7.8" class="st2"/>
    <circle cx="2055.5" cy="65" r="7.8" class="st2"/>
    <circle cx="2014.7" cy="90.8" r="7.8" class="st2"/>
    <circle cx="1991.9" cy="35.8" r="7.8" class="st2"/>
    <circle cx="2094.8" cy="113.6" r="7.8" class="st2"/>
    <circle cx="2068.7" cy="592.5" r="7.8" class="st2"/>
    <circle cx="1958.7" cy="957.2" r="7.8" class="st2"/>
    <circle cx="1994" cy="943.3" r="7.8" class="st2"/>
    <circle cx="1962.1" cy="995.9" r="7.8" class="st2"/>
    <circle cx="1867.3" cy="1022.4" r="7.8" class="st2"/>
    <circle cx="1836.4" cy="1026.8" r="7.8" class="st2"/>
    <circle cx="1769.8" cy="1065.9" r="7.8" class="st2"/>
    <circle cx="1656.7" cy="1111.4" r="7.8" class="st2"/>
    <circle cx="1733.8" cy="1149.4" r="7.8" class="st2"/>
    <circle cx="1649.3" cy="1214.3" r="7.8" class="st2"/>
    <circle cx="1569.5" cy="1217.4" r="7.8" class="st2"/>
    <circle cx="1598.7" cy="1269.3" r="7.8" class="st2"/>
    <circle cx="1578.3" cy="1358" r="7.8" class="st2"/>
    <circle cx="1653" cy="1354.6" r="7.8" class="st2"/>
    <circle cx="1746.1" cy="1339.3" r="7.8" class="st2"/>
    <circle cx="1734.2" cy="1407.9" r="7.8" class="st2"/>
    <circle cx="1691.4" cy="1440.2" r="7.8" class="st2"/>
    <circle cx="1638.4" cy="1523.7" r="7.8" class="st2"/>
    <circle cx="1705.3" cy="1523.7" r="7.8" class="st2"/>
    <circle cx="1773.9" cy="1459.9" r="7.8" class="st2"/>
    <circle cx="1868" cy="1434.7" r="7.8" class="st2"/>
    <circle cx="1876.8" cy="1353.2" r="7.8" class="st2"/>
    <circle cx="1932.8" cy="1302.6" r="7.8" class="st2"/>
    <circle cx="1950.8" cy="1333.5" r="7.8" class="st2"/>
    <circle cx="1920.3" cy="1426.2" r="7.8" class="st2"/>
    <circle cx="1800.1" cy="1371.6" r="7.8" class="st2"/>
    <circle cx="1862.9" cy="1325.7" r="7.8" class="st2"/>
    <circle cx="1694.8" cy="1289" r="7.8" class="st2"/>
    <circle cx="1759.6" cy="1243.2" r="7.8" class="st2"/>
    <circle cx="1851.3" cy="1227.6" r="7.8" class="st2"/>
    <circle cx="1851" cy="1135.2" r="7.8" class="st2"/>
    <circle cx="1945.1" cy="1141.6" r="7.8" class="st2"/>
    <circle cx="1885.6" cy="1095.8" r="7.8" class="st2"/>
    <circle cx="1959.3" cy="1083.6" r="7.8" class="st2"/>
    <circle cx="1888" cy="1066.2" r="7.8" class="st2"/>
    <circle cx="1965.5" cy="1041.4" r="7.8" class="st2"/>
    <circle cx="2027.6" cy="976.6" r="7.8" class="st2"/>
    <circle cx="1442.4" cy="1103.6" r="7.8" class="st2"/>
    <circle cx="1510" cy="1150.5" r="7.8" class="st2"/>
    <circle cx="1538.2" cy="1088.3" r="7.8" class="st2"/>
    <circle cx="1553.5" cy="1026.2" r="7.8" class="st2"/>
    <circle cx="838.1" cy="1275.6" r="7.8" class="st2"/>
    <circle cx="773.9" cy="1339.1" r="7.8" class="st2"/>
    <circle cx="830.9" cy="1376.8" r="7.8" class="st2"/>
    <circle cx="907.4" cy="1333" r="7.8" class="st2"/>
    <circle cx="966.5" cy="1407.7" r="7.8" class="st2"/>
    <circle cx="824.5" cy="1577.5" r="7.8" class="st2"/>
    <circle cx="928.4" cy="1586.4" r="7.8" class="st2"/>
    <circle cx="983.8" cy="1571.8" r="7.8" class="st2"/>
    <circle cx="967.1" cy="1543.9" r="7.8" class="st2"/>
    <circle cx="1001.8" cy="1526.3" r="7.8" class="st2"/>
    <circle cx="911.4" cy="1475.7" r="7.8" class="st2"/>
    <circle cx="1042.5" cy="1426.7" r="7.8" class="st2"/>
    <circle cx="1101.3" cy="1409.4" r="7.8" class="st2"/>
    <circle cx="1125.1" cy="1319.3" r="7.8" class="st2"/>
    <circle cx="1045.9" cy="1285.8" r="7.8" class="st2"/>
    <circle cx="1149.7" cy="1292.1" r="7.8" class="st2"/>
    <circle cx="1031" cy="1476.3" r="7.8" class="st2"/>
    <circle cx="905.3" cy="1621.3" r="7.8" class="st2"/>
    <circle cx="837.1" cy="1716.1" r="7.8" class="st2"/>
    <circle cx="908" cy="1691.7" r="7.8" class="st2"/>
    <circle cx="896.5" cy="1747" r="7.8" class="st2"/>
    <circle cx="861.5" cy="1787.8" r="7.8" class="st2"/>
    <circle cx="919.9" cy="1795.9" r="7.8" class="st2"/>
    <circle cx="759.3" cy="1146.4" r="7.8" class="st2"/>
    <circle cx="528" cy="867.6" r="7.8" class="st2"/>
    <circle cx="591.2" cy="911.4" r="7.8" class="st2"/>
    <circle cx="706" cy="898.1" r="7.8" class="st2"/>
    <circle cx="740.6" cy="944" r="7.8" class="st2"/>
    <circle cx="737.9" cy="880" r="7.8" class="st2"/>
    <circle cx="664.9" cy="851.1" r="7.8" class="st2"/>
    <circle cx="629.7" cy="796.9" r="7.8" class="st2"/>
    <circle cx="735.2" cy="816.3" r="7.8" class="st2"/>
    <circle cx="785.4" cy="838.2" r="7.8" class="st2"/>
    <circle cx="817.4" cy="781" r="7.8" class="st2"/>
    <circle cx="728.9" cy="746.5" r="7.8" class="st2"/>
    <circle cx="869.3" cy="734.9" r="7.8" class="st2"/>
    <circle cx="956.6" cy="722.9" r="7.8" class="st2"/>
    <circle cx="957.6" cy="689.9" r="7.8" class="st2"/>
    <circle cx="910.1" cy="667.5" r="7.8" class="st2"/>
    <circle cx="824.8" cy="690.6" r="7.8" class="st2"/>
    <circle cx="794.9" cy="639.7" r="7.8" class="st2"/>
    <circle cx="877.8" cy="598.2" r="7.8" class="st2"/>
    <circle cx="931.1" cy="620.7" r="7.8" class="st2"/>
    <circle cx="972.6" cy="664.5" r="7.8" class="st2"/>
    <circle cx="1009.9" cy="618.6" r="7.8" class="st2"/>
    <circle cx="973.6" cy="581.6" r="7.8" class="st2"/>
    <circle cx="963.1" cy="514.7" r="7.8" class="st2"/>
    <circle cx="953.4" cy="490.1" r="7.8" class="st2"/>
    <circle cx="923.5" cy="545.1" r="7.8" class="st2"/>
    <circle cx="837.6" cy="575.8" r="7.8" class="st2"/>
    <circle cx="782.4" cy="579.7" r="7.8" class="st2"/>
    <circle cx="749.3" cy="673.1" r="7.8" class="st2"/>
    <circle cx="674" cy="624.7" r="7.8" class="st2"/>
    <circle cx="624.8" cy="572.1" r="7.8" class="st2"/>
    <circle cx="651.3" cy="516" r="7.8" class="st2"/>
    <circle cx="704.3" cy="511.3" r="7.8" class="st2"/>
    <circle cx="784.4" cy="432.2" r="7.8" class="st2"/>
    <circle cx="840.5" cy="447.4" r="7.8" class="st2"/>
    <circle cx="865.2" cy="341.1" r="7.8" class="st2"/>
    <circle cx="879.5" cy="435.2" r="7.8" class="st2"/>
    <circle cx="936.2" cy="401.1" r="7.8" class="st2"/>
    <circle cx="976" cy="339.8" r="7.8" class="st2"/>
    <circle cx="1014.7" cy="419.6" r="7.8" class="st2"/>
    <circle cx="903.5" cy="333" r="7.8" class="st2"/>
    <circle cx="924.2" cy="269.5" r="7.8" class="st2"/>
    <circle cx="875.6" cy="247.4" r="7.8" class="st2"/>
    <circle cx="825" cy="313" r="7.8" class="st2"/>
    <circle cx="814.1" cy="369.3" r="7.8" class="st2"/>
    <circle cx="780.2" cy="293.3" r="7.8" class="st2"/>
    <circle cx="731.9" cy="351.7" r="7.8" class="st2"/>
    <circle cx="731.3" cy="306.5" r="7.8" class="st2"/>
    <circle cx="731.6" cy="224.3" r="7.8" class="st2"/>
    <circle cx="688.6" cy="203.9" r="7.8" class="st2"/>
    <circle cx="590.3" cy="222.4" r="7.8" class="st2"/>
    <circle cx="664.7" cy="257.3" r="7.8" class="st2"/>
    <circle cx="642.8" cy="308" r="7.8" class="st2"/>
    <circle cx="767.6" cy="268.5" r="7.8" class="st2"/>
    <circle cx="785.9" cy="213.1" r="7.8" class="st2"/>
    <circle cx="832.1" cy="228.7" r="7.8" class="st2"/>
    <circle cx="853.2" cy="212.8" r="7.8" class="st2"/>
    <circle cx="920.4" cy="233.8" r="7.8" class="st2"/>
    <circle cx="940.5" cy="206" r="7.8" class="st2"/>
    <circle cx="878.7" cy="190" r="7.8" class="st2"/>
    <circle cx="897.3" cy="176.4" r="7.8" class="st2"/>
    <circle cx="963.2" cy="195.1" r="7.8" class="st2"/>
    <circle cx="924" cy="158.6" r="7.8" class="st2"/>
    <circle cx="918.1" cy="120.6" r="7.8" class="st2"/>
    <circle cx="903.5" cy="95.8" r="7.8" class="st2"/>
    <circle cx="859" cy="109.3" r="7.8" class="st2"/>
    <circle cx="842" cy="72" r="7.8" class="st2"/>
    <circle cx="816.2" cy="107.3" r="7.8" class="st2"/>
    <circle cx="767.9" cy="128.7" r="7.8" class="st2"/>
    <circle cx="736" cy="156.2" r="7.8" class="st2"/>
    <circle cx="767.9" cy="184.4" r="7.8" class="st2"/>
    <circle cx="703.1" cy="186.1" r="7.8" class="st2"/>
    <circle cx="688.5" cy="144.7" r="7.8" class="st2"/>
    <circle cx="640.2" cy="160.3" r="7.8" class="st2"/>
    <circle cx="793.4" cy="159.6" r="7.8" class="st2"/>
    <circle cx="804.6" cy="194.6" r="7.8" class="st2"/>
    <circle cx="832.5" cy="150.4" r="7.8" class="st2"/>
    <circle cx="1004.8" cy="131.6" r="7.8" class="st2"/>
    <circle cx="1033" cy="149.3" r="7.8" class="st2"/>
    <circle cx="1019.1" cy="216.8" r="7.8" class="st2"/>
    <circle cx="1082.7" cy="243.3" r="7.8" class="st2"/>
    <circle cx="1169" cy="269.6" r="7.8" class="st2"/>
    <circle cx="1129.5" cy="305.8" r="7.8" class="st2"/>
    <circle cx="1074.9" cy="354.2" r="7.8" class="st2"/>
    <circle cx="1211.8" cy="223.2" r="7.8" class="st2"/>
    <circle cx="1161.7" cy="167.7" r="7.8" class="st2"/>
    <circle cx="1126.9" cy="76.5" r="7.8" class="st2"/>
    <circle cx="1202" cy="59.5" r="7.8" class="st2"/>
    <circle cx="1248.2" cy="139.9" r="7.8" class="st2"/>
    <circle cx="1313.4" cy="166.8" r="7.8" class="st2"/>
    <circle cx="1287.2" cy="212.8" r="7.8" class="st2"/>
    <circle cx="1258.2" cy="278.2" r="7.8" class="st2"/>
    <circle cx="1259.5" cy="346.3" r="7.8" class="st2"/>
    <circle cx="1238.5" cy="415.9" r="7.8" class="st2"/>
    <circle cx="1175.3" cy="387.8" r="7.8" class="st2"/>
    <circle cx="1211.3" cy="442.8" r="7.8" class="st2"/>
    <circle cx="1167.4" cy="468.8" r="7.8" class="st2"/>
    <circle cx="1121.7" cy="434.9" r="7.8" class="st2"/>
    <circle cx="1069.1" cy="428.5" r="7.8" class="st2"/>
    <circle cx="1097.2" cy="379" r="7.8" class="st2"/>
    <circle cx="1073.2" cy="470.4" r="7.8" class="st2"/>
    <circle cx="1126" cy="544.7" r="7.8" class="st2"/>
    <circle cx="1314.6" cy="381.9" r="7.8" class="st2"/>
    <circle cx="1366" cy="466.8" r="7.8" class="st2"/>
    <circle cx="1325.9" cy="445.5" r="7.8" class="st2"/>
    <circle cx="1290.3" cy="458.2" r="7.8" class="st2"/>
    <circle cx="1325.4" cy="496.5" r="7.8" class="st2"/>
    <circle cx="1350.8" cy="256" r="7.8" class="st2"/>
    <circle cx="1351.9" cy="66.3" r="7.8" class="st2"/>
    <circle cx="1345.4" cy="107.9" r="7.8" class="st2"/>
    <circle cx="1404" cy="118.1" r="7.8" class="st2"/>
    <circle cx="1308.2" cy="32.5" r="7.8" class="st2"/>
    <circle cx="1078.9" cy="122.9" r="7.8" class="st2"/>
    <circle cx="966.1" cy="70.1" r="7.8" class="st2"/>
    <circle cx="937.2" cy="36.2" r="7.8" class="st2"/>
    <circle cx="979.2" cy="23.4" r="7.8" class="st2"/>
    <circle cx="1081.4" cy="73.7" r="7.8" class="st2"/>
    <circle cx="1140.2" cy="39.4" r="7.8" class="st2"/>
    <circle cx="1039.6" cy="9.8" r="7.8" class="st2"/>
    <circle cx="612.9" cy="665.3" r="7.8" class="st2"/>
    <circle cx="860" cy="472.4" r="7.8" class="st2"/>
    <circle cx="1019.9" cy="703.7" r="7.8" class="st2"/>
    <circle cx="8.4" cy="520.5" r="7.8" class="st2"/>
  </g>
  <g id="Blue_dots">
    <g class="st3">
      <circle cx="359.2" cy="451" r="75" class="st4"/>
    </g>
    <g class="st3">
      <circle cx="556.2" cy="1020.2" r="75" class="st4"/>
    </g>
    <g class="st3">
      <circle cx="1466" cy="659.2" r="75" class="st4"/>
    </g>
    <g class="st3">
      <circle cx="2428.8" cy="300.7" r="75" class="st4"/>
    </g>
    <g class="st3">
      <circle cx="2768.4" cy="781.6" r="75" class="st4"/>
    </g>
    <g class="st3">
      <circle cx="2852.5" cy="1485.5" r="65.6" class="st4"/>
    </g>
    <g class="st3">
      <circle cx="3020.6" cy="1663.3" r="42.4" class="st4"/>
    </g>
    <g class="st3">
      <circle cx="667.2" cy="609.6" r="110.3" class="st4"/>
    </g>
    <g class="st3">
      <circle cx="1015.7" cy="1445.8" r="127.6" class="st4"/>
    </g>
    <g class="st3">
      <circle cx="1961.2" cy="612.4" r="127.6" class="st4"/>
    </g>
    <g class="st3">
      <circle cx="366.8" cy="754.3" r="25.3" class="st4"/>
    </g>
    <g class="st3">
      <circle cx="524.9" cy="874.6" r="25.3" class="st4"/>
    </g>
    <g class="st3">
      <circle cx="782.5" cy="838.6" r="25.3" class="st4"/>
    </g>
    <g class="st3">
      <circle cx="758" cy="1143.2" r="25.3" class="st4"/>
    </g>
    <g class="st3">
      <circle cx="884.3" cy="1090.9" r="25.3" class="st4"/>
    </g>
    <g class="st3">
      <circle cx="1155.3" cy="1249.2" r="25.3" class="st4"/>
    </g>
    <g class="st3">
      <circle cx="1659.5" cy="1107.6" r="25.3" class="st4"/>
    </g>
    <g class="st3">
      <circle cx="1969.7" cy="1035.2" r="25.3" class="st4"/>
    </g>
    <g class="st3">
      <circle cx="1726.2" cy="949.6" r="25.3" class="st4"/>
    </g>
    <g class="st3">
      <circle cx="1385.9" cy="918" r="25.3" class="st4"/>
    </g>
    <g class="st3">
      <circle cx="1386.6" cy="821.6" r="25.3" class="st4"/>
    </g>
    <g class="st3">
      <circle cx="1658" cy="736.2" r="25.3" class="st4"/>
    </g>
    <g class="st3">
      <circle cx="1562.9" cy="489.4" r="25.3" class="st4"/>
    </g>
    <g class="st3">
      <circle cx="1660" cy="627.2" r="25.3" class="st4"/>
    </g>
    <g class="st3">
      <circle cx="1730.3" cy="833" r="25.3" class="st4"/>
    </g>
    <g class="st3">
      <circle cx="2155.4" cy="982.6" r="25.3" class="st4"/>
    </g>
    <g class="st3">
      <circle cx="2246.2" cy="1153.3" r="25.3" class="st4"/>
    </g>
    <g class="st3">
      <circle cx="2520.3" cy="1274" r="25.3" class="st4"/>
    </g>
    <g class="st3">
      <circle cx="2593.3" cy="881.9" r="25.3" class="st4"/>
    </g>
    <g class="st3">
      <circle cx="2750.6" cy="626" r="25.3" class="st4"/>
    </g>
    <g class="st3">
      <circle cx="2842.9" cy="470.3" r="25.3" class="st4"/>
    </g>
    <g class="st3">
      <circle cx="2388.9" cy="538.4" r="25.3" class="st4"/>
    </g>
    <g class="st3">
      <circle cx="2777.5" cy="1250.8" r="25.3" class="st4"/>
    </g>
    <g class="st3">
      <circle cx="2521.4" cy="1538.9" r="25.3" class="st4"/>
    </g>
    <g class="st3">
      <circle cx="1581.8" cy="1353.8" r="25.3" class="st4"/>
    </g>
    <g class="st3">
      <circle cx="1710.3" cy="1531.4" r="25.3" class="st4"/>
    </g>
    <g class="st3">
      <circle cx="773.5" cy="1333.4" r="25.3" class="st4"/>
    </g>
    <g class="st3">
      <circle cx="1022.3" cy="702.7" r="25.3" class="st4"/>
    </g>
    <g class="st3">
      <circle cx="838.7" cy="573.3" r="25.3" class="st4"/>
    </g>
  </g>
  <g id="D">
    <path d="M375.2 408.9h-37.7l-3.1 17.5h34c16.8 0 21.7 6.1 21.6 16.2-.1 5.2-2.3 13.9-3.3 16.8-2.6 7.5-7.9 16.2-27.8 16.2h-33.1l-3.1 17.5h37.6c13.3 0 18.9-1.5 24.9-4.3 13.3-6.1 21.1-19.2 24.3-36.3 4.7-25.5-1.1-43.6-34.3-43.6" class="st5"/>
    <path d="M321.2 442.2c-9.9 0-11.3 6.4-12.2 10.3-1.2 5.1-1.6 7.2-1.6 7.2H346c9.9 0 11.3-6.4 12.2-10.3 1.2-5.1 1.6-7.2 1.6-7.2h-38.6zM572.2 978.2h-37.7l-3.1 17.5h34c16.8 0 21.7 6.1 21.6 16.2-.1 5.2-2.3 13.9-3.3 16.8-2.6 7.6-7.9 16.2-27.8 16.2h-33.1l-3.1 17.5h37.6c13.3 0 18.9-1.5 24.9-4.3 13.3-6.1 21.1-19.2 24.3-36.3 4.7-25.6-1.2-43.6-34.3-43.6" class="st5"/>
    <path d="M518.2 1011.4c-9.9 0-11.3 6.4-12.2 10.3-1.2 5.1-1.6 7.2-1.6 7.2H543c9.9 0 11.3-6.4 12.2-10.3 1.2-5.1 1.6-7.2 1.6-7.2h-38.6zM1482 617.1h-37.7l-3.1 17.5h34c16.8 0 21.7 6.1 21.6 16.2-.1 5.2-2.3 13.9-3.3 16.8-2.6 7.5-7.9 16.2-27.8 16.2h-33.1l-3.1 17.5h37.6c13.3 0 18.9-1.5 24.9-4.3 13.3-6.1 21.1-19.2 24.3-36.3 4.7-25.5-1.1-43.6-34.3-43.6" class="st5"/>
    <path d="M1428 650.4c-9.9 0-11.3 6.4-12.2 10.3-1.2 5.1-1.6 7.2-1.6 7.2h38.6c9.9 0 11.3-6.4 12.2-10.3 1.2-5.1 1.6-7.2 1.6-7.2H1428zM2444.8 258.6h-37.7l-3.1 17.5h34c16.8 0 21.7 6.1 21.6 16.2-.1 5.2-2.3 13.9-3.3 16.8-2.6 7.5-7.9 16.2-27.8 16.2h-33.1l-3.1 17.5h37.6c13.3 0 18.9-1.5 24.9-4.3 13.3-6.1 21.1-19.2 24.3-36.3 4.8-25.5-1.1-43.6-34.3-43.6" class="st5"/>
    <path d="M2390.9 291.9c-9.9 0-11.3 6.4-12.2 10.3-1.2 5.1-1.6 7.2-1.6 7.2h38.6c9.9 0 11.3-6.4 12.2-10.3 1.2-5.1 1.6-7.2 1.6-7.2h-38.6zM2784.5 739.5h-37.7l-3.1 17.5h34c16.8 0 21.7 6.1 21.6 16.2-.1 5.2-2.3 13.9-3.3 16.8-2.6 7.5-7.9 16.2-27.8 16.2h-33.1l-3.1 17.5h37.6c13.3 0 18.9-1.5 24.9-4.3 13.3-6.1 21.1-19.2 24.3-36.3 4.7-25.5-1.2-43.6-34.3-43.6" class="st5"/>
    <path d="M2730.5 772.8c-9.9 0-11.3 6.4-12.2 10.3-1.2 5.1-1.6 7.2-1.6 7.2h38.6c9.9 0 11.3-6.4 12.2-10.3 1.2-5.1 1.6-7.2 1.6-7.2h-38.6zM2866.5 1448.8h-32.9l-2.7 15.3h29.7c14.6 0 19 5.3 18.8 14.1-.1 4.5-2 12.2-2.9 14.6-2.3 6.6-6.9 14.1-24.3 14.1h-28.9l-2.7 15.3h32.9c11.6 0 16.5-1.4 21.7-3.8 11.6-5.3 18.5-16.8 21.2-31.7 4.2-22.1-.9-37.9-29.9-37.9" class="st5"/>
    <path d="M2819.4 1477.9c-8.6 0-9.9 5.6-10.7 9-1.1 4.5-1.4 6.2-1.4 6.2h33.7c8.6 0 9.9-5.6 10.7-9 1.1-4.5 1.4-6.2 1.4-6.2h-33.7zM3029.6 1639.6h-21.3l-1.8 9.9h19.2c9.5 0 12.3 3.4 12.2 9.1 0 2.9-1.3 7.9-1.9 9.5-1.5 4.3-4.5 9.1-15.7 9.1h-18.7l-1.8 9.9h21.2c7.5 0 10.7-.9 14.1-2.4 7.5-3.5 11.9-10.8 13.7-20.5 2.9-14.4-.4-24.6-19.2-24.6" class="st5"/>
    <path d="M2999.2 1658.3c-5.6 0-6.4 3.6-6.9 5.8-.7 2.9-.9 4-.9 4h21.8c5.6 0 6.4-3.6 6.9-5.8.7-2.9.9-4 .9-4h-21.8zM690.8 547.8h-55.5l-4.6 25.7 50 .1c24.6 0 31.9 8.9 31.7 23.8-.1 7.6-3.4 20.5-4.8 24.6-3.8 11.1-11.6 23.8-40.8 23.8h-48.6l-4.6 25.7h55.3c19.5 0 27.8-2.3 36.6-6.3 19.5-9 31.1-28.2 35.7-53.3 7-37.5-1.7-64.1-50.4-64.1" class="st5"/>
    <path d="M611.4 596.7c-14.5 0-16.6 9.5-18 15.2-1.8 7.5-2.4 10.5-2.4 10.5h56.8c14.5 0 16.6-9.5 18-15.2 1.8-7.5 2.4-10.5 2.4-10.5h-56.8zM1043 1374.3h-64.1l-5.3 29.7 57.9.1c28.5 0 36.9 10.4 36.7 27.5-.1 8.8-3.9 23.7-5.6 28.5-4.4 12.8-13.4 27.5-47.2 27.5h-56.3l-5.3 29.7h64c22.6 0 32.2-2.6 42.3-7.3 22.5-10.4 36-32.7 41.3-61.7 7.9-43.2-2-74-58.4-74" class="st5"/>
    <path d="M951.2 1430.9c-16.8 0-19.2 10.9-20.8 17.6-2.1 8.7-2.8 12.2-2.8 12.2h65.7c16.8 0 19.2-10.9 20.8-17.6 2.1-8.7 2.8-12.2 2.8-12.2h-65.7zM1988.5 540.9h-64.1l-5.3 29.7 57.9.1c28.5 0 36.9 10.4 36.7 27.5-.1 8.8-3.9 23.7-5.6 28.5-4.4 12.8-13.4 27.5-47.2 27.5h-56.3l-5.3 29.7h64c22.6 0 32.2-2.6 42.3-7.3 22.5-10.4 36-32.7 41.3-61.7 8-43.3-2-74-58.4-74" class="st5"/>
    <path d="M1896.7 597.4c-16.8 0-19.2 10.9-20.8 17.6-2.1 8.7-2.8 12.2-2.8 12.2h65.7c16.8 0 19.2-10.9 20.8-17.6 2.1-8.7 2.8-12.2 2.8-12.2h-65.7zM372.2 740.1h-12.7l-1.1 5.9h11.5c5.7 0 7.3 2.1 7.3 5.5 0 1.7-.8 4.7-1.1 5.7-.9 2.6-2.7 5.5-9.4 5.5h-11.2l-1.1 5.9h12.7c4.5 0 6.4-.5 8.4-1.5 4.5-2.1 7.1-6.5 8.2-12.2 1.7-8.7-.3-14.8-11.5-14.8" class="st5"/>
    <path d="M354 751.4c-3.3 0-3.8 2.2-4.1 3.5-.4 1.7-.5 2.4-.5 2.4h13c3.3 0 3.8-2.2 4.1-3.5.4-1.7.5-2.4.5-2.4h-13zM530.3 860.4h-12.7l-1.1 5.9H528c5.7 0 7.3 2.1 7.3 5.5 0 1.7-.8 4.7-1.1 5.7-.9 2.6-2.7 5.5-9.4 5.5h-11.2l-1.1 5.9h12.7c4.5 0 6.4-.5 8.4-1.5 4.5-2.1 7.1-6.5 8.2-12.2 1.7-8.7-.3-14.8-11.5-14.8" class="st5"/>
    <path d="M512.1 871.6c-3.3 0-3.8 2.2-4.1 3.5-.4 1.7-.5 2.4-.5 2.4h13c3.3 0 3.8-2.2 4.1-3.5.4-1.7.5-2.4.5-2.4h-13zM787.9 824.4h-12.7l-1.1 5.9h11.5c5.7 0 7.3 2.1 7.3 5.5 0 1.7-.8 4.7-1.1 5.7-.9 2.6-2.7 5.5-9.4 5.5h-11.2l-1.1 5.9h12.7c4.5 0 6.4-.5 8.4-1.5 4.5-2.1 7.1-6.5 8.2-12.2 1.7-8.7-.3-14.8-11.5-14.8" class="st5"/>
    <path d="M769.7 835.6c-3.3 0-3.8 2.2-4.1 3.5-.4 1.7-.5 2.4-.5 2.4h13c3.3 0 3.8-2.2 4.1-3.5.4-1.7.5-2.4.5-2.4h-13zM763.4 1129h-12.7l-1.1 5.9h11.5c5.7 0 7.3 2.1 7.3 5.5 0 1.7-.8 4.7-1.1 5.7-.9 2.6-2.7 5.5-9.4 5.5h-11.2l-1.1 5.9h12.7c4.5 0 6.4-.5 8.4-1.5 4.5-2.1 7.1-6.5 8.2-12.2 1.7-8.7-.3-14.8-11.5-14.8" class="st5"/>
    <path d="M745.2 1140.2c-3.3 0-3.8 2.2-4.1 3.5-.4 1.7-.5 2.4-.5 2.4h13c3.3 0 3.8-2.2 4.1-3.5.4-1.7.5-2.4.5-2.4h-13zM889.7 1076.7H877l-1.1 5.9h11.5c5.7 0 7.3 2.1 7.3 5.5 0 1.7-.8 4.7-1.1 5.7-.9 2.6-2.7 5.5-9.4 5.5H873l-1.1 5.9h12.7c4.5 0 6.4-.5 8.4-1.5 4.5-2.1 7.1-6.5 8.2-12.2 1.7-8.7-.3-14.8-11.5-14.8" class="st5"/>
    <path d="M871.5 1087.9c-3.3 0-3.8 2.2-4.1 3.5-.4 1.7-.5 2.4-.5 2.4h13c3.3 0 3.8-2.2 4.1-3.5.4-1.7.5-2.4.5-2.4h-13zM1160.7 1235H1148l-1.1 5.9h11.5c5.7 0 7.3 2.1 7.3 5.5 0 1.7-.8 4.7-1.1 5.7-.9 2.6-2.7 5.5-9.4 5.5H1144l-1.1 5.9h12.7c4.5 0 6.4-.5 8.4-1.5 4.5-2.1 7.1-6.5 8.2-12.2 1.7-8.7-.3-14.8-11.5-14.8" class="st5"/>
    <path d="M1142.5 1246.2c-3.3 0-3.8 2.2-4.1 3.5-.4 1.7-.5 2.4-.5 2.4h13c3.3 0 3.8-2.2 4.1-3.5.4-1.7.5-2.4.5-2.4h-13zM1664.9 1093.4h-12.7l-1.1 5.9h11.5c5.7 0 7.3 2.1 7.3 5.5 0 1.7-.8 4.7-1.1 5.7-.9 2.6-2.7 5.5-9.4 5.5h-11.2l-1.1 5.9h12.7c4.5 0 6.4-.5 8.4-1.5 4.5-2.1 7.1-6.5 8.2-12.2 1.7-8.7-.3-14.8-11.5-14.8" class="st5"/>
    <path d="M1646.7 1104.6c-3.3 0-3.8 2.2-4.1 3.5-.4 1.7-.5 2.4-.5 2.4h13c3.3 0 3.8-2.2 4.1-3.5.4-1.7.5-2.4.5-2.4h-13zM1975.1 1021h-12.7l-1.1 5.9h11.5c5.7 0 7.3 2.1 7.3 5.5 0 1.7-.8 4.7-1.1 5.7-.9 2.6-2.7 5.5-9.4 5.5h-11.2l-1.1 5.9h12.7c4.5 0 6.4-.5 8.4-1.5 4.5-2.1 7.1-6.5 8.2-12.2 1.7-8.7-.3-14.8-11.5-14.8" class="st5"/>
    <path d="M1956.9 1032.2c-3.3 0-3.8 2.2-4.1 3.5-.4 1.7-.5 2.4-.5 2.4h13c3.3 0 3.8-2.2 4.1-3.5.4-1.7.5-2.4.5-2.4h-13zM1731.6 935.4h-12.7l-1.1 5.9h11.5c5.7 0 7.3 2.1 7.3 5.5 0 1.7-.8 4.7-1.1 5.7-.9 2.6-2.7 5.5-9.4 5.5h-11.2l-1.1 5.9h12.7c4.5 0 6.4-.5 8.4-1.5 4.5-2.1 7.1-6.5 8.2-12.2 1.7-8.7-.3-14.8-11.5-14.8" class="st5"/>
    <path d="M1713.4 946.7c-3.3 0-3.8 2.2-4.1 3.5-.4 1.7-.5 2.4-.5 2.4h13c3.3 0 3.8-2.2 4.1-3.5.4-1.7.5-2.4.5-2.4h-13zM1391.3 903.8h-12.7l-1.1 5.9h11.5c5.7 0 7.3 2.1 7.3 5.5 0 1.7-.8 4.7-1.1 5.7-.9 2.6-2.7 5.5-9.4 5.5h-11.2l-1.1 5.9h12.7c4.5 0 6.4-.5 8.4-1.5 4.5-2.1 7.1-6.5 8.2-12.2 1.7-8.7-.3-14.8-11.5-14.8" class="st5"/>
    <path d="M1373.1 915.1c-3.3 0-3.8 2.2-4.1 3.5-.4 1.7-.5 2.4-.5 2.4h13c3.3 0 3.8-2.2 4.1-3.5.4-1.7.5-2.4.5-2.4h-13z" class="st5"/>
    <g>
      <path d="M1392.1 807.4h-12.7l-1.1 5.9h11.5c5.7 0 7.3 2.1 7.3 5.5 0 1.7-.8 4.7-1.1 5.7-.9 2.6-2.7 5.5-9.4 5.5h-11.2l-1.1 5.9h12.7c4.5 0 6.4-.5 8.4-1.5 4.5-2.1 7.1-6.5 8.2-12.2 1.6-8.7-.3-14.8-11.5-14.8" class="st5"/>
      <path d="M1373.8 818.6c-3.3 0-3.8 2.2-4.1 3.5-.4 1.7-.5 2.4-.5 2.4h13c3.3 0 3.8-2.2 4.1-3.5.4-1.7.5-2.4.5-2.4h-13z" class="st5"/>
    </g>
    <g>
      <path d="M1663.4 722h-12.7l-1.1 5.9h11.5c5.7 0 7.3 2.1 7.3 5.5 0 1.7-.8 4.7-1.1 5.7-.9 2.6-2.7 5.5-9.4 5.5h-11.2l-1.1 5.9h12.7c4.5 0 6.4-.5 8.4-1.5 4.5-2.1 7.1-6.5 8.2-12.2 1.7-8.7-.3-14.8-11.5-14.8" class="st5"/>
      <path d="M1645.1 733.3c-3.3 0-3.8 2.2-4.1 3.5-.4 1.7-.5 2.4-.5 2.4h13c3.3 0 3.8-2.2 4.1-3.5.4-1.7.5-2.4.5-2.4h-13z" class="st5"/>
    </g>
    <g>
      <path d="M1568.3 475.2h-12.7l-1.1 5.9h11.5c5.7 0 7.3 2.1 7.3 5.5 0 1.7-.8 4.7-1.1 5.7-.9 2.6-2.7 5.5-9.4 5.5h-11.2l-1.1 5.9h12.7c4.5 0 6.4-.5 8.4-1.5 4.5-2.1 7.1-6.5 8.2-12.2 1.7-8.7-.3-14.8-11.5-14.8" class="st5"/>
      <path d="M1550.1 486.5c-3.3 0-3.8 2.2-4.1 3.5-.4 1.7-.5 2.4-.5 2.4h13c3.3 0 3.8-2.2 4.1-3.5.4-1.7.5-2.4.5-2.4h-13z" class="st5"/>
    </g>
    <g>
      <path d="M1665.4 613h-12.7l-1.1 5.9h11.5c5.7 0 7.3 2.1 7.3 5.5 0 1.7-.8 4.7-1.1 5.7-.9 2.6-2.7 5.5-9.4 5.5h-11.2l-1.1 5.9h12.7c4.5 0 6.4-.5 8.4-1.5 4.5-2.1 7.1-6.5 8.2-12.2 1.7-8.7-.3-14.8-11.5-14.8" class="st5"/>
      <path d="M1647.2 624.3c-3.3 0-3.8 2.2-4.1 3.5-.4 1.7-.5 2.4-.5 2.4h13c3.3 0 3.8-2.2 4.1-3.5.4-1.7.5-2.4.5-2.4h-13z" class="st5"/>
    </g>
    <g>
      <path d="M1735.7 818.8H1723l-1.1 5.9h11.5c5.7 0 7.3 2.1 7.3 5.5 0 1.7-.8 4.7-1.1 5.7-.9 2.6-2.7 5.5-9.4 5.5H1719l-1.1 5.9h12.7c4.5 0 6.4-.5 8.4-1.5 4.5-2.1 7.1-6.5 8.2-12.2 1.7-8.7-.3-14.8-11.5-14.8" class="st5"/>
      <path d="M1717.5 830.1c-3.3 0-3.8 2.2-4.1 3.5-.4 1.7-.5 2.4-.5 2.4h13c3.3 0 3.8-2.2 4.1-3.5.4-1.7.5-2.4.5-2.4h-13z" class="st5"/>
    </g>
    <g>
      <path d="M2160.8 968.4h-12.7l-1.1 5.9h11.5c5.7 0 7.3 2.1 7.3 5.5 0 1.7-.8 4.7-1.1 5.7-.9 2.6-2.7 5.5-9.4 5.5h-11.2l-1.1 5.9h12.7c4.5 0 6.4-.5 8.4-1.5 4.5-2.1 7.1-6.5 8.2-12.2 1.7-8.7-.3-14.8-11.5-14.8" class="st5"/>
      <path d="M2142.6 979.6c-3.3 0-3.8 2.2-4.1 3.5-.4 1.7-.5 2.4-.5 2.4h13c3.3 0 3.8-2.2 4.1-3.5.4-1.7.5-2.4.5-2.4h-13z" class="st5"/>
    </g>
    <g>
      <path d="M2251.6 1139.1h-12.7l-1.1 5.9h11.5c5.7 0 7.3 2.1 7.3 5.5 0 1.7-.8 4.7-1.1 5.7-.9 2.6-2.7 5.5-9.4 5.5h-11.2l-1.1 5.9h12.7c4.5 0 6.4-.5 8.4-1.5 4.5-2.1 7.1-6.5 8.2-12.2 1.7-8.7-.3-14.8-11.5-14.8" class="st5"/>
      <path d="M2233.4 1150.3c-3.3 0-3.8 2.2-4.1 3.5-.4 1.7-.5 2.4-.5 2.4h13c3.3 0 3.8-2.2 4.1-3.5.4-1.7.5-2.4.5-2.4h-13z" class="st5"/>
    </g>
    <g>
      <path d="M2525.8 1259.8H2513l-1.1 5.9h11.5c5.7 0 7.3 2.1 7.3 5.5 0 1.7-.8 4.7-1.1 5.7-.9 2.6-2.7 5.5-9.4 5.5H2509l-1.1 5.9h12.7c4.5 0 6.4-.5 8.4-1.5 4.5-2.1 7.1-6.5 8.2-12.2 1.7-8.7-.2-14.8-11.4-14.8" class="st5"/>
      <path d="M2507.5 1271c-3.3 0-3.8 2.2-4.1 3.5-.4 1.7-.5 2.4-.5 2.4h13c3.3 0 3.8-2.2 4.1-3.5.4-1.7.5-2.4.5-2.4h-13z" class="st5"/>
    </g>
    <g>
      <path d="M2598.7 867.7H2586l-1.1 5.9h11.5c5.7 0 7.3 2.1 7.3 5.5 0 1.7-.8 4.7-1.1 5.7-.9 2.6-2.7 5.5-9.4 5.5H2582l-1.1 5.9h12.7c4.5 0 6.4-.5 8.4-1.5 4.5-2.1 7.1-6.5 8.2-12.2 1.7-8.7-.3-14.8-11.5-14.8" class="st5"/>
      <path d="M2580.5 879c-3.3 0-3.8 2.2-4.1 3.5-.4 1.7-.5 2.4-.5 2.4h13c3.3 0 3.8-2.2 4.1-3.5.4-1.7.5-2.4.5-2.4h-13z" class="st5"/>
    </g>
    <g>
      <path d="M2756 611.8h-12.7l-1.1 5.9h11.5c5.7 0 7.3 2.1 7.3 5.5 0 1.7-.8 4.7-1.1 5.7-.9 2.6-2.7 5.5-9.4 5.5h-11.2l-1.1 5.9h12.7c4.5 0 6.4-.5 8.4-1.5 4.5-2.1 7.1-6.5 8.2-12.2 1.7-8.7-.3-14.8-11.5-14.8" class="st5"/>
      <path d="M2737.8 623c-3.3 0-3.8 2.2-4.1 3.5-.4 1.7-.5 2.4-.5 2.4h13c3.3 0 3.8-2.2 4.1-3.5.4-1.7.5-2.4.5-2.4h-13z" class="st5"/>
    </g>
    <g>
      <path d="M2848.3 456.1h-12.7l-1.1 5.9h11.5c5.7 0 7.3 2.1 7.3 5.5 0 1.7-.8 4.7-1.1 5.7-.9 2.6-2.7 5.5-9.4 5.5h-11.2l-1.1 5.9h12.7c4.5 0 6.4-.5 8.4-1.5 4.5-2.1 7.1-6.5 8.2-12.2 1.7-8.7-.3-14.8-11.5-14.8" class="st5"/>
      <path d="M2830.1 467.4c-3.3 0-3.8 2.2-4.1 3.5-.4 1.7-.5 2.4-.5 2.4h13c3.3 0 3.8-2.2 4.1-3.5.4-1.7.5-2.4.5-2.4h-13z" class="st5"/>
    </g>
    <g>
      <path d="M2394.3 524.2h-12.7l-1.1 5.9h11.5c5.7 0 7.3 2.1 7.3 5.5 0 1.7-.8 4.7-1.1 5.7-.9 2.6-2.7 5.5-9.4 5.5h-11.2l-1.1 5.9h12.7c4.5 0 6.4-.5 8.4-1.5 4.5-2.1 7.1-6.5 8.2-12.2 1.7-8.7-.3-14.8-11.5-14.8" class="st5"/>
      <path d="M2376.1 535.4c-3.3 0-3.8 2.2-4.1 3.5-.4 1.7-.5 2.4-.5 2.4h13c3.3 0 3.8-2.2 4.1-3.5.4-1.7.5-2.4.5-2.4h-13z" class="st5"/>
    </g>
    <g>
      <path d="M2783 1236.6h-12.7l-1.1 5.9h11.5c5.7 0 7.3 2.1 7.3 5.5 0 1.7-.8 4.7-1.1 5.7-.9 2.6-2.7 5.5-9.4 5.5h-11.2l-1.1 5.9h12.7c4.5 0 6.4-.5 8.4-1.5 4.5-2.1 7.1-6.5 8.2-12.2 1.6-8.7-.3-14.8-11.5-14.8" class="st5"/>
      <path d="M2764.7 1247.8c-3.3 0-3.8 2.2-4.1 3.5-.4 1.7-.5 2.4-.5 2.4h13c3.3 0 3.8-2.2 4.1-3.5.4-1.7.5-2.4.5-2.4h-13z" class="st5"/>
    </g>
    <g>
      <path d="M2526.8 1524.7H2514l-1.1 5.9h11.5c5.7 0 7.3 2.1 7.3 5.5 0 1.7-.8 4.7-1.1 5.7-.9 2.6-2.7 5.5-9.4 5.5H2510l-1.1 5.9h12.7c4.5 0 6.4-.5 8.4-1.5 4.5-2.1 7.1-6.5 8.2-12.2 1.8-8.7-.2-14.8-11.4-14.8" class="st5"/>
      <path d="M2508.5 1535.9c-3.3 0-3.8 2.2-4.1 3.5-.4 1.7-.5 2.4-.5 2.4h13c3.3 0 3.8-2.2 4.1-3.5.4-1.7.5-2.4.5-2.4h-13z" class="st5"/>
    </g>
    <g>
      <path d="M1587.3 1339.6h-12.7l-1.1 5.9h11.5c5.7 0 7.3 2.1 7.3 5.5 0 1.7-.8 4.7-1.1 5.7-.9 2.6-2.7 5.5-9.4 5.5h-11.2l-1.1 5.9h12.7c4.5 0 6.4-.5 8.4-1.5 4.5-2.1 7.1-6.5 8.2-12.2 1.6-8.7-.4-14.8-11.5-14.8" class="st5"/>
      <path d="M1569 1350.8c-3.3 0-3.8 2.2-4.1 3.5-.4 1.7-.5 2.4-.5 2.4h13c3.3 0 3.8-2.2 4.1-3.5.4-1.7.5-2.4.5-2.4h-13z" class="st5"/>
    </g>
    <g>
      <path d="M1715.8 1517.2H1703l-1.1 5.9h11.5c5.7 0 7.3 2.1 7.3 5.5 0 1.7-.8 4.7-1.1 5.7-.9 2.6-2.7 5.5-9.4 5.5H1699l-1.1 5.9h12.7c4.5 0 6.4-.5 8.4-1.5 4.5-2.1 7.1-6.5 8.2-12.2 1.7-8.7-.2-14.8-11.4-14.8" class="st5"/>
      <path d="M1697.5 1528.5c-3.3 0-3.8 2.2-4.1 3.5-.4 1.7-.5 2.4-.5 2.4h13c3.3 0 3.8-2.2 4.1-3.5.4-1.7.5-2.4.5-2.4h-13z" class="st5"/>
    </g>
    <g>
      <path d="M778.9 1319.2h-12.7l-1.1 5.9h11.5c5.7 0 7.3 2.1 7.3 5.5 0 1.7-.8 4.7-1.1 5.7-.9 2.6-2.7 5.5-9.4 5.5h-11.2l-1.1 5.9h12.7c4.5 0 6.4-.5 8.4-1.5 4.5-2.1 7.1-6.5 8.2-12.2 1.7-8.7-.3-14.8-11.5-14.8" class="st5"/>
      <path d="M760.7 1330.4c-3.3 0-3.8 2.2-4.1 3.5-.4 1.7-.5 2.4-.5 2.4h13c3.3 0 3.8-2.2 4.1-3.5.4-1.7.5-2.4.5-2.4h-13z" class="st5"/>
    </g>
    <g>
      <path d="M1027.7 688.6H1015l-1.1 5.9h11.5c5.7 0 7.3 2.1 7.3 5.5 0 1.7-.8 4.7-1.1 5.7-.9 2.6-2.7 5.5-9.4 5.5H1011l-1.1 5.9h12.7c4.5 0 6.4-.5 8.4-1.5 4.5-2.1 7.1-6.5 8.2-12.2 1.7-8.7-.3-14.8-11.5-14.8" class="st5"/>
      <path d="M1009.5 699.8c-3.3 0-3.8 2.2-4.1 3.5-.4 1.7-.5 2.4-.5 2.4h13c3.3 0 3.8-2.2 4.1-3.5.4-1.7.5-2.4.5-2.4h-13z" class="st5"/>
    </g>
    <g>
      <path d="M844.2 559.1h-12.7l-1.1 5.9h11.5c5.7 0 7.3 2.1 7.3 5.5 0 1.7-.8 4.7-1.1 5.7-.9 2.6-2.7 5.5-9.4 5.5h-11.2l-1.1 5.9h12.7c4.5 0 6.4-.5 8.4-1.5 4.5-2.1 7.1-6.5 8.2-12.2 1.6-8.7-.3-14.8-11.5-14.8" class="st5"/>
      <path d="M825.9 570.3c-3.3 0-3.8 2.2-4.1 3.5-.4 1.7-.5 2.4-.5 2.4h13c3.3 0 3.8-2.2 4.1-3.5.4-1.7.5-2.4.5-2.4h-13z" class="st5"/>
    </g>
  </g>
</svg>
