<svg width="132" height="28" viewBox="0 0 132 28" fill="none" xmlns="http://www.w3.org/2000/svg">
<path d="M0.904 21V1.4H13.7V4.284H4.488V9.66H12.86V12.46H4.488V18.116H13.7V21H0.904ZM17.0075 21V7.112H20.1715L20.4515 9.464C20.8808 8.64267 21.4968 7.98933 22.2995 7.504C23.1208 7.01867 24.0822 6.776 25.1835 6.776C26.9008 6.776 28.2355 7.31733 29.1875 8.4C30.1395 9.48267 30.6155 11.0693 30.6155 13.16V21H27.0315V13.496C27.0315 12.3013 26.7888 11.3867 26.3035 10.752C25.8182 10.1173 25.0622 9.8 24.0355 9.8C23.0275 9.8 22.1968 10.1547 21.5435 10.864C20.9088 11.5733 20.5915 12.5627 20.5915 13.832V21H17.0075ZM40.2307 21C38.7747 21 37.608 20.6453 36.7307 19.936C35.8533 19.2267 35.4147 17.9667 35.4147 16.156V10.108H33.0347V7.112H35.4147L35.8347 3.388H38.9987V7.112H42.7507V10.108H38.9987V16.184C38.9987 16.856 39.1387 17.3227 39.4187 17.584C39.7173 17.8267 40.2213 17.948 40.9307 17.948H42.6667V21H40.2307ZM45.8278 21V7.112H49.0198L49.3558 9.716C49.8598 8.82 50.5411 8.11067 51.3998 7.588C52.2771 7.04667 53.3038 6.776 54.4798 6.776V10.556H53.4718C52.6878 10.556 51.9878 10.6773 51.3718 10.92C50.7558 11.1627 50.2705 11.5827 49.9158 12.18C49.5798 12.7773 49.4118 13.608 49.4118 14.672V21H45.8278ZM63.4313 21.336C62.0313 21.336 60.7899 21.0373 59.7073 20.44C58.6246 19.8427 57.7753 19.0027 57.1593 17.92C56.5433 16.8373 56.2353 15.5867 56.2353 14.168C56.2353 12.7307 56.5339 11.452 57.1313 10.332C57.7473 9.212 58.5873 8.344 59.6513 7.728C60.7339 7.09333 62.0033 6.776 63.4593 6.776C64.8219 6.776 66.0259 7.07467 67.0713 7.672C68.1166 8.26933 68.9286 9.09067 69.5073 10.136C70.1046 11.1627 70.4033 12.3107 70.4033 13.58C70.4033 13.7853 70.3939 14 70.3753 14.224C70.3753 14.448 70.3659 14.6813 70.3473 14.924H59.7913C59.8659 16.0067 60.2393 16.856 60.9113 17.472C61.6019 18.088 62.4326 18.396 63.4033 18.396C64.1313 18.396 64.7379 18.2373 65.2233 17.92C65.7273 17.584 66.1006 17.1547 66.3433 16.632H69.9833C69.7219 17.5093 69.2833 18.312 68.6673 19.04C68.0699 19.7493 67.3233 20.3093 66.4273 20.72C65.5499 21.1307 64.5513 21.336 63.4313 21.336ZM63.4593 9.688C62.5819 9.688 61.8073 9.94 61.1353 10.444C60.4633 10.9293 60.0339 11.676 59.8473 12.684H66.7633C66.7073 11.7693 66.3713 11.0413 65.7553 10.5C65.1393 9.95867 64.3739 9.688 63.4593 9.688Z" fill="white"/>
<path d="M73.4177 27.16V7.112H76.6097L77.0017 9.1C77.4497 8.484 78.0377 7.94267 78.7657 7.476C79.5123 7.00933 80.4737 6.776 81.6497 6.776C82.9563 6.776 84.123 7.09333 85.1497 7.728C86.1763 8.36267 86.9883 9.23067 87.5857 10.332C88.183 11.4333 88.4817 12.684 88.4817 14.084C88.4817 15.484 88.183 16.7347 87.5857 17.836C86.9883 18.9187 86.1763 19.7773 85.1497 20.412C84.123 21.028 82.9563 21.336 81.6497 21.336C80.6043 21.336 79.6897 21.14 78.9057 20.748C78.1217 20.356 77.487 19.8053 77.0017 19.096V27.16H73.4177ZM80.8937 18.2C82.0323 18.2 82.975 17.8173 83.7217 17.052C84.4683 16.2867 84.8417 15.2973 84.8417 14.084C84.8417 12.8707 84.4683 11.872 83.7217 11.088C82.975 10.304 82.0323 9.912 80.8937 9.912C79.7363 9.912 78.7843 10.304 78.0377 11.088C77.3097 11.8533 76.9457 12.8427 76.9457 14.056C76.9457 15.2693 77.3097 16.268 78.0377 17.052C78.7843 17.8173 79.7363 18.2 80.8937 18.2ZM98.3473 21.336C97.0033 21.336 95.7899 21.028 94.7073 20.412C93.6433 19.796 92.7939 18.9467 92.1593 17.864C91.5433 16.7627 91.2353 15.4933 91.2353 14.056C91.2353 12.6187 91.5526 11.3587 92.1873 10.276C92.8219 9.17467 93.6713 8.316 94.7353 7.7C95.8179 7.084 97.0313 6.776 98.3753 6.776C99.7006 6.776 100.895 7.084 101.959 7.7C103.042 8.316 103.891 9.17467 104.507 10.276C105.142 11.3587 105.459 12.6187 105.459 14.056C105.459 15.4933 105.142 16.7627 104.507 17.864C103.891 18.9467 103.042 19.796 101.959 20.412C100.877 21.028 99.6726 21.336 98.3473 21.336ZM98.3473 18.228C99.2806 18.228 100.093 17.8827 100.783 17.192C101.474 16.4827 101.819 15.4373 101.819 14.056C101.819 12.6747 101.474 11.6387 100.783 10.948C100.093 10.2387 99.2899 9.884 98.3753 9.884C97.4233 9.884 96.6019 10.2387 95.9113 10.948C95.2393 11.6387 94.9033 12.6747 94.9033 14.056C94.9033 15.4373 95.2393 16.4827 95.9113 17.192C96.6019 17.8827 97.4139 18.228 98.3473 18.228ZM114.305 21C112.849 21 111.682 20.6453 110.805 19.936C109.928 19.2267 109.489 17.9667 109.489 16.156V10.108H107.109V7.112H109.489L109.909 3.388H113.073V7.112H116.825V10.108H113.073V16.184C113.073 16.856 113.213 17.3227 113.493 17.584C113.792 17.8267 114.296 17.948 115.005 17.948H116.741V21H114.305ZM121.834 4.956C121.181 4.956 120.639 4.76 120.21 4.368C119.799 3.976 119.594 3.48133 119.594 2.884C119.594 2.28667 119.799 1.80133 120.21 1.428C120.639 1.036 121.181 0.839999 121.834 0.839999C122.487 0.839999 123.019 1.036 123.43 1.428C123.859 1.80133 124.074 2.28667 124.074 2.884C124.074 3.48133 123.859 3.976 123.43 4.368C123.019 4.76 122.487 4.956 121.834 4.956ZM120.042 21V7.112H123.626V21H120.042ZM128.907 21.196C128.254 21.196 127.712 20.9907 127.283 20.58C126.872 20.1693 126.667 19.6747 126.667 19.096C126.667 18.4987 126.872 17.9947 127.283 17.584C127.712 17.1733 128.254 16.968 128.907 16.968C129.56 16.968 130.092 17.1733 130.503 17.584C130.932 17.9947 131.147 18.4987 131.147 19.096C131.147 19.6747 130.932 20.1693 130.503 20.58C130.092 20.9907 129.56 21.196 128.907 21.196Z" fill="#FE7E41"/>
</svg>
